G04 #@! TF.GenerationSoftware,KiCad,Pcbnew,5.1.5*
G04 #@! TF.CreationDate,2019-12-19T21:21:47+00:00*
G04 #@! TF.ProjectId,ESP32ControllerCircuit,45535033-3243-46f6-9e74-726f6c6c6572,rev?*
G04 #@! TF.SameCoordinates,Original*
G04 #@! TF.FileFunction,Copper,L2,Bot*
G04 #@! TF.FilePolarity,Positive*
%FSLAX46Y46*%
G04 Gerber Fmt 4.6, Leading zero omitted, Abs format (unit mm)*
G04 Created by KiCad (PCBNEW 5.1.5) date 2019-12-19 21:21:47*
%MOMM*%
%LPD*%
G04 APERTURE LIST*
%ADD10C,0.100000*%
%ADD11O,1.200000X1.750000*%
%ADD12C,1.700000*%
%ADD13R,1.600000X1.600000*%
%ADD14C,1.600000*%
%ADD15R,1.700000X1.700000*%
%ADD16O,1.700000X1.700000*%
%ADD17O,1.750000X1.200000*%
%ADD18C,0.800000*%
%ADD19C,0.500000*%
%ADD20C,0.250000*%
%ADD21C,1.000000*%
%ADD22C,0.254000*%
G04 APERTURE END LIST*
G04 #@! TA.AperFunction,ComponentPad*
D10*
G36*
X84374505Y-125626204D02*
G01*
X84398773Y-125629804D01*
X84422572Y-125635765D01*
X84445671Y-125644030D01*
X84467850Y-125654520D01*
X84488893Y-125667132D01*
X84508599Y-125681747D01*
X84526777Y-125698223D01*
X84543253Y-125716401D01*
X84557868Y-125736107D01*
X84570480Y-125757150D01*
X84580970Y-125779329D01*
X84589235Y-125802428D01*
X84595196Y-125826227D01*
X84598796Y-125850495D01*
X84600000Y-125874999D01*
X84600000Y-127125001D01*
X84598796Y-127149505D01*
X84595196Y-127173773D01*
X84589235Y-127197572D01*
X84580970Y-127220671D01*
X84570480Y-127242850D01*
X84557868Y-127263893D01*
X84543253Y-127283599D01*
X84526777Y-127301777D01*
X84508599Y-127318253D01*
X84488893Y-127332868D01*
X84467850Y-127345480D01*
X84445671Y-127355970D01*
X84422572Y-127364235D01*
X84398773Y-127370196D01*
X84374505Y-127373796D01*
X84350001Y-127375000D01*
X83649999Y-127375000D01*
X83625495Y-127373796D01*
X83601227Y-127370196D01*
X83577428Y-127364235D01*
X83554329Y-127355970D01*
X83532150Y-127345480D01*
X83511107Y-127332868D01*
X83491401Y-127318253D01*
X83473223Y-127301777D01*
X83456747Y-127283599D01*
X83442132Y-127263893D01*
X83429520Y-127242850D01*
X83419030Y-127220671D01*
X83410765Y-127197572D01*
X83404804Y-127173773D01*
X83401204Y-127149505D01*
X83400000Y-127125001D01*
X83400000Y-125874999D01*
X83401204Y-125850495D01*
X83404804Y-125826227D01*
X83410765Y-125802428D01*
X83419030Y-125779329D01*
X83429520Y-125757150D01*
X83442132Y-125736107D01*
X83456747Y-125716401D01*
X83473223Y-125698223D01*
X83491401Y-125681747D01*
X83511107Y-125667132D01*
X83532150Y-125654520D01*
X83554329Y-125644030D01*
X83577428Y-125635765D01*
X83601227Y-125629804D01*
X83625495Y-125626204D01*
X83649999Y-125625000D01*
X84350001Y-125625000D01*
X84374505Y-125626204D01*
G37*
G04 #@! TD.AperFunction*
D11*
X86000000Y-126500000D03*
X88000000Y-126500000D03*
X90000000Y-126500000D03*
D12*
X114920000Y-110430000D03*
X112380000Y-110430000D03*
X109840000Y-110430000D03*
X107300000Y-110430000D03*
X104760000Y-110430000D03*
X102220000Y-110430000D03*
X99680000Y-110430000D03*
X97140000Y-110430000D03*
X94600000Y-110430000D03*
X92060000Y-110430000D03*
X89520000Y-110430000D03*
X86980000Y-110430000D03*
X84440000Y-110430000D03*
X114920000Y-87570000D03*
X112380000Y-87570000D03*
X109840000Y-87570000D03*
X107300000Y-87570000D03*
X104760000Y-87570000D03*
X102220000Y-87570000D03*
X99680000Y-87570000D03*
X97140000Y-87570000D03*
X94600000Y-87570000D03*
X92060000Y-87570000D03*
X89520000Y-87570000D03*
X86980000Y-87570000D03*
X84440000Y-87570000D03*
D13*
X97000000Y-127500000D03*
D14*
X99500000Y-127500000D03*
D11*
X82000000Y-82000000D03*
X84000000Y-82000000D03*
X86000000Y-82000000D03*
G04 #@! TA.AperFunction,ComponentPad*
D10*
G36*
X88374505Y-81126204D02*
G01*
X88398773Y-81129804D01*
X88422572Y-81135765D01*
X88445671Y-81144030D01*
X88467850Y-81154520D01*
X88488893Y-81167132D01*
X88508599Y-81181747D01*
X88526777Y-81198223D01*
X88543253Y-81216401D01*
X88557868Y-81236107D01*
X88570480Y-81257150D01*
X88580970Y-81279329D01*
X88589235Y-81302428D01*
X88595196Y-81326227D01*
X88598796Y-81350495D01*
X88600000Y-81374999D01*
X88600000Y-82625001D01*
X88598796Y-82649505D01*
X88595196Y-82673773D01*
X88589235Y-82697572D01*
X88580970Y-82720671D01*
X88570480Y-82742850D01*
X88557868Y-82763893D01*
X88543253Y-82783599D01*
X88526777Y-82801777D01*
X88508599Y-82818253D01*
X88488893Y-82832868D01*
X88467850Y-82845480D01*
X88445671Y-82855970D01*
X88422572Y-82864235D01*
X88398773Y-82870196D01*
X88374505Y-82873796D01*
X88350001Y-82875000D01*
X87649999Y-82875000D01*
X87625495Y-82873796D01*
X87601227Y-82870196D01*
X87577428Y-82864235D01*
X87554329Y-82855970D01*
X87532150Y-82845480D01*
X87511107Y-82832868D01*
X87491401Y-82818253D01*
X87473223Y-82801777D01*
X87456747Y-82783599D01*
X87442132Y-82763893D01*
X87429520Y-82742850D01*
X87419030Y-82720671D01*
X87410765Y-82697572D01*
X87404804Y-82673773D01*
X87401204Y-82649505D01*
X87400000Y-82625001D01*
X87400000Y-81374999D01*
X87401204Y-81350495D01*
X87404804Y-81326227D01*
X87410765Y-81302428D01*
X87419030Y-81279329D01*
X87429520Y-81257150D01*
X87442132Y-81236107D01*
X87456747Y-81216401D01*
X87473223Y-81198223D01*
X87491401Y-81181747D01*
X87511107Y-81167132D01*
X87532150Y-81154520D01*
X87554329Y-81144030D01*
X87577428Y-81135765D01*
X87601227Y-81129804D01*
X87625495Y-81126204D01*
X87649999Y-81125000D01*
X88350001Y-81125000D01*
X88374505Y-81126204D01*
G37*
G04 #@! TD.AperFunction*
G04 #@! TA.AperFunction,ComponentPad*
G36*
X103374505Y-81126204D02*
G01*
X103398773Y-81129804D01*
X103422572Y-81135765D01*
X103445671Y-81144030D01*
X103467850Y-81154520D01*
X103488893Y-81167132D01*
X103508599Y-81181747D01*
X103526777Y-81198223D01*
X103543253Y-81216401D01*
X103557868Y-81236107D01*
X103570480Y-81257150D01*
X103580970Y-81279329D01*
X103589235Y-81302428D01*
X103595196Y-81326227D01*
X103598796Y-81350495D01*
X103600000Y-81374999D01*
X103600000Y-82625001D01*
X103598796Y-82649505D01*
X103595196Y-82673773D01*
X103589235Y-82697572D01*
X103580970Y-82720671D01*
X103570480Y-82742850D01*
X103557868Y-82763893D01*
X103543253Y-82783599D01*
X103526777Y-82801777D01*
X103508599Y-82818253D01*
X103488893Y-82832868D01*
X103467850Y-82845480D01*
X103445671Y-82855970D01*
X103422572Y-82864235D01*
X103398773Y-82870196D01*
X103374505Y-82873796D01*
X103350001Y-82875000D01*
X102649999Y-82875000D01*
X102625495Y-82873796D01*
X102601227Y-82870196D01*
X102577428Y-82864235D01*
X102554329Y-82855970D01*
X102532150Y-82845480D01*
X102511107Y-82832868D01*
X102491401Y-82818253D01*
X102473223Y-82801777D01*
X102456747Y-82783599D01*
X102442132Y-82763893D01*
X102429520Y-82742850D01*
X102419030Y-82720671D01*
X102410765Y-82697572D01*
X102404804Y-82673773D01*
X102401204Y-82649505D01*
X102400000Y-82625001D01*
X102400000Y-81374999D01*
X102401204Y-81350495D01*
X102404804Y-81326227D01*
X102410765Y-81302428D01*
X102419030Y-81279329D01*
X102429520Y-81257150D01*
X102442132Y-81236107D01*
X102456747Y-81216401D01*
X102473223Y-81198223D01*
X102491401Y-81181747D01*
X102511107Y-81167132D01*
X102532150Y-81154520D01*
X102554329Y-81144030D01*
X102577428Y-81135765D01*
X102601227Y-81129804D01*
X102625495Y-81126204D01*
X102649999Y-81125000D01*
X103350001Y-81125000D01*
X103374505Y-81126204D01*
G37*
G04 #@! TD.AperFunction*
D11*
X101000000Y-82000000D03*
X99000000Y-82000000D03*
X97000000Y-82000000D03*
X112000000Y-82000000D03*
X114000000Y-82000000D03*
G04 #@! TA.AperFunction,ComponentPad*
D10*
G36*
X116374505Y-81126204D02*
G01*
X116398773Y-81129804D01*
X116422572Y-81135765D01*
X116445671Y-81144030D01*
X116467850Y-81154520D01*
X116488893Y-81167132D01*
X116508599Y-81181747D01*
X116526777Y-81198223D01*
X116543253Y-81216401D01*
X116557868Y-81236107D01*
X116570480Y-81257150D01*
X116580970Y-81279329D01*
X116589235Y-81302428D01*
X116595196Y-81326227D01*
X116598796Y-81350495D01*
X116600000Y-81374999D01*
X116600000Y-82625001D01*
X116598796Y-82649505D01*
X116595196Y-82673773D01*
X116589235Y-82697572D01*
X116580970Y-82720671D01*
X116570480Y-82742850D01*
X116557868Y-82763893D01*
X116543253Y-82783599D01*
X116526777Y-82801777D01*
X116508599Y-82818253D01*
X116488893Y-82832868D01*
X116467850Y-82845480D01*
X116445671Y-82855970D01*
X116422572Y-82864235D01*
X116398773Y-82870196D01*
X116374505Y-82873796D01*
X116350001Y-82875000D01*
X115649999Y-82875000D01*
X115625495Y-82873796D01*
X115601227Y-82870196D01*
X115577428Y-82864235D01*
X115554329Y-82855970D01*
X115532150Y-82845480D01*
X115511107Y-82832868D01*
X115491401Y-82818253D01*
X115473223Y-82801777D01*
X115456747Y-82783599D01*
X115442132Y-82763893D01*
X115429520Y-82742850D01*
X115419030Y-82720671D01*
X115410765Y-82697572D01*
X115404804Y-82673773D01*
X115401204Y-82649505D01*
X115400000Y-82625001D01*
X115400000Y-81374999D01*
X115401204Y-81350495D01*
X115404804Y-81326227D01*
X115410765Y-81302428D01*
X115419030Y-81279329D01*
X115429520Y-81257150D01*
X115442132Y-81236107D01*
X115456747Y-81216401D01*
X115473223Y-81198223D01*
X115491401Y-81181747D01*
X115511107Y-81167132D01*
X115532150Y-81154520D01*
X115554329Y-81144030D01*
X115577428Y-81135765D01*
X115601227Y-81129804D01*
X115625495Y-81126204D01*
X115649999Y-81125000D01*
X116350001Y-81125000D01*
X116374505Y-81126204D01*
G37*
G04 #@! TD.AperFunction*
G04 #@! TA.AperFunction,ComponentPad*
G36*
X127874505Y-81126204D02*
G01*
X127898773Y-81129804D01*
X127922572Y-81135765D01*
X127945671Y-81144030D01*
X127967850Y-81154520D01*
X127988893Y-81167132D01*
X128008599Y-81181747D01*
X128026777Y-81198223D01*
X128043253Y-81216401D01*
X128057868Y-81236107D01*
X128070480Y-81257150D01*
X128080970Y-81279329D01*
X128089235Y-81302428D01*
X128095196Y-81326227D01*
X128098796Y-81350495D01*
X128100000Y-81374999D01*
X128100000Y-82625001D01*
X128098796Y-82649505D01*
X128095196Y-82673773D01*
X128089235Y-82697572D01*
X128080970Y-82720671D01*
X128070480Y-82742850D01*
X128057868Y-82763893D01*
X128043253Y-82783599D01*
X128026777Y-82801777D01*
X128008599Y-82818253D01*
X127988893Y-82832868D01*
X127967850Y-82845480D01*
X127945671Y-82855970D01*
X127922572Y-82864235D01*
X127898773Y-82870196D01*
X127874505Y-82873796D01*
X127850001Y-82875000D01*
X127149999Y-82875000D01*
X127125495Y-82873796D01*
X127101227Y-82870196D01*
X127077428Y-82864235D01*
X127054329Y-82855970D01*
X127032150Y-82845480D01*
X127011107Y-82832868D01*
X126991401Y-82818253D01*
X126973223Y-82801777D01*
X126956747Y-82783599D01*
X126942132Y-82763893D01*
X126929520Y-82742850D01*
X126919030Y-82720671D01*
X126910765Y-82697572D01*
X126904804Y-82673773D01*
X126901204Y-82649505D01*
X126900000Y-82625001D01*
X126900000Y-81374999D01*
X126901204Y-81350495D01*
X126904804Y-81326227D01*
X126910765Y-81302428D01*
X126919030Y-81279329D01*
X126929520Y-81257150D01*
X126942132Y-81236107D01*
X126956747Y-81216401D01*
X126973223Y-81198223D01*
X126991401Y-81181747D01*
X127011107Y-81167132D01*
X127032150Y-81154520D01*
X127054329Y-81144030D01*
X127077428Y-81135765D01*
X127101227Y-81129804D01*
X127125495Y-81126204D01*
X127149999Y-81125000D01*
X127850001Y-81125000D01*
X127874505Y-81126204D01*
G37*
G04 #@! TD.AperFunction*
D11*
X125500000Y-82000000D03*
X123500000Y-82000000D03*
D15*
X105000000Y-126500000D03*
D16*
X105000000Y-129040000D03*
D17*
X131790000Y-119450000D03*
G04 #@! TA.AperFunction,ComponentPad*
D10*
G36*
X132439505Y-120851204D02*
G01*
X132463773Y-120854804D01*
X132487572Y-120860765D01*
X132510671Y-120869030D01*
X132532850Y-120879520D01*
X132553893Y-120892132D01*
X132573599Y-120906747D01*
X132591777Y-120923223D01*
X132608253Y-120941401D01*
X132622868Y-120961107D01*
X132635480Y-120982150D01*
X132645970Y-121004329D01*
X132654235Y-121027428D01*
X132660196Y-121051227D01*
X132663796Y-121075495D01*
X132665000Y-121099999D01*
X132665000Y-121800001D01*
X132663796Y-121824505D01*
X132660196Y-121848773D01*
X132654235Y-121872572D01*
X132645970Y-121895671D01*
X132635480Y-121917850D01*
X132622868Y-121938893D01*
X132608253Y-121958599D01*
X132591777Y-121976777D01*
X132573599Y-121993253D01*
X132553893Y-122007868D01*
X132532850Y-122020480D01*
X132510671Y-122030970D01*
X132487572Y-122039235D01*
X132463773Y-122045196D01*
X132439505Y-122048796D01*
X132415001Y-122050000D01*
X131164999Y-122050000D01*
X131140495Y-122048796D01*
X131116227Y-122045196D01*
X131092428Y-122039235D01*
X131069329Y-122030970D01*
X131047150Y-122020480D01*
X131026107Y-122007868D01*
X131006401Y-121993253D01*
X130988223Y-121976777D01*
X130971747Y-121958599D01*
X130957132Y-121938893D01*
X130944520Y-121917850D01*
X130934030Y-121895671D01*
X130925765Y-121872572D01*
X130919804Y-121848773D01*
X130916204Y-121824505D01*
X130915000Y-121800001D01*
X130915000Y-121099999D01*
X130916204Y-121075495D01*
X130919804Y-121051227D01*
X130925765Y-121027428D01*
X130934030Y-121004329D01*
X130944520Y-120982150D01*
X130957132Y-120961107D01*
X130971747Y-120941401D01*
X130988223Y-120923223D01*
X131006401Y-120906747D01*
X131026107Y-120892132D01*
X131047150Y-120879520D01*
X131069329Y-120869030D01*
X131092428Y-120860765D01*
X131116227Y-120854804D01*
X131140495Y-120851204D01*
X131164999Y-120850000D01*
X132415001Y-120850000D01*
X132439505Y-120851204D01*
G37*
G04 #@! TD.AperFunction*
G04 #@! TA.AperFunction,ComponentPad*
G36*
X132399505Y-112791204D02*
G01*
X132423773Y-112794804D01*
X132447572Y-112800765D01*
X132470671Y-112809030D01*
X132492850Y-112819520D01*
X132513893Y-112832132D01*
X132533599Y-112846747D01*
X132551777Y-112863223D01*
X132568253Y-112881401D01*
X132582868Y-112901107D01*
X132595480Y-112922150D01*
X132605970Y-112944329D01*
X132614235Y-112967428D01*
X132620196Y-112991227D01*
X132623796Y-113015495D01*
X132625000Y-113039999D01*
X132625000Y-113740001D01*
X132623796Y-113764505D01*
X132620196Y-113788773D01*
X132614235Y-113812572D01*
X132605970Y-113835671D01*
X132595480Y-113857850D01*
X132582868Y-113878893D01*
X132568253Y-113898599D01*
X132551777Y-113916777D01*
X132533599Y-113933253D01*
X132513893Y-113947868D01*
X132492850Y-113960480D01*
X132470671Y-113970970D01*
X132447572Y-113979235D01*
X132423773Y-113985196D01*
X132399505Y-113988796D01*
X132375001Y-113990000D01*
X131124999Y-113990000D01*
X131100495Y-113988796D01*
X131076227Y-113985196D01*
X131052428Y-113979235D01*
X131029329Y-113970970D01*
X131007150Y-113960480D01*
X130986107Y-113947868D01*
X130966401Y-113933253D01*
X130948223Y-113916777D01*
X130931747Y-113898599D01*
X130917132Y-113878893D01*
X130904520Y-113857850D01*
X130894030Y-113835671D01*
X130885765Y-113812572D01*
X130879804Y-113788773D01*
X130876204Y-113764505D01*
X130875000Y-113740001D01*
X130875000Y-113039999D01*
X130876204Y-113015495D01*
X130879804Y-112991227D01*
X130885765Y-112967428D01*
X130894030Y-112944329D01*
X130904520Y-112922150D01*
X130917132Y-112901107D01*
X130931747Y-112881401D01*
X130948223Y-112863223D01*
X130966401Y-112846747D01*
X130986107Y-112832132D01*
X131007150Y-112819520D01*
X131029329Y-112809030D01*
X131052428Y-112800765D01*
X131076227Y-112794804D01*
X131100495Y-112791204D01*
X131124999Y-112790000D01*
X132375001Y-112790000D01*
X132399505Y-112791204D01*
G37*
G04 #@! TD.AperFunction*
D17*
X131750000Y-111390000D03*
D15*
X129000000Y-89500000D03*
D16*
X131540000Y-89500000D03*
X129000000Y-92040000D03*
X131540000Y-92040000D03*
X129000000Y-94580000D03*
X131540000Y-94580000D03*
D18*
X90000000Y-117000000D03*
X121500000Y-123500000D03*
X113000000Y-121500000D03*
X126000000Y-117000000D03*
X76500000Y-100000000D03*
X92500000Y-98500000D03*
X83000000Y-99500000D03*
X130000000Y-107500000D03*
X126500000Y-105000000D03*
X118500000Y-109000000D03*
X106490000Y-102410000D03*
X99000000Y-95000000D03*
X86000000Y-95000000D03*
X90000000Y-90500000D03*
X94000000Y-92500000D03*
X75000000Y-108500000D03*
X86500000Y-97000000D03*
X95000000Y-97000000D03*
X121500000Y-117000000D03*
X113000000Y-119500000D03*
X80500000Y-103000000D03*
X82000000Y-106500000D03*
X82000000Y-111500000D03*
X84500000Y-106500000D03*
X82000000Y-103000000D03*
X82500000Y-85000000D03*
X74500000Y-101500000D03*
X106000000Y-97500000D03*
X102000000Y-103000000D03*
X106500000Y-123000000D03*
X113000000Y-123000000D03*
X124500000Y-90000000D03*
X125000000Y-102000000D03*
X122000000Y-97000000D03*
X113500000Y-105000000D03*
X124000000Y-96000000D03*
X113000000Y-104000000D03*
X123030070Y-87229426D03*
X125500000Y-92500000D03*
D19*
X121500000Y-123500000D02*
X119500000Y-121500000D01*
X119500000Y-121500000D02*
X113000000Y-121500000D01*
D20*
X99000000Y-95000000D02*
X86000000Y-95000000D01*
D19*
X116000000Y-82000000D02*
X116000000Y-80500000D01*
X105000000Y-80000000D02*
X103000000Y-82000000D01*
X105000000Y-79500000D02*
X105000000Y-80000000D01*
X103000000Y-81025000D02*
X101475000Y-79500000D01*
X103000000Y-82000000D02*
X103000000Y-81025000D01*
X90500000Y-79500000D02*
X88000000Y-82000000D01*
X114500000Y-79500000D02*
X105000000Y-79500000D01*
X115000000Y-79500000D02*
X114500000Y-79500000D01*
X101475000Y-79500000D02*
X91000000Y-79500000D01*
X91000000Y-79500000D02*
X90500000Y-79500000D01*
X121530000Y-110430000D02*
X114920000Y-110430000D01*
X131515000Y-119450000D02*
X122495000Y-110430000D01*
X122495000Y-110430000D02*
X121530000Y-110430000D01*
X131790000Y-119450000D02*
X131515000Y-119450000D01*
X134570000Y-119450000D02*
X131790000Y-119450000D01*
X135430000Y-120310000D02*
X134570000Y-119450000D01*
X126510000Y-129040000D02*
X131710000Y-123840000D01*
X105000000Y-129040000D02*
X126510000Y-129040000D01*
X131710000Y-123840000D02*
X133610000Y-123840000D01*
X133610000Y-123840000D02*
X135430000Y-122020000D01*
X135430000Y-122020000D02*
X135430000Y-120310000D01*
X134700000Y-89500000D02*
X131540000Y-89500000D01*
X135430000Y-120310000D02*
X135430000Y-90230000D01*
X135430000Y-90230000D02*
X134700000Y-89500000D01*
X132389999Y-88650001D02*
X132389999Y-83979999D01*
X131540000Y-89500000D02*
X132389999Y-88650001D01*
X128030000Y-79620000D02*
X115120000Y-79620000D01*
X132389999Y-83979999D02*
X128030000Y-79620000D01*
X116000000Y-80500000D02*
X115120000Y-79620000D01*
X115120000Y-79620000D02*
X115000000Y-79500000D01*
D20*
X90000000Y-90500000D02*
X92000000Y-92500000D01*
X92000000Y-92500000D02*
X94000000Y-92500000D01*
X75000000Y-108500000D02*
X74000000Y-109500000D01*
X74000000Y-109500000D02*
X74000000Y-112000000D01*
X74000000Y-112000000D02*
X86000000Y-124000000D01*
X86000000Y-124000000D02*
X86000000Y-126500000D01*
X86500000Y-97000000D02*
X95000000Y-97000000D01*
D21*
X105279998Y-119500000D02*
X113000000Y-119500000D01*
X103200000Y-119500000D02*
X105279998Y-119500000D01*
X97000000Y-127500000D02*
X97000000Y-125700000D01*
X97000000Y-125700000D02*
X103200000Y-119500000D01*
D19*
X115500000Y-117000000D02*
X121500000Y-117000000D01*
X113000000Y-119500000D02*
X115500000Y-117000000D01*
D20*
X88000000Y-126225000D02*
X88000000Y-126500000D01*
X80500000Y-103000000D02*
X80500000Y-105000000D01*
X80500000Y-105000000D02*
X82000000Y-106500000D01*
X82000000Y-111500000D02*
X82000000Y-118500000D01*
X88000000Y-124500000D02*
X88000000Y-126500000D01*
X82000000Y-118500000D02*
X88000000Y-124500000D01*
X84500000Y-106500000D02*
X82000000Y-104000000D01*
X82000000Y-104000000D02*
X82000000Y-103000000D01*
X99000000Y-84000000D02*
X99000000Y-82000000D01*
X98500000Y-84500000D02*
X99000000Y-84000000D01*
X82500000Y-85000000D02*
X83000000Y-84500000D01*
X83000000Y-84500000D02*
X98500000Y-84500000D01*
X97140000Y-87570000D02*
X97140000Y-85860000D01*
X97140000Y-85860000D02*
X97500000Y-85500000D01*
X127000000Y-85500000D02*
X127500000Y-85000000D01*
X97500000Y-85500000D02*
X127000000Y-85500000D01*
X127500000Y-85000000D02*
X127500000Y-82000000D01*
X124500000Y-85000000D02*
X125500000Y-84000000D01*
X95500000Y-85000000D02*
X124500000Y-85000000D01*
X94600000Y-87570000D02*
X94600000Y-85900000D01*
X125500000Y-84000000D02*
X125500000Y-82000000D01*
X94600000Y-85900000D02*
X95500000Y-85000000D01*
X75940000Y-102940000D02*
X74500000Y-101500000D01*
X76950000Y-102940000D02*
X84440000Y-110430000D01*
X75940000Y-102940000D02*
X76950000Y-102940000D01*
X106000000Y-97500000D02*
X106000000Y-99000000D01*
X106000000Y-99000000D02*
X102000000Y-103000000D01*
X106500000Y-123000000D02*
X113000000Y-123000000D01*
X86980000Y-87570000D02*
X88910000Y-89500000D01*
X124000000Y-89500000D02*
X124500000Y-90000000D01*
X88910000Y-89500000D02*
X124000000Y-89500000D01*
X99680000Y-108820000D02*
X99680000Y-110430000D01*
X104500000Y-104000000D02*
X99680000Y-108820000D01*
X110500000Y-104000000D02*
X104500000Y-104000000D01*
X125000000Y-102000000D02*
X112500000Y-102000000D01*
X112500000Y-102000000D02*
X110500000Y-104000000D01*
D19*
X132275000Y-122000000D02*
X132000000Y-122000000D01*
D20*
X127900000Y-89500000D02*
X126500000Y-90900000D01*
X129000000Y-89500000D02*
X127900000Y-89500000D01*
X126500000Y-90900000D02*
X126500000Y-93000000D01*
X122000000Y-96926998D02*
X122000000Y-97000000D01*
X123651999Y-95274999D02*
X122000000Y-96926998D01*
X126500000Y-93000000D02*
X124225001Y-95274999D01*
X124225001Y-95274999D02*
X123651999Y-95274999D01*
X109840000Y-108660000D02*
X109840000Y-110430000D01*
X113500000Y-105000000D02*
X109840000Y-108660000D01*
X129000000Y-92040000D02*
X125040000Y-96000000D01*
X125040000Y-96000000D02*
X124000000Y-96000000D01*
X107300000Y-109700000D02*
X107300000Y-110430000D01*
X113000000Y-104000000D02*
X107300000Y-109700000D01*
X123030070Y-87229426D02*
X125500000Y-89699356D01*
X125500000Y-89699356D02*
X125500000Y-92500000D01*
D22*
G36*
X135759659Y-77688625D02*
G01*
X136009429Y-77764035D01*
X136239792Y-77886522D01*
X136441980Y-78051422D01*
X136608286Y-78252450D01*
X136732378Y-78481954D01*
X136809531Y-78731195D01*
X136840000Y-79021088D01*
X136840001Y-129967711D01*
X136811375Y-130259660D01*
X136735965Y-130509429D01*
X136613477Y-130739794D01*
X136448579Y-130941979D01*
X136247546Y-131108288D01*
X136018046Y-131232378D01*
X135768805Y-131309531D01*
X135478911Y-131340000D01*
X74532279Y-131340000D01*
X74240340Y-131311375D01*
X73990571Y-131235965D01*
X73760206Y-131113477D01*
X73558021Y-130948579D01*
X73391712Y-130747546D01*
X73267622Y-130518046D01*
X73190469Y-130268805D01*
X73160000Y-129978911D01*
X73160000Y-128279872D01*
X73765000Y-128279872D01*
X73765000Y-128720128D01*
X73850890Y-129151925D01*
X74019369Y-129558669D01*
X74263962Y-129924729D01*
X74575271Y-130236038D01*
X74941331Y-130480631D01*
X75348075Y-130649110D01*
X75779872Y-130735000D01*
X76220128Y-130735000D01*
X76651925Y-130649110D01*
X77058669Y-130480631D01*
X77424729Y-130236038D01*
X77736038Y-129924729D01*
X77980631Y-129558669D01*
X78149110Y-129151925D01*
X78235000Y-128720128D01*
X78235000Y-128279872D01*
X78149110Y-127848075D01*
X77980631Y-127441331D01*
X77736038Y-127075271D01*
X77424729Y-126763962D01*
X77058669Y-126519369D01*
X76651925Y-126350890D01*
X76220128Y-126265000D01*
X75779872Y-126265000D01*
X75348075Y-126350890D01*
X74941331Y-126519369D01*
X74575271Y-126763962D01*
X74263962Y-127075271D01*
X74019369Y-127441331D01*
X73850890Y-127848075D01*
X73765000Y-128279872D01*
X73160000Y-128279872D01*
X73160000Y-109500000D01*
X73236324Y-109500000D01*
X73240000Y-109537323D01*
X73240001Y-111962668D01*
X73236324Y-112000000D01*
X73240001Y-112037333D01*
X73250998Y-112148986D01*
X73257067Y-112168992D01*
X73294454Y-112292246D01*
X73365026Y-112424276D01*
X73423254Y-112495226D01*
X73460000Y-112540001D01*
X73488998Y-112563799D01*
X85240000Y-124314802D01*
X85240001Y-125251066D01*
X85122498Y-125347498D01*
X85090809Y-125386111D01*
X85088405Y-125381613D01*
X84977962Y-125247038D01*
X84843387Y-125136595D01*
X84689851Y-125054528D01*
X84523255Y-125003992D01*
X84350001Y-124986928D01*
X83649999Y-124986928D01*
X83476745Y-125003992D01*
X83310149Y-125054528D01*
X83156613Y-125136595D01*
X83022038Y-125247038D01*
X82911595Y-125381613D01*
X82829528Y-125535149D01*
X82778992Y-125701745D01*
X82761928Y-125874999D01*
X82761928Y-127125001D01*
X82778992Y-127298255D01*
X82829528Y-127464851D01*
X82911595Y-127618387D01*
X83022038Y-127752962D01*
X83156613Y-127863405D01*
X83310149Y-127945472D01*
X83476745Y-127996008D01*
X83649999Y-128013072D01*
X84350001Y-128013072D01*
X84523255Y-127996008D01*
X84689851Y-127945472D01*
X84843387Y-127863405D01*
X84977962Y-127752962D01*
X85088405Y-127618387D01*
X85090810Y-127613888D01*
X85122499Y-127652502D01*
X85310552Y-127806833D01*
X85525100Y-127921511D01*
X85757899Y-127992130D01*
X86000000Y-128015975D01*
X86242102Y-127992130D01*
X86474901Y-127921511D01*
X86689449Y-127806833D01*
X86877502Y-127652502D01*
X87000001Y-127503237D01*
X87122499Y-127652502D01*
X87310552Y-127806833D01*
X87525100Y-127921511D01*
X87757899Y-127992130D01*
X88000000Y-128015975D01*
X88242102Y-127992130D01*
X88474901Y-127921511D01*
X88689449Y-127806833D01*
X88877502Y-127652502D01*
X89000481Y-127502652D01*
X89043693Y-127566725D01*
X89216526Y-127738078D01*
X89419467Y-127872421D01*
X89644718Y-127964591D01*
X89682391Y-127968462D01*
X89873000Y-127843731D01*
X89873000Y-126627000D01*
X90127000Y-126627000D01*
X90127000Y-127843731D01*
X90317609Y-127968462D01*
X90355282Y-127964591D01*
X90580533Y-127872421D01*
X90783474Y-127738078D01*
X90956307Y-127566725D01*
X91092390Y-127364946D01*
X91186493Y-127140496D01*
X91235000Y-126902000D01*
X91235000Y-126700000D01*
X95561928Y-126700000D01*
X95561928Y-128300000D01*
X95574188Y-128424482D01*
X95610498Y-128544180D01*
X95669463Y-128654494D01*
X95748815Y-128751185D01*
X95845506Y-128830537D01*
X95955820Y-128889502D01*
X96075518Y-128925812D01*
X96200000Y-128938072D01*
X97800000Y-128938072D01*
X97924482Y-128925812D01*
X98044180Y-128889502D01*
X98154494Y-128830537D01*
X98251185Y-128751185D01*
X98330537Y-128654494D01*
X98389502Y-128544180D01*
X98405117Y-128492702D01*
X98686903Y-128492702D01*
X98758486Y-128736671D01*
X99013996Y-128857571D01*
X99288184Y-128926300D01*
X99570512Y-128940217D01*
X99850130Y-128898787D01*
X100116292Y-128803603D01*
X100241514Y-128736671D01*
X100313097Y-128492702D01*
X99500000Y-127679605D01*
X98686903Y-128492702D01*
X98405117Y-128492702D01*
X98425812Y-128424482D01*
X98438072Y-128300000D01*
X98438072Y-128292785D01*
X98507298Y-128313097D01*
X99320395Y-127500000D01*
X99679605Y-127500000D01*
X100492702Y-128313097D01*
X100736671Y-128241514D01*
X100857571Y-127986004D01*
X100926300Y-127711816D01*
X100940217Y-127429488D01*
X100898787Y-127149870D01*
X100803603Y-126883708D01*
X100736671Y-126758486D01*
X100492702Y-126686903D01*
X99679605Y-127500000D01*
X99320395Y-127500000D01*
X98507298Y-126686903D01*
X98438072Y-126707215D01*
X98438072Y-126700000D01*
X98425812Y-126575518D01*
X98405118Y-126507298D01*
X98686903Y-126507298D01*
X99500000Y-127320395D01*
X100313097Y-126507298D01*
X100241514Y-126263329D01*
X99986004Y-126142429D01*
X99711816Y-126073700D01*
X99429488Y-126059783D01*
X99149870Y-126101213D01*
X98883708Y-126196397D01*
X98758486Y-126263329D01*
X98686903Y-126507298D01*
X98405118Y-126507298D01*
X98389502Y-126455820D01*
X98330537Y-126345506D01*
X98251185Y-126248815D01*
X98154494Y-126169463D01*
X98142226Y-126162905D01*
X101407070Y-122898061D01*
X105465000Y-122898061D01*
X105465000Y-123101939D01*
X105504774Y-123301898D01*
X105582795Y-123490256D01*
X105696063Y-123659774D01*
X105840226Y-123803937D01*
X106009744Y-123917205D01*
X106198102Y-123995226D01*
X106398061Y-124035000D01*
X106601939Y-124035000D01*
X106801898Y-123995226D01*
X106990256Y-123917205D01*
X107159774Y-123803937D01*
X107203711Y-123760000D01*
X112296289Y-123760000D01*
X112340226Y-123803937D01*
X112509744Y-123917205D01*
X112698102Y-123995226D01*
X112898061Y-124035000D01*
X113101939Y-124035000D01*
X113301898Y-123995226D01*
X113490256Y-123917205D01*
X113659774Y-123803937D01*
X113803937Y-123659774D01*
X113917205Y-123490256D01*
X113995226Y-123301898D01*
X114035000Y-123101939D01*
X114035000Y-122898061D01*
X113995226Y-122698102D01*
X113917205Y-122509744D01*
X113803937Y-122340226D01*
X113659774Y-122196063D01*
X113490256Y-122082795D01*
X113301898Y-122004774D01*
X113101939Y-121965000D01*
X112898061Y-121965000D01*
X112698102Y-122004774D01*
X112509744Y-122082795D01*
X112340226Y-122196063D01*
X112296289Y-122240000D01*
X107203711Y-122240000D01*
X107159774Y-122196063D01*
X106990256Y-122082795D01*
X106801898Y-122004774D01*
X106601939Y-121965000D01*
X106398061Y-121965000D01*
X106198102Y-122004774D01*
X106009744Y-122082795D01*
X105840226Y-122196063D01*
X105696063Y-122340226D01*
X105582795Y-122509744D01*
X105504774Y-122698102D01*
X105465000Y-122898061D01*
X101407070Y-122898061D01*
X103670132Y-120635000D01*
X113055752Y-120635000D01*
X113222499Y-120618577D01*
X113436447Y-120553676D01*
X113633623Y-120448284D01*
X113806449Y-120306449D01*
X113948284Y-120133623D01*
X114053676Y-119936447D01*
X114118577Y-119722499D01*
X114128355Y-119623224D01*
X115866579Y-117885000D01*
X120961546Y-117885000D01*
X121009744Y-117917205D01*
X121198102Y-117995226D01*
X121398061Y-118035000D01*
X121601939Y-118035000D01*
X121801898Y-117995226D01*
X121990256Y-117917205D01*
X122159774Y-117803937D01*
X122303937Y-117659774D01*
X122417205Y-117490256D01*
X122495226Y-117301898D01*
X122535000Y-117101939D01*
X122535000Y-116898061D01*
X122495226Y-116698102D01*
X122417205Y-116509744D01*
X122303937Y-116340226D01*
X122159774Y-116196063D01*
X121990256Y-116082795D01*
X121801898Y-116004774D01*
X121601939Y-115965000D01*
X121398061Y-115965000D01*
X121198102Y-116004774D01*
X121009744Y-116082795D01*
X120961546Y-116115000D01*
X115543469Y-116115000D01*
X115500000Y-116110719D01*
X115456531Y-116115000D01*
X115456523Y-116115000D01*
X115326510Y-116127805D01*
X115159687Y-116178411D01*
X115005941Y-116260589D01*
X114904953Y-116343468D01*
X114904951Y-116343470D01*
X114871183Y-116371183D01*
X114843470Y-116404951D01*
X112883422Y-118365000D01*
X103255751Y-118365000D01*
X103199999Y-118359509D01*
X103144248Y-118365000D01*
X102977501Y-118381423D01*
X102763553Y-118446324D01*
X102566377Y-118551716D01*
X102393551Y-118693551D01*
X102358009Y-118736859D01*
X96236860Y-124858009D01*
X96193552Y-124893551D01*
X96051717Y-125066377D01*
X96023342Y-125119463D01*
X95946324Y-125263554D01*
X95881423Y-125477502D01*
X95859509Y-125700000D01*
X95865000Y-125755751D01*
X95865000Y-126159043D01*
X95845506Y-126169463D01*
X95748815Y-126248815D01*
X95669463Y-126345506D01*
X95610498Y-126455820D01*
X95574188Y-126575518D01*
X95561928Y-126700000D01*
X91235000Y-126700000D01*
X91235000Y-126627000D01*
X90127000Y-126627000D01*
X89873000Y-126627000D01*
X89853000Y-126627000D01*
X89853000Y-126373000D01*
X89873000Y-126373000D01*
X89873000Y-125156269D01*
X90127000Y-125156269D01*
X90127000Y-126373000D01*
X91235000Y-126373000D01*
X91235000Y-126098000D01*
X91186493Y-125859504D01*
X91092390Y-125635054D01*
X90956307Y-125433275D01*
X90783474Y-125261922D01*
X90580533Y-125127579D01*
X90355282Y-125035409D01*
X90317609Y-125031538D01*
X90127000Y-125156269D01*
X89873000Y-125156269D01*
X89682391Y-125031538D01*
X89644718Y-125035409D01*
X89419467Y-125127579D01*
X89216526Y-125261922D01*
X89043693Y-125433275D01*
X89000481Y-125497348D01*
X88877502Y-125347498D01*
X88760000Y-125251067D01*
X88760000Y-124537322D01*
X88763676Y-124499999D01*
X88760000Y-124462676D01*
X88760000Y-124462667D01*
X88749003Y-124351014D01*
X88705546Y-124207753D01*
X88634974Y-124075724D01*
X88583900Y-124013490D01*
X88563799Y-123988996D01*
X88563795Y-123988992D01*
X88540001Y-123959999D01*
X88511009Y-123936206D01*
X82760000Y-118185199D01*
X82760000Y-112203711D01*
X82803937Y-112159774D01*
X82917205Y-111990256D01*
X82995226Y-111801898D01*
X83035000Y-111601939D01*
X83035000Y-111398061D01*
X82995226Y-111198102D01*
X82917205Y-111009744D01*
X82803937Y-110840226D01*
X82659774Y-110696063D01*
X82490256Y-110582795D01*
X82301898Y-110504774D01*
X82101939Y-110465000D01*
X81898061Y-110465000D01*
X81698102Y-110504774D01*
X81509744Y-110582795D01*
X81340226Y-110696063D01*
X81196063Y-110840226D01*
X81082795Y-111009744D01*
X81004774Y-111198102D01*
X80965000Y-111398061D01*
X80965000Y-111601939D01*
X81004774Y-111801898D01*
X81082795Y-111990256D01*
X81196063Y-112159774D01*
X81240000Y-112203711D01*
X81240001Y-118165199D01*
X74760000Y-111685199D01*
X74760000Y-109814801D01*
X75039802Y-109535000D01*
X75101939Y-109535000D01*
X75301898Y-109495226D01*
X75490256Y-109417205D01*
X75659774Y-109303937D01*
X75803937Y-109159774D01*
X75917205Y-108990256D01*
X75995226Y-108801898D01*
X76035000Y-108601939D01*
X76035000Y-108398061D01*
X75995226Y-108198102D01*
X75917205Y-108009744D01*
X75803937Y-107840226D01*
X75659774Y-107696063D01*
X75490256Y-107582795D01*
X75301898Y-107504774D01*
X75101939Y-107465000D01*
X74898061Y-107465000D01*
X74698102Y-107504774D01*
X74509744Y-107582795D01*
X74340226Y-107696063D01*
X74196063Y-107840226D01*
X74082795Y-108009744D01*
X74004774Y-108198102D01*
X73965000Y-108398061D01*
X73965000Y-108460198D01*
X73489002Y-108936196D01*
X73459999Y-108959999D01*
X73404871Y-109027174D01*
X73365026Y-109075724D01*
X73344562Y-109114010D01*
X73294454Y-109207754D01*
X73250997Y-109351015D01*
X73240000Y-109462668D01*
X73240000Y-109462678D01*
X73236324Y-109500000D01*
X73160000Y-109500000D01*
X73160000Y-101398061D01*
X73465000Y-101398061D01*
X73465000Y-101601939D01*
X73504774Y-101801898D01*
X73582795Y-101990256D01*
X73696063Y-102159774D01*
X73840226Y-102303937D01*
X74009744Y-102417205D01*
X74198102Y-102495226D01*
X74398061Y-102535000D01*
X74460199Y-102535000D01*
X75376200Y-103451002D01*
X75399999Y-103480001D01*
X75428997Y-103503799D01*
X75515724Y-103574974D01*
X75647753Y-103645546D01*
X75791014Y-103689003D01*
X75940000Y-103703677D01*
X75977333Y-103700000D01*
X76635199Y-103700000D01*
X82998790Y-110063592D01*
X82955000Y-110283740D01*
X82955000Y-110576260D01*
X83012068Y-110863158D01*
X83124010Y-111133411D01*
X83286525Y-111376632D01*
X83493368Y-111583475D01*
X83736589Y-111745990D01*
X84006842Y-111857932D01*
X84293740Y-111915000D01*
X84586260Y-111915000D01*
X84873158Y-111857932D01*
X85143411Y-111745990D01*
X85386632Y-111583475D01*
X85593475Y-111376632D01*
X85710000Y-111202240D01*
X85826525Y-111376632D01*
X86033368Y-111583475D01*
X86276589Y-111745990D01*
X86546842Y-111857932D01*
X86833740Y-111915000D01*
X87126260Y-111915000D01*
X87413158Y-111857932D01*
X87683411Y-111745990D01*
X87926632Y-111583475D01*
X88133475Y-111376632D01*
X88250000Y-111202240D01*
X88366525Y-111376632D01*
X88573368Y-111583475D01*
X88816589Y-111745990D01*
X89086842Y-111857932D01*
X89373740Y-111915000D01*
X89666260Y-111915000D01*
X89953158Y-111857932D01*
X90223411Y-111745990D01*
X90466632Y-111583475D01*
X90673475Y-111376632D01*
X90790000Y-111202240D01*
X90906525Y-111376632D01*
X91113368Y-111583475D01*
X91356589Y-111745990D01*
X91626842Y-111857932D01*
X91913740Y-111915000D01*
X92206260Y-111915000D01*
X92493158Y-111857932D01*
X92763411Y-111745990D01*
X93006632Y-111583475D01*
X93213475Y-111376632D01*
X93330000Y-111202240D01*
X93446525Y-111376632D01*
X93653368Y-111583475D01*
X93896589Y-111745990D01*
X94166842Y-111857932D01*
X94453740Y-111915000D01*
X94746260Y-111915000D01*
X95033158Y-111857932D01*
X95303411Y-111745990D01*
X95546632Y-111583475D01*
X95753475Y-111376632D01*
X95870000Y-111202240D01*
X95986525Y-111376632D01*
X96193368Y-111583475D01*
X96436589Y-111745990D01*
X96706842Y-111857932D01*
X96993740Y-111915000D01*
X97286260Y-111915000D01*
X97573158Y-111857932D01*
X97843411Y-111745990D01*
X98086632Y-111583475D01*
X98293475Y-111376632D01*
X98410000Y-111202240D01*
X98526525Y-111376632D01*
X98733368Y-111583475D01*
X98976589Y-111745990D01*
X99246842Y-111857932D01*
X99533740Y-111915000D01*
X99826260Y-111915000D01*
X100113158Y-111857932D01*
X100383411Y-111745990D01*
X100626632Y-111583475D01*
X100833475Y-111376632D01*
X100950000Y-111202240D01*
X101066525Y-111376632D01*
X101273368Y-111583475D01*
X101516589Y-111745990D01*
X101786842Y-111857932D01*
X102073740Y-111915000D01*
X102366260Y-111915000D01*
X102653158Y-111857932D01*
X102923411Y-111745990D01*
X103166632Y-111583475D01*
X103373475Y-111376632D01*
X103490000Y-111202240D01*
X103606525Y-111376632D01*
X103813368Y-111583475D01*
X104056589Y-111745990D01*
X104326842Y-111857932D01*
X104613740Y-111915000D01*
X104906260Y-111915000D01*
X105193158Y-111857932D01*
X105463411Y-111745990D01*
X105706632Y-111583475D01*
X105913475Y-111376632D01*
X106030000Y-111202240D01*
X106146525Y-111376632D01*
X106353368Y-111583475D01*
X106596589Y-111745990D01*
X106866842Y-111857932D01*
X107153740Y-111915000D01*
X107446260Y-111915000D01*
X107733158Y-111857932D01*
X108003411Y-111745990D01*
X108246632Y-111583475D01*
X108453475Y-111376632D01*
X108570000Y-111202240D01*
X108686525Y-111376632D01*
X108893368Y-111583475D01*
X109136589Y-111745990D01*
X109406842Y-111857932D01*
X109693740Y-111915000D01*
X109986260Y-111915000D01*
X110273158Y-111857932D01*
X110543411Y-111745990D01*
X110786632Y-111583475D01*
X110993475Y-111376632D01*
X111110000Y-111202240D01*
X111226525Y-111376632D01*
X111433368Y-111583475D01*
X111676589Y-111745990D01*
X111946842Y-111857932D01*
X112233740Y-111915000D01*
X112526260Y-111915000D01*
X112813158Y-111857932D01*
X113083411Y-111745990D01*
X113326632Y-111583475D01*
X113533475Y-111376632D01*
X113650000Y-111202240D01*
X113766525Y-111376632D01*
X113973368Y-111583475D01*
X114216589Y-111745990D01*
X114486842Y-111857932D01*
X114773740Y-111915000D01*
X115066260Y-111915000D01*
X115353158Y-111857932D01*
X115623411Y-111745990D01*
X115866632Y-111583475D01*
X116073475Y-111376632D01*
X116114656Y-111315000D01*
X122128422Y-111315000D01*
X130275183Y-119461762D01*
X130297870Y-119692102D01*
X130368489Y-119924901D01*
X130483167Y-120139449D01*
X130637498Y-120327502D01*
X130676111Y-120359191D01*
X130671613Y-120361595D01*
X130537038Y-120472038D01*
X130426595Y-120606613D01*
X130344528Y-120760149D01*
X130293992Y-120926745D01*
X130276928Y-121099999D01*
X130276928Y-121800001D01*
X130293992Y-121973255D01*
X130344528Y-122139851D01*
X130426595Y-122293387D01*
X130537038Y-122427962D01*
X130671613Y-122538405D01*
X130825149Y-122620472D01*
X130991745Y-122671008D01*
X131164999Y-122688072D01*
X131443385Y-122688072D01*
X131505941Y-122739411D01*
X131659687Y-122821589D01*
X131826510Y-122872195D01*
X131956523Y-122885000D01*
X132318477Y-122885000D01*
X132448490Y-122872195D01*
X132615313Y-122821589D01*
X132769059Y-122739411D01*
X132903817Y-122628817D01*
X133014411Y-122494059D01*
X133062400Y-122404277D01*
X133153405Y-122293387D01*
X133235472Y-122139851D01*
X133286008Y-121973255D01*
X133303072Y-121800001D01*
X133303072Y-121099999D01*
X133286008Y-120926745D01*
X133235472Y-120760149D01*
X133153405Y-120606613D01*
X133042962Y-120472038D01*
X132908387Y-120361595D01*
X132903889Y-120359191D01*
X132933366Y-120335000D01*
X134203422Y-120335000D01*
X134545001Y-120676579D01*
X134545000Y-121653421D01*
X133243422Y-122955000D01*
X131753469Y-122955000D01*
X131710000Y-122950719D01*
X131666531Y-122955000D01*
X131666523Y-122955000D01*
X131536510Y-122967805D01*
X131369686Y-123018411D01*
X131215941Y-123100589D01*
X131114953Y-123183468D01*
X131114951Y-123183470D01*
X131081183Y-123211183D01*
X131053470Y-123244951D01*
X126143422Y-128155000D01*
X106194656Y-128155000D01*
X106153475Y-128093368D01*
X106021620Y-127961513D01*
X106094180Y-127939502D01*
X106204494Y-127880537D01*
X106301185Y-127801185D01*
X106380537Y-127704494D01*
X106439502Y-127594180D01*
X106475812Y-127474482D01*
X106488072Y-127350000D01*
X106488072Y-125650000D01*
X106475812Y-125525518D01*
X106439502Y-125405820D01*
X106380537Y-125295506D01*
X106301185Y-125198815D01*
X106204494Y-125119463D01*
X106094180Y-125060498D01*
X105974482Y-125024188D01*
X105850000Y-125011928D01*
X104150000Y-125011928D01*
X104025518Y-125024188D01*
X103905820Y-125060498D01*
X103795506Y-125119463D01*
X103698815Y-125198815D01*
X103619463Y-125295506D01*
X103560498Y-125405820D01*
X103524188Y-125525518D01*
X103511928Y-125650000D01*
X103511928Y-127350000D01*
X103524188Y-127474482D01*
X103560498Y-127594180D01*
X103619463Y-127704494D01*
X103698815Y-127801185D01*
X103795506Y-127880537D01*
X103905820Y-127939502D01*
X103978380Y-127961513D01*
X103846525Y-128093368D01*
X103684010Y-128336589D01*
X103572068Y-128606842D01*
X103515000Y-128893740D01*
X103515000Y-129186260D01*
X103572068Y-129473158D01*
X103684010Y-129743411D01*
X103846525Y-129986632D01*
X104053368Y-130193475D01*
X104296589Y-130355990D01*
X104566842Y-130467932D01*
X104853740Y-130525000D01*
X105146260Y-130525000D01*
X105433158Y-130467932D01*
X105703411Y-130355990D01*
X105946632Y-130193475D01*
X106153475Y-129986632D01*
X106194656Y-129925000D01*
X126466531Y-129925000D01*
X126510000Y-129929281D01*
X126553469Y-129925000D01*
X126553477Y-129925000D01*
X126683490Y-129912195D01*
X126850313Y-129861589D01*
X127004059Y-129779411D01*
X127138817Y-129668817D01*
X127166534Y-129635044D01*
X132076579Y-124725000D01*
X133566531Y-124725000D01*
X133610000Y-124729281D01*
X133653469Y-124725000D01*
X133653477Y-124725000D01*
X133783490Y-124712195D01*
X133950313Y-124661589D01*
X134104059Y-124579411D01*
X134238817Y-124468817D01*
X134266534Y-124435044D01*
X136025050Y-122676529D01*
X136058817Y-122648817D01*
X136118804Y-122575724D01*
X136169411Y-122514059D01*
X136251589Y-122360314D01*
X136302195Y-122193490D01*
X136313097Y-122082795D01*
X136315000Y-122063477D01*
X136315000Y-122063469D01*
X136319281Y-122020000D01*
X136315000Y-121976531D01*
X136315000Y-120353469D01*
X136319281Y-120310000D01*
X136315000Y-120266531D01*
X136315000Y-90273469D01*
X136319281Y-90230000D01*
X136315000Y-90186531D01*
X136315000Y-90186523D01*
X136302195Y-90056510D01*
X136251589Y-89889687D01*
X136169411Y-89735941D01*
X136136684Y-89696063D01*
X136086532Y-89634953D01*
X136086530Y-89634951D01*
X136058817Y-89601183D01*
X136025049Y-89573470D01*
X135356532Y-88904954D01*
X135328817Y-88871183D01*
X135194059Y-88760589D01*
X135040313Y-88678411D01*
X134873490Y-88627805D01*
X134743477Y-88615000D01*
X134743469Y-88615000D01*
X134700000Y-88610719D01*
X134656531Y-88615000D01*
X133275833Y-88615000D01*
X133274999Y-88606536D01*
X133274999Y-84023468D01*
X133279280Y-83979999D01*
X133274999Y-83936530D01*
X133274999Y-83936522D01*
X133262194Y-83806509D01*
X133211588Y-83639686D01*
X133129410Y-83485940D01*
X133108121Y-83459999D01*
X133046531Y-83384952D01*
X133046529Y-83384950D01*
X133018816Y-83351182D01*
X132985048Y-83323469D01*
X128686532Y-79024954D01*
X128658817Y-78991183D01*
X128524059Y-78880589D01*
X128370313Y-78798411D01*
X128203490Y-78747805D01*
X128073477Y-78735000D01*
X128073469Y-78735000D01*
X128030000Y-78730719D01*
X127986531Y-78735000D01*
X115446185Y-78735000D01*
X115340313Y-78678411D01*
X115173490Y-78627805D01*
X115043477Y-78615000D01*
X115043469Y-78615000D01*
X115000000Y-78610719D01*
X114956531Y-78615000D01*
X105043476Y-78615000D01*
X105000000Y-78610718D01*
X104956523Y-78615000D01*
X104826510Y-78627805D01*
X104659687Y-78678411D01*
X104505941Y-78760589D01*
X104371183Y-78871183D01*
X104260589Y-79005941D01*
X104178411Y-79159687D01*
X104127805Y-79326510D01*
X104110718Y-79500000D01*
X104115000Y-79543477D01*
X104115000Y-79633421D01*
X103487500Y-80260921D01*
X102131534Y-78904956D01*
X102103817Y-78871183D01*
X101969059Y-78760589D01*
X101815313Y-78678411D01*
X101648490Y-78627805D01*
X101518477Y-78615000D01*
X101518469Y-78615000D01*
X101475000Y-78610719D01*
X101431531Y-78615000D01*
X90543469Y-78615000D01*
X90500000Y-78610719D01*
X90456531Y-78615000D01*
X90456523Y-78615000D01*
X90326510Y-78627805D01*
X90159687Y-78678411D01*
X90021593Y-78752223D01*
X90005941Y-78760589D01*
X89904953Y-78843468D01*
X89904951Y-78843470D01*
X89871183Y-78871183D01*
X89843470Y-78904951D01*
X88261494Y-80486928D01*
X87649999Y-80486928D01*
X87476745Y-80503992D01*
X87310149Y-80554528D01*
X87156613Y-80636595D01*
X87022038Y-80747038D01*
X86911595Y-80881613D01*
X86909191Y-80886111D01*
X86877502Y-80847498D01*
X86689449Y-80693167D01*
X86474901Y-80578489D01*
X86242102Y-80507870D01*
X86000000Y-80484025D01*
X85757899Y-80507870D01*
X85525100Y-80578489D01*
X85310552Y-80693167D01*
X85122499Y-80847498D01*
X85000001Y-80996763D01*
X84877502Y-80847498D01*
X84689449Y-80693167D01*
X84474901Y-80578489D01*
X84242102Y-80507870D01*
X84000000Y-80484025D01*
X83757899Y-80507870D01*
X83525100Y-80578489D01*
X83310552Y-80693167D01*
X83122499Y-80847498D01*
X82999520Y-80997349D01*
X82956307Y-80933275D01*
X82783474Y-80761922D01*
X82580533Y-80627579D01*
X82355282Y-80535409D01*
X82317609Y-80531538D01*
X82127000Y-80656269D01*
X82127000Y-81873000D01*
X82147000Y-81873000D01*
X82147000Y-82127000D01*
X82127000Y-82127000D01*
X82127000Y-83343731D01*
X82317609Y-83468462D01*
X82355282Y-83464591D01*
X82580533Y-83372421D01*
X82783474Y-83238078D01*
X82956307Y-83066725D01*
X82999519Y-83002651D01*
X83122498Y-83152502D01*
X83310551Y-83306833D01*
X83525099Y-83421511D01*
X83757898Y-83492130D01*
X84000000Y-83515975D01*
X84242101Y-83492130D01*
X84474900Y-83421511D01*
X84689448Y-83306833D01*
X84877502Y-83152502D01*
X85000000Y-83003237D01*
X85122498Y-83152502D01*
X85310551Y-83306833D01*
X85525099Y-83421511D01*
X85757898Y-83492130D01*
X86000000Y-83515975D01*
X86242101Y-83492130D01*
X86474900Y-83421511D01*
X86689448Y-83306833D01*
X86877502Y-83152502D01*
X86909191Y-83113889D01*
X86911595Y-83118387D01*
X87022038Y-83252962D01*
X87156613Y-83363405D01*
X87310149Y-83445472D01*
X87476745Y-83496008D01*
X87649999Y-83513072D01*
X88350001Y-83513072D01*
X88523255Y-83496008D01*
X88689851Y-83445472D01*
X88843387Y-83363405D01*
X88977962Y-83252962D01*
X89088405Y-83118387D01*
X89170472Y-82964851D01*
X89221008Y-82798255D01*
X89238072Y-82625001D01*
X89238072Y-82127000D01*
X95765000Y-82127000D01*
X95765000Y-82402000D01*
X95813507Y-82640496D01*
X95907610Y-82864946D01*
X96043693Y-83066725D01*
X96216526Y-83238078D01*
X96419467Y-83372421D01*
X96644718Y-83464591D01*
X96682391Y-83468462D01*
X96873000Y-83343731D01*
X96873000Y-82127000D01*
X95765000Y-82127000D01*
X89238072Y-82127000D01*
X89238072Y-82013506D01*
X89653578Y-81598000D01*
X95765000Y-81598000D01*
X95765000Y-81873000D01*
X96873000Y-81873000D01*
X96873000Y-80656269D01*
X96682391Y-80531538D01*
X96644718Y-80535409D01*
X96419467Y-80627579D01*
X96216526Y-80761922D01*
X96043693Y-80933275D01*
X95907610Y-81135054D01*
X95813507Y-81359504D01*
X95765000Y-81598000D01*
X89653578Y-81598000D01*
X90866579Y-80385000D01*
X101108422Y-80385000D01*
X101230111Y-80506689D01*
X101000000Y-80484025D01*
X100757899Y-80507870D01*
X100525100Y-80578489D01*
X100310552Y-80693167D01*
X100122499Y-80847498D01*
X100000001Y-80996763D01*
X99877502Y-80847498D01*
X99689449Y-80693167D01*
X99474901Y-80578489D01*
X99242102Y-80507870D01*
X99000000Y-80484025D01*
X98757899Y-80507870D01*
X98525100Y-80578489D01*
X98310552Y-80693167D01*
X98122499Y-80847498D01*
X97999520Y-80997349D01*
X97956307Y-80933275D01*
X97783474Y-80761922D01*
X97580533Y-80627579D01*
X97355282Y-80535409D01*
X97317609Y-80531538D01*
X97127000Y-80656269D01*
X97127000Y-81873000D01*
X97147000Y-81873000D01*
X97147000Y-82127000D01*
X97127000Y-82127000D01*
X97127000Y-83343731D01*
X97317609Y-83468462D01*
X97355282Y-83464591D01*
X97580533Y-83372421D01*
X97783474Y-83238078D01*
X97956307Y-83066725D01*
X97999519Y-83002651D01*
X98122498Y-83152502D01*
X98240000Y-83248934D01*
X98240000Y-83685199D01*
X98185199Y-83740000D01*
X83037325Y-83740000D01*
X83000000Y-83736324D01*
X82962675Y-83740000D01*
X82962667Y-83740000D01*
X82851014Y-83750997D01*
X82707753Y-83794454D01*
X82575724Y-83865026D01*
X82459999Y-83959999D01*
X82455895Y-83965000D01*
X82398061Y-83965000D01*
X82198102Y-84004774D01*
X82009744Y-84082795D01*
X81840226Y-84196063D01*
X81696063Y-84340226D01*
X81582795Y-84509744D01*
X81504774Y-84698102D01*
X81465000Y-84898061D01*
X81465000Y-85101939D01*
X81504774Y-85301898D01*
X81582795Y-85490256D01*
X81696063Y-85659774D01*
X81840226Y-85803937D01*
X82009744Y-85917205D01*
X82198102Y-85995226D01*
X82398061Y-86035000D01*
X82601939Y-86035000D01*
X82801898Y-85995226D01*
X82990256Y-85917205D01*
X83159774Y-85803937D01*
X83303937Y-85659774D01*
X83417205Y-85490256D01*
X83495226Y-85301898D01*
X83503560Y-85260000D01*
X94165199Y-85260000D01*
X94088998Y-85336201D01*
X94060000Y-85359999D01*
X94036202Y-85388997D01*
X94036201Y-85388998D01*
X93965026Y-85475724D01*
X93894454Y-85607754D01*
X93881947Y-85648986D01*
X93850998Y-85751014D01*
X93843941Y-85822667D01*
X93836324Y-85900000D01*
X93840001Y-85937332D01*
X93840001Y-86291821D01*
X93653368Y-86416525D01*
X93446525Y-86623368D01*
X93330000Y-86797760D01*
X93213475Y-86623368D01*
X93006632Y-86416525D01*
X92763411Y-86254010D01*
X92493158Y-86142068D01*
X92206260Y-86085000D01*
X91913740Y-86085000D01*
X91626842Y-86142068D01*
X91356589Y-86254010D01*
X91113368Y-86416525D01*
X90906525Y-86623368D01*
X90790000Y-86797760D01*
X90673475Y-86623368D01*
X90466632Y-86416525D01*
X90223411Y-86254010D01*
X89953158Y-86142068D01*
X89666260Y-86085000D01*
X89373740Y-86085000D01*
X89086842Y-86142068D01*
X88816589Y-86254010D01*
X88573368Y-86416525D01*
X88366525Y-86623368D01*
X88250000Y-86797760D01*
X88133475Y-86623368D01*
X87926632Y-86416525D01*
X87683411Y-86254010D01*
X87413158Y-86142068D01*
X87126260Y-86085000D01*
X86833740Y-86085000D01*
X86546842Y-86142068D01*
X86276589Y-86254010D01*
X86033368Y-86416525D01*
X85826525Y-86623368D01*
X85710689Y-86796729D01*
X85468397Y-86721208D01*
X84619605Y-87570000D01*
X85468397Y-88418792D01*
X85710689Y-88343271D01*
X85826525Y-88516632D01*
X86033368Y-88723475D01*
X86276589Y-88885990D01*
X86546842Y-88997932D01*
X86833740Y-89055000D01*
X87126260Y-89055000D01*
X87346408Y-89011209D01*
X88346200Y-90011002D01*
X88369999Y-90040001D01*
X88485724Y-90134974D01*
X88617753Y-90205546D01*
X88761014Y-90249003D01*
X88872667Y-90260000D01*
X88872676Y-90260000D01*
X88909999Y-90263676D01*
X88947322Y-90260000D01*
X88992462Y-90260000D01*
X88965000Y-90398061D01*
X88965000Y-90601939D01*
X89004774Y-90801898D01*
X89082795Y-90990256D01*
X89196063Y-91159774D01*
X89340226Y-91303937D01*
X89509744Y-91417205D01*
X89698102Y-91495226D01*
X89898061Y-91535000D01*
X89960199Y-91535000D01*
X91436201Y-93011003D01*
X91459999Y-93040001D01*
X91488997Y-93063799D01*
X91575723Y-93134974D01*
X91685170Y-93193475D01*
X91707753Y-93205546D01*
X91851014Y-93249003D01*
X91962667Y-93260000D01*
X91962676Y-93260000D01*
X91999999Y-93263676D01*
X92037322Y-93260000D01*
X93296289Y-93260000D01*
X93340226Y-93303937D01*
X93509744Y-93417205D01*
X93698102Y-93495226D01*
X93898061Y-93535000D01*
X94101939Y-93535000D01*
X94301898Y-93495226D01*
X94490256Y-93417205D01*
X94659774Y-93303937D01*
X94803937Y-93159774D01*
X94917205Y-92990256D01*
X94995226Y-92801898D01*
X95035000Y-92601939D01*
X95035000Y-92398061D01*
X94995226Y-92198102D01*
X94917205Y-92009744D01*
X94803937Y-91840226D01*
X94659774Y-91696063D01*
X94490256Y-91582795D01*
X94301898Y-91504774D01*
X94101939Y-91465000D01*
X93898061Y-91465000D01*
X93698102Y-91504774D01*
X93509744Y-91582795D01*
X93340226Y-91696063D01*
X93296289Y-91740000D01*
X92314802Y-91740000D01*
X91035000Y-90460199D01*
X91035000Y-90398061D01*
X91007538Y-90260000D01*
X123496440Y-90260000D01*
X123504774Y-90301898D01*
X123582795Y-90490256D01*
X123696063Y-90659774D01*
X123840226Y-90803937D01*
X124009744Y-90917205D01*
X124198102Y-90995226D01*
X124398061Y-91035000D01*
X124601939Y-91035000D01*
X124740000Y-91007538D01*
X124740001Y-91796288D01*
X124696063Y-91840226D01*
X124582795Y-92009744D01*
X124504774Y-92198102D01*
X124465000Y-92398061D01*
X124465000Y-92601939D01*
X124504774Y-92801898D01*
X124582795Y-92990256D01*
X124696063Y-93159774D01*
X124840226Y-93303937D01*
X125008694Y-93416504D01*
X123910200Y-94514999D01*
X123689321Y-94514999D01*
X123651998Y-94511323D01*
X123614675Y-94514999D01*
X123614666Y-94514999D01*
X123503013Y-94525996D01*
X123359752Y-94569453D01*
X123227723Y-94640025D01*
X123227721Y-94640026D01*
X123227722Y-94640026D01*
X123140995Y-94711200D01*
X123140991Y-94711204D01*
X123111998Y-94734998D01*
X123088204Y-94763991D01*
X121884499Y-95967698D01*
X121698102Y-96004774D01*
X121509744Y-96082795D01*
X121340226Y-96196063D01*
X121196063Y-96340226D01*
X121082795Y-96509744D01*
X121004774Y-96698102D01*
X120965000Y-96898061D01*
X120965000Y-97101939D01*
X121004774Y-97301898D01*
X121082795Y-97490256D01*
X121196063Y-97659774D01*
X121340226Y-97803937D01*
X121509744Y-97917205D01*
X121698102Y-97995226D01*
X121898061Y-98035000D01*
X122101939Y-98035000D01*
X122301898Y-97995226D01*
X122490256Y-97917205D01*
X122659774Y-97803937D01*
X122803937Y-97659774D01*
X122917205Y-97490256D01*
X122995226Y-97301898D01*
X123035000Y-97101939D01*
X123035000Y-96966800D01*
X123269044Y-96732755D01*
X123340226Y-96803937D01*
X123509744Y-96917205D01*
X123698102Y-96995226D01*
X123898061Y-97035000D01*
X124101939Y-97035000D01*
X124301898Y-96995226D01*
X124490256Y-96917205D01*
X124659774Y-96803937D01*
X124703711Y-96760000D01*
X125002678Y-96760000D01*
X125040000Y-96763676D01*
X125077322Y-96760000D01*
X125077333Y-96760000D01*
X125188986Y-96749003D01*
X125332247Y-96705546D01*
X125464276Y-96634974D01*
X125580001Y-96540001D01*
X125603804Y-96510997D01*
X127515000Y-94599801D01*
X127515000Y-94726260D01*
X127572068Y-95013158D01*
X127684010Y-95283411D01*
X127846525Y-95526632D01*
X128053368Y-95733475D01*
X128296589Y-95895990D01*
X128566842Y-96007932D01*
X128853740Y-96065000D01*
X129146260Y-96065000D01*
X129433158Y-96007932D01*
X129703411Y-95895990D01*
X129946632Y-95733475D01*
X130153475Y-95526632D01*
X130271100Y-95350594D01*
X130442412Y-95580269D01*
X130658645Y-95775178D01*
X130908748Y-95924157D01*
X131183109Y-96021481D01*
X131413000Y-95900814D01*
X131413000Y-94707000D01*
X131667000Y-94707000D01*
X131667000Y-95900814D01*
X131896891Y-96021481D01*
X132171252Y-95924157D01*
X132421355Y-95775178D01*
X132637588Y-95580269D01*
X132811641Y-95346920D01*
X132936825Y-95084099D01*
X132981476Y-94936890D01*
X132860155Y-94707000D01*
X131667000Y-94707000D01*
X131413000Y-94707000D01*
X131393000Y-94707000D01*
X131393000Y-94453000D01*
X131413000Y-94453000D01*
X131413000Y-94433000D01*
X131667000Y-94433000D01*
X131667000Y-94453000D01*
X132860155Y-94453000D01*
X132981476Y-94223110D01*
X132936825Y-94075901D01*
X132811641Y-93813080D01*
X132637588Y-93579731D01*
X132421355Y-93384822D01*
X132304466Y-93315195D01*
X132486632Y-93193475D01*
X132693475Y-92986632D01*
X132855990Y-92743411D01*
X132967932Y-92473158D01*
X133025000Y-92186260D01*
X133025000Y-91893740D01*
X132967932Y-91606842D01*
X132855990Y-91336589D01*
X132693475Y-91093368D01*
X132486632Y-90886525D01*
X132312240Y-90770000D01*
X132486632Y-90653475D01*
X132693475Y-90446632D01*
X132734656Y-90385000D01*
X134333422Y-90385000D01*
X134545001Y-90596580D01*
X134545000Y-118563181D01*
X134526531Y-118565000D01*
X132933366Y-118565000D01*
X132754449Y-118418167D01*
X132539901Y-118303489D01*
X132307102Y-118232870D01*
X132125665Y-118215000D01*
X131531579Y-118215000D01*
X124706579Y-111390000D01*
X130234025Y-111390000D01*
X130257870Y-111632102D01*
X130328489Y-111864901D01*
X130443167Y-112079449D01*
X130597498Y-112267502D01*
X130636111Y-112299191D01*
X130631613Y-112301595D01*
X130497038Y-112412038D01*
X130386595Y-112546613D01*
X130304528Y-112700149D01*
X130253992Y-112866745D01*
X130236928Y-113039999D01*
X130236928Y-113740001D01*
X130253992Y-113913255D01*
X130304528Y-114079851D01*
X130386595Y-114233387D01*
X130497038Y-114367962D01*
X130631613Y-114478405D01*
X130785149Y-114560472D01*
X130951745Y-114611008D01*
X131124999Y-114628072D01*
X132375001Y-114628072D01*
X132548255Y-114611008D01*
X132714851Y-114560472D01*
X132868387Y-114478405D01*
X133002962Y-114367962D01*
X133113405Y-114233387D01*
X133195472Y-114079851D01*
X133246008Y-113913255D01*
X133263072Y-113740001D01*
X133263072Y-113039999D01*
X133246008Y-112866745D01*
X133195472Y-112700149D01*
X133113405Y-112546613D01*
X133002962Y-112412038D01*
X132868387Y-112301595D01*
X132863889Y-112299191D01*
X132902502Y-112267502D01*
X133056833Y-112079449D01*
X133171511Y-111864901D01*
X133242130Y-111632102D01*
X133265975Y-111390000D01*
X133242130Y-111147898D01*
X133171511Y-110915099D01*
X133056833Y-110700551D01*
X132902502Y-110512498D01*
X132714449Y-110358167D01*
X132499901Y-110243489D01*
X132267102Y-110172870D01*
X132085665Y-110155000D01*
X131414335Y-110155000D01*
X131232898Y-110172870D01*
X131000099Y-110243489D01*
X130785551Y-110358167D01*
X130597498Y-110512498D01*
X130443167Y-110700551D01*
X130328489Y-110915099D01*
X130257870Y-111147898D01*
X130234025Y-111390000D01*
X124706579Y-111390000D01*
X123151534Y-109834956D01*
X123123817Y-109801183D01*
X122989059Y-109690589D01*
X122835313Y-109608411D01*
X122668490Y-109557805D01*
X122538477Y-109545000D01*
X122538469Y-109545000D01*
X122495000Y-109540719D01*
X122451531Y-109545000D01*
X116114656Y-109545000D01*
X116073475Y-109483368D01*
X115866632Y-109276525D01*
X115623411Y-109114010D01*
X115353158Y-109002068D01*
X115066260Y-108945000D01*
X114773740Y-108945000D01*
X114486842Y-109002068D01*
X114216589Y-109114010D01*
X113973368Y-109276525D01*
X113766525Y-109483368D01*
X113650000Y-109657760D01*
X113533475Y-109483368D01*
X113326632Y-109276525D01*
X113083411Y-109114010D01*
X112813158Y-109002068D01*
X112526260Y-108945000D01*
X112233740Y-108945000D01*
X111946842Y-109002068D01*
X111676589Y-109114010D01*
X111433368Y-109276525D01*
X111226525Y-109483368D01*
X111110000Y-109657760D01*
X110993475Y-109483368D01*
X110786632Y-109276525D01*
X110600000Y-109151822D01*
X110600000Y-108974801D01*
X113539802Y-106035000D01*
X113601939Y-106035000D01*
X113801898Y-105995226D01*
X113990256Y-105917205D01*
X114159774Y-105803937D01*
X114303937Y-105659774D01*
X114417205Y-105490256D01*
X114495226Y-105301898D01*
X114535000Y-105101939D01*
X114535000Y-104898061D01*
X114495226Y-104698102D01*
X114417205Y-104509744D01*
X114303937Y-104340226D01*
X114159774Y-104196063D01*
X114033112Y-104111430D01*
X114035000Y-104101939D01*
X114035000Y-103898061D01*
X113995226Y-103698102D01*
X113917205Y-103509744D01*
X113803937Y-103340226D01*
X113659774Y-103196063D01*
X113490256Y-103082795D01*
X113301898Y-103004774D01*
X113101939Y-102965000D01*
X112898061Y-102965000D01*
X112698102Y-103004774D01*
X112509744Y-103082795D01*
X112456290Y-103118512D01*
X112814802Y-102760000D01*
X124296289Y-102760000D01*
X124340226Y-102803937D01*
X124509744Y-102917205D01*
X124698102Y-102995226D01*
X124898061Y-103035000D01*
X125101939Y-103035000D01*
X125301898Y-102995226D01*
X125490256Y-102917205D01*
X125659774Y-102803937D01*
X125803937Y-102659774D01*
X125917205Y-102490256D01*
X125995226Y-102301898D01*
X126035000Y-102101939D01*
X126035000Y-101898061D01*
X125995226Y-101698102D01*
X125917205Y-101509744D01*
X125803937Y-101340226D01*
X125659774Y-101196063D01*
X125490256Y-101082795D01*
X125301898Y-101004774D01*
X125101939Y-100965000D01*
X124898061Y-100965000D01*
X124698102Y-101004774D01*
X124509744Y-101082795D01*
X124340226Y-101196063D01*
X124296289Y-101240000D01*
X112537322Y-101240000D01*
X112499999Y-101236324D01*
X112462676Y-101240000D01*
X112462667Y-101240000D01*
X112351014Y-101250997D01*
X112207753Y-101294454D01*
X112075723Y-101365026D01*
X111992083Y-101433668D01*
X111959999Y-101459999D01*
X111936201Y-101488997D01*
X110185199Y-103240000D01*
X104537322Y-103240000D01*
X104499999Y-103236324D01*
X104462676Y-103240000D01*
X104462667Y-103240000D01*
X104351014Y-103250997D01*
X104207753Y-103294454D01*
X104075724Y-103365026D01*
X103959999Y-103459999D01*
X103936201Y-103488997D01*
X99169003Y-108256196D01*
X99139999Y-108279999D01*
X99084871Y-108347174D01*
X99045026Y-108395724D01*
X99043777Y-108398061D01*
X98974454Y-108527754D01*
X98930997Y-108671015D01*
X98920000Y-108782668D01*
X98920000Y-108782678D01*
X98916324Y-108820000D01*
X98920000Y-108857323D01*
X98920000Y-109151821D01*
X98733368Y-109276525D01*
X98526525Y-109483368D01*
X98410000Y-109657760D01*
X98293475Y-109483368D01*
X98086632Y-109276525D01*
X97843411Y-109114010D01*
X97573158Y-109002068D01*
X97286260Y-108945000D01*
X96993740Y-108945000D01*
X96706842Y-109002068D01*
X96436589Y-109114010D01*
X96193368Y-109276525D01*
X95986525Y-109483368D01*
X95870000Y-109657760D01*
X95753475Y-109483368D01*
X95546632Y-109276525D01*
X95303411Y-109114010D01*
X95033158Y-109002068D01*
X94746260Y-108945000D01*
X94453740Y-108945000D01*
X94166842Y-109002068D01*
X93896589Y-109114010D01*
X93653368Y-109276525D01*
X93446525Y-109483368D01*
X93330000Y-109657760D01*
X93213475Y-109483368D01*
X93006632Y-109276525D01*
X92763411Y-109114010D01*
X92493158Y-109002068D01*
X92206260Y-108945000D01*
X91913740Y-108945000D01*
X91626842Y-109002068D01*
X91356589Y-109114010D01*
X91113368Y-109276525D01*
X90906525Y-109483368D01*
X90790000Y-109657760D01*
X90673475Y-109483368D01*
X90466632Y-109276525D01*
X90223411Y-109114010D01*
X89953158Y-109002068D01*
X89666260Y-108945000D01*
X89373740Y-108945000D01*
X89086842Y-109002068D01*
X88816589Y-109114010D01*
X88573368Y-109276525D01*
X88366525Y-109483368D01*
X88250000Y-109657760D01*
X88133475Y-109483368D01*
X87926632Y-109276525D01*
X87683411Y-109114010D01*
X87413158Y-109002068D01*
X87126260Y-108945000D01*
X86833740Y-108945000D01*
X86546842Y-109002068D01*
X86276589Y-109114010D01*
X86033368Y-109276525D01*
X85826525Y-109483368D01*
X85710000Y-109657760D01*
X85593475Y-109483368D01*
X85386632Y-109276525D01*
X85143411Y-109114010D01*
X84873158Y-109002068D01*
X84586260Y-108945000D01*
X84293740Y-108945000D01*
X84073592Y-108988790D01*
X82497300Y-107412498D01*
X82659774Y-107303937D01*
X82803937Y-107159774D01*
X82917205Y-106990256D01*
X82995226Y-106801898D01*
X83035000Y-106601939D01*
X83035000Y-106398061D01*
X82995226Y-106198102D01*
X82917205Y-106009744D01*
X82881488Y-105956290D01*
X83465000Y-106539802D01*
X83465000Y-106601939D01*
X83504774Y-106801898D01*
X83582795Y-106990256D01*
X83696063Y-107159774D01*
X83840226Y-107303937D01*
X84009744Y-107417205D01*
X84198102Y-107495226D01*
X84398061Y-107535000D01*
X84601939Y-107535000D01*
X84801898Y-107495226D01*
X84990256Y-107417205D01*
X85159774Y-107303937D01*
X85303937Y-107159774D01*
X85417205Y-106990256D01*
X85495226Y-106801898D01*
X85535000Y-106601939D01*
X85535000Y-106398061D01*
X85495226Y-106198102D01*
X85417205Y-106009744D01*
X85303937Y-105840226D01*
X85159774Y-105696063D01*
X84990256Y-105582795D01*
X84801898Y-105504774D01*
X84601939Y-105465000D01*
X84539802Y-105465000D01*
X82769256Y-103694455D01*
X82803937Y-103659774D01*
X82917205Y-103490256D01*
X82995226Y-103301898D01*
X83035000Y-103101939D01*
X83035000Y-102898061D01*
X100965000Y-102898061D01*
X100965000Y-103101939D01*
X101004774Y-103301898D01*
X101082795Y-103490256D01*
X101196063Y-103659774D01*
X101340226Y-103803937D01*
X101509744Y-103917205D01*
X101698102Y-103995226D01*
X101898061Y-104035000D01*
X102101939Y-104035000D01*
X102301898Y-103995226D01*
X102490256Y-103917205D01*
X102659774Y-103803937D01*
X102803937Y-103659774D01*
X102917205Y-103490256D01*
X102995226Y-103301898D01*
X103035000Y-103101939D01*
X103035000Y-103039801D01*
X106511003Y-99563799D01*
X106540001Y-99540001D01*
X106634974Y-99424276D01*
X106705546Y-99292247D01*
X106749003Y-99148986D01*
X106760000Y-99037333D01*
X106760000Y-99037324D01*
X106763676Y-99000001D01*
X106760000Y-98962678D01*
X106760000Y-98203711D01*
X106803937Y-98159774D01*
X106917205Y-97990256D01*
X106995226Y-97801898D01*
X107035000Y-97601939D01*
X107035000Y-97398061D01*
X106995226Y-97198102D01*
X106917205Y-97009744D01*
X106803937Y-96840226D01*
X106659774Y-96696063D01*
X106490256Y-96582795D01*
X106301898Y-96504774D01*
X106101939Y-96465000D01*
X105898061Y-96465000D01*
X105698102Y-96504774D01*
X105509744Y-96582795D01*
X105340226Y-96696063D01*
X105196063Y-96840226D01*
X105082795Y-97009744D01*
X105004774Y-97198102D01*
X104965000Y-97398061D01*
X104965000Y-97601939D01*
X105004774Y-97801898D01*
X105082795Y-97990256D01*
X105196063Y-98159774D01*
X105240000Y-98203711D01*
X105240001Y-98685197D01*
X101960199Y-101965000D01*
X101898061Y-101965000D01*
X101698102Y-102004774D01*
X101509744Y-102082795D01*
X101340226Y-102196063D01*
X101196063Y-102340226D01*
X101082795Y-102509744D01*
X101004774Y-102698102D01*
X100965000Y-102898061D01*
X83035000Y-102898061D01*
X82995226Y-102698102D01*
X82917205Y-102509744D01*
X82803937Y-102340226D01*
X82659774Y-102196063D01*
X82490256Y-102082795D01*
X82301898Y-102004774D01*
X82101939Y-101965000D01*
X81898061Y-101965000D01*
X81698102Y-102004774D01*
X81509744Y-102082795D01*
X81340226Y-102196063D01*
X81250000Y-102286289D01*
X81159774Y-102196063D01*
X80990256Y-102082795D01*
X80801898Y-102004774D01*
X80601939Y-101965000D01*
X80398061Y-101965000D01*
X80198102Y-102004774D01*
X80009744Y-102082795D01*
X79840226Y-102196063D01*
X79696063Y-102340226D01*
X79582795Y-102509744D01*
X79504774Y-102698102D01*
X79465000Y-102898061D01*
X79465000Y-103101939D01*
X79504774Y-103301898D01*
X79582795Y-103490256D01*
X79696063Y-103659774D01*
X79740000Y-103703711D01*
X79740001Y-104655200D01*
X77513804Y-102429003D01*
X77490001Y-102399999D01*
X77374276Y-102305026D01*
X77242247Y-102234454D01*
X77098986Y-102190997D01*
X76987333Y-102180000D01*
X76987322Y-102180000D01*
X76950000Y-102176324D01*
X76912678Y-102180000D01*
X76254802Y-102180000D01*
X75535000Y-101460199D01*
X75535000Y-101398061D01*
X75495226Y-101198102D01*
X75417205Y-101009744D01*
X75303937Y-100840226D01*
X75159774Y-100696063D01*
X74990256Y-100582795D01*
X74801898Y-100504774D01*
X74601939Y-100465000D01*
X74398061Y-100465000D01*
X74198102Y-100504774D01*
X74009744Y-100582795D01*
X73840226Y-100696063D01*
X73696063Y-100840226D01*
X73582795Y-101009744D01*
X73504774Y-101198102D01*
X73465000Y-101398061D01*
X73160000Y-101398061D01*
X73160000Y-94898061D01*
X84965000Y-94898061D01*
X84965000Y-95101939D01*
X85004774Y-95301898D01*
X85082795Y-95490256D01*
X85196063Y-95659774D01*
X85340226Y-95803937D01*
X85509744Y-95917205D01*
X85698102Y-95995226D01*
X85898061Y-96035000D01*
X86101939Y-96035000D01*
X86146556Y-96026125D01*
X86009744Y-96082795D01*
X85840226Y-96196063D01*
X85696063Y-96340226D01*
X85582795Y-96509744D01*
X85504774Y-96698102D01*
X85465000Y-96898061D01*
X85465000Y-97101939D01*
X85504774Y-97301898D01*
X85582795Y-97490256D01*
X85696063Y-97659774D01*
X85840226Y-97803937D01*
X86009744Y-97917205D01*
X86198102Y-97995226D01*
X86398061Y-98035000D01*
X86601939Y-98035000D01*
X86801898Y-97995226D01*
X86990256Y-97917205D01*
X87159774Y-97803937D01*
X87203711Y-97760000D01*
X94296289Y-97760000D01*
X94340226Y-97803937D01*
X94509744Y-97917205D01*
X94698102Y-97995226D01*
X94898061Y-98035000D01*
X95101939Y-98035000D01*
X95301898Y-97995226D01*
X95490256Y-97917205D01*
X95659774Y-97803937D01*
X95803937Y-97659774D01*
X95917205Y-97490256D01*
X95995226Y-97301898D01*
X96035000Y-97101939D01*
X96035000Y-96898061D01*
X95995226Y-96698102D01*
X95917205Y-96509744D01*
X95803937Y-96340226D01*
X95659774Y-96196063D01*
X95490256Y-96082795D01*
X95301898Y-96004774D01*
X95101939Y-95965000D01*
X94898061Y-95965000D01*
X94698102Y-96004774D01*
X94509744Y-96082795D01*
X94340226Y-96196063D01*
X94296289Y-96240000D01*
X87203711Y-96240000D01*
X87159774Y-96196063D01*
X86990256Y-96082795D01*
X86801898Y-96004774D01*
X86601939Y-95965000D01*
X86398061Y-95965000D01*
X86353444Y-95973875D01*
X86490256Y-95917205D01*
X86659774Y-95803937D01*
X86703711Y-95760000D01*
X98296289Y-95760000D01*
X98340226Y-95803937D01*
X98509744Y-95917205D01*
X98698102Y-95995226D01*
X98898061Y-96035000D01*
X99101939Y-96035000D01*
X99301898Y-95995226D01*
X99490256Y-95917205D01*
X99659774Y-95803937D01*
X99803937Y-95659774D01*
X99917205Y-95490256D01*
X99995226Y-95301898D01*
X100035000Y-95101939D01*
X100035000Y-94898061D01*
X99995226Y-94698102D01*
X99917205Y-94509744D01*
X99803937Y-94340226D01*
X99659774Y-94196063D01*
X99490256Y-94082795D01*
X99301898Y-94004774D01*
X99101939Y-93965000D01*
X98898061Y-93965000D01*
X98698102Y-94004774D01*
X98509744Y-94082795D01*
X98340226Y-94196063D01*
X98296289Y-94240000D01*
X86703711Y-94240000D01*
X86659774Y-94196063D01*
X86490256Y-94082795D01*
X86301898Y-94004774D01*
X86101939Y-93965000D01*
X85898061Y-93965000D01*
X85698102Y-94004774D01*
X85509744Y-94082795D01*
X85340226Y-94196063D01*
X85196063Y-94340226D01*
X85082795Y-94509744D01*
X85004774Y-94698102D01*
X84965000Y-94898061D01*
X73160000Y-94898061D01*
X73160000Y-88598397D01*
X83591208Y-88598397D01*
X83668843Y-88847472D01*
X83932883Y-88973371D01*
X84216411Y-89045339D01*
X84508531Y-89060611D01*
X84798019Y-89018599D01*
X85073747Y-88920919D01*
X85211157Y-88847472D01*
X85288792Y-88598397D01*
X84440000Y-87749605D01*
X83591208Y-88598397D01*
X73160000Y-88598397D01*
X73160000Y-87638531D01*
X82949389Y-87638531D01*
X82991401Y-87928019D01*
X83089081Y-88203747D01*
X83162528Y-88341157D01*
X83411603Y-88418792D01*
X84260395Y-87570000D01*
X83411603Y-86721208D01*
X83162528Y-86798843D01*
X83036629Y-87062883D01*
X82964661Y-87346411D01*
X82949389Y-87638531D01*
X73160000Y-87638531D01*
X73160000Y-86541603D01*
X83591208Y-86541603D01*
X84440000Y-87390395D01*
X85288792Y-86541603D01*
X85211157Y-86292528D01*
X84947117Y-86166629D01*
X84663589Y-86094661D01*
X84371469Y-86079389D01*
X84081981Y-86121401D01*
X83806253Y-86219081D01*
X83668843Y-86292528D01*
X83591208Y-86541603D01*
X73160000Y-86541603D01*
X73160000Y-82127000D01*
X80765000Y-82127000D01*
X80765000Y-82402000D01*
X80813507Y-82640496D01*
X80907610Y-82864946D01*
X81043693Y-83066725D01*
X81216526Y-83238078D01*
X81419467Y-83372421D01*
X81644718Y-83464591D01*
X81682391Y-83468462D01*
X81873000Y-83343731D01*
X81873000Y-82127000D01*
X80765000Y-82127000D01*
X73160000Y-82127000D01*
X73160000Y-81598000D01*
X80765000Y-81598000D01*
X80765000Y-81873000D01*
X81873000Y-81873000D01*
X81873000Y-80656269D01*
X81682391Y-80531538D01*
X81644718Y-80535409D01*
X81419467Y-80627579D01*
X81216526Y-80761922D01*
X81043693Y-80933275D01*
X80907610Y-81135054D01*
X80813507Y-81359504D01*
X80765000Y-81598000D01*
X73160000Y-81598000D01*
X73160000Y-79032279D01*
X73188625Y-78740341D01*
X73264035Y-78490571D01*
X73386522Y-78260208D01*
X73551422Y-78058020D01*
X73752450Y-77891714D01*
X73981954Y-77767622D01*
X74231195Y-77690469D01*
X74521088Y-77660000D01*
X135467721Y-77660000D01*
X135759659Y-77688625D01*
G37*
X135759659Y-77688625D02*
X136009429Y-77764035D01*
X136239792Y-77886522D01*
X136441980Y-78051422D01*
X136608286Y-78252450D01*
X136732378Y-78481954D01*
X136809531Y-78731195D01*
X136840000Y-79021088D01*
X136840001Y-129967711D01*
X136811375Y-130259660D01*
X136735965Y-130509429D01*
X136613477Y-130739794D01*
X136448579Y-130941979D01*
X136247546Y-131108288D01*
X136018046Y-131232378D01*
X135768805Y-131309531D01*
X135478911Y-131340000D01*
X74532279Y-131340000D01*
X74240340Y-131311375D01*
X73990571Y-131235965D01*
X73760206Y-131113477D01*
X73558021Y-130948579D01*
X73391712Y-130747546D01*
X73267622Y-130518046D01*
X73190469Y-130268805D01*
X73160000Y-129978911D01*
X73160000Y-128279872D01*
X73765000Y-128279872D01*
X73765000Y-128720128D01*
X73850890Y-129151925D01*
X74019369Y-129558669D01*
X74263962Y-129924729D01*
X74575271Y-130236038D01*
X74941331Y-130480631D01*
X75348075Y-130649110D01*
X75779872Y-130735000D01*
X76220128Y-130735000D01*
X76651925Y-130649110D01*
X77058669Y-130480631D01*
X77424729Y-130236038D01*
X77736038Y-129924729D01*
X77980631Y-129558669D01*
X78149110Y-129151925D01*
X78235000Y-128720128D01*
X78235000Y-128279872D01*
X78149110Y-127848075D01*
X77980631Y-127441331D01*
X77736038Y-127075271D01*
X77424729Y-126763962D01*
X77058669Y-126519369D01*
X76651925Y-126350890D01*
X76220128Y-126265000D01*
X75779872Y-126265000D01*
X75348075Y-126350890D01*
X74941331Y-126519369D01*
X74575271Y-126763962D01*
X74263962Y-127075271D01*
X74019369Y-127441331D01*
X73850890Y-127848075D01*
X73765000Y-128279872D01*
X73160000Y-128279872D01*
X73160000Y-109500000D01*
X73236324Y-109500000D01*
X73240000Y-109537323D01*
X73240001Y-111962668D01*
X73236324Y-112000000D01*
X73240001Y-112037333D01*
X73250998Y-112148986D01*
X73257067Y-112168992D01*
X73294454Y-112292246D01*
X73365026Y-112424276D01*
X73423254Y-112495226D01*
X73460000Y-112540001D01*
X73488998Y-112563799D01*
X85240000Y-124314802D01*
X85240001Y-125251066D01*
X85122498Y-125347498D01*
X85090809Y-125386111D01*
X85088405Y-125381613D01*
X84977962Y-125247038D01*
X84843387Y-125136595D01*
X84689851Y-125054528D01*
X84523255Y-125003992D01*
X84350001Y-124986928D01*
X83649999Y-124986928D01*
X83476745Y-125003992D01*
X83310149Y-125054528D01*
X83156613Y-125136595D01*
X83022038Y-125247038D01*
X82911595Y-125381613D01*
X82829528Y-125535149D01*
X82778992Y-125701745D01*
X82761928Y-125874999D01*
X82761928Y-127125001D01*
X82778992Y-127298255D01*
X82829528Y-127464851D01*
X82911595Y-127618387D01*
X83022038Y-127752962D01*
X83156613Y-127863405D01*
X83310149Y-127945472D01*
X83476745Y-127996008D01*
X83649999Y-128013072D01*
X84350001Y-128013072D01*
X84523255Y-127996008D01*
X84689851Y-127945472D01*
X84843387Y-127863405D01*
X84977962Y-127752962D01*
X85088405Y-127618387D01*
X85090810Y-127613888D01*
X85122499Y-127652502D01*
X85310552Y-127806833D01*
X85525100Y-127921511D01*
X85757899Y-127992130D01*
X86000000Y-128015975D01*
X86242102Y-127992130D01*
X86474901Y-127921511D01*
X86689449Y-127806833D01*
X86877502Y-127652502D01*
X87000001Y-127503237D01*
X87122499Y-127652502D01*
X87310552Y-127806833D01*
X87525100Y-127921511D01*
X87757899Y-127992130D01*
X88000000Y-128015975D01*
X88242102Y-127992130D01*
X88474901Y-127921511D01*
X88689449Y-127806833D01*
X88877502Y-127652502D01*
X89000481Y-127502652D01*
X89043693Y-127566725D01*
X89216526Y-127738078D01*
X89419467Y-127872421D01*
X89644718Y-127964591D01*
X89682391Y-127968462D01*
X89873000Y-127843731D01*
X89873000Y-126627000D01*
X90127000Y-126627000D01*
X90127000Y-127843731D01*
X90317609Y-127968462D01*
X90355282Y-127964591D01*
X90580533Y-127872421D01*
X90783474Y-127738078D01*
X90956307Y-127566725D01*
X91092390Y-127364946D01*
X91186493Y-127140496D01*
X91235000Y-126902000D01*
X91235000Y-126700000D01*
X95561928Y-126700000D01*
X95561928Y-128300000D01*
X95574188Y-128424482D01*
X95610498Y-128544180D01*
X95669463Y-128654494D01*
X95748815Y-128751185D01*
X95845506Y-128830537D01*
X95955820Y-128889502D01*
X96075518Y-128925812D01*
X96200000Y-128938072D01*
X97800000Y-128938072D01*
X97924482Y-128925812D01*
X98044180Y-128889502D01*
X98154494Y-128830537D01*
X98251185Y-128751185D01*
X98330537Y-128654494D01*
X98389502Y-128544180D01*
X98405117Y-128492702D01*
X98686903Y-128492702D01*
X98758486Y-128736671D01*
X99013996Y-128857571D01*
X99288184Y-128926300D01*
X99570512Y-128940217D01*
X99850130Y-128898787D01*
X100116292Y-128803603D01*
X100241514Y-128736671D01*
X100313097Y-128492702D01*
X99500000Y-127679605D01*
X98686903Y-128492702D01*
X98405117Y-128492702D01*
X98425812Y-128424482D01*
X98438072Y-128300000D01*
X98438072Y-128292785D01*
X98507298Y-128313097D01*
X99320395Y-127500000D01*
X99679605Y-127500000D01*
X100492702Y-128313097D01*
X100736671Y-128241514D01*
X100857571Y-127986004D01*
X100926300Y-127711816D01*
X100940217Y-127429488D01*
X100898787Y-127149870D01*
X100803603Y-126883708D01*
X100736671Y-126758486D01*
X100492702Y-126686903D01*
X99679605Y-127500000D01*
X99320395Y-127500000D01*
X98507298Y-126686903D01*
X98438072Y-126707215D01*
X98438072Y-126700000D01*
X98425812Y-126575518D01*
X98405118Y-126507298D01*
X98686903Y-126507298D01*
X99500000Y-127320395D01*
X100313097Y-126507298D01*
X100241514Y-126263329D01*
X99986004Y-126142429D01*
X99711816Y-126073700D01*
X99429488Y-126059783D01*
X99149870Y-126101213D01*
X98883708Y-126196397D01*
X98758486Y-126263329D01*
X98686903Y-126507298D01*
X98405118Y-126507298D01*
X98389502Y-126455820D01*
X98330537Y-126345506D01*
X98251185Y-126248815D01*
X98154494Y-126169463D01*
X98142226Y-126162905D01*
X101407070Y-122898061D01*
X105465000Y-122898061D01*
X105465000Y-123101939D01*
X105504774Y-123301898D01*
X105582795Y-123490256D01*
X105696063Y-123659774D01*
X105840226Y-123803937D01*
X106009744Y-123917205D01*
X106198102Y-123995226D01*
X106398061Y-124035000D01*
X106601939Y-124035000D01*
X106801898Y-123995226D01*
X106990256Y-123917205D01*
X107159774Y-123803937D01*
X107203711Y-123760000D01*
X112296289Y-123760000D01*
X112340226Y-123803937D01*
X112509744Y-123917205D01*
X112698102Y-123995226D01*
X112898061Y-124035000D01*
X113101939Y-124035000D01*
X113301898Y-123995226D01*
X113490256Y-123917205D01*
X113659774Y-123803937D01*
X113803937Y-123659774D01*
X113917205Y-123490256D01*
X113995226Y-123301898D01*
X114035000Y-123101939D01*
X114035000Y-122898061D01*
X113995226Y-122698102D01*
X113917205Y-122509744D01*
X113803937Y-122340226D01*
X113659774Y-122196063D01*
X113490256Y-122082795D01*
X113301898Y-122004774D01*
X113101939Y-121965000D01*
X112898061Y-121965000D01*
X112698102Y-122004774D01*
X112509744Y-122082795D01*
X112340226Y-122196063D01*
X112296289Y-122240000D01*
X107203711Y-122240000D01*
X107159774Y-122196063D01*
X106990256Y-122082795D01*
X106801898Y-122004774D01*
X106601939Y-121965000D01*
X106398061Y-121965000D01*
X106198102Y-122004774D01*
X106009744Y-122082795D01*
X105840226Y-122196063D01*
X105696063Y-122340226D01*
X105582795Y-122509744D01*
X105504774Y-122698102D01*
X105465000Y-122898061D01*
X101407070Y-122898061D01*
X103670132Y-120635000D01*
X113055752Y-120635000D01*
X113222499Y-120618577D01*
X113436447Y-120553676D01*
X113633623Y-120448284D01*
X113806449Y-120306449D01*
X113948284Y-120133623D01*
X114053676Y-119936447D01*
X114118577Y-119722499D01*
X114128355Y-119623224D01*
X115866579Y-117885000D01*
X120961546Y-117885000D01*
X121009744Y-117917205D01*
X121198102Y-117995226D01*
X121398061Y-118035000D01*
X121601939Y-118035000D01*
X121801898Y-117995226D01*
X121990256Y-117917205D01*
X122159774Y-117803937D01*
X122303937Y-117659774D01*
X122417205Y-117490256D01*
X122495226Y-117301898D01*
X122535000Y-117101939D01*
X122535000Y-116898061D01*
X122495226Y-116698102D01*
X122417205Y-116509744D01*
X122303937Y-116340226D01*
X122159774Y-116196063D01*
X121990256Y-116082795D01*
X121801898Y-116004774D01*
X121601939Y-115965000D01*
X121398061Y-115965000D01*
X121198102Y-116004774D01*
X121009744Y-116082795D01*
X120961546Y-116115000D01*
X115543469Y-116115000D01*
X115500000Y-116110719D01*
X115456531Y-116115000D01*
X115456523Y-116115000D01*
X115326510Y-116127805D01*
X115159687Y-116178411D01*
X115005941Y-116260589D01*
X114904953Y-116343468D01*
X114904951Y-116343470D01*
X114871183Y-116371183D01*
X114843470Y-116404951D01*
X112883422Y-118365000D01*
X103255751Y-118365000D01*
X103199999Y-118359509D01*
X103144248Y-118365000D01*
X102977501Y-118381423D01*
X102763553Y-118446324D01*
X102566377Y-118551716D01*
X102393551Y-118693551D01*
X102358009Y-118736859D01*
X96236860Y-124858009D01*
X96193552Y-124893551D01*
X96051717Y-125066377D01*
X96023342Y-125119463D01*
X95946324Y-125263554D01*
X95881423Y-125477502D01*
X95859509Y-125700000D01*
X95865000Y-125755751D01*
X95865000Y-126159043D01*
X95845506Y-126169463D01*
X95748815Y-126248815D01*
X95669463Y-126345506D01*
X95610498Y-126455820D01*
X95574188Y-126575518D01*
X95561928Y-126700000D01*
X91235000Y-126700000D01*
X91235000Y-126627000D01*
X90127000Y-126627000D01*
X89873000Y-126627000D01*
X89853000Y-126627000D01*
X89853000Y-126373000D01*
X89873000Y-126373000D01*
X89873000Y-125156269D01*
X90127000Y-125156269D01*
X90127000Y-126373000D01*
X91235000Y-126373000D01*
X91235000Y-126098000D01*
X91186493Y-125859504D01*
X91092390Y-125635054D01*
X90956307Y-125433275D01*
X90783474Y-125261922D01*
X90580533Y-125127579D01*
X90355282Y-125035409D01*
X90317609Y-125031538D01*
X90127000Y-125156269D01*
X89873000Y-125156269D01*
X89682391Y-125031538D01*
X89644718Y-125035409D01*
X89419467Y-125127579D01*
X89216526Y-125261922D01*
X89043693Y-125433275D01*
X89000481Y-125497348D01*
X88877502Y-125347498D01*
X88760000Y-125251067D01*
X88760000Y-124537322D01*
X88763676Y-124499999D01*
X88760000Y-124462676D01*
X88760000Y-124462667D01*
X88749003Y-124351014D01*
X88705546Y-124207753D01*
X88634974Y-124075724D01*
X88583900Y-124013490D01*
X88563799Y-123988996D01*
X88563795Y-123988992D01*
X88540001Y-123959999D01*
X88511009Y-123936206D01*
X82760000Y-118185199D01*
X82760000Y-112203711D01*
X82803937Y-112159774D01*
X82917205Y-111990256D01*
X82995226Y-111801898D01*
X83035000Y-111601939D01*
X83035000Y-111398061D01*
X82995226Y-111198102D01*
X82917205Y-111009744D01*
X82803937Y-110840226D01*
X82659774Y-110696063D01*
X82490256Y-110582795D01*
X82301898Y-110504774D01*
X82101939Y-110465000D01*
X81898061Y-110465000D01*
X81698102Y-110504774D01*
X81509744Y-110582795D01*
X81340226Y-110696063D01*
X81196063Y-110840226D01*
X81082795Y-111009744D01*
X81004774Y-111198102D01*
X80965000Y-111398061D01*
X80965000Y-111601939D01*
X81004774Y-111801898D01*
X81082795Y-111990256D01*
X81196063Y-112159774D01*
X81240000Y-112203711D01*
X81240001Y-118165199D01*
X74760000Y-111685199D01*
X74760000Y-109814801D01*
X75039802Y-109535000D01*
X75101939Y-109535000D01*
X75301898Y-109495226D01*
X75490256Y-109417205D01*
X75659774Y-109303937D01*
X75803937Y-109159774D01*
X75917205Y-108990256D01*
X75995226Y-108801898D01*
X76035000Y-108601939D01*
X76035000Y-108398061D01*
X75995226Y-108198102D01*
X75917205Y-108009744D01*
X75803937Y-107840226D01*
X75659774Y-107696063D01*
X75490256Y-107582795D01*
X75301898Y-107504774D01*
X75101939Y-107465000D01*
X74898061Y-107465000D01*
X74698102Y-107504774D01*
X74509744Y-107582795D01*
X74340226Y-107696063D01*
X74196063Y-107840226D01*
X74082795Y-108009744D01*
X74004774Y-108198102D01*
X73965000Y-108398061D01*
X73965000Y-108460198D01*
X73489002Y-108936196D01*
X73459999Y-108959999D01*
X73404871Y-109027174D01*
X73365026Y-109075724D01*
X73344562Y-109114010D01*
X73294454Y-109207754D01*
X73250997Y-109351015D01*
X73240000Y-109462668D01*
X73240000Y-109462678D01*
X73236324Y-109500000D01*
X73160000Y-109500000D01*
X73160000Y-101398061D01*
X73465000Y-101398061D01*
X73465000Y-101601939D01*
X73504774Y-101801898D01*
X73582795Y-101990256D01*
X73696063Y-102159774D01*
X73840226Y-102303937D01*
X74009744Y-102417205D01*
X74198102Y-102495226D01*
X74398061Y-102535000D01*
X74460199Y-102535000D01*
X75376200Y-103451002D01*
X75399999Y-103480001D01*
X75428997Y-103503799D01*
X75515724Y-103574974D01*
X75647753Y-103645546D01*
X75791014Y-103689003D01*
X75940000Y-103703677D01*
X75977333Y-103700000D01*
X76635199Y-103700000D01*
X82998790Y-110063592D01*
X82955000Y-110283740D01*
X82955000Y-110576260D01*
X83012068Y-110863158D01*
X83124010Y-111133411D01*
X83286525Y-111376632D01*
X83493368Y-111583475D01*
X83736589Y-111745990D01*
X84006842Y-111857932D01*
X84293740Y-111915000D01*
X84586260Y-111915000D01*
X84873158Y-111857932D01*
X85143411Y-111745990D01*
X85386632Y-111583475D01*
X85593475Y-111376632D01*
X85710000Y-111202240D01*
X85826525Y-111376632D01*
X86033368Y-111583475D01*
X86276589Y-111745990D01*
X86546842Y-111857932D01*
X86833740Y-111915000D01*
X87126260Y-111915000D01*
X87413158Y-111857932D01*
X87683411Y-111745990D01*
X87926632Y-111583475D01*
X88133475Y-111376632D01*
X88250000Y-111202240D01*
X88366525Y-111376632D01*
X88573368Y-111583475D01*
X88816589Y-111745990D01*
X89086842Y-111857932D01*
X89373740Y-111915000D01*
X89666260Y-111915000D01*
X89953158Y-111857932D01*
X90223411Y-111745990D01*
X90466632Y-111583475D01*
X90673475Y-111376632D01*
X90790000Y-111202240D01*
X90906525Y-111376632D01*
X91113368Y-111583475D01*
X91356589Y-111745990D01*
X91626842Y-111857932D01*
X91913740Y-111915000D01*
X92206260Y-111915000D01*
X92493158Y-111857932D01*
X92763411Y-111745990D01*
X93006632Y-111583475D01*
X93213475Y-111376632D01*
X93330000Y-111202240D01*
X93446525Y-111376632D01*
X93653368Y-111583475D01*
X93896589Y-111745990D01*
X94166842Y-111857932D01*
X94453740Y-111915000D01*
X94746260Y-111915000D01*
X95033158Y-111857932D01*
X95303411Y-111745990D01*
X95546632Y-111583475D01*
X95753475Y-111376632D01*
X95870000Y-111202240D01*
X95986525Y-111376632D01*
X96193368Y-111583475D01*
X96436589Y-111745990D01*
X96706842Y-111857932D01*
X96993740Y-111915000D01*
X97286260Y-111915000D01*
X97573158Y-111857932D01*
X97843411Y-111745990D01*
X98086632Y-111583475D01*
X98293475Y-111376632D01*
X98410000Y-111202240D01*
X98526525Y-111376632D01*
X98733368Y-111583475D01*
X98976589Y-111745990D01*
X99246842Y-111857932D01*
X99533740Y-111915000D01*
X99826260Y-111915000D01*
X100113158Y-111857932D01*
X100383411Y-111745990D01*
X100626632Y-111583475D01*
X100833475Y-111376632D01*
X100950000Y-111202240D01*
X101066525Y-111376632D01*
X101273368Y-111583475D01*
X101516589Y-111745990D01*
X101786842Y-111857932D01*
X102073740Y-111915000D01*
X102366260Y-111915000D01*
X102653158Y-111857932D01*
X102923411Y-111745990D01*
X103166632Y-111583475D01*
X103373475Y-111376632D01*
X103490000Y-111202240D01*
X103606525Y-111376632D01*
X103813368Y-111583475D01*
X104056589Y-111745990D01*
X104326842Y-111857932D01*
X104613740Y-111915000D01*
X104906260Y-111915000D01*
X105193158Y-111857932D01*
X105463411Y-111745990D01*
X105706632Y-111583475D01*
X105913475Y-111376632D01*
X106030000Y-111202240D01*
X106146525Y-111376632D01*
X106353368Y-111583475D01*
X106596589Y-111745990D01*
X106866842Y-111857932D01*
X107153740Y-111915000D01*
X107446260Y-111915000D01*
X107733158Y-111857932D01*
X108003411Y-111745990D01*
X108246632Y-111583475D01*
X108453475Y-111376632D01*
X108570000Y-111202240D01*
X108686525Y-111376632D01*
X108893368Y-111583475D01*
X109136589Y-111745990D01*
X109406842Y-111857932D01*
X109693740Y-111915000D01*
X109986260Y-111915000D01*
X110273158Y-111857932D01*
X110543411Y-111745990D01*
X110786632Y-111583475D01*
X110993475Y-111376632D01*
X111110000Y-111202240D01*
X111226525Y-111376632D01*
X111433368Y-111583475D01*
X111676589Y-111745990D01*
X111946842Y-111857932D01*
X112233740Y-111915000D01*
X112526260Y-111915000D01*
X112813158Y-111857932D01*
X113083411Y-111745990D01*
X113326632Y-111583475D01*
X113533475Y-111376632D01*
X113650000Y-111202240D01*
X113766525Y-111376632D01*
X113973368Y-111583475D01*
X114216589Y-111745990D01*
X114486842Y-111857932D01*
X114773740Y-111915000D01*
X115066260Y-111915000D01*
X115353158Y-111857932D01*
X115623411Y-111745990D01*
X115866632Y-111583475D01*
X116073475Y-111376632D01*
X116114656Y-111315000D01*
X122128422Y-111315000D01*
X130275183Y-119461762D01*
X130297870Y-119692102D01*
X130368489Y-119924901D01*
X130483167Y-120139449D01*
X130637498Y-120327502D01*
X130676111Y-120359191D01*
X130671613Y-120361595D01*
X130537038Y-120472038D01*
X130426595Y-120606613D01*
X130344528Y-120760149D01*
X130293992Y-120926745D01*
X130276928Y-121099999D01*
X130276928Y-121800001D01*
X130293992Y-121973255D01*
X130344528Y-122139851D01*
X130426595Y-122293387D01*
X130537038Y-122427962D01*
X130671613Y-122538405D01*
X130825149Y-122620472D01*
X130991745Y-122671008D01*
X131164999Y-122688072D01*
X131443385Y-122688072D01*
X131505941Y-122739411D01*
X131659687Y-122821589D01*
X131826510Y-122872195D01*
X131956523Y-122885000D01*
X132318477Y-122885000D01*
X132448490Y-122872195D01*
X132615313Y-122821589D01*
X132769059Y-122739411D01*
X132903817Y-122628817D01*
X133014411Y-122494059D01*
X133062400Y-122404277D01*
X133153405Y-122293387D01*
X133235472Y-122139851D01*
X133286008Y-121973255D01*
X133303072Y-121800001D01*
X133303072Y-121099999D01*
X133286008Y-120926745D01*
X133235472Y-120760149D01*
X133153405Y-120606613D01*
X133042962Y-120472038D01*
X132908387Y-120361595D01*
X132903889Y-120359191D01*
X132933366Y-120335000D01*
X134203422Y-120335000D01*
X134545001Y-120676579D01*
X134545000Y-121653421D01*
X133243422Y-122955000D01*
X131753469Y-122955000D01*
X131710000Y-122950719D01*
X131666531Y-122955000D01*
X131666523Y-122955000D01*
X131536510Y-122967805D01*
X131369686Y-123018411D01*
X131215941Y-123100589D01*
X131114953Y-123183468D01*
X131114951Y-123183470D01*
X131081183Y-123211183D01*
X131053470Y-123244951D01*
X126143422Y-128155000D01*
X106194656Y-128155000D01*
X106153475Y-128093368D01*
X106021620Y-127961513D01*
X106094180Y-127939502D01*
X106204494Y-127880537D01*
X106301185Y-127801185D01*
X106380537Y-127704494D01*
X106439502Y-127594180D01*
X106475812Y-127474482D01*
X106488072Y-127350000D01*
X106488072Y-125650000D01*
X106475812Y-125525518D01*
X106439502Y-125405820D01*
X106380537Y-125295506D01*
X106301185Y-125198815D01*
X106204494Y-125119463D01*
X106094180Y-125060498D01*
X105974482Y-125024188D01*
X105850000Y-125011928D01*
X104150000Y-125011928D01*
X104025518Y-125024188D01*
X103905820Y-125060498D01*
X103795506Y-125119463D01*
X103698815Y-125198815D01*
X103619463Y-125295506D01*
X103560498Y-125405820D01*
X103524188Y-125525518D01*
X103511928Y-125650000D01*
X103511928Y-127350000D01*
X103524188Y-127474482D01*
X103560498Y-127594180D01*
X103619463Y-127704494D01*
X103698815Y-127801185D01*
X103795506Y-127880537D01*
X103905820Y-127939502D01*
X103978380Y-127961513D01*
X103846525Y-128093368D01*
X103684010Y-128336589D01*
X103572068Y-128606842D01*
X103515000Y-128893740D01*
X103515000Y-129186260D01*
X103572068Y-129473158D01*
X103684010Y-129743411D01*
X103846525Y-129986632D01*
X104053368Y-130193475D01*
X104296589Y-130355990D01*
X104566842Y-130467932D01*
X104853740Y-130525000D01*
X105146260Y-130525000D01*
X105433158Y-130467932D01*
X105703411Y-130355990D01*
X105946632Y-130193475D01*
X106153475Y-129986632D01*
X106194656Y-129925000D01*
X126466531Y-129925000D01*
X126510000Y-129929281D01*
X126553469Y-129925000D01*
X126553477Y-129925000D01*
X126683490Y-129912195D01*
X126850313Y-129861589D01*
X127004059Y-129779411D01*
X127138817Y-129668817D01*
X127166534Y-129635044D01*
X132076579Y-124725000D01*
X133566531Y-124725000D01*
X133610000Y-124729281D01*
X133653469Y-124725000D01*
X133653477Y-124725000D01*
X133783490Y-124712195D01*
X133950313Y-124661589D01*
X134104059Y-124579411D01*
X134238817Y-124468817D01*
X134266534Y-124435044D01*
X136025050Y-122676529D01*
X136058817Y-122648817D01*
X136118804Y-122575724D01*
X136169411Y-122514059D01*
X136251589Y-122360314D01*
X136302195Y-122193490D01*
X136313097Y-122082795D01*
X136315000Y-122063477D01*
X136315000Y-122063469D01*
X136319281Y-122020000D01*
X136315000Y-121976531D01*
X136315000Y-120353469D01*
X136319281Y-120310000D01*
X136315000Y-120266531D01*
X136315000Y-90273469D01*
X136319281Y-90230000D01*
X136315000Y-90186531D01*
X136315000Y-90186523D01*
X136302195Y-90056510D01*
X136251589Y-89889687D01*
X136169411Y-89735941D01*
X136136684Y-89696063D01*
X136086532Y-89634953D01*
X136086530Y-89634951D01*
X136058817Y-89601183D01*
X136025049Y-89573470D01*
X135356532Y-88904954D01*
X135328817Y-88871183D01*
X135194059Y-88760589D01*
X135040313Y-88678411D01*
X134873490Y-88627805D01*
X134743477Y-88615000D01*
X134743469Y-88615000D01*
X134700000Y-88610719D01*
X134656531Y-88615000D01*
X133275833Y-88615000D01*
X133274999Y-88606536D01*
X133274999Y-84023468D01*
X133279280Y-83979999D01*
X133274999Y-83936530D01*
X133274999Y-83936522D01*
X133262194Y-83806509D01*
X133211588Y-83639686D01*
X133129410Y-83485940D01*
X133108121Y-83459999D01*
X133046531Y-83384952D01*
X133046529Y-83384950D01*
X133018816Y-83351182D01*
X132985048Y-83323469D01*
X128686532Y-79024954D01*
X128658817Y-78991183D01*
X128524059Y-78880589D01*
X128370313Y-78798411D01*
X128203490Y-78747805D01*
X128073477Y-78735000D01*
X128073469Y-78735000D01*
X128030000Y-78730719D01*
X127986531Y-78735000D01*
X115446185Y-78735000D01*
X115340313Y-78678411D01*
X115173490Y-78627805D01*
X115043477Y-78615000D01*
X115043469Y-78615000D01*
X115000000Y-78610719D01*
X114956531Y-78615000D01*
X105043476Y-78615000D01*
X105000000Y-78610718D01*
X104956523Y-78615000D01*
X104826510Y-78627805D01*
X104659687Y-78678411D01*
X104505941Y-78760589D01*
X104371183Y-78871183D01*
X104260589Y-79005941D01*
X104178411Y-79159687D01*
X104127805Y-79326510D01*
X104110718Y-79500000D01*
X104115000Y-79543477D01*
X104115000Y-79633421D01*
X103487500Y-80260921D01*
X102131534Y-78904956D01*
X102103817Y-78871183D01*
X101969059Y-78760589D01*
X101815313Y-78678411D01*
X101648490Y-78627805D01*
X101518477Y-78615000D01*
X101518469Y-78615000D01*
X101475000Y-78610719D01*
X101431531Y-78615000D01*
X90543469Y-78615000D01*
X90500000Y-78610719D01*
X90456531Y-78615000D01*
X90456523Y-78615000D01*
X90326510Y-78627805D01*
X90159687Y-78678411D01*
X90021593Y-78752223D01*
X90005941Y-78760589D01*
X89904953Y-78843468D01*
X89904951Y-78843470D01*
X89871183Y-78871183D01*
X89843470Y-78904951D01*
X88261494Y-80486928D01*
X87649999Y-80486928D01*
X87476745Y-80503992D01*
X87310149Y-80554528D01*
X87156613Y-80636595D01*
X87022038Y-80747038D01*
X86911595Y-80881613D01*
X86909191Y-80886111D01*
X86877502Y-80847498D01*
X86689449Y-80693167D01*
X86474901Y-80578489D01*
X86242102Y-80507870D01*
X86000000Y-80484025D01*
X85757899Y-80507870D01*
X85525100Y-80578489D01*
X85310552Y-80693167D01*
X85122499Y-80847498D01*
X85000001Y-80996763D01*
X84877502Y-80847498D01*
X84689449Y-80693167D01*
X84474901Y-80578489D01*
X84242102Y-80507870D01*
X84000000Y-80484025D01*
X83757899Y-80507870D01*
X83525100Y-80578489D01*
X83310552Y-80693167D01*
X83122499Y-80847498D01*
X82999520Y-80997349D01*
X82956307Y-80933275D01*
X82783474Y-80761922D01*
X82580533Y-80627579D01*
X82355282Y-80535409D01*
X82317609Y-80531538D01*
X82127000Y-80656269D01*
X82127000Y-81873000D01*
X82147000Y-81873000D01*
X82147000Y-82127000D01*
X82127000Y-82127000D01*
X82127000Y-83343731D01*
X82317609Y-83468462D01*
X82355282Y-83464591D01*
X82580533Y-83372421D01*
X82783474Y-83238078D01*
X82956307Y-83066725D01*
X82999519Y-83002651D01*
X83122498Y-83152502D01*
X83310551Y-83306833D01*
X83525099Y-83421511D01*
X83757898Y-83492130D01*
X84000000Y-83515975D01*
X84242101Y-83492130D01*
X84474900Y-83421511D01*
X84689448Y-83306833D01*
X84877502Y-83152502D01*
X85000000Y-83003237D01*
X85122498Y-83152502D01*
X85310551Y-83306833D01*
X85525099Y-83421511D01*
X85757898Y-83492130D01*
X86000000Y-83515975D01*
X86242101Y-83492130D01*
X86474900Y-83421511D01*
X86689448Y-83306833D01*
X86877502Y-83152502D01*
X86909191Y-83113889D01*
X86911595Y-83118387D01*
X87022038Y-83252962D01*
X87156613Y-83363405D01*
X87310149Y-83445472D01*
X87476745Y-83496008D01*
X87649999Y-83513072D01*
X88350001Y-83513072D01*
X88523255Y-83496008D01*
X88689851Y-83445472D01*
X88843387Y-83363405D01*
X88977962Y-83252962D01*
X89088405Y-83118387D01*
X89170472Y-82964851D01*
X89221008Y-82798255D01*
X89238072Y-82625001D01*
X89238072Y-82127000D01*
X95765000Y-82127000D01*
X95765000Y-82402000D01*
X95813507Y-82640496D01*
X95907610Y-82864946D01*
X96043693Y-83066725D01*
X96216526Y-83238078D01*
X96419467Y-83372421D01*
X96644718Y-83464591D01*
X96682391Y-83468462D01*
X96873000Y-83343731D01*
X96873000Y-82127000D01*
X95765000Y-82127000D01*
X89238072Y-82127000D01*
X89238072Y-82013506D01*
X89653578Y-81598000D01*
X95765000Y-81598000D01*
X95765000Y-81873000D01*
X96873000Y-81873000D01*
X96873000Y-80656269D01*
X96682391Y-80531538D01*
X96644718Y-80535409D01*
X96419467Y-80627579D01*
X96216526Y-80761922D01*
X96043693Y-80933275D01*
X95907610Y-81135054D01*
X95813507Y-81359504D01*
X95765000Y-81598000D01*
X89653578Y-81598000D01*
X90866579Y-80385000D01*
X101108422Y-80385000D01*
X101230111Y-80506689D01*
X101000000Y-80484025D01*
X100757899Y-80507870D01*
X100525100Y-80578489D01*
X100310552Y-80693167D01*
X100122499Y-80847498D01*
X100000001Y-80996763D01*
X99877502Y-80847498D01*
X99689449Y-80693167D01*
X99474901Y-80578489D01*
X99242102Y-80507870D01*
X99000000Y-80484025D01*
X98757899Y-80507870D01*
X98525100Y-80578489D01*
X98310552Y-80693167D01*
X98122499Y-80847498D01*
X97999520Y-80997349D01*
X97956307Y-80933275D01*
X97783474Y-80761922D01*
X97580533Y-80627579D01*
X97355282Y-80535409D01*
X97317609Y-80531538D01*
X97127000Y-80656269D01*
X97127000Y-81873000D01*
X97147000Y-81873000D01*
X97147000Y-82127000D01*
X97127000Y-82127000D01*
X97127000Y-83343731D01*
X97317609Y-83468462D01*
X97355282Y-83464591D01*
X97580533Y-83372421D01*
X97783474Y-83238078D01*
X97956307Y-83066725D01*
X97999519Y-83002651D01*
X98122498Y-83152502D01*
X98240000Y-83248934D01*
X98240000Y-83685199D01*
X98185199Y-83740000D01*
X83037325Y-83740000D01*
X83000000Y-83736324D01*
X82962675Y-83740000D01*
X82962667Y-83740000D01*
X82851014Y-83750997D01*
X82707753Y-83794454D01*
X82575724Y-83865026D01*
X82459999Y-83959999D01*
X82455895Y-83965000D01*
X82398061Y-83965000D01*
X82198102Y-84004774D01*
X82009744Y-84082795D01*
X81840226Y-84196063D01*
X81696063Y-84340226D01*
X81582795Y-84509744D01*
X81504774Y-84698102D01*
X81465000Y-84898061D01*
X81465000Y-85101939D01*
X81504774Y-85301898D01*
X81582795Y-85490256D01*
X81696063Y-85659774D01*
X81840226Y-85803937D01*
X82009744Y-85917205D01*
X82198102Y-85995226D01*
X82398061Y-86035000D01*
X82601939Y-86035000D01*
X82801898Y-85995226D01*
X82990256Y-85917205D01*
X83159774Y-85803937D01*
X83303937Y-85659774D01*
X83417205Y-85490256D01*
X83495226Y-85301898D01*
X83503560Y-85260000D01*
X94165199Y-85260000D01*
X94088998Y-85336201D01*
X94060000Y-85359999D01*
X94036202Y-85388997D01*
X94036201Y-85388998D01*
X93965026Y-85475724D01*
X93894454Y-85607754D01*
X93881947Y-85648986D01*
X93850998Y-85751014D01*
X93843941Y-85822667D01*
X93836324Y-85900000D01*
X93840001Y-85937332D01*
X93840001Y-86291821D01*
X93653368Y-86416525D01*
X93446525Y-86623368D01*
X93330000Y-86797760D01*
X93213475Y-86623368D01*
X93006632Y-86416525D01*
X92763411Y-86254010D01*
X92493158Y-86142068D01*
X92206260Y-86085000D01*
X91913740Y-86085000D01*
X91626842Y-86142068D01*
X91356589Y-86254010D01*
X91113368Y-86416525D01*
X90906525Y-86623368D01*
X90790000Y-86797760D01*
X90673475Y-86623368D01*
X90466632Y-86416525D01*
X90223411Y-86254010D01*
X89953158Y-86142068D01*
X89666260Y-86085000D01*
X89373740Y-86085000D01*
X89086842Y-86142068D01*
X88816589Y-86254010D01*
X88573368Y-86416525D01*
X88366525Y-86623368D01*
X88250000Y-86797760D01*
X88133475Y-86623368D01*
X87926632Y-86416525D01*
X87683411Y-86254010D01*
X87413158Y-86142068D01*
X87126260Y-86085000D01*
X86833740Y-86085000D01*
X86546842Y-86142068D01*
X86276589Y-86254010D01*
X86033368Y-86416525D01*
X85826525Y-86623368D01*
X85710689Y-86796729D01*
X85468397Y-86721208D01*
X84619605Y-87570000D01*
X85468397Y-88418792D01*
X85710689Y-88343271D01*
X85826525Y-88516632D01*
X86033368Y-88723475D01*
X86276589Y-88885990D01*
X86546842Y-88997932D01*
X86833740Y-89055000D01*
X87126260Y-89055000D01*
X87346408Y-89011209D01*
X88346200Y-90011002D01*
X88369999Y-90040001D01*
X88485724Y-90134974D01*
X88617753Y-90205546D01*
X88761014Y-90249003D01*
X88872667Y-90260000D01*
X88872676Y-90260000D01*
X88909999Y-90263676D01*
X88947322Y-90260000D01*
X88992462Y-90260000D01*
X88965000Y-90398061D01*
X88965000Y-90601939D01*
X89004774Y-90801898D01*
X89082795Y-90990256D01*
X89196063Y-91159774D01*
X89340226Y-91303937D01*
X89509744Y-91417205D01*
X89698102Y-91495226D01*
X89898061Y-91535000D01*
X89960199Y-91535000D01*
X91436201Y-93011003D01*
X91459999Y-93040001D01*
X91488997Y-93063799D01*
X91575723Y-93134974D01*
X91685170Y-93193475D01*
X91707753Y-93205546D01*
X91851014Y-93249003D01*
X91962667Y-93260000D01*
X91962676Y-93260000D01*
X91999999Y-93263676D01*
X92037322Y-93260000D01*
X93296289Y-93260000D01*
X93340226Y-93303937D01*
X93509744Y-93417205D01*
X93698102Y-93495226D01*
X93898061Y-93535000D01*
X94101939Y-93535000D01*
X94301898Y-93495226D01*
X94490256Y-93417205D01*
X94659774Y-93303937D01*
X94803937Y-93159774D01*
X94917205Y-92990256D01*
X94995226Y-92801898D01*
X95035000Y-92601939D01*
X95035000Y-92398061D01*
X94995226Y-92198102D01*
X94917205Y-92009744D01*
X94803937Y-91840226D01*
X94659774Y-91696063D01*
X94490256Y-91582795D01*
X94301898Y-91504774D01*
X94101939Y-91465000D01*
X93898061Y-91465000D01*
X93698102Y-91504774D01*
X93509744Y-91582795D01*
X93340226Y-91696063D01*
X93296289Y-91740000D01*
X92314802Y-91740000D01*
X91035000Y-90460199D01*
X91035000Y-90398061D01*
X91007538Y-90260000D01*
X123496440Y-90260000D01*
X123504774Y-90301898D01*
X123582795Y-90490256D01*
X123696063Y-90659774D01*
X123840226Y-90803937D01*
X124009744Y-90917205D01*
X124198102Y-90995226D01*
X124398061Y-91035000D01*
X124601939Y-91035000D01*
X124740000Y-91007538D01*
X124740001Y-91796288D01*
X124696063Y-91840226D01*
X124582795Y-92009744D01*
X124504774Y-92198102D01*
X124465000Y-92398061D01*
X124465000Y-92601939D01*
X124504774Y-92801898D01*
X124582795Y-92990256D01*
X124696063Y-93159774D01*
X124840226Y-93303937D01*
X125008694Y-93416504D01*
X123910200Y-94514999D01*
X123689321Y-94514999D01*
X123651998Y-94511323D01*
X123614675Y-94514999D01*
X123614666Y-94514999D01*
X123503013Y-94525996D01*
X123359752Y-94569453D01*
X123227723Y-94640025D01*
X123227721Y-94640026D01*
X123227722Y-94640026D01*
X123140995Y-94711200D01*
X123140991Y-94711204D01*
X123111998Y-94734998D01*
X123088204Y-94763991D01*
X121884499Y-95967698D01*
X121698102Y-96004774D01*
X121509744Y-96082795D01*
X121340226Y-96196063D01*
X121196063Y-96340226D01*
X121082795Y-96509744D01*
X121004774Y-96698102D01*
X120965000Y-96898061D01*
X120965000Y-97101939D01*
X121004774Y-97301898D01*
X121082795Y-97490256D01*
X121196063Y-97659774D01*
X121340226Y-97803937D01*
X121509744Y-97917205D01*
X121698102Y-97995226D01*
X121898061Y-98035000D01*
X122101939Y-98035000D01*
X122301898Y-97995226D01*
X122490256Y-97917205D01*
X122659774Y-97803937D01*
X122803937Y-97659774D01*
X122917205Y-97490256D01*
X122995226Y-97301898D01*
X123035000Y-97101939D01*
X123035000Y-96966800D01*
X123269044Y-96732755D01*
X123340226Y-96803937D01*
X123509744Y-96917205D01*
X123698102Y-96995226D01*
X123898061Y-97035000D01*
X124101939Y-97035000D01*
X124301898Y-96995226D01*
X124490256Y-96917205D01*
X124659774Y-96803937D01*
X124703711Y-96760000D01*
X125002678Y-96760000D01*
X125040000Y-96763676D01*
X125077322Y-96760000D01*
X125077333Y-96760000D01*
X125188986Y-96749003D01*
X125332247Y-96705546D01*
X125464276Y-96634974D01*
X125580001Y-96540001D01*
X125603804Y-96510997D01*
X127515000Y-94599801D01*
X127515000Y-94726260D01*
X127572068Y-95013158D01*
X127684010Y-95283411D01*
X127846525Y-95526632D01*
X128053368Y-95733475D01*
X128296589Y-95895990D01*
X128566842Y-96007932D01*
X128853740Y-96065000D01*
X129146260Y-96065000D01*
X129433158Y-96007932D01*
X129703411Y-95895990D01*
X129946632Y-95733475D01*
X130153475Y-95526632D01*
X130271100Y-95350594D01*
X130442412Y-95580269D01*
X130658645Y-95775178D01*
X130908748Y-95924157D01*
X131183109Y-96021481D01*
X131413000Y-95900814D01*
X131413000Y-94707000D01*
X131667000Y-94707000D01*
X131667000Y-95900814D01*
X131896891Y-96021481D01*
X132171252Y-95924157D01*
X132421355Y-95775178D01*
X132637588Y-95580269D01*
X132811641Y-95346920D01*
X132936825Y-95084099D01*
X132981476Y-94936890D01*
X132860155Y-94707000D01*
X131667000Y-94707000D01*
X131413000Y-94707000D01*
X131393000Y-94707000D01*
X131393000Y-94453000D01*
X131413000Y-94453000D01*
X131413000Y-94433000D01*
X131667000Y-94433000D01*
X131667000Y-94453000D01*
X132860155Y-94453000D01*
X132981476Y-94223110D01*
X132936825Y-94075901D01*
X132811641Y-93813080D01*
X132637588Y-93579731D01*
X132421355Y-93384822D01*
X132304466Y-93315195D01*
X132486632Y-93193475D01*
X132693475Y-92986632D01*
X132855990Y-92743411D01*
X132967932Y-92473158D01*
X133025000Y-92186260D01*
X133025000Y-91893740D01*
X132967932Y-91606842D01*
X132855990Y-91336589D01*
X132693475Y-91093368D01*
X132486632Y-90886525D01*
X132312240Y-90770000D01*
X132486632Y-90653475D01*
X132693475Y-90446632D01*
X132734656Y-90385000D01*
X134333422Y-90385000D01*
X134545001Y-90596580D01*
X134545000Y-118563181D01*
X134526531Y-118565000D01*
X132933366Y-118565000D01*
X132754449Y-118418167D01*
X132539901Y-118303489D01*
X132307102Y-118232870D01*
X132125665Y-118215000D01*
X131531579Y-118215000D01*
X124706579Y-111390000D01*
X130234025Y-111390000D01*
X130257870Y-111632102D01*
X130328489Y-111864901D01*
X130443167Y-112079449D01*
X130597498Y-112267502D01*
X130636111Y-112299191D01*
X130631613Y-112301595D01*
X130497038Y-112412038D01*
X130386595Y-112546613D01*
X130304528Y-112700149D01*
X130253992Y-112866745D01*
X130236928Y-113039999D01*
X130236928Y-113740001D01*
X130253992Y-113913255D01*
X130304528Y-114079851D01*
X130386595Y-114233387D01*
X130497038Y-114367962D01*
X130631613Y-114478405D01*
X130785149Y-114560472D01*
X130951745Y-114611008D01*
X131124999Y-114628072D01*
X132375001Y-114628072D01*
X132548255Y-114611008D01*
X132714851Y-114560472D01*
X132868387Y-114478405D01*
X133002962Y-114367962D01*
X133113405Y-114233387D01*
X133195472Y-114079851D01*
X133246008Y-113913255D01*
X133263072Y-113740001D01*
X133263072Y-113039999D01*
X133246008Y-112866745D01*
X133195472Y-112700149D01*
X133113405Y-112546613D01*
X133002962Y-112412038D01*
X132868387Y-112301595D01*
X132863889Y-112299191D01*
X132902502Y-112267502D01*
X133056833Y-112079449D01*
X133171511Y-111864901D01*
X133242130Y-111632102D01*
X133265975Y-111390000D01*
X133242130Y-111147898D01*
X133171511Y-110915099D01*
X133056833Y-110700551D01*
X132902502Y-110512498D01*
X132714449Y-110358167D01*
X132499901Y-110243489D01*
X132267102Y-110172870D01*
X132085665Y-110155000D01*
X131414335Y-110155000D01*
X131232898Y-110172870D01*
X131000099Y-110243489D01*
X130785551Y-110358167D01*
X130597498Y-110512498D01*
X130443167Y-110700551D01*
X130328489Y-110915099D01*
X130257870Y-111147898D01*
X130234025Y-111390000D01*
X124706579Y-111390000D01*
X123151534Y-109834956D01*
X123123817Y-109801183D01*
X122989059Y-109690589D01*
X122835313Y-109608411D01*
X122668490Y-109557805D01*
X122538477Y-109545000D01*
X122538469Y-109545000D01*
X122495000Y-109540719D01*
X122451531Y-109545000D01*
X116114656Y-109545000D01*
X116073475Y-109483368D01*
X115866632Y-109276525D01*
X115623411Y-109114010D01*
X115353158Y-109002068D01*
X115066260Y-108945000D01*
X114773740Y-108945000D01*
X114486842Y-109002068D01*
X114216589Y-109114010D01*
X113973368Y-109276525D01*
X113766525Y-109483368D01*
X113650000Y-109657760D01*
X113533475Y-109483368D01*
X113326632Y-109276525D01*
X113083411Y-109114010D01*
X112813158Y-109002068D01*
X112526260Y-108945000D01*
X112233740Y-108945000D01*
X111946842Y-109002068D01*
X111676589Y-109114010D01*
X111433368Y-109276525D01*
X111226525Y-109483368D01*
X111110000Y-109657760D01*
X110993475Y-109483368D01*
X110786632Y-109276525D01*
X110600000Y-109151822D01*
X110600000Y-108974801D01*
X113539802Y-106035000D01*
X113601939Y-106035000D01*
X113801898Y-105995226D01*
X113990256Y-105917205D01*
X114159774Y-105803937D01*
X114303937Y-105659774D01*
X114417205Y-105490256D01*
X114495226Y-105301898D01*
X114535000Y-105101939D01*
X114535000Y-104898061D01*
X114495226Y-104698102D01*
X114417205Y-104509744D01*
X114303937Y-104340226D01*
X114159774Y-104196063D01*
X114033112Y-104111430D01*
X114035000Y-104101939D01*
X114035000Y-103898061D01*
X113995226Y-103698102D01*
X113917205Y-103509744D01*
X113803937Y-103340226D01*
X113659774Y-103196063D01*
X113490256Y-103082795D01*
X113301898Y-103004774D01*
X113101939Y-102965000D01*
X112898061Y-102965000D01*
X112698102Y-103004774D01*
X112509744Y-103082795D01*
X112456290Y-103118512D01*
X112814802Y-102760000D01*
X124296289Y-102760000D01*
X124340226Y-102803937D01*
X124509744Y-102917205D01*
X124698102Y-102995226D01*
X124898061Y-103035000D01*
X125101939Y-103035000D01*
X125301898Y-102995226D01*
X125490256Y-102917205D01*
X125659774Y-102803937D01*
X125803937Y-102659774D01*
X125917205Y-102490256D01*
X125995226Y-102301898D01*
X126035000Y-102101939D01*
X126035000Y-101898061D01*
X125995226Y-101698102D01*
X125917205Y-101509744D01*
X125803937Y-101340226D01*
X125659774Y-101196063D01*
X125490256Y-101082795D01*
X125301898Y-101004774D01*
X125101939Y-100965000D01*
X124898061Y-100965000D01*
X124698102Y-101004774D01*
X124509744Y-101082795D01*
X124340226Y-101196063D01*
X124296289Y-101240000D01*
X112537322Y-101240000D01*
X112499999Y-101236324D01*
X112462676Y-101240000D01*
X112462667Y-101240000D01*
X112351014Y-101250997D01*
X112207753Y-101294454D01*
X112075723Y-101365026D01*
X111992083Y-101433668D01*
X111959999Y-101459999D01*
X111936201Y-101488997D01*
X110185199Y-103240000D01*
X104537322Y-103240000D01*
X104499999Y-103236324D01*
X104462676Y-103240000D01*
X104462667Y-103240000D01*
X104351014Y-103250997D01*
X104207753Y-103294454D01*
X104075724Y-103365026D01*
X103959999Y-103459999D01*
X103936201Y-103488997D01*
X99169003Y-108256196D01*
X99139999Y-108279999D01*
X99084871Y-108347174D01*
X99045026Y-108395724D01*
X99043777Y-108398061D01*
X98974454Y-108527754D01*
X98930997Y-108671015D01*
X98920000Y-108782668D01*
X98920000Y-108782678D01*
X98916324Y-108820000D01*
X98920000Y-108857323D01*
X98920000Y-109151821D01*
X98733368Y-109276525D01*
X98526525Y-109483368D01*
X98410000Y-109657760D01*
X98293475Y-109483368D01*
X98086632Y-109276525D01*
X97843411Y-109114010D01*
X97573158Y-109002068D01*
X97286260Y-108945000D01*
X96993740Y-108945000D01*
X96706842Y-109002068D01*
X96436589Y-109114010D01*
X96193368Y-109276525D01*
X95986525Y-109483368D01*
X95870000Y-109657760D01*
X95753475Y-109483368D01*
X95546632Y-109276525D01*
X95303411Y-109114010D01*
X95033158Y-109002068D01*
X94746260Y-108945000D01*
X94453740Y-108945000D01*
X94166842Y-109002068D01*
X93896589Y-109114010D01*
X93653368Y-109276525D01*
X93446525Y-109483368D01*
X93330000Y-109657760D01*
X93213475Y-109483368D01*
X93006632Y-109276525D01*
X92763411Y-109114010D01*
X92493158Y-109002068D01*
X92206260Y-108945000D01*
X91913740Y-108945000D01*
X91626842Y-109002068D01*
X91356589Y-109114010D01*
X91113368Y-109276525D01*
X90906525Y-109483368D01*
X90790000Y-109657760D01*
X90673475Y-109483368D01*
X90466632Y-109276525D01*
X90223411Y-109114010D01*
X89953158Y-109002068D01*
X89666260Y-108945000D01*
X89373740Y-108945000D01*
X89086842Y-109002068D01*
X88816589Y-109114010D01*
X88573368Y-109276525D01*
X88366525Y-109483368D01*
X88250000Y-109657760D01*
X88133475Y-109483368D01*
X87926632Y-109276525D01*
X87683411Y-109114010D01*
X87413158Y-109002068D01*
X87126260Y-108945000D01*
X86833740Y-108945000D01*
X86546842Y-109002068D01*
X86276589Y-109114010D01*
X86033368Y-109276525D01*
X85826525Y-109483368D01*
X85710000Y-109657760D01*
X85593475Y-109483368D01*
X85386632Y-109276525D01*
X85143411Y-109114010D01*
X84873158Y-109002068D01*
X84586260Y-108945000D01*
X84293740Y-108945000D01*
X84073592Y-108988790D01*
X82497300Y-107412498D01*
X82659774Y-107303937D01*
X82803937Y-107159774D01*
X82917205Y-106990256D01*
X82995226Y-106801898D01*
X83035000Y-106601939D01*
X83035000Y-106398061D01*
X82995226Y-106198102D01*
X82917205Y-106009744D01*
X82881488Y-105956290D01*
X83465000Y-106539802D01*
X83465000Y-106601939D01*
X83504774Y-106801898D01*
X83582795Y-106990256D01*
X83696063Y-107159774D01*
X83840226Y-107303937D01*
X84009744Y-107417205D01*
X84198102Y-107495226D01*
X84398061Y-107535000D01*
X84601939Y-107535000D01*
X84801898Y-107495226D01*
X84990256Y-107417205D01*
X85159774Y-107303937D01*
X85303937Y-107159774D01*
X85417205Y-106990256D01*
X85495226Y-106801898D01*
X85535000Y-106601939D01*
X85535000Y-106398061D01*
X85495226Y-106198102D01*
X85417205Y-106009744D01*
X85303937Y-105840226D01*
X85159774Y-105696063D01*
X84990256Y-105582795D01*
X84801898Y-105504774D01*
X84601939Y-105465000D01*
X84539802Y-105465000D01*
X82769256Y-103694455D01*
X82803937Y-103659774D01*
X82917205Y-103490256D01*
X82995226Y-103301898D01*
X83035000Y-103101939D01*
X83035000Y-102898061D01*
X100965000Y-102898061D01*
X100965000Y-103101939D01*
X101004774Y-103301898D01*
X101082795Y-103490256D01*
X101196063Y-103659774D01*
X101340226Y-103803937D01*
X101509744Y-103917205D01*
X101698102Y-103995226D01*
X101898061Y-104035000D01*
X102101939Y-104035000D01*
X102301898Y-103995226D01*
X102490256Y-103917205D01*
X102659774Y-103803937D01*
X102803937Y-103659774D01*
X102917205Y-103490256D01*
X102995226Y-103301898D01*
X103035000Y-103101939D01*
X103035000Y-103039801D01*
X106511003Y-99563799D01*
X106540001Y-99540001D01*
X106634974Y-99424276D01*
X106705546Y-99292247D01*
X106749003Y-99148986D01*
X106760000Y-99037333D01*
X106760000Y-99037324D01*
X106763676Y-99000001D01*
X106760000Y-98962678D01*
X106760000Y-98203711D01*
X106803937Y-98159774D01*
X106917205Y-97990256D01*
X106995226Y-97801898D01*
X107035000Y-97601939D01*
X107035000Y-97398061D01*
X106995226Y-97198102D01*
X106917205Y-97009744D01*
X106803937Y-96840226D01*
X106659774Y-96696063D01*
X106490256Y-96582795D01*
X106301898Y-96504774D01*
X106101939Y-96465000D01*
X105898061Y-96465000D01*
X105698102Y-96504774D01*
X105509744Y-96582795D01*
X105340226Y-96696063D01*
X105196063Y-96840226D01*
X105082795Y-97009744D01*
X105004774Y-97198102D01*
X104965000Y-97398061D01*
X104965000Y-97601939D01*
X105004774Y-97801898D01*
X105082795Y-97990256D01*
X105196063Y-98159774D01*
X105240000Y-98203711D01*
X105240001Y-98685197D01*
X101960199Y-101965000D01*
X101898061Y-101965000D01*
X101698102Y-102004774D01*
X101509744Y-102082795D01*
X101340226Y-102196063D01*
X101196063Y-102340226D01*
X101082795Y-102509744D01*
X101004774Y-102698102D01*
X100965000Y-102898061D01*
X83035000Y-102898061D01*
X82995226Y-102698102D01*
X82917205Y-102509744D01*
X82803937Y-102340226D01*
X82659774Y-102196063D01*
X82490256Y-102082795D01*
X82301898Y-102004774D01*
X82101939Y-101965000D01*
X81898061Y-101965000D01*
X81698102Y-102004774D01*
X81509744Y-102082795D01*
X81340226Y-102196063D01*
X81250000Y-102286289D01*
X81159774Y-102196063D01*
X80990256Y-102082795D01*
X80801898Y-102004774D01*
X80601939Y-101965000D01*
X80398061Y-101965000D01*
X80198102Y-102004774D01*
X80009744Y-102082795D01*
X79840226Y-102196063D01*
X79696063Y-102340226D01*
X79582795Y-102509744D01*
X79504774Y-102698102D01*
X79465000Y-102898061D01*
X79465000Y-103101939D01*
X79504774Y-103301898D01*
X79582795Y-103490256D01*
X79696063Y-103659774D01*
X79740000Y-103703711D01*
X79740001Y-104655200D01*
X77513804Y-102429003D01*
X77490001Y-102399999D01*
X77374276Y-102305026D01*
X77242247Y-102234454D01*
X77098986Y-102190997D01*
X76987333Y-102180000D01*
X76987322Y-102180000D01*
X76950000Y-102176324D01*
X76912678Y-102180000D01*
X76254802Y-102180000D01*
X75535000Y-101460199D01*
X75535000Y-101398061D01*
X75495226Y-101198102D01*
X75417205Y-101009744D01*
X75303937Y-100840226D01*
X75159774Y-100696063D01*
X74990256Y-100582795D01*
X74801898Y-100504774D01*
X74601939Y-100465000D01*
X74398061Y-100465000D01*
X74198102Y-100504774D01*
X74009744Y-100582795D01*
X73840226Y-100696063D01*
X73696063Y-100840226D01*
X73582795Y-101009744D01*
X73504774Y-101198102D01*
X73465000Y-101398061D01*
X73160000Y-101398061D01*
X73160000Y-94898061D01*
X84965000Y-94898061D01*
X84965000Y-95101939D01*
X85004774Y-95301898D01*
X85082795Y-95490256D01*
X85196063Y-95659774D01*
X85340226Y-95803937D01*
X85509744Y-95917205D01*
X85698102Y-95995226D01*
X85898061Y-96035000D01*
X86101939Y-96035000D01*
X86146556Y-96026125D01*
X86009744Y-96082795D01*
X85840226Y-96196063D01*
X85696063Y-96340226D01*
X85582795Y-96509744D01*
X85504774Y-96698102D01*
X85465000Y-96898061D01*
X85465000Y-97101939D01*
X85504774Y-97301898D01*
X85582795Y-97490256D01*
X85696063Y-97659774D01*
X85840226Y-97803937D01*
X86009744Y-97917205D01*
X86198102Y-97995226D01*
X86398061Y-98035000D01*
X86601939Y-98035000D01*
X86801898Y-97995226D01*
X86990256Y-97917205D01*
X87159774Y-97803937D01*
X87203711Y-97760000D01*
X94296289Y-97760000D01*
X94340226Y-97803937D01*
X94509744Y-97917205D01*
X94698102Y-97995226D01*
X94898061Y-98035000D01*
X95101939Y-98035000D01*
X95301898Y-97995226D01*
X95490256Y-97917205D01*
X95659774Y-97803937D01*
X95803937Y-97659774D01*
X95917205Y-97490256D01*
X95995226Y-97301898D01*
X96035000Y-97101939D01*
X96035000Y-96898061D01*
X95995226Y-96698102D01*
X95917205Y-96509744D01*
X95803937Y-96340226D01*
X95659774Y-96196063D01*
X95490256Y-96082795D01*
X95301898Y-96004774D01*
X95101939Y-95965000D01*
X94898061Y-95965000D01*
X94698102Y-96004774D01*
X94509744Y-96082795D01*
X94340226Y-96196063D01*
X94296289Y-96240000D01*
X87203711Y-96240000D01*
X87159774Y-96196063D01*
X86990256Y-96082795D01*
X86801898Y-96004774D01*
X86601939Y-95965000D01*
X86398061Y-95965000D01*
X86353444Y-95973875D01*
X86490256Y-95917205D01*
X86659774Y-95803937D01*
X86703711Y-95760000D01*
X98296289Y-95760000D01*
X98340226Y-95803937D01*
X98509744Y-95917205D01*
X98698102Y-95995226D01*
X98898061Y-96035000D01*
X99101939Y-96035000D01*
X99301898Y-95995226D01*
X99490256Y-95917205D01*
X99659774Y-95803937D01*
X99803937Y-95659774D01*
X99917205Y-95490256D01*
X99995226Y-95301898D01*
X100035000Y-95101939D01*
X100035000Y-94898061D01*
X99995226Y-94698102D01*
X99917205Y-94509744D01*
X99803937Y-94340226D01*
X99659774Y-94196063D01*
X99490256Y-94082795D01*
X99301898Y-94004774D01*
X99101939Y-93965000D01*
X98898061Y-93965000D01*
X98698102Y-94004774D01*
X98509744Y-94082795D01*
X98340226Y-94196063D01*
X98296289Y-94240000D01*
X86703711Y-94240000D01*
X86659774Y-94196063D01*
X86490256Y-94082795D01*
X86301898Y-94004774D01*
X86101939Y-93965000D01*
X85898061Y-93965000D01*
X85698102Y-94004774D01*
X85509744Y-94082795D01*
X85340226Y-94196063D01*
X85196063Y-94340226D01*
X85082795Y-94509744D01*
X85004774Y-94698102D01*
X84965000Y-94898061D01*
X73160000Y-94898061D01*
X73160000Y-88598397D01*
X83591208Y-88598397D01*
X83668843Y-88847472D01*
X83932883Y-88973371D01*
X84216411Y-89045339D01*
X84508531Y-89060611D01*
X84798019Y-89018599D01*
X85073747Y-88920919D01*
X85211157Y-88847472D01*
X85288792Y-88598397D01*
X84440000Y-87749605D01*
X83591208Y-88598397D01*
X73160000Y-88598397D01*
X73160000Y-87638531D01*
X82949389Y-87638531D01*
X82991401Y-87928019D01*
X83089081Y-88203747D01*
X83162528Y-88341157D01*
X83411603Y-88418792D01*
X84260395Y-87570000D01*
X83411603Y-86721208D01*
X83162528Y-86798843D01*
X83036629Y-87062883D01*
X82964661Y-87346411D01*
X82949389Y-87638531D01*
X73160000Y-87638531D01*
X73160000Y-86541603D01*
X83591208Y-86541603D01*
X84440000Y-87390395D01*
X85288792Y-86541603D01*
X85211157Y-86292528D01*
X84947117Y-86166629D01*
X84663589Y-86094661D01*
X84371469Y-86079389D01*
X84081981Y-86121401D01*
X83806253Y-86219081D01*
X83668843Y-86292528D01*
X83591208Y-86541603D01*
X73160000Y-86541603D01*
X73160000Y-82127000D01*
X80765000Y-82127000D01*
X80765000Y-82402000D01*
X80813507Y-82640496D01*
X80907610Y-82864946D01*
X81043693Y-83066725D01*
X81216526Y-83238078D01*
X81419467Y-83372421D01*
X81644718Y-83464591D01*
X81682391Y-83468462D01*
X81873000Y-83343731D01*
X81873000Y-82127000D01*
X80765000Y-82127000D01*
X73160000Y-82127000D01*
X73160000Y-81598000D01*
X80765000Y-81598000D01*
X80765000Y-81873000D01*
X81873000Y-81873000D01*
X81873000Y-80656269D01*
X81682391Y-80531538D01*
X81644718Y-80535409D01*
X81419467Y-80627579D01*
X81216526Y-80761922D01*
X81043693Y-80933275D01*
X80907610Y-81135054D01*
X80813507Y-81359504D01*
X80765000Y-81598000D01*
X73160000Y-81598000D01*
X73160000Y-79032279D01*
X73188625Y-78740341D01*
X73264035Y-78490571D01*
X73386522Y-78260208D01*
X73551422Y-78058020D01*
X73752450Y-77891714D01*
X73981954Y-77767622D01*
X74231195Y-77690469D01*
X74521088Y-77660000D01*
X135467721Y-77660000D01*
X135759659Y-77688625D01*
G36*
X115010058Y-80761636D02*
G01*
X114911595Y-80881613D01*
X114909191Y-80886111D01*
X114877502Y-80847498D01*
X114689449Y-80693167D01*
X114474901Y-80578489D01*
X114242102Y-80507870D01*
X114000000Y-80484025D01*
X113757899Y-80507870D01*
X113525100Y-80578489D01*
X113310552Y-80693167D01*
X113122499Y-80847498D01*
X112999520Y-80997349D01*
X112956307Y-80933275D01*
X112783474Y-80761922D01*
X112580533Y-80627579D01*
X112355282Y-80535409D01*
X112317609Y-80531538D01*
X112127000Y-80656269D01*
X112127000Y-81873000D01*
X112147000Y-81873000D01*
X112147000Y-82127000D01*
X112127000Y-82127000D01*
X112127000Y-83343731D01*
X112317609Y-83468462D01*
X112355282Y-83464591D01*
X112580533Y-83372421D01*
X112783474Y-83238078D01*
X112956307Y-83066725D01*
X112999519Y-83002651D01*
X113122498Y-83152502D01*
X113310551Y-83306833D01*
X113525099Y-83421511D01*
X113757898Y-83492130D01*
X114000000Y-83515975D01*
X114242101Y-83492130D01*
X114474900Y-83421511D01*
X114689448Y-83306833D01*
X114877502Y-83152502D01*
X114909191Y-83113889D01*
X114911595Y-83118387D01*
X115022038Y-83252962D01*
X115156613Y-83363405D01*
X115310149Y-83445472D01*
X115476745Y-83496008D01*
X115649999Y-83513072D01*
X116350001Y-83513072D01*
X116523255Y-83496008D01*
X116689851Y-83445472D01*
X116843387Y-83363405D01*
X116977962Y-83252962D01*
X117088405Y-83118387D01*
X117170472Y-82964851D01*
X117221008Y-82798255D01*
X117238072Y-82625001D01*
X117238072Y-82127000D01*
X122265000Y-82127000D01*
X122265000Y-82402000D01*
X122313507Y-82640496D01*
X122407610Y-82864946D01*
X122543693Y-83066725D01*
X122716526Y-83238078D01*
X122919467Y-83372421D01*
X123144718Y-83464591D01*
X123182391Y-83468462D01*
X123373000Y-83343731D01*
X123373000Y-82127000D01*
X122265000Y-82127000D01*
X117238072Y-82127000D01*
X117238072Y-81374999D01*
X117221008Y-81201745D01*
X117170472Y-81035149D01*
X117088405Y-80881613D01*
X116977962Y-80747038D01*
X116885000Y-80670746D01*
X116885000Y-80543469D01*
X116888789Y-80505000D01*
X123372998Y-80505000D01*
X123372998Y-80656268D01*
X123182391Y-80531538D01*
X123144718Y-80535409D01*
X122919467Y-80627579D01*
X122716526Y-80761922D01*
X122543693Y-80933275D01*
X122407610Y-81135054D01*
X122313507Y-81359504D01*
X122265000Y-81598000D01*
X122265000Y-81873000D01*
X123373000Y-81873000D01*
X123373000Y-81853000D01*
X123627000Y-81853000D01*
X123627000Y-81873000D01*
X123647000Y-81873000D01*
X123647000Y-82127000D01*
X123627000Y-82127000D01*
X123627000Y-83343731D01*
X123817609Y-83468462D01*
X123855282Y-83464591D01*
X124080533Y-83372421D01*
X124283474Y-83238078D01*
X124456307Y-83066725D01*
X124499519Y-83002651D01*
X124622498Y-83152502D01*
X124740000Y-83248934D01*
X124740000Y-83685198D01*
X124185199Y-84240000D01*
X99721395Y-84240000D01*
X99749003Y-84148986D01*
X99760000Y-84037333D01*
X99760000Y-84037325D01*
X99763676Y-84000000D01*
X99760000Y-83962675D01*
X99760000Y-83248933D01*
X99877502Y-83152502D01*
X100000000Y-83003237D01*
X100122498Y-83152502D01*
X100310551Y-83306833D01*
X100525099Y-83421511D01*
X100757898Y-83492130D01*
X101000000Y-83515975D01*
X101242101Y-83492130D01*
X101474900Y-83421511D01*
X101689448Y-83306833D01*
X101877502Y-83152502D01*
X101909191Y-83113889D01*
X101911595Y-83118387D01*
X102022038Y-83252962D01*
X102156613Y-83363405D01*
X102310149Y-83445472D01*
X102476745Y-83496008D01*
X102649999Y-83513072D01*
X103350001Y-83513072D01*
X103523255Y-83496008D01*
X103689851Y-83445472D01*
X103843387Y-83363405D01*
X103977962Y-83252962D01*
X104088405Y-83118387D01*
X104170472Y-82964851D01*
X104221008Y-82798255D01*
X104238072Y-82625001D01*
X104238072Y-82127000D01*
X110765000Y-82127000D01*
X110765000Y-82402000D01*
X110813507Y-82640496D01*
X110907610Y-82864946D01*
X111043693Y-83066725D01*
X111216526Y-83238078D01*
X111419467Y-83372421D01*
X111644718Y-83464591D01*
X111682391Y-83468462D01*
X111873000Y-83343731D01*
X111873000Y-82127000D01*
X110765000Y-82127000D01*
X104238072Y-82127000D01*
X104238072Y-82013506D01*
X104653578Y-81598000D01*
X110765000Y-81598000D01*
X110765000Y-81873000D01*
X111873000Y-81873000D01*
X111873000Y-80656269D01*
X111682391Y-80531538D01*
X111644718Y-80535409D01*
X111419467Y-80627579D01*
X111216526Y-80761922D01*
X111043693Y-80933275D01*
X110907610Y-81135054D01*
X110813507Y-81359504D01*
X110765000Y-81598000D01*
X104653578Y-81598000D01*
X105595049Y-80656530D01*
X105628817Y-80628817D01*
X105670121Y-80578489D01*
X105715210Y-80523548D01*
X105739411Y-80494059D01*
X105797704Y-80385000D01*
X114633422Y-80385000D01*
X115010058Y-80761636D01*
G37*
X115010058Y-80761636D02*
X114911595Y-80881613D01*
X114909191Y-80886111D01*
X114877502Y-80847498D01*
X114689449Y-80693167D01*
X114474901Y-80578489D01*
X114242102Y-80507870D01*
X114000000Y-80484025D01*
X113757899Y-80507870D01*
X113525100Y-80578489D01*
X113310552Y-80693167D01*
X113122499Y-80847498D01*
X112999520Y-80997349D01*
X112956307Y-80933275D01*
X112783474Y-80761922D01*
X112580533Y-80627579D01*
X112355282Y-80535409D01*
X112317609Y-80531538D01*
X112127000Y-80656269D01*
X112127000Y-81873000D01*
X112147000Y-81873000D01*
X112147000Y-82127000D01*
X112127000Y-82127000D01*
X112127000Y-83343731D01*
X112317609Y-83468462D01*
X112355282Y-83464591D01*
X112580533Y-83372421D01*
X112783474Y-83238078D01*
X112956307Y-83066725D01*
X112999519Y-83002651D01*
X113122498Y-83152502D01*
X113310551Y-83306833D01*
X113525099Y-83421511D01*
X113757898Y-83492130D01*
X114000000Y-83515975D01*
X114242101Y-83492130D01*
X114474900Y-83421511D01*
X114689448Y-83306833D01*
X114877502Y-83152502D01*
X114909191Y-83113889D01*
X114911595Y-83118387D01*
X115022038Y-83252962D01*
X115156613Y-83363405D01*
X115310149Y-83445472D01*
X115476745Y-83496008D01*
X115649999Y-83513072D01*
X116350001Y-83513072D01*
X116523255Y-83496008D01*
X116689851Y-83445472D01*
X116843387Y-83363405D01*
X116977962Y-83252962D01*
X117088405Y-83118387D01*
X117170472Y-82964851D01*
X117221008Y-82798255D01*
X117238072Y-82625001D01*
X117238072Y-82127000D01*
X122265000Y-82127000D01*
X122265000Y-82402000D01*
X122313507Y-82640496D01*
X122407610Y-82864946D01*
X122543693Y-83066725D01*
X122716526Y-83238078D01*
X122919467Y-83372421D01*
X123144718Y-83464591D01*
X123182391Y-83468462D01*
X123373000Y-83343731D01*
X123373000Y-82127000D01*
X122265000Y-82127000D01*
X117238072Y-82127000D01*
X117238072Y-81374999D01*
X117221008Y-81201745D01*
X117170472Y-81035149D01*
X117088405Y-80881613D01*
X116977962Y-80747038D01*
X116885000Y-80670746D01*
X116885000Y-80543469D01*
X116888789Y-80505000D01*
X123372998Y-80505000D01*
X123372998Y-80656268D01*
X123182391Y-80531538D01*
X123144718Y-80535409D01*
X122919467Y-80627579D01*
X122716526Y-80761922D01*
X122543693Y-80933275D01*
X122407610Y-81135054D01*
X122313507Y-81359504D01*
X122265000Y-81598000D01*
X122265000Y-81873000D01*
X123373000Y-81873000D01*
X123373000Y-81853000D01*
X123627000Y-81853000D01*
X123627000Y-81873000D01*
X123647000Y-81873000D01*
X123647000Y-82127000D01*
X123627000Y-82127000D01*
X123627000Y-83343731D01*
X123817609Y-83468462D01*
X123855282Y-83464591D01*
X124080533Y-83372421D01*
X124283474Y-83238078D01*
X124456307Y-83066725D01*
X124499519Y-83002651D01*
X124622498Y-83152502D01*
X124740000Y-83248934D01*
X124740000Y-83685198D01*
X124185199Y-84240000D01*
X99721395Y-84240000D01*
X99749003Y-84148986D01*
X99760000Y-84037333D01*
X99760000Y-84037325D01*
X99763676Y-84000000D01*
X99760000Y-83962675D01*
X99760000Y-83248933D01*
X99877502Y-83152502D01*
X100000000Y-83003237D01*
X100122498Y-83152502D01*
X100310551Y-83306833D01*
X100525099Y-83421511D01*
X100757898Y-83492130D01*
X101000000Y-83515975D01*
X101242101Y-83492130D01*
X101474900Y-83421511D01*
X101689448Y-83306833D01*
X101877502Y-83152502D01*
X101909191Y-83113889D01*
X101911595Y-83118387D01*
X102022038Y-83252962D01*
X102156613Y-83363405D01*
X102310149Y-83445472D01*
X102476745Y-83496008D01*
X102649999Y-83513072D01*
X103350001Y-83513072D01*
X103523255Y-83496008D01*
X103689851Y-83445472D01*
X103843387Y-83363405D01*
X103977962Y-83252962D01*
X104088405Y-83118387D01*
X104170472Y-82964851D01*
X104221008Y-82798255D01*
X104238072Y-82625001D01*
X104238072Y-82127000D01*
X110765000Y-82127000D01*
X110765000Y-82402000D01*
X110813507Y-82640496D01*
X110907610Y-82864946D01*
X111043693Y-83066725D01*
X111216526Y-83238078D01*
X111419467Y-83372421D01*
X111644718Y-83464591D01*
X111682391Y-83468462D01*
X111873000Y-83343731D01*
X111873000Y-82127000D01*
X110765000Y-82127000D01*
X104238072Y-82127000D01*
X104238072Y-82013506D01*
X104653578Y-81598000D01*
X110765000Y-81598000D01*
X110765000Y-81873000D01*
X111873000Y-81873000D01*
X111873000Y-80656269D01*
X111682391Y-80531538D01*
X111644718Y-80535409D01*
X111419467Y-80627579D01*
X111216526Y-80761922D01*
X111043693Y-80933275D01*
X110907610Y-81135054D01*
X110813507Y-81359504D01*
X110765000Y-81598000D01*
X104653578Y-81598000D01*
X105595049Y-80656530D01*
X105628817Y-80628817D01*
X105670121Y-80578489D01*
X105715210Y-80523548D01*
X105739411Y-80494059D01*
X105797704Y-80385000D01*
X114633422Y-80385000D01*
X115010058Y-80761636D01*
M02*
