G04 #@! TF.GenerationSoftware,KiCad,Pcbnew,5.1.4*
G04 #@! TF.CreationDate,2019-11-29T20:38:04+00:00*
G04 #@! TF.ProjectId,ESP32ControllerCircuit,45535033-3243-46f6-9e74-726f6c6c6572,rev?*
G04 #@! TF.SameCoordinates,Original*
G04 #@! TF.FileFunction,Paste,Top*
G04 #@! TF.FilePolarity,Positive*
%FSLAX46Y46*%
G04 Gerber Fmt 4.6, Leading zero omitted, Abs format (unit mm)*
G04 Created by KiCad (PCBNEW 5.1.4) date 2019-11-29 20:38:04*
%MOMM*%
%LPD*%
G04 APERTURE LIST*
%ADD10C,0.100000*%
%ADD11C,1.425000*%
%ADD12C,1.500000*%
%ADD13R,2.500000X2.300000*%
%ADD14C,3.200000*%
%ADD15R,0.250000X1.100000*%
%ADD16R,0.640000X2.000000*%
%ADD17R,2.350000X5.100000*%
%ADD18R,1.550000X0.600000*%
%ADD19C,1.150000*%
G04 APERTURE END LIST*
D10*
G36*
X82419504Y-91446204D02*
G01*
X82443773Y-91449804D01*
X82467571Y-91455765D01*
X82490671Y-91464030D01*
X82512849Y-91474520D01*
X82533893Y-91487133D01*
X82553598Y-91501747D01*
X82571777Y-91518223D01*
X82588253Y-91536402D01*
X82602867Y-91556107D01*
X82615480Y-91577151D01*
X82625970Y-91599329D01*
X82634235Y-91622429D01*
X82640196Y-91646227D01*
X82643796Y-91670496D01*
X82645000Y-91695000D01*
X82645000Y-92620000D01*
X82643796Y-92644504D01*
X82640196Y-92668773D01*
X82634235Y-92692571D01*
X82625970Y-92715671D01*
X82615480Y-92737849D01*
X82602867Y-92758893D01*
X82588253Y-92778598D01*
X82571777Y-92796777D01*
X82553598Y-92813253D01*
X82533893Y-92827867D01*
X82512849Y-92840480D01*
X82490671Y-92850970D01*
X82467571Y-92859235D01*
X82443773Y-92865196D01*
X82419504Y-92868796D01*
X82395000Y-92870000D01*
X81145000Y-92870000D01*
X81120496Y-92868796D01*
X81096227Y-92865196D01*
X81072429Y-92859235D01*
X81049329Y-92850970D01*
X81027151Y-92840480D01*
X81006107Y-92827867D01*
X80986402Y-92813253D01*
X80968223Y-92796777D01*
X80951747Y-92778598D01*
X80937133Y-92758893D01*
X80924520Y-92737849D01*
X80914030Y-92715671D01*
X80905765Y-92692571D01*
X80899804Y-92668773D01*
X80896204Y-92644504D01*
X80895000Y-92620000D01*
X80895000Y-91695000D01*
X80896204Y-91670496D01*
X80899804Y-91646227D01*
X80905765Y-91622429D01*
X80914030Y-91599329D01*
X80924520Y-91577151D01*
X80937133Y-91556107D01*
X80951747Y-91536402D01*
X80968223Y-91518223D01*
X80986402Y-91501747D01*
X81006107Y-91487133D01*
X81027151Y-91474520D01*
X81049329Y-91464030D01*
X81072429Y-91455765D01*
X81096227Y-91449804D01*
X81120496Y-91446204D01*
X81145000Y-91445000D01*
X82395000Y-91445000D01*
X82419504Y-91446204D01*
X82419504Y-91446204D01*
G37*
D11*
X81770000Y-92157500D03*
D10*
G36*
X82419504Y-88471204D02*
G01*
X82443773Y-88474804D01*
X82467571Y-88480765D01*
X82490671Y-88489030D01*
X82512849Y-88499520D01*
X82533893Y-88512133D01*
X82553598Y-88526747D01*
X82571777Y-88543223D01*
X82588253Y-88561402D01*
X82602867Y-88581107D01*
X82615480Y-88602151D01*
X82625970Y-88624329D01*
X82634235Y-88647429D01*
X82640196Y-88671227D01*
X82643796Y-88695496D01*
X82645000Y-88720000D01*
X82645000Y-89645000D01*
X82643796Y-89669504D01*
X82640196Y-89693773D01*
X82634235Y-89717571D01*
X82625970Y-89740671D01*
X82615480Y-89762849D01*
X82602867Y-89783893D01*
X82588253Y-89803598D01*
X82571777Y-89821777D01*
X82553598Y-89838253D01*
X82533893Y-89852867D01*
X82512849Y-89865480D01*
X82490671Y-89875970D01*
X82467571Y-89884235D01*
X82443773Y-89890196D01*
X82419504Y-89893796D01*
X82395000Y-89895000D01*
X81145000Y-89895000D01*
X81120496Y-89893796D01*
X81096227Y-89890196D01*
X81072429Y-89884235D01*
X81049329Y-89875970D01*
X81027151Y-89865480D01*
X81006107Y-89852867D01*
X80986402Y-89838253D01*
X80968223Y-89821777D01*
X80951747Y-89803598D01*
X80937133Y-89783893D01*
X80924520Y-89762849D01*
X80914030Y-89740671D01*
X80905765Y-89717571D01*
X80899804Y-89693773D01*
X80896204Y-89669504D01*
X80895000Y-89645000D01*
X80895000Y-88720000D01*
X80896204Y-88695496D01*
X80899804Y-88671227D01*
X80905765Y-88647429D01*
X80914030Y-88624329D01*
X80924520Y-88602151D01*
X80937133Y-88581107D01*
X80951747Y-88561402D01*
X80968223Y-88543223D01*
X80986402Y-88526747D01*
X81006107Y-88512133D01*
X81027151Y-88499520D01*
X81049329Y-88489030D01*
X81072429Y-88480765D01*
X81096227Y-88474804D01*
X81120496Y-88471204D01*
X81145000Y-88470000D01*
X82395000Y-88470000D01*
X82419504Y-88471204D01*
X82419504Y-88471204D01*
G37*
D11*
X81770000Y-89182500D03*
D10*
G36*
X100474504Y-99126204D02*
G01*
X100498773Y-99129804D01*
X100522571Y-99135765D01*
X100545671Y-99144030D01*
X100567849Y-99154520D01*
X100588893Y-99167133D01*
X100608598Y-99181747D01*
X100626777Y-99198223D01*
X100643253Y-99216402D01*
X100657867Y-99236107D01*
X100670480Y-99257151D01*
X100680970Y-99279329D01*
X100689235Y-99302429D01*
X100695196Y-99326227D01*
X100698796Y-99350496D01*
X100700000Y-99375000D01*
X100700000Y-100625000D01*
X100698796Y-100649504D01*
X100695196Y-100673773D01*
X100689235Y-100697571D01*
X100680970Y-100720671D01*
X100670480Y-100742849D01*
X100657867Y-100763893D01*
X100643253Y-100783598D01*
X100626777Y-100801777D01*
X100608598Y-100818253D01*
X100588893Y-100832867D01*
X100567849Y-100845480D01*
X100545671Y-100855970D01*
X100522571Y-100864235D01*
X100498773Y-100870196D01*
X100474504Y-100873796D01*
X100450000Y-100875000D01*
X99525000Y-100875000D01*
X99500496Y-100873796D01*
X99476227Y-100870196D01*
X99452429Y-100864235D01*
X99429329Y-100855970D01*
X99407151Y-100845480D01*
X99386107Y-100832867D01*
X99366402Y-100818253D01*
X99348223Y-100801777D01*
X99331747Y-100783598D01*
X99317133Y-100763893D01*
X99304520Y-100742849D01*
X99294030Y-100720671D01*
X99285765Y-100697571D01*
X99279804Y-100673773D01*
X99276204Y-100649504D01*
X99275000Y-100625000D01*
X99275000Y-99375000D01*
X99276204Y-99350496D01*
X99279804Y-99326227D01*
X99285765Y-99302429D01*
X99294030Y-99279329D01*
X99304520Y-99257151D01*
X99317133Y-99236107D01*
X99331747Y-99216402D01*
X99348223Y-99198223D01*
X99366402Y-99181747D01*
X99386107Y-99167133D01*
X99407151Y-99154520D01*
X99429329Y-99144030D01*
X99452429Y-99135765D01*
X99476227Y-99129804D01*
X99500496Y-99126204D01*
X99525000Y-99125000D01*
X100450000Y-99125000D01*
X100474504Y-99126204D01*
X100474504Y-99126204D01*
G37*
D11*
X99987500Y-100000000D03*
D10*
G36*
X97499504Y-99126204D02*
G01*
X97523773Y-99129804D01*
X97547571Y-99135765D01*
X97570671Y-99144030D01*
X97592849Y-99154520D01*
X97613893Y-99167133D01*
X97633598Y-99181747D01*
X97651777Y-99198223D01*
X97668253Y-99216402D01*
X97682867Y-99236107D01*
X97695480Y-99257151D01*
X97705970Y-99279329D01*
X97714235Y-99302429D01*
X97720196Y-99326227D01*
X97723796Y-99350496D01*
X97725000Y-99375000D01*
X97725000Y-100625000D01*
X97723796Y-100649504D01*
X97720196Y-100673773D01*
X97714235Y-100697571D01*
X97705970Y-100720671D01*
X97695480Y-100742849D01*
X97682867Y-100763893D01*
X97668253Y-100783598D01*
X97651777Y-100801777D01*
X97633598Y-100818253D01*
X97613893Y-100832867D01*
X97592849Y-100845480D01*
X97570671Y-100855970D01*
X97547571Y-100864235D01*
X97523773Y-100870196D01*
X97499504Y-100873796D01*
X97475000Y-100875000D01*
X96550000Y-100875000D01*
X96525496Y-100873796D01*
X96501227Y-100870196D01*
X96477429Y-100864235D01*
X96454329Y-100855970D01*
X96432151Y-100845480D01*
X96411107Y-100832867D01*
X96391402Y-100818253D01*
X96373223Y-100801777D01*
X96356747Y-100783598D01*
X96342133Y-100763893D01*
X96329520Y-100742849D01*
X96319030Y-100720671D01*
X96310765Y-100697571D01*
X96304804Y-100673773D01*
X96301204Y-100649504D01*
X96300000Y-100625000D01*
X96300000Y-99375000D01*
X96301204Y-99350496D01*
X96304804Y-99326227D01*
X96310765Y-99302429D01*
X96319030Y-99279329D01*
X96329520Y-99257151D01*
X96342133Y-99236107D01*
X96356747Y-99216402D01*
X96373223Y-99198223D01*
X96391402Y-99181747D01*
X96411107Y-99167133D01*
X96432151Y-99154520D01*
X96454329Y-99144030D01*
X96477429Y-99135765D01*
X96501227Y-99129804D01*
X96525496Y-99126204D01*
X96550000Y-99125000D01*
X97475000Y-99125000D01*
X97499504Y-99126204D01*
X97499504Y-99126204D01*
G37*
D11*
X97012500Y-100000000D03*
D10*
G36*
X115499504Y-105626204D02*
G01*
X115523773Y-105629804D01*
X115547571Y-105635765D01*
X115570671Y-105644030D01*
X115592849Y-105654520D01*
X115613893Y-105667133D01*
X115633598Y-105681747D01*
X115651777Y-105698223D01*
X115668253Y-105716402D01*
X115682867Y-105736107D01*
X115695480Y-105757151D01*
X115705970Y-105779329D01*
X115714235Y-105802429D01*
X115720196Y-105826227D01*
X115723796Y-105850496D01*
X115725000Y-105875000D01*
X115725000Y-107125000D01*
X115723796Y-107149504D01*
X115720196Y-107173773D01*
X115714235Y-107197571D01*
X115705970Y-107220671D01*
X115695480Y-107242849D01*
X115682867Y-107263893D01*
X115668253Y-107283598D01*
X115651777Y-107301777D01*
X115633598Y-107318253D01*
X115613893Y-107332867D01*
X115592849Y-107345480D01*
X115570671Y-107355970D01*
X115547571Y-107364235D01*
X115523773Y-107370196D01*
X115499504Y-107373796D01*
X115475000Y-107375000D01*
X114550000Y-107375000D01*
X114525496Y-107373796D01*
X114501227Y-107370196D01*
X114477429Y-107364235D01*
X114454329Y-107355970D01*
X114432151Y-107345480D01*
X114411107Y-107332867D01*
X114391402Y-107318253D01*
X114373223Y-107301777D01*
X114356747Y-107283598D01*
X114342133Y-107263893D01*
X114329520Y-107242849D01*
X114319030Y-107220671D01*
X114310765Y-107197571D01*
X114304804Y-107173773D01*
X114301204Y-107149504D01*
X114300000Y-107125000D01*
X114300000Y-105875000D01*
X114301204Y-105850496D01*
X114304804Y-105826227D01*
X114310765Y-105802429D01*
X114319030Y-105779329D01*
X114329520Y-105757151D01*
X114342133Y-105736107D01*
X114356747Y-105716402D01*
X114373223Y-105698223D01*
X114391402Y-105681747D01*
X114411107Y-105667133D01*
X114432151Y-105654520D01*
X114454329Y-105644030D01*
X114477429Y-105635765D01*
X114501227Y-105629804D01*
X114525496Y-105626204D01*
X114550000Y-105625000D01*
X115475000Y-105625000D01*
X115499504Y-105626204D01*
X115499504Y-105626204D01*
G37*
D11*
X115012500Y-106500000D03*
D10*
G36*
X118474504Y-105626204D02*
G01*
X118498773Y-105629804D01*
X118522571Y-105635765D01*
X118545671Y-105644030D01*
X118567849Y-105654520D01*
X118588893Y-105667133D01*
X118608598Y-105681747D01*
X118626777Y-105698223D01*
X118643253Y-105716402D01*
X118657867Y-105736107D01*
X118670480Y-105757151D01*
X118680970Y-105779329D01*
X118689235Y-105802429D01*
X118695196Y-105826227D01*
X118698796Y-105850496D01*
X118700000Y-105875000D01*
X118700000Y-107125000D01*
X118698796Y-107149504D01*
X118695196Y-107173773D01*
X118689235Y-107197571D01*
X118680970Y-107220671D01*
X118670480Y-107242849D01*
X118657867Y-107263893D01*
X118643253Y-107283598D01*
X118626777Y-107301777D01*
X118608598Y-107318253D01*
X118588893Y-107332867D01*
X118567849Y-107345480D01*
X118545671Y-107355970D01*
X118522571Y-107364235D01*
X118498773Y-107370196D01*
X118474504Y-107373796D01*
X118450000Y-107375000D01*
X117525000Y-107375000D01*
X117500496Y-107373796D01*
X117476227Y-107370196D01*
X117452429Y-107364235D01*
X117429329Y-107355970D01*
X117407151Y-107345480D01*
X117386107Y-107332867D01*
X117366402Y-107318253D01*
X117348223Y-107301777D01*
X117331747Y-107283598D01*
X117317133Y-107263893D01*
X117304520Y-107242849D01*
X117294030Y-107220671D01*
X117285765Y-107197571D01*
X117279804Y-107173773D01*
X117276204Y-107149504D01*
X117275000Y-107125000D01*
X117275000Y-105875000D01*
X117276204Y-105850496D01*
X117279804Y-105826227D01*
X117285765Y-105802429D01*
X117294030Y-105779329D01*
X117304520Y-105757151D01*
X117317133Y-105736107D01*
X117331747Y-105716402D01*
X117348223Y-105698223D01*
X117366402Y-105681747D01*
X117386107Y-105667133D01*
X117407151Y-105654520D01*
X117429329Y-105644030D01*
X117452429Y-105635765D01*
X117476227Y-105629804D01*
X117500496Y-105626204D01*
X117525000Y-105625000D01*
X118450000Y-105625000D01*
X118474504Y-105626204D01*
X118474504Y-105626204D01*
G37*
D11*
X117987500Y-106500000D03*
D10*
G36*
X88474504Y-98626204D02*
G01*
X88498773Y-98629804D01*
X88522571Y-98635765D01*
X88545671Y-98644030D01*
X88567849Y-98654520D01*
X88588893Y-98667133D01*
X88608598Y-98681747D01*
X88626777Y-98698223D01*
X88643253Y-98716402D01*
X88657867Y-98736107D01*
X88670480Y-98757151D01*
X88680970Y-98779329D01*
X88689235Y-98802429D01*
X88695196Y-98826227D01*
X88698796Y-98850496D01*
X88700000Y-98875000D01*
X88700000Y-100125000D01*
X88698796Y-100149504D01*
X88695196Y-100173773D01*
X88689235Y-100197571D01*
X88680970Y-100220671D01*
X88670480Y-100242849D01*
X88657867Y-100263893D01*
X88643253Y-100283598D01*
X88626777Y-100301777D01*
X88608598Y-100318253D01*
X88588893Y-100332867D01*
X88567849Y-100345480D01*
X88545671Y-100355970D01*
X88522571Y-100364235D01*
X88498773Y-100370196D01*
X88474504Y-100373796D01*
X88450000Y-100375000D01*
X87525000Y-100375000D01*
X87500496Y-100373796D01*
X87476227Y-100370196D01*
X87452429Y-100364235D01*
X87429329Y-100355970D01*
X87407151Y-100345480D01*
X87386107Y-100332867D01*
X87366402Y-100318253D01*
X87348223Y-100301777D01*
X87331747Y-100283598D01*
X87317133Y-100263893D01*
X87304520Y-100242849D01*
X87294030Y-100220671D01*
X87285765Y-100197571D01*
X87279804Y-100173773D01*
X87276204Y-100149504D01*
X87275000Y-100125000D01*
X87275000Y-98875000D01*
X87276204Y-98850496D01*
X87279804Y-98826227D01*
X87285765Y-98802429D01*
X87294030Y-98779329D01*
X87304520Y-98757151D01*
X87317133Y-98736107D01*
X87331747Y-98716402D01*
X87348223Y-98698223D01*
X87366402Y-98681747D01*
X87386107Y-98667133D01*
X87407151Y-98654520D01*
X87429329Y-98644030D01*
X87452429Y-98635765D01*
X87476227Y-98629804D01*
X87500496Y-98626204D01*
X87525000Y-98625000D01*
X88450000Y-98625000D01*
X88474504Y-98626204D01*
X88474504Y-98626204D01*
G37*
D11*
X87987500Y-99500000D03*
D10*
G36*
X85499504Y-98626204D02*
G01*
X85523773Y-98629804D01*
X85547571Y-98635765D01*
X85570671Y-98644030D01*
X85592849Y-98654520D01*
X85613893Y-98667133D01*
X85633598Y-98681747D01*
X85651777Y-98698223D01*
X85668253Y-98716402D01*
X85682867Y-98736107D01*
X85695480Y-98757151D01*
X85705970Y-98779329D01*
X85714235Y-98802429D01*
X85720196Y-98826227D01*
X85723796Y-98850496D01*
X85725000Y-98875000D01*
X85725000Y-100125000D01*
X85723796Y-100149504D01*
X85720196Y-100173773D01*
X85714235Y-100197571D01*
X85705970Y-100220671D01*
X85695480Y-100242849D01*
X85682867Y-100263893D01*
X85668253Y-100283598D01*
X85651777Y-100301777D01*
X85633598Y-100318253D01*
X85613893Y-100332867D01*
X85592849Y-100345480D01*
X85570671Y-100355970D01*
X85547571Y-100364235D01*
X85523773Y-100370196D01*
X85499504Y-100373796D01*
X85475000Y-100375000D01*
X84550000Y-100375000D01*
X84525496Y-100373796D01*
X84501227Y-100370196D01*
X84477429Y-100364235D01*
X84454329Y-100355970D01*
X84432151Y-100345480D01*
X84411107Y-100332867D01*
X84391402Y-100318253D01*
X84373223Y-100301777D01*
X84356747Y-100283598D01*
X84342133Y-100263893D01*
X84329520Y-100242849D01*
X84319030Y-100220671D01*
X84310765Y-100197571D01*
X84304804Y-100173773D01*
X84301204Y-100149504D01*
X84300000Y-100125000D01*
X84300000Y-98875000D01*
X84301204Y-98850496D01*
X84304804Y-98826227D01*
X84310765Y-98802429D01*
X84319030Y-98779329D01*
X84329520Y-98757151D01*
X84342133Y-98736107D01*
X84356747Y-98716402D01*
X84373223Y-98698223D01*
X84391402Y-98681747D01*
X84411107Y-98667133D01*
X84432151Y-98654520D01*
X84454329Y-98644030D01*
X84477429Y-98635765D01*
X84501227Y-98629804D01*
X84525496Y-98626204D01*
X84550000Y-98625000D01*
X85475000Y-98625000D01*
X85499504Y-98626204D01*
X85499504Y-98626204D01*
G37*
D11*
X85012500Y-99500000D03*
D10*
G36*
X122149504Y-120776204D02*
G01*
X122173773Y-120779804D01*
X122197571Y-120785765D01*
X122220671Y-120794030D01*
X122242849Y-120804520D01*
X122263893Y-120817133D01*
X122283598Y-120831747D01*
X122301777Y-120848223D01*
X122318253Y-120866402D01*
X122332867Y-120886107D01*
X122345480Y-120907151D01*
X122355970Y-120929329D01*
X122364235Y-120952429D01*
X122370196Y-120976227D01*
X122373796Y-121000496D01*
X122375000Y-121025000D01*
X122375000Y-121950000D01*
X122373796Y-121974504D01*
X122370196Y-121998773D01*
X122364235Y-122022571D01*
X122355970Y-122045671D01*
X122345480Y-122067849D01*
X122332867Y-122088893D01*
X122318253Y-122108598D01*
X122301777Y-122126777D01*
X122283598Y-122143253D01*
X122263893Y-122157867D01*
X122242849Y-122170480D01*
X122220671Y-122180970D01*
X122197571Y-122189235D01*
X122173773Y-122195196D01*
X122149504Y-122198796D01*
X122125000Y-122200000D01*
X120875000Y-122200000D01*
X120850496Y-122198796D01*
X120826227Y-122195196D01*
X120802429Y-122189235D01*
X120779329Y-122180970D01*
X120757151Y-122170480D01*
X120736107Y-122157867D01*
X120716402Y-122143253D01*
X120698223Y-122126777D01*
X120681747Y-122108598D01*
X120667133Y-122088893D01*
X120654520Y-122067849D01*
X120644030Y-122045671D01*
X120635765Y-122022571D01*
X120629804Y-121998773D01*
X120626204Y-121974504D01*
X120625000Y-121950000D01*
X120625000Y-121025000D01*
X120626204Y-121000496D01*
X120629804Y-120976227D01*
X120635765Y-120952429D01*
X120644030Y-120929329D01*
X120654520Y-120907151D01*
X120667133Y-120886107D01*
X120681747Y-120866402D01*
X120698223Y-120848223D01*
X120716402Y-120831747D01*
X120736107Y-120817133D01*
X120757151Y-120804520D01*
X120779329Y-120794030D01*
X120802429Y-120785765D01*
X120826227Y-120779804D01*
X120850496Y-120776204D01*
X120875000Y-120775000D01*
X122125000Y-120775000D01*
X122149504Y-120776204D01*
X122149504Y-120776204D01*
G37*
D11*
X121500000Y-121487500D03*
D10*
G36*
X122149504Y-117801204D02*
G01*
X122173773Y-117804804D01*
X122197571Y-117810765D01*
X122220671Y-117819030D01*
X122242849Y-117829520D01*
X122263893Y-117842133D01*
X122283598Y-117856747D01*
X122301777Y-117873223D01*
X122318253Y-117891402D01*
X122332867Y-117911107D01*
X122345480Y-117932151D01*
X122355970Y-117954329D01*
X122364235Y-117977429D01*
X122370196Y-118001227D01*
X122373796Y-118025496D01*
X122375000Y-118050000D01*
X122375000Y-118975000D01*
X122373796Y-118999504D01*
X122370196Y-119023773D01*
X122364235Y-119047571D01*
X122355970Y-119070671D01*
X122345480Y-119092849D01*
X122332867Y-119113893D01*
X122318253Y-119133598D01*
X122301777Y-119151777D01*
X122283598Y-119168253D01*
X122263893Y-119182867D01*
X122242849Y-119195480D01*
X122220671Y-119205970D01*
X122197571Y-119214235D01*
X122173773Y-119220196D01*
X122149504Y-119223796D01*
X122125000Y-119225000D01*
X120875000Y-119225000D01*
X120850496Y-119223796D01*
X120826227Y-119220196D01*
X120802429Y-119214235D01*
X120779329Y-119205970D01*
X120757151Y-119195480D01*
X120736107Y-119182867D01*
X120716402Y-119168253D01*
X120698223Y-119151777D01*
X120681747Y-119133598D01*
X120667133Y-119113893D01*
X120654520Y-119092849D01*
X120644030Y-119070671D01*
X120635765Y-119047571D01*
X120629804Y-119023773D01*
X120626204Y-118999504D01*
X120625000Y-118975000D01*
X120625000Y-118050000D01*
X120626204Y-118025496D01*
X120629804Y-118001227D01*
X120635765Y-117977429D01*
X120644030Y-117954329D01*
X120654520Y-117932151D01*
X120667133Y-117911107D01*
X120681747Y-117891402D01*
X120698223Y-117873223D01*
X120716402Y-117856747D01*
X120736107Y-117842133D01*
X120757151Y-117829520D01*
X120779329Y-117819030D01*
X120802429Y-117810765D01*
X120826227Y-117804804D01*
X120850496Y-117801204D01*
X120875000Y-117800000D01*
X122125000Y-117800000D01*
X122149504Y-117801204D01*
X122149504Y-117801204D01*
G37*
D11*
X121500000Y-118512500D03*
D10*
G36*
X104999504Y-115626204D02*
G01*
X105023773Y-115629804D01*
X105047571Y-115635765D01*
X105070671Y-115644030D01*
X105092849Y-115654520D01*
X105113893Y-115667133D01*
X105133598Y-115681747D01*
X105151777Y-115698223D01*
X105168253Y-115716402D01*
X105182867Y-115736107D01*
X105195480Y-115757151D01*
X105205970Y-115779329D01*
X105214235Y-115802429D01*
X105220196Y-115826227D01*
X105223796Y-115850496D01*
X105225000Y-115875000D01*
X105225000Y-117125000D01*
X105223796Y-117149504D01*
X105220196Y-117173773D01*
X105214235Y-117197571D01*
X105205970Y-117220671D01*
X105195480Y-117242849D01*
X105182867Y-117263893D01*
X105168253Y-117283598D01*
X105151777Y-117301777D01*
X105133598Y-117318253D01*
X105113893Y-117332867D01*
X105092849Y-117345480D01*
X105070671Y-117355970D01*
X105047571Y-117364235D01*
X105023773Y-117370196D01*
X104999504Y-117373796D01*
X104975000Y-117375000D01*
X104050000Y-117375000D01*
X104025496Y-117373796D01*
X104001227Y-117370196D01*
X103977429Y-117364235D01*
X103954329Y-117355970D01*
X103932151Y-117345480D01*
X103911107Y-117332867D01*
X103891402Y-117318253D01*
X103873223Y-117301777D01*
X103856747Y-117283598D01*
X103842133Y-117263893D01*
X103829520Y-117242849D01*
X103819030Y-117220671D01*
X103810765Y-117197571D01*
X103804804Y-117173773D01*
X103801204Y-117149504D01*
X103800000Y-117125000D01*
X103800000Y-115875000D01*
X103801204Y-115850496D01*
X103804804Y-115826227D01*
X103810765Y-115802429D01*
X103819030Y-115779329D01*
X103829520Y-115757151D01*
X103842133Y-115736107D01*
X103856747Y-115716402D01*
X103873223Y-115698223D01*
X103891402Y-115681747D01*
X103911107Y-115667133D01*
X103932151Y-115654520D01*
X103954329Y-115644030D01*
X103977429Y-115635765D01*
X104001227Y-115629804D01*
X104025496Y-115626204D01*
X104050000Y-115625000D01*
X104975000Y-115625000D01*
X104999504Y-115626204D01*
X104999504Y-115626204D01*
G37*
D11*
X104512500Y-116500000D03*
D10*
G36*
X107974504Y-115626204D02*
G01*
X107998773Y-115629804D01*
X108022571Y-115635765D01*
X108045671Y-115644030D01*
X108067849Y-115654520D01*
X108088893Y-115667133D01*
X108108598Y-115681747D01*
X108126777Y-115698223D01*
X108143253Y-115716402D01*
X108157867Y-115736107D01*
X108170480Y-115757151D01*
X108180970Y-115779329D01*
X108189235Y-115802429D01*
X108195196Y-115826227D01*
X108198796Y-115850496D01*
X108200000Y-115875000D01*
X108200000Y-117125000D01*
X108198796Y-117149504D01*
X108195196Y-117173773D01*
X108189235Y-117197571D01*
X108180970Y-117220671D01*
X108170480Y-117242849D01*
X108157867Y-117263893D01*
X108143253Y-117283598D01*
X108126777Y-117301777D01*
X108108598Y-117318253D01*
X108088893Y-117332867D01*
X108067849Y-117345480D01*
X108045671Y-117355970D01*
X108022571Y-117364235D01*
X107998773Y-117370196D01*
X107974504Y-117373796D01*
X107950000Y-117375000D01*
X107025000Y-117375000D01*
X107000496Y-117373796D01*
X106976227Y-117370196D01*
X106952429Y-117364235D01*
X106929329Y-117355970D01*
X106907151Y-117345480D01*
X106886107Y-117332867D01*
X106866402Y-117318253D01*
X106848223Y-117301777D01*
X106831747Y-117283598D01*
X106817133Y-117263893D01*
X106804520Y-117242849D01*
X106794030Y-117220671D01*
X106785765Y-117197571D01*
X106779804Y-117173773D01*
X106776204Y-117149504D01*
X106775000Y-117125000D01*
X106775000Y-115875000D01*
X106776204Y-115850496D01*
X106779804Y-115826227D01*
X106785765Y-115802429D01*
X106794030Y-115779329D01*
X106804520Y-115757151D01*
X106817133Y-115736107D01*
X106831747Y-115716402D01*
X106848223Y-115698223D01*
X106866402Y-115681747D01*
X106886107Y-115667133D01*
X106907151Y-115654520D01*
X106929329Y-115644030D01*
X106952429Y-115635765D01*
X106976227Y-115629804D01*
X107000496Y-115626204D01*
X107025000Y-115625000D01*
X107950000Y-115625000D01*
X107974504Y-115626204D01*
X107974504Y-115626204D01*
G37*
D11*
X107487500Y-116500000D03*
D10*
G36*
X114974504Y-113626204D02*
G01*
X114998773Y-113629804D01*
X115022571Y-113635765D01*
X115045671Y-113644030D01*
X115067849Y-113654520D01*
X115088893Y-113667133D01*
X115108598Y-113681747D01*
X115126777Y-113698223D01*
X115143253Y-113716402D01*
X115157867Y-113736107D01*
X115170480Y-113757151D01*
X115180970Y-113779329D01*
X115189235Y-113802429D01*
X115195196Y-113826227D01*
X115198796Y-113850496D01*
X115200000Y-113875000D01*
X115200000Y-115125000D01*
X115198796Y-115149504D01*
X115195196Y-115173773D01*
X115189235Y-115197571D01*
X115180970Y-115220671D01*
X115170480Y-115242849D01*
X115157867Y-115263893D01*
X115143253Y-115283598D01*
X115126777Y-115301777D01*
X115108598Y-115318253D01*
X115088893Y-115332867D01*
X115067849Y-115345480D01*
X115045671Y-115355970D01*
X115022571Y-115364235D01*
X114998773Y-115370196D01*
X114974504Y-115373796D01*
X114950000Y-115375000D01*
X114025000Y-115375000D01*
X114000496Y-115373796D01*
X113976227Y-115370196D01*
X113952429Y-115364235D01*
X113929329Y-115355970D01*
X113907151Y-115345480D01*
X113886107Y-115332867D01*
X113866402Y-115318253D01*
X113848223Y-115301777D01*
X113831747Y-115283598D01*
X113817133Y-115263893D01*
X113804520Y-115242849D01*
X113794030Y-115220671D01*
X113785765Y-115197571D01*
X113779804Y-115173773D01*
X113776204Y-115149504D01*
X113775000Y-115125000D01*
X113775000Y-113875000D01*
X113776204Y-113850496D01*
X113779804Y-113826227D01*
X113785765Y-113802429D01*
X113794030Y-113779329D01*
X113804520Y-113757151D01*
X113817133Y-113736107D01*
X113831747Y-113716402D01*
X113848223Y-113698223D01*
X113866402Y-113681747D01*
X113886107Y-113667133D01*
X113907151Y-113654520D01*
X113929329Y-113644030D01*
X113952429Y-113635765D01*
X113976227Y-113629804D01*
X114000496Y-113626204D01*
X114025000Y-113625000D01*
X114950000Y-113625000D01*
X114974504Y-113626204D01*
X114974504Y-113626204D01*
G37*
D11*
X114487500Y-114500000D03*
D10*
G36*
X111999504Y-113626204D02*
G01*
X112023773Y-113629804D01*
X112047571Y-113635765D01*
X112070671Y-113644030D01*
X112092849Y-113654520D01*
X112113893Y-113667133D01*
X112133598Y-113681747D01*
X112151777Y-113698223D01*
X112168253Y-113716402D01*
X112182867Y-113736107D01*
X112195480Y-113757151D01*
X112205970Y-113779329D01*
X112214235Y-113802429D01*
X112220196Y-113826227D01*
X112223796Y-113850496D01*
X112225000Y-113875000D01*
X112225000Y-115125000D01*
X112223796Y-115149504D01*
X112220196Y-115173773D01*
X112214235Y-115197571D01*
X112205970Y-115220671D01*
X112195480Y-115242849D01*
X112182867Y-115263893D01*
X112168253Y-115283598D01*
X112151777Y-115301777D01*
X112133598Y-115318253D01*
X112113893Y-115332867D01*
X112092849Y-115345480D01*
X112070671Y-115355970D01*
X112047571Y-115364235D01*
X112023773Y-115370196D01*
X111999504Y-115373796D01*
X111975000Y-115375000D01*
X111050000Y-115375000D01*
X111025496Y-115373796D01*
X111001227Y-115370196D01*
X110977429Y-115364235D01*
X110954329Y-115355970D01*
X110932151Y-115345480D01*
X110911107Y-115332867D01*
X110891402Y-115318253D01*
X110873223Y-115301777D01*
X110856747Y-115283598D01*
X110842133Y-115263893D01*
X110829520Y-115242849D01*
X110819030Y-115220671D01*
X110810765Y-115197571D01*
X110804804Y-115173773D01*
X110801204Y-115149504D01*
X110800000Y-115125000D01*
X110800000Y-113875000D01*
X110801204Y-113850496D01*
X110804804Y-113826227D01*
X110810765Y-113802429D01*
X110819030Y-113779329D01*
X110829520Y-113757151D01*
X110842133Y-113736107D01*
X110856747Y-113716402D01*
X110873223Y-113698223D01*
X110891402Y-113681747D01*
X110911107Y-113667133D01*
X110932151Y-113654520D01*
X110954329Y-113644030D01*
X110977429Y-113635765D01*
X111001227Y-113629804D01*
X111025496Y-113626204D01*
X111050000Y-113625000D01*
X111975000Y-113625000D01*
X111999504Y-113626204D01*
X111999504Y-113626204D01*
G37*
D11*
X111512500Y-114500000D03*
D10*
G36*
X106649504Y-119326204D02*
G01*
X106673773Y-119329804D01*
X106697571Y-119335765D01*
X106720671Y-119344030D01*
X106742849Y-119354520D01*
X106763893Y-119367133D01*
X106783598Y-119381747D01*
X106801777Y-119398223D01*
X106818253Y-119416402D01*
X106832867Y-119436107D01*
X106845480Y-119457151D01*
X106855970Y-119479329D01*
X106864235Y-119502429D01*
X106870196Y-119526227D01*
X106873796Y-119550496D01*
X106875000Y-119575000D01*
X106875000Y-121425000D01*
X106873796Y-121449504D01*
X106870196Y-121473773D01*
X106864235Y-121497571D01*
X106855970Y-121520671D01*
X106845480Y-121542849D01*
X106832867Y-121563893D01*
X106818253Y-121583598D01*
X106801777Y-121601777D01*
X106783598Y-121618253D01*
X106763893Y-121632867D01*
X106742849Y-121645480D01*
X106720671Y-121655970D01*
X106697571Y-121664235D01*
X106673773Y-121670196D01*
X106649504Y-121673796D01*
X106625000Y-121675000D01*
X105625000Y-121675000D01*
X105600496Y-121673796D01*
X105576227Y-121670196D01*
X105552429Y-121664235D01*
X105529329Y-121655970D01*
X105507151Y-121645480D01*
X105486107Y-121632867D01*
X105466402Y-121618253D01*
X105448223Y-121601777D01*
X105431747Y-121583598D01*
X105417133Y-121563893D01*
X105404520Y-121542849D01*
X105394030Y-121520671D01*
X105385765Y-121497571D01*
X105379804Y-121473773D01*
X105376204Y-121449504D01*
X105375000Y-121425000D01*
X105375000Y-119575000D01*
X105376204Y-119550496D01*
X105379804Y-119526227D01*
X105385765Y-119502429D01*
X105394030Y-119479329D01*
X105404520Y-119457151D01*
X105417133Y-119436107D01*
X105431747Y-119416402D01*
X105448223Y-119398223D01*
X105466402Y-119381747D01*
X105486107Y-119367133D01*
X105507151Y-119354520D01*
X105529329Y-119344030D01*
X105552429Y-119335765D01*
X105576227Y-119329804D01*
X105600496Y-119326204D01*
X105625000Y-119325000D01*
X106625000Y-119325000D01*
X106649504Y-119326204D01*
X106649504Y-119326204D01*
G37*
D12*
X106125000Y-120500000D03*
D10*
G36*
X103399504Y-119326204D02*
G01*
X103423773Y-119329804D01*
X103447571Y-119335765D01*
X103470671Y-119344030D01*
X103492849Y-119354520D01*
X103513893Y-119367133D01*
X103533598Y-119381747D01*
X103551777Y-119398223D01*
X103568253Y-119416402D01*
X103582867Y-119436107D01*
X103595480Y-119457151D01*
X103605970Y-119479329D01*
X103614235Y-119502429D01*
X103620196Y-119526227D01*
X103623796Y-119550496D01*
X103625000Y-119575000D01*
X103625000Y-121425000D01*
X103623796Y-121449504D01*
X103620196Y-121473773D01*
X103614235Y-121497571D01*
X103605970Y-121520671D01*
X103595480Y-121542849D01*
X103582867Y-121563893D01*
X103568253Y-121583598D01*
X103551777Y-121601777D01*
X103533598Y-121618253D01*
X103513893Y-121632867D01*
X103492849Y-121645480D01*
X103470671Y-121655970D01*
X103447571Y-121664235D01*
X103423773Y-121670196D01*
X103399504Y-121673796D01*
X103375000Y-121675000D01*
X102375000Y-121675000D01*
X102350496Y-121673796D01*
X102326227Y-121670196D01*
X102302429Y-121664235D01*
X102279329Y-121655970D01*
X102257151Y-121645480D01*
X102236107Y-121632867D01*
X102216402Y-121618253D01*
X102198223Y-121601777D01*
X102181747Y-121583598D01*
X102167133Y-121563893D01*
X102154520Y-121542849D01*
X102144030Y-121520671D01*
X102135765Y-121497571D01*
X102129804Y-121473773D01*
X102126204Y-121449504D01*
X102125000Y-121425000D01*
X102125000Y-119575000D01*
X102126204Y-119550496D01*
X102129804Y-119526227D01*
X102135765Y-119502429D01*
X102144030Y-119479329D01*
X102154520Y-119457151D01*
X102167133Y-119436107D01*
X102181747Y-119416402D01*
X102198223Y-119398223D01*
X102216402Y-119381747D01*
X102236107Y-119367133D01*
X102257151Y-119354520D01*
X102279329Y-119344030D01*
X102302429Y-119335765D01*
X102326227Y-119329804D01*
X102350496Y-119326204D01*
X102375000Y-119325000D01*
X103375000Y-119325000D01*
X103399504Y-119326204D01*
X103399504Y-119326204D01*
G37*
D12*
X102875000Y-120500000D03*
D13*
X120850000Y-126500000D03*
X125150000Y-126500000D03*
D10*
G36*
X84274504Y-118776204D02*
G01*
X84298773Y-118779804D01*
X84322571Y-118785765D01*
X84345671Y-118794030D01*
X84367849Y-118804520D01*
X84388893Y-118817133D01*
X84408598Y-118831747D01*
X84426777Y-118848223D01*
X84443253Y-118866402D01*
X84457867Y-118886107D01*
X84470480Y-118907151D01*
X84480970Y-118929329D01*
X84489235Y-118952429D01*
X84495196Y-118976227D01*
X84498796Y-119000496D01*
X84500000Y-119025000D01*
X84500000Y-122975000D01*
X84498796Y-122999504D01*
X84495196Y-123023773D01*
X84489235Y-123047571D01*
X84480970Y-123070671D01*
X84470480Y-123092849D01*
X84457867Y-123113893D01*
X84443253Y-123133598D01*
X84426777Y-123151777D01*
X84408598Y-123168253D01*
X84388893Y-123182867D01*
X84367849Y-123195480D01*
X84345671Y-123205970D01*
X84322571Y-123214235D01*
X84298773Y-123220196D01*
X84274504Y-123223796D01*
X84250000Y-123225000D01*
X81550000Y-123225000D01*
X81525496Y-123223796D01*
X81501227Y-123220196D01*
X81477429Y-123214235D01*
X81454329Y-123205970D01*
X81432151Y-123195480D01*
X81411107Y-123182867D01*
X81391402Y-123168253D01*
X81373223Y-123151777D01*
X81356747Y-123133598D01*
X81342133Y-123113893D01*
X81329520Y-123092849D01*
X81319030Y-123070671D01*
X81310765Y-123047571D01*
X81304804Y-123023773D01*
X81301204Y-122999504D01*
X81300000Y-122975000D01*
X81300000Y-119025000D01*
X81301204Y-119000496D01*
X81304804Y-118976227D01*
X81310765Y-118952429D01*
X81319030Y-118929329D01*
X81329520Y-118907151D01*
X81342133Y-118886107D01*
X81356747Y-118866402D01*
X81373223Y-118848223D01*
X81391402Y-118831747D01*
X81411107Y-118817133D01*
X81432151Y-118804520D01*
X81454329Y-118794030D01*
X81477429Y-118785765D01*
X81501227Y-118779804D01*
X81525496Y-118776204D01*
X81550000Y-118775000D01*
X84250000Y-118775000D01*
X84274504Y-118776204D01*
X84274504Y-118776204D01*
G37*
D14*
X82900000Y-121000000D03*
D10*
G36*
X89474504Y-118776204D02*
G01*
X89498773Y-118779804D01*
X89522571Y-118785765D01*
X89545671Y-118794030D01*
X89567849Y-118804520D01*
X89588893Y-118817133D01*
X89608598Y-118831747D01*
X89626777Y-118848223D01*
X89643253Y-118866402D01*
X89657867Y-118886107D01*
X89670480Y-118907151D01*
X89680970Y-118929329D01*
X89689235Y-118952429D01*
X89695196Y-118976227D01*
X89698796Y-119000496D01*
X89700000Y-119025000D01*
X89700000Y-122975000D01*
X89698796Y-122999504D01*
X89695196Y-123023773D01*
X89689235Y-123047571D01*
X89680970Y-123070671D01*
X89670480Y-123092849D01*
X89657867Y-123113893D01*
X89643253Y-123133598D01*
X89626777Y-123151777D01*
X89608598Y-123168253D01*
X89588893Y-123182867D01*
X89567849Y-123195480D01*
X89545671Y-123205970D01*
X89522571Y-123214235D01*
X89498773Y-123220196D01*
X89474504Y-123223796D01*
X89450000Y-123225000D01*
X86750000Y-123225000D01*
X86725496Y-123223796D01*
X86701227Y-123220196D01*
X86677429Y-123214235D01*
X86654329Y-123205970D01*
X86632151Y-123195480D01*
X86611107Y-123182867D01*
X86591402Y-123168253D01*
X86573223Y-123151777D01*
X86556747Y-123133598D01*
X86542133Y-123113893D01*
X86529520Y-123092849D01*
X86519030Y-123070671D01*
X86510765Y-123047571D01*
X86504804Y-123023773D01*
X86501204Y-122999504D01*
X86500000Y-122975000D01*
X86500000Y-119025000D01*
X86501204Y-119000496D01*
X86504804Y-118976227D01*
X86510765Y-118952429D01*
X86519030Y-118929329D01*
X86529520Y-118907151D01*
X86542133Y-118886107D01*
X86556747Y-118866402D01*
X86573223Y-118848223D01*
X86591402Y-118831747D01*
X86611107Y-118817133D01*
X86632151Y-118804520D01*
X86654329Y-118794030D01*
X86677429Y-118785765D01*
X86701227Y-118779804D01*
X86725496Y-118776204D01*
X86750000Y-118775000D01*
X89450000Y-118775000D01*
X89474504Y-118776204D01*
X89474504Y-118776204D01*
G37*
D14*
X88100000Y-121000000D03*
D10*
G36*
X89474504Y-91626204D02*
G01*
X89498773Y-91629804D01*
X89522571Y-91635765D01*
X89545671Y-91644030D01*
X89567849Y-91654520D01*
X89588893Y-91667133D01*
X89608598Y-91681747D01*
X89626777Y-91698223D01*
X89643253Y-91716402D01*
X89657867Y-91736107D01*
X89670480Y-91757151D01*
X89680970Y-91779329D01*
X89689235Y-91802429D01*
X89695196Y-91826227D01*
X89698796Y-91850496D01*
X89700000Y-91875000D01*
X89700000Y-93125000D01*
X89698796Y-93149504D01*
X89695196Y-93173773D01*
X89689235Y-93197571D01*
X89680970Y-93220671D01*
X89670480Y-93242849D01*
X89657867Y-93263893D01*
X89643253Y-93283598D01*
X89626777Y-93301777D01*
X89608598Y-93318253D01*
X89588893Y-93332867D01*
X89567849Y-93345480D01*
X89545671Y-93355970D01*
X89522571Y-93364235D01*
X89498773Y-93370196D01*
X89474504Y-93373796D01*
X89450000Y-93375000D01*
X88525000Y-93375000D01*
X88500496Y-93373796D01*
X88476227Y-93370196D01*
X88452429Y-93364235D01*
X88429329Y-93355970D01*
X88407151Y-93345480D01*
X88386107Y-93332867D01*
X88366402Y-93318253D01*
X88348223Y-93301777D01*
X88331747Y-93283598D01*
X88317133Y-93263893D01*
X88304520Y-93242849D01*
X88294030Y-93220671D01*
X88285765Y-93197571D01*
X88279804Y-93173773D01*
X88276204Y-93149504D01*
X88275000Y-93125000D01*
X88275000Y-91875000D01*
X88276204Y-91850496D01*
X88279804Y-91826227D01*
X88285765Y-91802429D01*
X88294030Y-91779329D01*
X88304520Y-91757151D01*
X88317133Y-91736107D01*
X88331747Y-91716402D01*
X88348223Y-91698223D01*
X88366402Y-91681747D01*
X88386107Y-91667133D01*
X88407151Y-91654520D01*
X88429329Y-91644030D01*
X88452429Y-91635765D01*
X88476227Y-91629804D01*
X88500496Y-91626204D01*
X88525000Y-91625000D01*
X89450000Y-91625000D01*
X89474504Y-91626204D01*
X89474504Y-91626204D01*
G37*
D11*
X88987500Y-92500000D03*
D10*
G36*
X86499504Y-91626204D02*
G01*
X86523773Y-91629804D01*
X86547571Y-91635765D01*
X86570671Y-91644030D01*
X86592849Y-91654520D01*
X86613893Y-91667133D01*
X86633598Y-91681747D01*
X86651777Y-91698223D01*
X86668253Y-91716402D01*
X86682867Y-91736107D01*
X86695480Y-91757151D01*
X86705970Y-91779329D01*
X86714235Y-91802429D01*
X86720196Y-91826227D01*
X86723796Y-91850496D01*
X86725000Y-91875000D01*
X86725000Y-93125000D01*
X86723796Y-93149504D01*
X86720196Y-93173773D01*
X86714235Y-93197571D01*
X86705970Y-93220671D01*
X86695480Y-93242849D01*
X86682867Y-93263893D01*
X86668253Y-93283598D01*
X86651777Y-93301777D01*
X86633598Y-93318253D01*
X86613893Y-93332867D01*
X86592849Y-93345480D01*
X86570671Y-93355970D01*
X86547571Y-93364235D01*
X86523773Y-93370196D01*
X86499504Y-93373796D01*
X86475000Y-93375000D01*
X85550000Y-93375000D01*
X85525496Y-93373796D01*
X85501227Y-93370196D01*
X85477429Y-93364235D01*
X85454329Y-93355970D01*
X85432151Y-93345480D01*
X85411107Y-93332867D01*
X85391402Y-93318253D01*
X85373223Y-93301777D01*
X85356747Y-93283598D01*
X85342133Y-93263893D01*
X85329520Y-93242849D01*
X85319030Y-93220671D01*
X85310765Y-93197571D01*
X85304804Y-93173773D01*
X85301204Y-93149504D01*
X85300000Y-93125000D01*
X85300000Y-91875000D01*
X85301204Y-91850496D01*
X85304804Y-91826227D01*
X85310765Y-91802429D01*
X85319030Y-91779329D01*
X85329520Y-91757151D01*
X85342133Y-91736107D01*
X85356747Y-91716402D01*
X85373223Y-91698223D01*
X85391402Y-91681747D01*
X85411107Y-91667133D01*
X85432151Y-91654520D01*
X85454329Y-91644030D01*
X85477429Y-91635765D01*
X85501227Y-91629804D01*
X85525496Y-91626204D01*
X85550000Y-91625000D01*
X86475000Y-91625000D01*
X86499504Y-91626204D01*
X86499504Y-91626204D01*
G37*
D11*
X86012500Y-92500000D03*
D10*
G36*
X99474504Y-91626204D02*
G01*
X99498773Y-91629804D01*
X99522571Y-91635765D01*
X99545671Y-91644030D01*
X99567849Y-91654520D01*
X99588893Y-91667133D01*
X99608598Y-91681747D01*
X99626777Y-91698223D01*
X99643253Y-91716402D01*
X99657867Y-91736107D01*
X99670480Y-91757151D01*
X99680970Y-91779329D01*
X99689235Y-91802429D01*
X99695196Y-91826227D01*
X99698796Y-91850496D01*
X99700000Y-91875000D01*
X99700000Y-93125000D01*
X99698796Y-93149504D01*
X99695196Y-93173773D01*
X99689235Y-93197571D01*
X99680970Y-93220671D01*
X99670480Y-93242849D01*
X99657867Y-93263893D01*
X99643253Y-93283598D01*
X99626777Y-93301777D01*
X99608598Y-93318253D01*
X99588893Y-93332867D01*
X99567849Y-93345480D01*
X99545671Y-93355970D01*
X99522571Y-93364235D01*
X99498773Y-93370196D01*
X99474504Y-93373796D01*
X99450000Y-93375000D01*
X98525000Y-93375000D01*
X98500496Y-93373796D01*
X98476227Y-93370196D01*
X98452429Y-93364235D01*
X98429329Y-93355970D01*
X98407151Y-93345480D01*
X98386107Y-93332867D01*
X98366402Y-93318253D01*
X98348223Y-93301777D01*
X98331747Y-93283598D01*
X98317133Y-93263893D01*
X98304520Y-93242849D01*
X98294030Y-93220671D01*
X98285765Y-93197571D01*
X98279804Y-93173773D01*
X98276204Y-93149504D01*
X98275000Y-93125000D01*
X98275000Y-91875000D01*
X98276204Y-91850496D01*
X98279804Y-91826227D01*
X98285765Y-91802429D01*
X98294030Y-91779329D01*
X98304520Y-91757151D01*
X98317133Y-91736107D01*
X98331747Y-91716402D01*
X98348223Y-91698223D01*
X98366402Y-91681747D01*
X98386107Y-91667133D01*
X98407151Y-91654520D01*
X98429329Y-91644030D01*
X98452429Y-91635765D01*
X98476227Y-91629804D01*
X98500496Y-91626204D01*
X98525000Y-91625000D01*
X99450000Y-91625000D01*
X99474504Y-91626204D01*
X99474504Y-91626204D01*
G37*
D11*
X98987500Y-92500000D03*
D10*
G36*
X96499504Y-91626204D02*
G01*
X96523773Y-91629804D01*
X96547571Y-91635765D01*
X96570671Y-91644030D01*
X96592849Y-91654520D01*
X96613893Y-91667133D01*
X96633598Y-91681747D01*
X96651777Y-91698223D01*
X96668253Y-91716402D01*
X96682867Y-91736107D01*
X96695480Y-91757151D01*
X96705970Y-91779329D01*
X96714235Y-91802429D01*
X96720196Y-91826227D01*
X96723796Y-91850496D01*
X96725000Y-91875000D01*
X96725000Y-93125000D01*
X96723796Y-93149504D01*
X96720196Y-93173773D01*
X96714235Y-93197571D01*
X96705970Y-93220671D01*
X96695480Y-93242849D01*
X96682867Y-93263893D01*
X96668253Y-93283598D01*
X96651777Y-93301777D01*
X96633598Y-93318253D01*
X96613893Y-93332867D01*
X96592849Y-93345480D01*
X96570671Y-93355970D01*
X96547571Y-93364235D01*
X96523773Y-93370196D01*
X96499504Y-93373796D01*
X96475000Y-93375000D01*
X95550000Y-93375000D01*
X95525496Y-93373796D01*
X95501227Y-93370196D01*
X95477429Y-93364235D01*
X95454329Y-93355970D01*
X95432151Y-93345480D01*
X95411107Y-93332867D01*
X95391402Y-93318253D01*
X95373223Y-93301777D01*
X95356747Y-93283598D01*
X95342133Y-93263893D01*
X95329520Y-93242849D01*
X95319030Y-93220671D01*
X95310765Y-93197571D01*
X95304804Y-93173773D01*
X95301204Y-93149504D01*
X95300000Y-93125000D01*
X95300000Y-91875000D01*
X95301204Y-91850496D01*
X95304804Y-91826227D01*
X95310765Y-91802429D01*
X95319030Y-91779329D01*
X95329520Y-91757151D01*
X95342133Y-91736107D01*
X95356747Y-91716402D01*
X95373223Y-91698223D01*
X95391402Y-91681747D01*
X95411107Y-91667133D01*
X95432151Y-91654520D01*
X95454329Y-91644030D01*
X95477429Y-91635765D01*
X95501227Y-91629804D01*
X95525496Y-91626204D01*
X95550000Y-91625000D01*
X96475000Y-91625000D01*
X96499504Y-91626204D01*
X96499504Y-91626204D01*
G37*
D11*
X96012500Y-92500000D03*
D10*
G36*
X80999504Y-95626204D02*
G01*
X81023773Y-95629804D01*
X81047571Y-95635765D01*
X81070671Y-95644030D01*
X81092849Y-95654520D01*
X81113893Y-95667133D01*
X81133598Y-95681747D01*
X81151777Y-95698223D01*
X81168253Y-95716402D01*
X81182867Y-95736107D01*
X81195480Y-95757151D01*
X81205970Y-95779329D01*
X81214235Y-95802429D01*
X81220196Y-95826227D01*
X81223796Y-95850496D01*
X81225000Y-95875000D01*
X81225000Y-97125000D01*
X81223796Y-97149504D01*
X81220196Y-97173773D01*
X81214235Y-97197571D01*
X81205970Y-97220671D01*
X81195480Y-97242849D01*
X81182867Y-97263893D01*
X81168253Y-97283598D01*
X81151777Y-97301777D01*
X81133598Y-97318253D01*
X81113893Y-97332867D01*
X81092849Y-97345480D01*
X81070671Y-97355970D01*
X81047571Y-97364235D01*
X81023773Y-97370196D01*
X80999504Y-97373796D01*
X80975000Y-97375000D01*
X80050000Y-97375000D01*
X80025496Y-97373796D01*
X80001227Y-97370196D01*
X79977429Y-97364235D01*
X79954329Y-97355970D01*
X79932151Y-97345480D01*
X79911107Y-97332867D01*
X79891402Y-97318253D01*
X79873223Y-97301777D01*
X79856747Y-97283598D01*
X79842133Y-97263893D01*
X79829520Y-97242849D01*
X79819030Y-97220671D01*
X79810765Y-97197571D01*
X79804804Y-97173773D01*
X79801204Y-97149504D01*
X79800000Y-97125000D01*
X79800000Y-95875000D01*
X79801204Y-95850496D01*
X79804804Y-95826227D01*
X79810765Y-95802429D01*
X79819030Y-95779329D01*
X79829520Y-95757151D01*
X79842133Y-95736107D01*
X79856747Y-95716402D01*
X79873223Y-95698223D01*
X79891402Y-95681747D01*
X79911107Y-95667133D01*
X79932151Y-95654520D01*
X79954329Y-95644030D01*
X79977429Y-95635765D01*
X80001227Y-95629804D01*
X80025496Y-95626204D01*
X80050000Y-95625000D01*
X80975000Y-95625000D01*
X80999504Y-95626204D01*
X80999504Y-95626204D01*
G37*
D11*
X80512500Y-96500000D03*
D10*
G36*
X83974504Y-95626204D02*
G01*
X83998773Y-95629804D01*
X84022571Y-95635765D01*
X84045671Y-95644030D01*
X84067849Y-95654520D01*
X84088893Y-95667133D01*
X84108598Y-95681747D01*
X84126777Y-95698223D01*
X84143253Y-95716402D01*
X84157867Y-95736107D01*
X84170480Y-95757151D01*
X84180970Y-95779329D01*
X84189235Y-95802429D01*
X84195196Y-95826227D01*
X84198796Y-95850496D01*
X84200000Y-95875000D01*
X84200000Y-97125000D01*
X84198796Y-97149504D01*
X84195196Y-97173773D01*
X84189235Y-97197571D01*
X84180970Y-97220671D01*
X84170480Y-97242849D01*
X84157867Y-97263893D01*
X84143253Y-97283598D01*
X84126777Y-97301777D01*
X84108598Y-97318253D01*
X84088893Y-97332867D01*
X84067849Y-97345480D01*
X84045671Y-97355970D01*
X84022571Y-97364235D01*
X83998773Y-97370196D01*
X83974504Y-97373796D01*
X83950000Y-97375000D01*
X83025000Y-97375000D01*
X83000496Y-97373796D01*
X82976227Y-97370196D01*
X82952429Y-97364235D01*
X82929329Y-97355970D01*
X82907151Y-97345480D01*
X82886107Y-97332867D01*
X82866402Y-97318253D01*
X82848223Y-97301777D01*
X82831747Y-97283598D01*
X82817133Y-97263893D01*
X82804520Y-97242849D01*
X82794030Y-97220671D01*
X82785765Y-97197571D01*
X82779804Y-97173773D01*
X82776204Y-97149504D01*
X82775000Y-97125000D01*
X82775000Y-95875000D01*
X82776204Y-95850496D01*
X82779804Y-95826227D01*
X82785765Y-95802429D01*
X82794030Y-95779329D01*
X82804520Y-95757151D01*
X82817133Y-95736107D01*
X82831747Y-95716402D01*
X82848223Y-95698223D01*
X82866402Y-95681747D01*
X82886107Y-95667133D01*
X82907151Y-95654520D01*
X82929329Y-95644030D01*
X82952429Y-95635765D01*
X82976227Y-95629804D01*
X83000496Y-95626204D01*
X83025000Y-95625000D01*
X83950000Y-95625000D01*
X83974504Y-95626204D01*
X83974504Y-95626204D01*
G37*
D11*
X83487500Y-96500000D03*
D10*
G36*
X97149504Y-101801204D02*
G01*
X97173773Y-101804804D01*
X97197571Y-101810765D01*
X97220671Y-101819030D01*
X97242849Y-101829520D01*
X97263893Y-101842133D01*
X97283598Y-101856747D01*
X97301777Y-101873223D01*
X97318253Y-101891402D01*
X97332867Y-101911107D01*
X97345480Y-101932151D01*
X97355970Y-101954329D01*
X97364235Y-101977429D01*
X97370196Y-102001227D01*
X97373796Y-102025496D01*
X97375000Y-102050000D01*
X97375000Y-102975000D01*
X97373796Y-102999504D01*
X97370196Y-103023773D01*
X97364235Y-103047571D01*
X97355970Y-103070671D01*
X97345480Y-103092849D01*
X97332867Y-103113893D01*
X97318253Y-103133598D01*
X97301777Y-103151777D01*
X97283598Y-103168253D01*
X97263893Y-103182867D01*
X97242849Y-103195480D01*
X97220671Y-103205970D01*
X97197571Y-103214235D01*
X97173773Y-103220196D01*
X97149504Y-103223796D01*
X97125000Y-103225000D01*
X95875000Y-103225000D01*
X95850496Y-103223796D01*
X95826227Y-103220196D01*
X95802429Y-103214235D01*
X95779329Y-103205970D01*
X95757151Y-103195480D01*
X95736107Y-103182867D01*
X95716402Y-103168253D01*
X95698223Y-103151777D01*
X95681747Y-103133598D01*
X95667133Y-103113893D01*
X95654520Y-103092849D01*
X95644030Y-103070671D01*
X95635765Y-103047571D01*
X95629804Y-103023773D01*
X95626204Y-102999504D01*
X95625000Y-102975000D01*
X95625000Y-102050000D01*
X95626204Y-102025496D01*
X95629804Y-102001227D01*
X95635765Y-101977429D01*
X95644030Y-101954329D01*
X95654520Y-101932151D01*
X95667133Y-101911107D01*
X95681747Y-101891402D01*
X95698223Y-101873223D01*
X95716402Y-101856747D01*
X95736107Y-101842133D01*
X95757151Y-101829520D01*
X95779329Y-101819030D01*
X95802429Y-101810765D01*
X95826227Y-101804804D01*
X95850496Y-101801204D01*
X95875000Y-101800000D01*
X97125000Y-101800000D01*
X97149504Y-101801204D01*
X97149504Y-101801204D01*
G37*
D11*
X96500000Y-102512500D03*
D10*
G36*
X97149504Y-104776204D02*
G01*
X97173773Y-104779804D01*
X97197571Y-104785765D01*
X97220671Y-104794030D01*
X97242849Y-104804520D01*
X97263893Y-104817133D01*
X97283598Y-104831747D01*
X97301777Y-104848223D01*
X97318253Y-104866402D01*
X97332867Y-104886107D01*
X97345480Y-104907151D01*
X97355970Y-104929329D01*
X97364235Y-104952429D01*
X97370196Y-104976227D01*
X97373796Y-105000496D01*
X97375000Y-105025000D01*
X97375000Y-105950000D01*
X97373796Y-105974504D01*
X97370196Y-105998773D01*
X97364235Y-106022571D01*
X97355970Y-106045671D01*
X97345480Y-106067849D01*
X97332867Y-106088893D01*
X97318253Y-106108598D01*
X97301777Y-106126777D01*
X97283598Y-106143253D01*
X97263893Y-106157867D01*
X97242849Y-106170480D01*
X97220671Y-106180970D01*
X97197571Y-106189235D01*
X97173773Y-106195196D01*
X97149504Y-106198796D01*
X97125000Y-106200000D01*
X95875000Y-106200000D01*
X95850496Y-106198796D01*
X95826227Y-106195196D01*
X95802429Y-106189235D01*
X95779329Y-106180970D01*
X95757151Y-106170480D01*
X95736107Y-106157867D01*
X95716402Y-106143253D01*
X95698223Y-106126777D01*
X95681747Y-106108598D01*
X95667133Y-106088893D01*
X95654520Y-106067849D01*
X95644030Y-106045671D01*
X95635765Y-106022571D01*
X95629804Y-105998773D01*
X95626204Y-105974504D01*
X95625000Y-105950000D01*
X95625000Y-105025000D01*
X95626204Y-105000496D01*
X95629804Y-104976227D01*
X95635765Y-104952429D01*
X95644030Y-104929329D01*
X95654520Y-104907151D01*
X95667133Y-104886107D01*
X95681747Y-104866402D01*
X95698223Y-104848223D01*
X95716402Y-104831747D01*
X95736107Y-104817133D01*
X95757151Y-104804520D01*
X95779329Y-104794030D01*
X95802429Y-104785765D01*
X95826227Y-104779804D01*
X95850496Y-104776204D01*
X95875000Y-104775000D01*
X97125000Y-104775000D01*
X97149504Y-104776204D01*
X97149504Y-104776204D01*
G37*
D11*
X96500000Y-105487500D03*
D10*
G36*
X84474504Y-114126204D02*
G01*
X84498773Y-114129804D01*
X84522571Y-114135765D01*
X84545671Y-114144030D01*
X84567849Y-114154520D01*
X84588893Y-114167133D01*
X84608598Y-114181747D01*
X84626777Y-114198223D01*
X84643253Y-114216402D01*
X84657867Y-114236107D01*
X84670480Y-114257151D01*
X84680970Y-114279329D01*
X84689235Y-114302429D01*
X84695196Y-114326227D01*
X84698796Y-114350496D01*
X84700000Y-114375000D01*
X84700000Y-115625000D01*
X84698796Y-115649504D01*
X84695196Y-115673773D01*
X84689235Y-115697571D01*
X84680970Y-115720671D01*
X84670480Y-115742849D01*
X84657867Y-115763893D01*
X84643253Y-115783598D01*
X84626777Y-115801777D01*
X84608598Y-115818253D01*
X84588893Y-115832867D01*
X84567849Y-115845480D01*
X84545671Y-115855970D01*
X84522571Y-115864235D01*
X84498773Y-115870196D01*
X84474504Y-115873796D01*
X84450000Y-115875000D01*
X83525000Y-115875000D01*
X83500496Y-115873796D01*
X83476227Y-115870196D01*
X83452429Y-115864235D01*
X83429329Y-115855970D01*
X83407151Y-115845480D01*
X83386107Y-115832867D01*
X83366402Y-115818253D01*
X83348223Y-115801777D01*
X83331747Y-115783598D01*
X83317133Y-115763893D01*
X83304520Y-115742849D01*
X83294030Y-115720671D01*
X83285765Y-115697571D01*
X83279804Y-115673773D01*
X83276204Y-115649504D01*
X83275000Y-115625000D01*
X83275000Y-114375000D01*
X83276204Y-114350496D01*
X83279804Y-114326227D01*
X83285765Y-114302429D01*
X83294030Y-114279329D01*
X83304520Y-114257151D01*
X83317133Y-114236107D01*
X83331747Y-114216402D01*
X83348223Y-114198223D01*
X83366402Y-114181747D01*
X83386107Y-114167133D01*
X83407151Y-114154520D01*
X83429329Y-114144030D01*
X83452429Y-114135765D01*
X83476227Y-114129804D01*
X83500496Y-114126204D01*
X83525000Y-114125000D01*
X84450000Y-114125000D01*
X84474504Y-114126204D01*
X84474504Y-114126204D01*
G37*
D11*
X83987500Y-115000000D03*
D10*
G36*
X81499504Y-114126204D02*
G01*
X81523773Y-114129804D01*
X81547571Y-114135765D01*
X81570671Y-114144030D01*
X81592849Y-114154520D01*
X81613893Y-114167133D01*
X81633598Y-114181747D01*
X81651777Y-114198223D01*
X81668253Y-114216402D01*
X81682867Y-114236107D01*
X81695480Y-114257151D01*
X81705970Y-114279329D01*
X81714235Y-114302429D01*
X81720196Y-114326227D01*
X81723796Y-114350496D01*
X81725000Y-114375000D01*
X81725000Y-115625000D01*
X81723796Y-115649504D01*
X81720196Y-115673773D01*
X81714235Y-115697571D01*
X81705970Y-115720671D01*
X81695480Y-115742849D01*
X81682867Y-115763893D01*
X81668253Y-115783598D01*
X81651777Y-115801777D01*
X81633598Y-115818253D01*
X81613893Y-115832867D01*
X81592849Y-115845480D01*
X81570671Y-115855970D01*
X81547571Y-115864235D01*
X81523773Y-115870196D01*
X81499504Y-115873796D01*
X81475000Y-115875000D01*
X80550000Y-115875000D01*
X80525496Y-115873796D01*
X80501227Y-115870196D01*
X80477429Y-115864235D01*
X80454329Y-115855970D01*
X80432151Y-115845480D01*
X80411107Y-115832867D01*
X80391402Y-115818253D01*
X80373223Y-115801777D01*
X80356747Y-115783598D01*
X80342133Y-115763893D01*
X80329520Y-115742849D01*
X80319030Y-115720671D01*
X80310765Y-115697571D01*
X80304804Y-115673773D01*
X80301204Y-115649504D01*
X80300000Y-115625000D01*
X80300000Y-114375000D01*
X80301204Y-114350496D01*
X80304804Y-114326227D01*
X80310765Y-114302429D01*
X80319030Y-114279329D01*
X80329520Y-114257151D01*
X80342133Y-114236107D01*
X80356747Y-114216402D01*
X80373223Y-114198223D01*
X80391402Y-114181747D01*
X80411107Y-114167133D01*
X80432151Y-114154520D01*
X80454329Y-114144030D01*
X80477429Y-114135765D01*
X80501227Y-114129804D01*
X80525496Y-114126204D01*
X80550000Y-114125000D01*
X81475000Y-114125000D01*
X81499504Y-114126204D01*
X81499504Y-114126204D01*
G37*
D11*
X81012500Y-115000000D03*
D10*
G36*
X79149504Y-99301204D02*
G01*
X79173773Y-99304804D01*
X79197571Y-99310765D01*
X79220671Y-99319030D01*
X79242849Y-99329520D01*
X79263893Y-99342133D01*
X79283598Y-99356747D01*
X79301777Y-99373223D01*
X79318253Y-99391402D01*
X79332867Y-99411107D01*
X79345480Y-99432151D01*
X79355970Y-99454329D01*
X79364235Y-99477429D01*
X79370196Y-99501227D01*
X79373796Y-99525496D01*
X79375000Y-99550000D01*
X79375000Y-100475000D01*
X79373796Y-100499504D01*
X79370196Y-100523773D01*
X79364235Y-100547571D01*
X79355970Y-100570671D01*
X79345480Y-100592849D01*
X79332867Y-100613893D01*
X79318253Y-100633598D01*
X79301777Y-100651777D01*
X79283598Y-100668253D01*
X79263893Y-100682867D01*
X79242849Y-100695480D01*
X79220671Y-100705970D01*
X79197571Y-100714235D01*
X79173773Y-100720196D01*
X79149504Y-100723796D01*
X79125000Y-100725000D01*
X77875000Y-100725000D01*
X77850496Y-100723796D01*
X77826227Y-100720196D01*
X77802429Y-100714235D01*
X77779329Y-100705970D01*
X77757151Y-100695480D01*
X77736107Y-100682867D01*
X77716402Y-100668253D01*
X77698223Y-100651777D01*
X77681747Y-100633598D01*
X77667133Y-100613893D01*
X77654520Y-100592849D01*
X77644030Y-100570671D01*
X77635765Y-100547571D01*
X77629804Y-100523773D01*
X77626204Y-100499504D01*
X77625000Y-100475000D01*
X77625000Y-99550000D01*
X77626204Y-99525496D01*
X77629804Y-99501227D01*
X77635765Y-99477429D01*
X77644030Y-99454329D01*
X77654520Y-99432151D01*
X77667133Y-99411107D01*
X77681747Y-99391402D01*
X77698223Y-99373223D01*
X77716402Y-99356747D01*
X77736107Y-99342133D01*
X77757151Y-99329520D01*
X77779329Y-99319030D01*
X77802429Y-99310765D01*
X77826227Y-99304804D01*
X77850496Y-99301204D01*
X77875000Y-99300000D01*
X79125000Y-99300000D01*
X79149504Y-99301204D01*
X79149504Y-99301204D01*
G37*
D11*
X78500000Y-100012500D03*
D10*
G36*
X79149504Y-102276204D02*
G01*
X79173773Y-102279804D01*
X79197571Y-102285765D01*
X79220671Y-102294030D01*
X79242849Y-102304520D01*
X79263893Y-102317133D01*
X79283598Y-102331747D01*
X79301777Y-102348223D01*
X79318253Y-102366402D01*
X79332867Y-102386107D01*
X79345480Y-102407151D01*
X79355970Y-102429329D01*
X79364235Y-102452429D01*
X79370196Y-102476227D01*
X79373796Y-102500496D01*
X79375000Y-102525000D01*
X79375000Y-103450000D01*
X79373796Y-103474504D01*
X79370196Y-103498773D01*
X79364235Y-103522571D01*
X79355970Y-103545671D01*
X79345480Y-103567849D01*
X79332867Y-103588893D01*
X79318253Y-103608598D01*
X79301777Y-103626777D01*
X79283598Y-103643253D01*
X79263893Y-103657867D01*
X79242849Y-103670480D01*
X79220671Y-103680970D01*
X79197571Y-103689235D01*
X79173773Y-103695196D01*
X79149504Y-103698796D01*
X79125000Y-103700000D01*
X77875000Y-103700000D01*
X77850496Y-103698796D01*
X77826227Y-103695196D01*
X77802429Y-103689235D01*
X77779329Y-103680970D01*
X77757151Y-103670480D01*
X77736107Y-103657867D01*
X77716402Y-103643253D01*
X77698223Y-103626777D01*
X77681747Y-103608598D01*
X77667133Y-103588893D01*
X77654520Y-103567849D01*
X77644030Y-103545671D01*
X77635765Y-103522571D01*
X77629804Y-103498773D01*
X77626204Y-103474504D01*
X77625000Y-103450000D01*
X77625000Y-102525000D01*
X77626204Y-102500496D01*
X77629804Y-102476227D01*
X77635765Y-102452429D01*
X77644030Y-102429329D01*
X77654520Y-102407151D01*
X77667133Y-102386107D01*
X77681747Y-102366402D01*
X77698223Y-102348223D01*
X77716402Y-102331747D01*
X77736107Y-102317133D01*
X77757151Y-102304520D01*
X77779329Y-102294030D01*
X77802429Y-102285765D01*
X77826227Y-102279804D01*
X77850496Y-102276204D01*
X77875000Y-102275000D01*
X79125000Y-102275000D01*
X79149504Y-102276204D01*
X79149504Y-102276204D01*
G37*
D11*
X78500000Y-102987500D03*
D10*
G36*
X90974504Y-106626204D02*
G01*
X90998773Y-106629804D01*
X91022571Y-106635765D01*
X91045671Y-106644030D01*
X91067849Y-106654520D01*
X91088893Y-106667133D01*
X91108598Y-106681747D01*
X91126777Y-106698223D01*
X91143253Y-106716402D01*
X91157867Y-106736107D01*
X91170480Y-106757151D01*
X91180970Y-106779329D01*
X91189235Y-106802429D01*
X91195196Y-106826227D01*
X91198796Y-106850496D01*
X91200000Y-106875000D01*
X91200000Y-108125000D01*
X91198796Y-108149504D01*
X91195196Y-108173773D01*
X91189235Y-108197571D01*
X91180970Y-108220671D01*
X91170480Y-108242849D01*
X91157867Y-108263893D01*
X91143253Y-108283598D01*
X91126777Y-108301777D01*
X91108598Y-108318253D01*
X91088893Y-108332867D01*
X91067849Y-108345480D01*
X91045671Y-108355970D01*
X91022571Y-108364235D01*
X90998773Y-108370196D01*
X90974504Y-108373796D01*
X90950000Y-108375000D01*
X90025000Y-108375000D01*
X90000496Y-108373796D01*
X89976227Y-108370196D01*
X89952429Y-108364235D01*
X89929329Y-108355970D01*
X89907151Y-108345480D01*
X89886107Y-108332867D01*
X89866402Y-108318253D01*
X89848223Y-108301777D01*
X89831747Y-108283598D01*
X89817133Y-108263893D01*
X89804520Y-108242849D01*
X89794030Y-108220671D01*
X89785765Y-108197571D01*
X89779804Y-108173773D01*
X89776204Y-108149504D01*
X89775000Y-108125000D01*
X89775000Y-106875000D01*
X89776204Y-106850496D01*
X89779804Y-106826227D01*
X89785765Y-106802429D01*
X89794030Y-106779329D01*
X89804520Y-106757151D01*
X89817133Y-106736107D01*
X89831747Y-106716402D01*
X89848223Y-106698223D01*
X89866402Y-106681747D01*
X89886107Y-106667133D01*
X89907151Y-106654520D01*
X89929329Y-106644030D01*
X89952429Y-106635765D01*
X89976227Y-106629804D01*
X90000496Y-106626204D01*
X90025000Y-106625000D01*
X90950000Y-106625000D01*
X90974504Y-106626204D01*
X90974504Y-106626204D01*
G37*
D11*
X90487500Y-107500000D03*
D10*
G36*
X87999504Y-106626204D02*
G01*
X88023773Y-106629804D01*
X88047571Y-106635765D01*
X88070671Y-106644030D01*
X88092849Y-106654520D01*
X88113893Y-106667133D01*
X88133598Y-106681747D01*
X88151777Y-106698223D01*
X88168253Y-106716402D01*
X88182867Y-106736107D01*
X88195480Y-106757151D01*
X88205970Y-106779329D01*
X88214235Y-106802429D01*
X88220196Y-106826227D01*
X88223796Y-106850496D01*
X88225000Y-106875000D01*
X88225000Y-108125000D01*
X88223796Y-108149504D01*
X88220196Y-108173773D01*
X88214235Y-108197571D01*
X88205970Y-108220671D01*
X88195480Y-108242849D01*
X88182867Y-108263893D01*
X88168253Y-108283598D01*
X88151777Y-108301777D01*
X88133598Y-108318253D01*
X88113893Y-108332867D01*
X88092849Y-108345480D01*
X88070671Y-108355970D01*
X88047571Y-108364235D01*
X88023773Y-108370196D01*
X87999504Y-108373796D01*
X87975000Y-108375000D01*
X87050000Y-108375000D01*
X87025496Y-108373796D01*
X87001227Y-108370196D01*
X86977429Y-108364235D01*
X86954329Y-108355970D01*
X86932151Y-108345480D01*
X86911107Y-108332867D01*
X86891402Y-108318253D01*
X86873223Y-108301777D01*
X86856747Y-108283598D01*
X86842133Y-108263893D01*
X86829520Y-108242849D01*
X86819030Y-108220671D01*
X86810765Y-108197571D01*
X86804804Y-108173773D01*
X86801204Y-108149504D01*
X86800000Y-108125000D01*
X86800000Y-106875000D01*
X86801204Y-106850496D01*
X86804804Y-106826227D01*
X86810765Y-106802429D01*
X86819030Y-106779329D01*
X86829520Y-106757151D01*
X86842133Y-106736107D01*
X86856747Y-106716402D01*
X86873223Y-106698223D01*
X86891402Y-106681747D01*
X86911107Y-106667133D01*
X86932151Y-106654520D01*
X86954329Y-106644030D01*
X86977429Y-106635765D01*
X87001227Y-106629804D01*
X87025496Y-106626204D01*
X87050000Y-106625000D01*
X87975000Y-106625000D01*
X87999504Y-106626204D01*
X87999504Y-106626204D01*
G37*
D11*
X87512500Y-107500000D03*
D10*
G36*
X76649504Y-93801204D02*
G01*
X76673773Y-93804804D01*
X76697571Y-93810765D01*
X76720671Y-93819030D01*
X76742849Y-93829520D01*
X76763893Y-93842133D01*
X76783598Y-93856747D01*
X76801777Y-93873223D01*
X76818253Y-93891402D01*
X76832867Y-93911107D01*
X76845480Y-93932151D01*
X76855970Y-93954329D01*
X76864235Y-93977429D01*
X76870196Y-94001227D01*
X76873796Y-94025496D01*
X76875000Y-94050000D01*
X76875000Y-94975000D01*
X76873796Y-94999504D01*
X76870196Y-95023773D01*
X76864235Y-95047571D01*
X76855970Y-95070671D01*
X76845480Y-95092849D01*
X76832867Y-95113893D01*
X76818253Y-95133598D01*
X76801777Y-95151777D01*
X76783598Y-95168253D01*
X76763893Y-95182867D01*
X76742849Y-95195480D01*
X76720671Y-95205970D01*
X76697571Y-95214235D01*
X76673773Y-95220196D01*
X76649504Y-95223796D01*
X76625000Y-95225000D01*
X75375000Y-95225000D01*
X75350496Y-95223796D01*
X75326227Y-95220196D01*
X75302429Y-95214235D01*
X75279329Y-95205970D01*
X75257151Y-95195480D01*
X75236107Y-95182867D01*
X75216402Y-95168253D01*
X75198223Y-95151777D01*
X75181747Y-95133598D01*
X75167133Y-95113893D01*
X75154520Y-95092849D01*
X75144030Y-95070671D01*
X75135765Y-95047571D01*
X75129804Y-95023773D01*
X75126204Y-94999504D01*
X75125000Y-94975000D01*
X75125000Y-94050000D01*
X75126204Y-94025496D01*
X75129804Y-94001227D01*
X75135765Y-93977429D01*
X75144030Y-93954329D01*
X75154520Y-93932151D01*
X75167133Y-93911107D01*
X75181747Y-93891402D01*
X75198223Y-93873223D01*
X75216402Y-93856747D01*
X75236107Y-93842133D01*
X75257151Y-93829520D01*
X75279329Y-93819030D01*
X75302429Y-93810765D01*
X75326227Y-93804804D01*
X75350496Y-93801204D01*
X75375000Y-93800000D01*
X76625000Y-93800000D01*
X76649504Y-93801204D01*
X76649504Y-93801204D01*
G37*
D11*
X76000000Y-94512500D03*
D10*
G36*
X76649504Y-96776204D02*
G01*
X76673773Y-96779804D01*
X76697571Y-96785765D01*
X76720671Y-96794030D01*
X76742849Y-96804520D01*
X76763893Y-96817133D01*
X76783598Y-96831747D01*
X76801777Y-96848223D01*
X76818253Y-96866402D01*
X76832867Y-96886107D01*
X76845480Y-96907151D01*
X76855970Y-96929329D01*
X76864235Y-96952429D01*
X76870196Y-96976227D01*
X76873796Y-97000496D01*
X76875000Y-97025000D01*
X76875000Y-97950000D01*
X76873796Y-97974504D01*
X76870196Y-97998773D01*
X76864235Y-98022571D01*
X76855970Y-98045671D01*
X76845480Y-98067849D01*
X76832867Y-98088893D01*
X76818253Y-98108598D01*
X76801777Y-98126777D01*
X76783598Y-98143253D01*
X76763893Y-98157867D01*
X76742849Y-98170480D01*
X76720671Y-98180970D01*
X76697571Y-98189235D01*
X76673773Y-98195196D01*
X76649504Y-98198796D01*
X76625000Y-98200000D01*
X75375000Y-98200000D01*
X75350496Y-98198796D01*
X75326227Y-98195196D01*
X75302429Y-98189235D01*
X75279329Y-98180970D01*
X75257151Y-98170480D01*
X75236107Y-98157867D01*
X75216402Y-98143253D01*
X75198223Y-98126777D01*
X75181747Y-98108598D01*
X75167133Y-98088893D01*
X75154520Y-98067849D01*
X75144030Y-98045671D01*
X75135765Y-98022571D01*
X75129804Y-97998773D01*
X75126204Y-97974504D01*
X75125000Y-97950000D01*
X75125000Y-97025000D01*
X75126204Y-97000496D01*
X75129804Y-96976227D01*
X75135765Y-96952429D01*
X75144030Y-96929329D01*
X75154520Y-96907151D01*
X75167133Y-96886107D01*
X75181747Y-96866402D01*
X75198223Y-96848223D01*
X75216402Y-96831747D01*
X75236107Y-96817133D01*
X75257151Y-96804520D01*
X75279329Y-96794030D01*
X75302429Y-96785765D01*
X75326227Y-96779804D01*
X75350496Y-96776204D01*
X75375000Y-96775000D01*
X76625000Y-96775000D01*
X76649504Y-96776204D01*
X76649504Y-96776204D01*
G37*
D11*
X76000000Y-97487500D03*
D10*
G36*
X128149504Y-98301204D02*
G01*
X128173773Y-98304804D01*
X128197571Y-98310765D01*
X128220671Y-98319030D01*
X128242849Y-98329520D01*
X128263893Y-98342133D01*
X128283598Y-98356747D01*
X128301777Y-98373223D01*
X128318253Y-98391402D01*
X128332867Y-98411107D01*
X128345480Y-98432151D01*
X128355970Y-98454329D01*
X128364235Y-98477429D01*
X128370196Y-98501227D01*
X128373796Y-98525496D01*
X128375000Y-98550000D01*
X128375000Y-99475000D01*
X128373796Y-99499504D01*
X128370196Y-99523773D01*
X128364235Y-99547571D01*
X128355970Y-99570671D01*
X128345480Y-99592849D01*
X128332867Y-99613893D01*
X128318253Y-99633598D01*
X128301777Y-99651777D01*
X128283598Y-99668253D01*
X128263893Y-99682867D01*
X128242849Y-99695480D01*
X128220671Y-99705970D01*
X128197571Y-99714235D01*
X128173773Y-99720196D01*
X128149504Y-99723796D01*
X128125000Y-99725000D01*
X126875000Y-99725000D01*
X126850496Y-99723796D01*
X126826227Y-99720196D01*
X126802429Y-99714235D01*
X126779329Y-99705970D01*
X126757151Y-99695480D01*
X126736107Y-99682867D01*
X126716402Y-99668253D01*
X126698223Y-99651777D01*
X126681747Y-99633598D01*
X126667133Y-99613893D01*
X126654520Y-99592849D01*
X126644030Y-99570671D01*
X126635765Y-99547571D01*
X126629804Y-99523773D01*
X126626204Y-99499504D01*
X126625000Y-99475000D01*
X126625000Y-98550000D01*
X126626204Y-98525496D01*
X126629804Y-98501227D01*
X126635765Y-98477429D01*
X126644030Y-98454329D01*
X126654520Y-98432151D01*
X126667133Y-98411107D01*
X126681747Y-98391402D01*
X126698223Y-98373223D01*
X126716402Y-98356747D01*
X126736107Y-98342133D01*
X126757151Y-98329520D01*
X126779329Y-98319030D01*
X126802429Y-98310765D01*
X126826227Y-98304804D01*
X126850496Y-98301204D01*
X126875000Y-98300000D01*
X128125000Y-98300000D01*
X128149504Y-98301204D01*
X128149504Y-98301204D01*
G37*
D11*
X127500000Y-99012500D03*
D10*
G36*
X128149504Y-101276204D02*
G01*
X128173773Y-101279804D01*
X128197571Y-101285765D01*
X128220671Y-101294030D01*
X128242849Y-101304520D01*
X128263893Y-101317133D01*
X128283598Y-101331747D01*
X128301777Y-101348223D01*
X128318253Y-101366402D01*
X128332867Y-101386107D01*
X128345480Y-101407151D01*
X128355970Y-101429329D01*
X128364235Y-101452429D01*
X128370196Y-101476227D01*
X128373796Y-101500496D01*
X128375000Y-101525000D01*
X128375000Y-102450000D01*
X128373796Y-102474504D01*
X128370196Y-102498773D01*
X128364235Y-102522571D01*
X128355970Y-102545671D01*
X128345480Y-102567849D01*
X128332867Y-102588893D01*
X128318253Y-102608598D01*
X128301777Y-102626777D01*
X128283598Y-102643253D01*
X128263893Y-102657867D01*
X128242849Y-102670480D01*
X128220671Y-102680970D01*
X128197571Y-102689235D01*
X128173773Y-102695196D01*
X128149504Y-102698796D01*
X128125000Y-102700000D01*
X126875000Y-102700000D01*
X126850496Y-102698796D01*
X126826227Y-102695196D01*
X126802429Y-102689235D01*
X126779329Y-102680970D01*
X126757151Y-102670480D01*
X126736107Y-102657867D01*
X126716402Y-102643253D01*
X126698223Y-102626777D01*
X126681747Y-102608598D01*
X126667133Y-102588893D01*
X126654520Y-102567849D01*
X126644030Y-102545671D01*
X126635765Y-102522571D01*
X126629804Y-102498773D01*
X126626204Y-102474504D01*
X126625000Y-102450000D01*
X126625000Y-101525000D01*
X126626204Y-101500496D01*
X126629804Y-101476227D01*
X126635765Y-101452429D01*
X126644030Y-101429329D01*
X126654520Y-101407151D01*
X126667133Y-101386107D01*
X126681747Y-101366402D01*
X126698223Y-101348223D01*
X126716402Y-101331747D01*
X126736107Y-101317133D01*
X126757151Y-101304520D01*
X126779329Y-101294030D01*
X126802429Y-101285765D01*
X126826227Y-101279804D01*
X126850496Y-101276204D01*
X126875000Y-101275000D01*
X128125000Y-101275000D01*
X128149504Y-101276204D01*
X128149504Y-101276204D01*
G37*
D11*
X127500000Y-101987500D03*
D10*
G36*
X128649504Y-117301204D02*
G01*
X128673773Y-117304804D01*
X128697571Y-117310765D01*
X128720671Y-117319030D01*
X128742849Y-117329520D01*
X128763893Y-117342133D01*
X128783598Y-117356747D01*
X128801777Y-117373223D01*
X128818253Y-117391402D01*
X128832867Y-117411107D01*
X128845480Y-117432151D01*
X128855970Y-117454329D01*
X128864235Y-117477429D01*
X128870196Y-117501227D01*
X128873796Y-117525496D01*
X128875000Y-117550000D01*
X128875000Y-118475000D01*
X128873796Y-118499504D01*
X128870196Y-118523773D01*
X128864235Y-118547571D01*
X128855970Y-118570671D01*
X128845480Y-118592849D01*
X128832867Y-118613893D01*
X128818253Y-118633598D01*
X128801777Y-118651777D01*
X128783598Y-118668253D01*
X128763893Y-118682867D01*
X128742849Y-118695480D01*
X128720671Y-118705970D01*
X128697571Y-118714235D01*
X128673773Y-118720196D01*
X128649504Y-118723796D01*
X128625000Y-118725000D01*
X127375000Y-118725000D01*
X127350496Y-118723796D01*
X127326227Y-118720196D01*
X127302429Y-118714235D01*
X127279329Y-118705970D01*
X127257151Y-118695480D01*
X127236107Y-118682867D01*
X127216402Y-118668253D01*
X127198223Y-118651777D01*
X127181747Y-118633598D01*
X127167133Y-118613893D01*
X127154520Y-118592849D01*
X127144030Y-118570671D01*
X127135765Y-118547571D01*
X127129804Y-118523773D01*
X127126204Y-118499504D01*
X127125000Y-118475000D01*
X127125000Y-117550000D01*
X127126204Y-117525496D01*
X127129804Y-117501227D01*
X127135765Y-117477429D01*
X127144030Y-117454329D01*
X127154520Y-117432151D01*
X127167133Y-117411107D01*
X127181747Y-117391402D01*
X127198223Y-117373223D01*
X127216402Y-117356747D01*
X127236107Y-117342133D01*
X127257151Y-117329520D01*
X127279329Y-117319030D01*
X127302429Y-117310765D01*
X127326227Y-117304804D01*
X127350496Y-117301204D01*
X127375000Y-117300000D01*
X128625000Y-117300000D01*
X128649504Y-117301204D01*
X128649504Y-117301204D01*
G37*
D11*
X128000000Y-118012500D03*
D10*
G36*
X128649504Y-120276204D02*
G01*
X128673773Y-120279804D01*
X128697571Y-120285765D01*
X128720671Y-120294030D01*
X128742849Y-120304520D01*
X128763893Y-120317133D01*
X128783598Y-120331747D01*
X128801777Y-120348223D01*
X128818253Y-120366402D01*
X128832867Y-120386107D01*
X128845480Y-120407151D01*
X128855970Y-120429329D01*
X128864235Y-120452429D01*
X128870196Y-120476227D01*
X128873796Y-120500496D01*
X128875000Y-120525000D01*
X128875000Y-121450000D01*
X128873796Y-121474504D01*
X128870196Y-121498773D01*
X128864235Y-121522571D01*
X128855970Y-121545671D01*
X128845480Y-121567849D01*
X128832867Y-121588893D01*
X128818253Y-121608598D01*
X128801777Y-121626777D01*
X128783598Y-121643253D01*
X128763893Y-121657867D01*
X128742849Y-121670480D01*
X128720671Y-121680970D01*
X128697571Y-121689235D01*
X128673773Y-121695196D01*
X128649504Y-121698796D01*
X128625000Y-121700000D01*
X127375000Y-121700000D01*
X127350496Y-121698796D01*
X127326227Y-121695196D01*
X127302429Y-121689235D01*
X127279329Y-121680970D01*
X127257151Y-121670480D01*
X127236107Y-121657867D01*
X127216402Y-121643253D01*
X127198223Y-121626777D01*
X127181747Y-121608598D01*
X127167133Y-121588893D01*
X127154520Y-121567849D01*
X127144030Y-121545671D01*
X127135765Y-121522571D01*
X127129804Y-121498773D01*
X127126204Y-121474504D01*
X127125000Y-121450000D01*
X127125000Y-120525000D01*
X127126204Y-120500496D01*
X127129804Y-120476227D01*
X127135765Y-120452429D01*
X127144030Y-120429329D01*
X127154520Y-120407151D01*
X127167133Y-120386107D01*
X127181747Y-120366402D01*
X127198223Y-120348223D01*
X127216402Y-120331747D01*
X127236107Y-120317133D01*
X127257151Y-120304520D01*
X127279329Y-120294030D01*
X127302429Y-120285765D01*
X127326227Y-120279804D01*
X127350496Y-120276204D01*
X127375000Y-120275000D01*
X128625000Y-120275000D01*
X128649504Y-120276204D01*
X128649504Y-120276204D01*
G37*
D11*
X128000000Y-120987500D03*
D15*
X94000000Y-96350000D03*
X93500000Y-96350000D03*
X93000000Y-96350000D03*
X92500000Y-96350000D03*
X92000000Y-96350000D03*
X92000000Y-100650000D03*
X92500000Y-100650000D03*
X93000000Y-100650000D03*
X93500000Y-100650000D03*
X94000000Y-100650000D03*
D10*
G36*
X92999504Y-120126204D02*
G01*
X93023773Y-120129804D01*
X93047571Y-120135765D01*
X93070671Y-120144030D01*
X93092849Y-120154520D01*
X93113893Y-120167133D01*
X93133598Y-120181747D01*
X93151777Y-120198223D01*
X93168253Y-120216402D01*
X93182867Y-120236107D01*
X93195480Y-120257151D01*
X93205970Y-120279329D01*
X93214235Y-120302429D01*
X93220196Y-120326227D01*
X93223796Y-120350496D01*
X93225000Y-120375000D01*
X93225000Y-121625000D01*
X93223796Y-121649504D01*
X93220196Y-121673773D01*
X93214235Y-121697571D01*
X93205970Y-121720671D01*
X93195480Y-121742849D01*
X93182867Y-121763893D01*
X93168253Y-121783598D01*
X93151777Y-121801777D01*
X93133598Y-121818253D01*
X93113893Y-121832867D01*
X93092849Y-121845480D01*
X93070671Y-121855970D01*
X93047571Y-121864235D01*
X93023773Y-121870196D01*
X92999504Y-121873796D01*
X92975000Y-121875000D01*
X92050000Y-121875000D01*
X92025496Y-121873796D01*
X92001227Y-121870196D01*
X91977429Y-121864235D01*
X91954329Y-121855970D01*
X91932151Y-121845480D01*
X91911107Y-121832867D01*
X91891402Y-121818253D01*
X91873223Y-121801777D01*
X91856747Y-121783598D01*
X91842133Y-121763893D01*
X91829520Y-121742849D01*
X91819030Y-121720671D01*
X91810765Y-121697571D01*
X91804804Y-121673773D01*
X91801204Y-121649504D01*
X91800000Y-121625000D01*
X91800000Y-120375000D01*
X91801204Y-120350496D01*
X91804804Y-120326227D01*
X91810765Y-120302429D01*
X91819030Y-120279329D01*
X91829520Y-120257151D01*
X91842133Y-120236107D01*
X91856747Y-120216402D01*
X91873223Y-120198223D01*
X91891402Y-120181747D01*
X91911107Y-120167133D01*
X91932151Y-120154520D01*
X91954329Y-120144030D01*
X91977429Y-120135765D01*
X92001227Y-120129804D01*
X92025496Y-120126204D01*
X92050000Y-120125000D01*
X92975000Y-120125000D01*
X92999504Y-120126204D01*
X92999504Y-120126204D01*
G37*
D11*
X92512500Y-121000000D03*
D10*
G36*
X95974504Y-120126204D02*
G01*
X95998773Y-120129804D01*
X96022571Y-120135765D01*
X96045671Y-120144030D01*
X96067849Y-120154520D01*
X96088893Y-120167133D01*
X96108598Y-120181747D01*
X96126777Y-120198223D01*
X96143253Y-120216402D01*
X96157867Y-120236107D01*
X96170480Y-120257151D01*
X96180970Y-120279329D01*
X96189235Y-120302429D01*
X96195196Y-120326227D01*
X96198796Y-120350496D01*
X96200000Y-120375000D01*
X96200000Y-121625000D01*
X96198796Y-121649504D01*
X96195196Y-121673773D01*
X96189235Y-121697571D01*
X96180970Y-121720671D01*
X96170480Y-121742849D01*
X96157867Y-121763893D01*
X96143253Y-121783598D01*
X96126777Y-121801777D01*
X96108598Y-121818253D01*
X96088893Y-121832867D01*
X96067849Y-121845480D01*
X96045671Y-121855970D01*
X96022571Y-121864235D01*
X95998773Y-121870196D01*
X95974504Y-121873796D01*
X95950000Y-121875000D01*
X95025000Y-121875000D01*
X95000496Y-121873796D01*
X94976227Y-121870196D01*
X94952429Y-121864235D01*
X94929329Y-121855970D01*
X94907151Y-121845480D01*
X94886107Y-121832867D01*
X94866402Y-121818253D01*
X94848223Y-121801777D01*
X94831747Y-121783598D01*
X94817133Y-121763893D01*
X94804520Y-121742849D01*
X94794030Y-121720671D01*
X94785765Y-121697571D01*
X94779804Y-121673773D01*
X94776204Y-121649504D01*
X94775000Y-121625000D01*
X94775000Y-120375000D01*
X94776204Y-120350496D01*
X94779804Y-120326227D01*
X94785765Y-120302429D01*
X94794030Y-120279329D01*
X94804520Y-120257151D01*
X94817133Y-120236107D01*
X94831747Y-120216402D01*
X94848223Y-120198223D01*
X94866402Y-120181747D01*
X94886107Y-120167133D01*
X94907151Y-120154520D01*
X94929329Y-120144030D01*
X94952429Y-120135765D01*
X94976227Y-120129804D01*
X95000496Y-120126204D01*
X95025000Y-120125000D01*
X95950000Y-120125000D01*
X95974504Y-120126204D01*
X95974504Y-120126204D01*
G37*
D11*
X95487500Y-121000000D03*
D10*
G36*
X92999504Y-116626204D02*
G01*
X93023773Y-116629804D01*
X93047571Y-116635765D01*
X93070671Y-116644030D01*
X93092849Y-116654520D01*
X93113893Y-116667133D01*
X93133598Y-116681747D01*
X93151777Y-116698223D01*
X93168253Y-116716402D01*
X93182867Y-116736107D01*
X93195480Y-116757151D01*
X93205970Y-116779329D01*
X93214235Y-116802429D01*
X93220196Y-116826227D01*
X93223796Y-116850496D01*
X93225000Y-116875000D01*
X93225000Y-118125000D01*
X93223796Y-118149504D01*
X93220196Y-118173773D01*
X93214235Y-118197571D01*
X93205970Y-118220671D01*
X93195480Y-118242849D01*
X93182867Y-118263893D01*
X93168253Y-118283598D01*
X93151777Y-118301777D01*
X93133598Y-118318253D01*
X93113893Y-118332867D01*
X93092849Y-118345480D01*
X93070671Y-118355970D01*
X93047571Y-118364235D01*
X93023773Y-118370196D01*
X92999504Y-118373796D01*
X92975000Y-118375000D01*
X92050000Y-118375000D01*
X92025496Y-118373796D01*
X92001227Y-118370196D01*
X91977429Y-118364235D01*
X91954329Y-118355970D01*
X91932151Y-118345480D01*
X91911107Y-118332867D01*
X91891402Y-118318253D01*
X91873223Y-118301777D01*
X91856747Y-118283598D01*
X91842133Y-118263893D01*
X91829520Y-118242849D01*
X91819030Y-118220671D01*
X91810765Y-118197571D01*
X91804804Y-118173773D01*
X91801204Y-118149504D01*
X91800000Y-118125000D01*
X91800000Y-116875000D01*
X91801204Y-116850496D01*
X91804804Y-116826227D01*
X91810765Y-116802429D01*
X91819030Y-116779329D01*
X91829520Y-116757151D01*
X91842133Y-116736107D01*
X91856747Y-116716402D01*
X91873223Y-116698223D01*
X91891402Y-116681747D01*
X91911107Y-116667133D01*
X91932151Y-116654520D01*
X91954329Y-116644030D01*
X91977429Y-116635765D01*
X92001227Y-116629804D01*
X92025496Y-116626204D01*
X92050000Y-116625000D01*
X92975000Y-116625000D01*
X92999504Y-116626204D01*
X92999504Y-116626204D01*
G37*
D11*
X92512500Y-117500000D03*
D10*
G36*
X95974504Y-116626204D02*
G01*
X95998773Y-116629804D01*
X96022571Y-116635765D01*
X96045671Y-116644030D01*
X96067849Y-116654520D01*
X96088893Y-116667133D01*
X96108598Y-116681747D01*
X96126777Y-116698223D01*
X96143253Y-116716402D01*
X96157867Y-116736107D01*
X96170480Y-116757151D01*
X96180970Y-116779329D01*
X96189235Y-116802429D01*
X96195196Y-116826227D01*
X96198796Y-116850496D01*
X96200000Y-116875000D01*
X96200000Y-118125000D01*
X96198796Y-118149504D01*
X96195196Y-118173773D01*
X96189235Y-118197571D01*
X96180970Y-118220671D01*
X96170480Y-118242849D01*
X96157867Y-118263893D01*
X96143253Y-118283598D01*
X96126777Y-118301777D01*
X96108598Y-118318253D01*
X96088893Y-118332867D01*
X96067849Y-118345480D01*
X96045671Y-118355970D01*
X96022571Y-118364235D01*
X95998773Y-118370196D01*
X95974504Y-118373796D01*
X95950000Y-118375000D01*
X95025000Y-118375000D01*
X95000496Y-118373796D01*
X94976227Y-118370196D01*
X94952429Y-118364235D01*
X94929329Y-118355970D01*
X94907151Y-118345480D01*
X94886107Y-118332867D01*
X94866402Y-118318253D01*
X94848223Y-118301777D01*
X94831747Y-118283598D01*
X94817133Y-118263893D01*
X94804520Y-118242849D01*
X94794030Y-118220671D01*
X94785765Y-118197571D01*
X94779804Y-118173773D01*
X94776204Y-118149504D01*
X94775000Y-118125000D01*
X94775000Y-116875000D01*
X94776204Y-116850496D01*
X94779804Y-116826227D01*
X94785765Y-116802429D01*
X94794030Y-116779329D01*
X94804520Y-116757151D01*
X94817133Y-116736107D01*
X94831747Y-116716402D01*
X94848223Y-116698223D01*
X94866402Y-116681747D01*
X94886107Y-116667133D01*
X94907151Y-116654520D01*
X94929329Y-116644030D01*
X94952429Y-116635765D01*
X94976227Y-116629804D01*
X95000496Y-116626204D01*
X95025000Y-116625000D01*
X95950000Y-116625000D01*
X95974504Y-116626204D01*
X95974504Y-116626204D01*
G37*
D11*
X95487500Y-117500000D03*
D16*
X127635000Y-114150000D03*
X126365000Y-114150000D03*
X126365000Y-107850000D03*
X127635000Y-107850000D03*
D17*
X115075000Y-127000000D03*
X110925000Y-127000000D03*
D10*
G36*
X135474504Y-103626204D02*
G01*
X135498773Y-103629804D01*
X135522571Y-103635765D01*
X135545671Y-103644030D01*
X135567849Y-103654520D01*
X135588893Y-103667133D01*
X135608598Y-103681747D01*
X135626777Y-103698223D01*
X135643253Y-103716402D01*
X135657867Y-103736107D01*
X135670480Y-103757151D01*
X135680970Y-103779329D01*
X135689235Y-103802429D01*
X135695196Y-103826227D01*
X135698796Y-103850496D01*
X135700000Y-103875000D01*
X135700000Y-105125000D01*
X135698796Y-105149504D01*
X135695196Y-105173773D01*
X135689235Y-105197571D01*
X135680970Y-105220671D01*
X135670480Y-105242849D01*
X135657867Y-105263893D01*
X135643253Y-105283598D01*
X135626777Y-105301777D01*
X135608598Y-105318253D01*
X135588893Y-105332867D01*
X135567849Y-105345480D01*
X135545671Y-105355970D01*
X135522571Y-105364235D01*
X135498773Y-105370196D01*
X135474504Y-105373796D01*
X135450000Y-105375000D01*
X134525000Y-105375000D01*
X134500496Y-105373796D01*
X134476227Y-105370196D01*
X134452429Y-105364235D01*
X134429329Y-105355970D01*
X134407151Y-105345480D01*
X134386107Y-105332867D01*
X134366402Y-105318253D01*
X134348223Y-105301777D01*
X134331747Y-105283598D01*
X134317133Y-105263893D01*
X134304520Y-105242849D01*
X134294030Y-105220671D01*
X134285765Y-105197571D01*
X134279804Y-105173773D01*
X134276204Y-105149504D01*
X134275000Y-105125000D01*
X134275000Y-103875000D01*
X134276204Y-103850496D01*
X134279804Y-103826227D01*
X134285765Y-103802429D01*
X134294030Y-103779329D01*
X134304520Y-103757151D01*
X134317133Y-103736107D01*
X134331747Y-103716402D01*
X134348223Y-103698223D01*
X134366402Y-103681747D01*
X134386107Y-103667133D01*
X134407151Y-103654520D01*
X134429329Y-103644030D01*
X134452429Y-103635765D01*
X134476227Y-103629804D01*
X134500496Y-103626204D01*
X134525000Y-103625000D01*
X135450000Y-103625000D01*
X135474504Y-103626204D01*
X135474504Y-103626204D01*
G37*
D11*
X134987500Y-104500000D03*
D10*
G36*
X132499504Y-103626204D02*
G01*
X132523773Y-103629804D01*
X132547571Y-103635765D01*
X132570671Y-103644030D01*
X132592849Y-103654520D01*
X132613893Y-103667133D01*
X132633598Y-103681747D01*
X132651777Y-103698223D01*
X132668253Y-103716402D01*
X132682867Y-103736107D01*
X132695480Y-103757151D01*
X132705970Y-103779329D01*
X132714235Y-103802429D01*
X132720196Y-103826227D01*
X132723796Y-103850496D01*
X132725000Y-103875000D01*
X132725000Y-105125000D01*
X132723796Y-105149504D01*
X132720196Y-105173773D01*
X132714235Y-105197571D01*
X132705970Y-105220671D01*
X132695480Y-105242849D01*
X132682867Y-105263893D01*
X132668253Y-105283598D01*
X132651777Y-105301777D01*
X132633598Y-105318253D01*
X132613893Y-105332867D01*
X132592849Y-105345480D01*
X132570671Y-105355970D01*
X132547571Y-105364235D01*
X132523773Y-105370196D01*
X132499504Y-105373796D01*
X132475000Y-105375000D01*
X131550000Y-105375000D01*
X131525496Y-105373796D01*
X131501227Y-105370196D01*
X131477429Y-105364235D01*
X131454329Y-105355970D01*
X131432151Y-105345480D01*
X131411107Y-105332867D01*
X131391402Y-105318253D01*
X131373223Y-105301777D01*
X131356747Y-105283598D01*
X131342133Y-105263893D01*
X131329520Y-105242849D01*
X131319030Y-105220671D01*
X131310765Y-105197571D01*
X131304804Y-105173773D01*
X131301204Y-105149504D01*
X131300000Y-105125000D01*
X131300000Y-103875000D01*
X131301204Y-103850496D01*
X131304804Y-103826227D01*
X131310765Y-103802429D01*
X131319030Y-103779329D01*
X131329520Y-103757151D01*
X131342133Y-103736107D01*
X131356747Y-103716402D01*
X131373223Y-103698223D01*
X131391402Y-103681747D01*
X131411107Y-103667133D01*
X131432151Y-103654520D01*
X131454329Y-103644030D01*
X131477429Y-103635765D01*
X131501227Y-103629804D01*
X131525496Y-103626204D01*
X131550000Y-103625000D01*
X132475000Y-103625000D01*
X132499504Y-103626204D01*
X132499504Y-103626204D01*
G37*
D11*
X132012500Y-104500000D03*
D10*
G36*
X121149504Y-88276204D02*
G01*
X121173773Y-88279804D01*
X121197571Y-88285765D01*
X121220671Y-88294030D01*
X121242849Y-88304520D01*
X121263893Y-88317133D01*
X121283598Y-88331747D01*
X121301777Y-88348223D01*
X121318253Y-88366402D01*
X121332867Y-88386107D01*
X121345480Y-88407151D01*
X121355970Y-88429329D01*
X121364235Y-88452429D01*
X121370196Y-88476227D01*
X121373796Y-88500496D01*
X121375000Y-88525000D01*
X121375000Y-89450000D01*
X121373796Y-89474504D01*
X121370196Y-89498773D01*
X121364235Y-89522571D01*
X121355970Y-89545671D01*
X121345480Y-89567849D01*
X121332867Y-89588893D01*
X121318253Y-89608598D01*
X121301777Y-89626777D01*
X121283598Y-89643253D01*
X121263893Y-89657867D01*
X121242849Y-89670480D01*
X121220671Y-89680970D01*
X121197571Y-89689235D01*
X121173773Y-89695196D01*
X121149504Y-89698796D01*
X121125000Y-89700000D01*
X119875000Y-89700000D01*
X119850496Y-89698796D01*
X119826227Y-89695196D01*
X119802429Y-89689235D01*
X119779329Y-89680970D01*
X119757151Y-89670480D01*
X119736107Y-89657867D01*
X119716402Y-89643253D01*
X119698223Y-89626777D01*
X119681747Y-89608598D01*
X119667133Y-89588893D01*
X119654520Y-89567849D01*
X119644030Y-89545671D01*
X119635765Y-89522571D01*
X119629804Y-89498773D01*
X119626204Y-89474504D01*
X119625000Y-89450000D01*
X119625000Y-88525000D01*
X119626204Y-88500496D01*
X119629804Y-88476227D01*
X119635765Y-88452429D01*
X119644030Y-88429329D01*
X119654520Y-88407151D01*
X119667133Y-88386107D01*
X119681747Y-88366402D01*
X119698223Y-88348223D01*
X119716402Y-88331747D01*
X119736107Y-88317133D01*
X119757151Y-88304520D01*
X119779329Y-88294030D01*
X119802429Y-88285765D01*
X119826227Y-88279804D01*
X119850496Y-88276204D01*
X119875000Y-88275000D01*
X121125000Y-88275000D01*
X121149504Y-88276204D01*
X121149504Y-88276204D01*
G37*
D11*
X120500000Y-88987500D03*
D10*
G36*
X121149504Y-85301204D02*
G01*
X121173773Y-85304804D01*
X121197571Y-85310765D01*
X121220671Y-85319030D01*
X121242849Y-85329520D01*
X121263893Y-85342133D01*
X121283598Y-85356747D01*
X121301777Y-85373223D01*
X121318253Y-85391402D01*
X121332867Y-85411107D01*
X121345480Y-85432151D01*
X121355970Y-85454329D01*
X121364235Y-85477429D01*
X121370196Y-85501227D01*
X121373796Y-85525496D01*
X121375000Y-85550000D01*
X121375000Y-86475000D01*
X121373796Y-86499504D01*
X121370196Y-86523773D01*
X121364235Y-86547571D01*
X121355970Y-86570671D01*
X121345480Y-86592849D01*
X121332867Y-86613893D01*
X121318253Y-86633598D01*
X121301777Y-86651777D01*
X121283598Y-86668253D01*
X121263893Y-86682867D01*
X121242849Y-86695480D01*
X121220671Y-86705970D01*
X121197571Y-86714235D01*
X121173773Y-86720196D01*
X121149504Y-86723796D01*
X121125000Y-86725000D01*
X119875000Y-86725000D01*
X119850496Y-86723796D01*
X119826227Y-86720196D01*
X119802429Y-86714235D01*
X119779329Y-86705970D01*
X119757151Y-86695480D01*
X119736107Y-86682867D01*
X119716402Y-86668253D01*
X119698223Y-86651777D01*
X119681747Y-86633598D01*
X119667133Y-86613893D01*
X119654520Y-86592849D01*
X119644030Y-86570671D01*
X119635765Y-86547571D01*
X119629804Y-86523773D01*
X119626204Y-86499504D01*
X119625000Y-86475000D01*
X119625000Y-85550000D01*
X119626204Y-85525496D01*
X119629804Y-85501227D01*
X119635765Y-85477429D01*
X119644030Y-85454329D01*
X119654520Y-85432151D01*
X119667133Y-85411107D01*
X119681747Y-85391402D01*
X119698223Y-85373223D01*
X119716402Y-85356747D01*
X119736107Y-85342133D01*
X119757151Y-85329520D01*
X119779329Y-85319030D01*
X119802429Y-85310765D01*
X119826227Y-85304804D01*
X119850496Y-85301204D01*
X119875000Y-85300000D01*
X121125000Y-85300000D01*
X121149504Y-85301204D01*
X121149504Y-85301204D01*
G37*
D11*
X120500000Y-86012500D03*
D18*
X110300000Y-117595000D03*
X110300000Y-118865000D03*
X110300000Y-120135000D03*
X110300000Y-121405000D03*
X115700000Y-121405000D03*
X115700000Y-120135000D03*
X115700000Y-118865000D03*
X115700000Y-117595000D03*
D10*
G36*
X132824505Y-106801204D02*
G01*
X132848773Y-106804804D01*
X132872572Y-106810765D01*
X132895671Y-106819030D01*
X132917850Y-106829520D01*
X132938893Y-106842132D01*
X132958599Y-106856747D01*
X132976777Y-106873223D01*
X132993253Y-106891401D01*
X133007868Y-106911107D01*
X133020480Y-106932150D01*
X133030970Y-106954329D01*
X133039235Y-106977428D01*
X133045196Y-107001227D01*
X133048796Y-107025495D01*
X133050000Y-107049999D01*
X133050000Y-107950001D01*
X133048796Y-107974505D01*
X133045196Y-107998773D01*
X133039235Y-108022572D01*
X133030970Y-108045671D01*
X133020480Y-108067850D01*
X133007868Y-108088893D01*
X132993253Y-108108599D01*
X132976777Y-108126777D01*
X132958599Y-108143253D01*
X132938893Y-108157868D01*
X132917850Y-108170480D01*
X132895671Y-108180970D01*
X132872572Y-108189235D01*
X132848773Y-108195196D01*
X132824505Y-108198796D01*
X132800001Y-108200000D01*
X132149999Y-108200000D01*
X132125495Y-108198796D01*
X132101227Y-108195196D01*
X132077428Y-108189235D01*
X132054329Y-108180970D01*
X132032150Y-108170480D01*
X132011107Y-108157868D01*
X131991401Y-108143253D01*
X131973223Y-108126777D01*
X131956747Y-108108599D01*
X131942132Y-108088893D01*
X131929520Y-108067850D01*
X131919030Y-108045671D01*
X131910765Y-108022572D01*
X131904804Y-107998773D01*
X131901204Y-107974505D01*
X131900000Y-107950001D01*
X131900000Y-107049999D01*
X131901204Y-107025495D01*
X131904804Y-107001227D01*
X131910765Y-106977428D01*
X131919030Y-106954329D01*
X131929520Y-106932150D01*
X131942132Y-106911107D01*
X131956747Y-106891401D01*
X131973223Y-106873223D01*
X131991401Y-106856747D01*
X132011107Y-106842132D01*
X132032150Y-106829520D01*
X132054329Y-106819030D01*
X132077428Y-106810765D01*
X132101227Y-106804804D01*
X132125495Y-106801204D01*
X132149999Y-106800000D01*
X132800001Y-106800000D01*
X132824505Y-106801204D01*
X132824505Y-106801204D01*
G37*
D19*
X132475000Y-107500000D03*
D10*
G36*
X134874505Y-106801204D02*
G01*
X134898773Y-106804804D01*
X134922572Y-106810765D01*
X134945671Y-106819030D01*
X134967850Y-106829520D01*
X134988893Y-106842132D01*
X135008599Y-106856747D01*
X135026777Y-106873223D01*
X135043253Y-106891401D01*
X135057868Y-106911107D01*
X135070480Y-106932150D01*
X135080970Y-106954329D01*
X135089235Y-106977428D01*
X135095196Y-107001227D01*
X135098796Y-107025495D01*
X135100000Y-107049999D01*
X135100000Y-107950001D01*
X135098796Y-107974505D01*
X135095196Y-107998773D01*
X135089235Y-108022572D01*
X135080970Y-108045671D01*
X135070480Y-108067850D01*
X135057868Y-108088893D01*
X135043253Y-108108599D01*
X135026777Y-108126777D01*
X135008599Y-108143253D01*
X134988893Y-108157868D01*
X134967850Y-108170480D01*
X134945671Y-108180970D01*
X134922572Y-108189235D01*
X134898773Y-108195196D01*
X134874505Y-108198796D01*
X134850001Y-108200000D01*
X134199999Y-108200000D01*
X134175495Y-108198796D01*
X134151227Y-108195196D01*
X134127428Y-108189235D01*
X134104329Y-108180970D01*
X134082150Y-108170480D01*
X134061107Y-108157868D01*
X134041401Y-108143253D01*
X134023223Y-108126777D01*
X134006747Y-108108599D01*
X133992132Y-108088893D01*
X133979520Y-108067850D01*
X133969030Y-108045671D01*
X133960765Y-108022572D01*
X133954804Y-107998773D01*
X133951204Y-107974505D01*
X133950000Y-107950001D01*
X133950000Y-107049999D01*
X133951204Y-107025495D01*
X133954804Y-107001227D01*
X133960765Y-106977428D01*
X133969030Y-106954329D01*
X133979520Y-106932150D01*
X133992132Y-106911107D01*
X134006747Y-106891401D01*
X134023223Y-106873223D01*
X134041401Y-106856747D01*
X134061107Y-106842132D01*
X134082150Y-106829520D01*
X134104329Y-106819030D01*
X134127428Y-106810765D01*
X134151227Y-106804804D01*
X134175495Y-106801204D01*
X134199999Y-106800000D01*
X134850001Y-106800000D01*
X134874505Y-106801204D01*
X134874505Y-106801204D01*
G37*
D19*
X134525000Y-107500000D03*
M02*
