G04 #@! TF.GenerationSoftware,KiCad,Pcbnew,5.1.5*
G04 #@! TF.CreationDate,2019-12-19T21:21:47+00:00*
G04 #@! TF.ProjectId,ESP32ControllerCircuit,45535033-3243-46f6-9e74-726f6c6c6572,rev?*
G04 #@! TF.SameCoordinates,Original*
G04 #@! TF.FileFunction,Soldermask,Bot*
G04 #@! TF.FilePolarity,Negative*
%FSLAX46Y46*%
G04 Gerber Fmt 4.6, Leading zero omitted, Abs format (unit mm)*
G04 Created by KiCad (PCBNEW 5.1.5) date 2019-12-19 21:21:47*
%MOMM*%
%LPD*%
G04 APERTURE LIST*
%ADD10C,0.100000*%
G04 APERTURE END LIST*
D10*
G36*
X76375256Y-126891298D02*
G01*
X76481579Y-126912447D01*
X76782042Y-127036903D01*
X77052451Y-127217585D01*
X77282415Y-127447549D01*
X77463097Y-127717958D01*
X77587553Y-128018421D01*
X77651000Y-128337391D01*
X77651000Y-128662609D01*
X77587553Y-128981579D01*
X77463097Y-129282042D01*
X77282415Y-129552451D01*
X77052451Y-129782415D01*
X76782042Y-129963097D01*
X76481579Y-130087553D01*
X76375256Y-130108702D01*
X76162611Y-130151000D01*
X75837389Y-130151000D01*
X75624744Y-130108702D01*
X75518421Y-130087553D01*
X75217958Y-129963097D01*
X74947549Y-129782415D01*
X74717585Y-129552451D01*
X74536903Y-129282042D01*
X74412447Y-128981579D01*
X74349000Y-128662609D01*
X74349000Y-128337391D01*
X74412447Y-128018421D01*
X74536903Y-127717958D01*
X74717585Y-127447549D01*
X74947549Y-127217585D01*
X75217958Y-127036903D01*
X75518421Y-126912447D01*
X75624744Y-126891298D01*
X75837389Y-126849000D01*
X76162611Y-126849000D01*
X76375256Y-126891298D01*
G37*
G36*
X105113512Y-128143927D02*
G01*
X105262812Y-128173624D01*
X105426784Y-128241544D01*
X105574354Y-128340147D01*
X105699853Y-128465646D01*
X105798456Y-128613216D01*
X105866376Y-128777188D01*
X105901000Y-128951259D01*
X105901000Y-129128741D01*
X105866376Y-129302812D01*
X105798456Y-129466784D01*
X105699853Y-129614354D01*
X105574354Y-129739853D01*
X105426784Y-129838456D01*
X105262812Y-129906376D01*
X105113512Y-129936073D01*
X105088742Y-129941000D01*
X104911258Y-129941000D01*
X104886488Y-129936073D01*
X104737188Y-129906376D01*
X104573216Y-129838456D01*
X104425646Y-129739853D01*
X104300147Y-129614354D01*
X104201544Y-129466784D01*
X104133624Y-129302812D01*
X104099000Y-129128741D01*
X104099000Y-128951259D01*
X104133624Y-128777188D01*
X104201544Y-128613216D01*
X104300147Y-128465646D01*
X104425646Y-128340147D01*
X104573216Y-128241544D01*
X104737188Y-128173624D01*
X104886488Y-128143927D01*
X104911258Y-128139000D01*
X105088742Y-128139000D01*
X105113512Y-128143927D01*
G37*
G36*
X97851000Y-128351000D02*
G01*
X96149000Y-128351000D01*
X96149000Y-126649000D01*
X97851000Y-126649000D01*
X97851000Y-128351000D01*
G37*
G36*
X99748228Y-126681703D02*
G01*
X99903100Y-126745853D01*
X100042481Y-126838985D01*
X100161015Y-126957519D01*
X100254147Y-127096900D01*
X100318297Y-127251772D01*
X100351000Y-127416184D01*
X100351000Y-127583816D01*
X100318297Y-127748228D01*
X100254147Y-127903100D01*
X100161015Y-128042481D01*
X100042481Y-128161015D01*
X99903100Y-128254147D01*
X99748228Y-128318297D01*
X99583816Y-128351000D01*
X99416184Y-128351000D01*
X99251772Y-128318297D01*
X99096900Y-128254147D01*
X98957519Y-128161015D01*
X98838985Y-128042481D01*
X98745853Y-127903100D01*
X98681703Y-127748228D01*
X98649000Y-127583816D01*
X98649000Y-127416184D01*
X98681703Y-127251772D01*
X98745853Y-127096900D01*
X98838985Y-126957519D01*
X98957519Y-126838985D01*
X99096900Y-126745853D01*
X99251772Y-126681703D01*
X99416184Y-126649000D01*
X99583816Y-126649000D01*
X99748228Y-126681703D01*
G37*
G36*
X86127617Y-125583420D02*
G01*
X86208399Y-125607925D01*
X86250335Y-125620646D01*
X86363424Y-125681094D01*
X86462554Y-125762447D01*
X86543906Y-125861575D01*
X86604354Y-125974664D01*
X86614040Y-126006596D01*
X86641580Y-126097382D01*
X86651000Y-126193027D01*
X86651000Y-126806973D01*
X86641580Y-126902618D01*
X86614040Y-126993404D01*
X86604354Y-127025336D01*
X86543906Y-127138425D01*
X86462554Y-127237554D01*
X86363425Y-127318906D01*
X86250336Y-127379354D01*
X86218404Y-127389040D01*
X86127618Y-127416580D01*
X86000000Y-127429149D01*
X85872383Y-127416580D01*
X85781597Y-127389040D01*
X85749665Y-127379354D01*
X85636576Y-127318906D01*
X85537447Y-127237554D01*
X85456096Y-127138427D01*
X85456095Y-127138425D01*
X85427957Y-127085783D01*
X85395645Y-127025333D01*
X85383237Y-126984427D01*
X85358420Y-126902618D01*
X85349000Y-126806973D01*
X85349000Y-126193028D01*
X85358420Y-126097383D01*
X85395645Y-125974669D01*
X85395646Y-125974665D01*
X85456094Y-125861576D01*
X85537447Y-125762446D01*
X85636575Y-125681094D01*
X85749664Y-125620646D01*
X85791600Y-125607925D01*
X85872382Y-125583420D01*
X86000000Y-125570851D01*
X86127617Y-125583420D01*
G37*
G36*
X88127617Y-125583420D02*
G01*
X88208399Y-125607925D01*
X88250335Y-125620646D01*
X88363424Y-125681094D01*
X88462554Y-125762447D01*
X88543906Y-125861575D01*
X88604354Y-125974664D01*
X88614040Y-126006596D01*
X88641580Y-126097382D01*
X88651000Y-126193027D01*
X88651000Y-126806973D01*
X88641580Y-126902618D01*
X88614040Y-126993404D01*
X88604354Y-127025336D01*
X88543906Y-127138425D01*
X88462554Y-127237554D01*
X88363425Y-127318906D01*
X88250336Y-127379354D01*
X88218404Y-127389040D01*
X88127618Y-127416580D01*
X88000000Y-127429149D01*
X87872383Y-127416580D01*
X87781597Y-127389040D01*
X87749665Y-127379354D01*
X87636576Y-127318906D01*
X87537447Y-127237554D01*
X87456096Y-127138427D01*
X87456095Y-127138425D01*
X87427957Y-127085783D01*
X87395645Y-127025333D01*
X87383237Y-126984427D01*
X87358420Y-126902618D01*
X87349000Y-126806973D01*
X87349000Y-126193028D01*
X87358420Y-126097383D01*
X87395645Y-125974669D01*
X87395646Y-125974665D01*
X87456094Y-125861576D01*
X87537447Y-125762446D01*
X87636575Y-125681094D01*
X87749664Y-125620646D01*
X87791600Y-125607925D01*
X87872382Y-125583420D01*
X88000000Y-125570851D01*
X88127617Y-125583420D01*
G37*
G36*
X90127617Y-125583420D02*
G01*
X90208399Y-125607925D01*
X90250335Y-125620646D01*
X90363424Y-125681094D01*
X90462554Y-125762447D01*
X90543906Y-125861575D01*
X90604354Y-125974664D01*
X90614040Y-126006596D01*
X90641580Y-126097382D01*
X90651000Y-126193027D01*
X90651000Y-126806973D01*
X90641580Y-126902618D01*
X90614040Y-126993404D01*
X90604354Y-127025336D01*
X90543906Y-127138425D01*
X90462554Y-127237554D01*
X90363425Y-127318906D01*
X90250336Y-127379354D01*
X90218404Y-127389040D01*
X90127618Y-127416580D01*
X90000000Y-127429149D01*
X89872383Y-127416580D01*
X89781597Y-127389040D01*
X89749665Y-127379354D01*
X89636576Y-127318906D01*
X89537447Y-127237554D01*
X89456096Y-127138427D01*
X89456095Y-127138425D01*
X89427957Y-127085783D01*
X89395645Y-127025333D01*
X89383237Y-126984427D01*
X89358420Y-126902618D01*
X89349000Y-126806973D01*
X89349000Y-126193028D01*
X89358420Y-126097383D01*
X89395645Y-125974669D01*
X89395646Y-125974665D01*
X89456094Y-125861576D01*
X89537447Y-125762446D01*
X89636575Y-125681094D01*
X89749664Y-125620646D01*
X89791600Y-125607925D01*
X89872382Y-125583420D01*
X90000000Y-125570851D01*
X90127617Y-125583420D01*
G37*
G36*
X84491242Y-125578404D02*
G01*
X84528337Y-125589657D01*
X84562515Y-125607925D01*
X84592481Y-125632519D01*
X84617075Y-125662485D01*
X84635343Y-125696663D01*
X84646596Y-125733758D01*
X84651000Y-125778474D01*
X84651000Y-127221526D01*
X84646596Y-127266242D01*
X84635343Y-127303337D01*
X84617075Y-127337515D01*
X84592481Y-127367481D01*
X84562515Y-127392075D01*
X84528337Y-127410343D01*
X84491242Y-127421596D01*
X84446526Y-127426000D01*
X83553474Y-127426000D01*
X83508758Y-127421596D01*
X83471663Y-127410343D01*
X83437485Y-127392075D01*
X83407519Y-127367481D01*
X83382925Y-127337515D01*
X83364657Y-127303337D01*
X83353404Y-127266242D01*
X83349000Y-127221526D01*
X83349000Y-125778474D01*
X83353404Y-125733758D01*
X83364657Y-125696663D01*
X83382925Y-125662485D01*
X83407519Y-125632519D01*
X83437485Y-125607925D01*
X83471663Y-125589657D01*
X83508758Y-125578404D01*
X83553474Y-125574000D01*
X84446526Y-125574000D01*
X84491242Y-125578404D01*
G37*
G36*
X105901000Y-127401000D02*
G01*
X104099000Y-127401000D01*
X104099000Y-125599000D01*
X105901000Y-125599000D01*
X105901000Y-127401000D01*
G37*
G36*
X132556242Y-120803404D02*
G01*
X132593337Y-120814657D01*
X132627515Y-120832925D01*
X132657481Y-120857519D01*
X132682075Y-120887485D01*
X132700343Y-120921663D01*
X132711596Y-120958758D01*
X132716000Y-121003474D01*
X132716000Y-121896526D01*
X132711596Y-121941242D01*
X132700343Y-121978337D01*
X132682075Y-122012515D01*
X132657481Y-122042481D01*
X132627515Y-122067075D01*
X132593337Y-122085343D01*
X132556242Y-122096596D01*
X132511526Y-122101000D01*
X131068474Y-122101000D01*
X131023758Y-122096596D01*
X130986663Y-122085343D01*
X130952485Y-122067075D01*
X130922519Y-122042481D01*
X130897925Y-122012515D01*
X130879657Y-121978337D01*
X130868404Y-121941242D01*
X130864000Y-121896526D01*
X130864000Y-121003474D01*
X130868404Y-120958758D01*
X130879657Y-120921663D01*
X130897925Y-120887485D01*
X130922519Y-120857519D01*
X130952485Y-120832925D01*
X130986663Y-120814657D01*
X131023758Y-120803404D01*
X131068474Y-120799000D01*
X132511526Y-120799000D01*
X132556242Y-120803404D01*
G37*
G36*
X132128855Y-118802140D02*
G01*
X132192618Y-118808420D01*
X132283404Y-118835960D01*
X132315336Y-118845646D01*
X132428425Y-118906094D01*
X132527554Y-118987446D01*
X132608906Y-119086575D01*
X132669354Y-119199664D01*
X132669355Y-119199668D01*
X132706580Y-119322382D01*
X132719149Y-119450000D01*
X132706580Y-119577618D01*
X132679040Y-119668404D01*
X132669354Y-119700336D01*
X132608906Y-119813425D01*
X132527554Y-119912554D01*
X132428425Y-119993906D01*
X132315336Y-120054354D01*
X132283404Y-120064040D01*
X132192618Y-120091580D01*
X132128855Y-120097860D01*
X132096974Y-120101000D01*
X131483026Y-120101000D01*
X131451145Y-120097860D01*
X131387382Y-120091580D01*
X131296596Y-120064040D01*
X131264664Y-120054354D01*
X131151575Y-119993906D01*
X131052446Y-119912554D01*
X130971094Y-119813425D01*
X130910646Y-119700336D01*
X130900960Y-119668404D01*
X130873420Y-119577618D01*
X130860851Y-119450000D01*
X130873420Y-119322382D01*
X130910645Y-119199668D01*
X130910646Y-119199664D01*
X130971094Y-119086575D01*
X131052446Y-118987446D01*
X131151575Y-118906094D01*
X131264664Y-118845646D01*
X131296596Y-118835960D01*
X131387382Y-118808420D01*
X131451145Y-118802140D01*
X131483026Y-118799000D01*
X132096974Y-118799000D01*
X132128855Y-118802140D01*
G37*
G36*
X132516242Y-112743404D02*
G01*
X132553337Y-112754657D01*
X132587515Y-112772925D01*
X132617481Y-112797519D01*
X132642075Y-112827485D01*
X132660343Y-112861663D01*
X132671596Y-112898758D01*
X132676000Y-112943474D01*
X132676000Y-113836526D01*
X132671596Y-113881242D01*
X132660343Y-113918337D01*
X132642075Y-113952515D01*
X132617481Y-113982481D01*
X132587515Y-114007075D01*
X132553337Y-114025343D01*
X132516242Y-114036596D01*
X132471526Y-114041000D01*
X131028474Y-114041000D01*
X130983758Y-114036596D01*
X130946663Y-114025343D01*
X130912485Y-114007075D01*
X130882519Y-113982481D01*
X130857925Y-113952515D01*
X130839657Y-113918337D01*
X130828404Y-113881242D01*
X130824000Y-113836526D01*
X130824000Y-112943474D01*
X130828404Y-112898758D01*
X130839657Y-112861663D01*
X130857925Y-112827485D01*
X130882519Y-112797519D01*
X130912485Y-112772925D01*
X130946663Y-112754657D01*
X130983758Y-112743404D01*
X131028474Y-112739000D01*
X132471526Y-112739000D01*
X132516242Y-112743404D01*
G37*
G36*
X132088855Y-110742140D02*
G01*
X132152618Y-110748420D01*
X132243404Y-110775960D01*
X132275336Y-110785646D01*
X132388425Y-110846094D01*
X132487554Y-110927446D01*
X132568906Y-111026575D01*
X132629354Y-111139664D01*
X132629355Y-111139668D01*
X132666580Y-111262382D01*
X132679149Y-111390000D01*
X132666580Y-111517618D01*
X132639040Y-111608404D01*
X132629354Y-111640336D01*
X132568906Y-111753425D01*
X132487554Y-111852554D01*
X132388425Y-111933906D01*
X132275336Y-111994354D01*
X132243404Y-112004040D01*
X132152618Y-112031580D01*
X132088855Y-112037860D01*
X132056974Y-112041000D01*
X131443026Y-112041000D01*
X131411145Y-112037860D01*
X131347382Y-112031580D01*
X131256596Y-112004040D01*
X131224664Y-111994354D01*
X131111575Y-111933906D01*
X131012446Y-111852554D01*
X130931094Y-111753425D01*
X130870646Y-111640336D01*
X130860960Y-111608404D01*
X130833420Y-111517618D01*
X130820851Y-111390000D01*
X130833420Y-111262382D01*
X130870645Y-111139668D01*
X130870646Y-111139664D01*
X130931094Y-111026575D01*
X131012446Y-110927446D01*
X131111575Y-110846094D01*
X131224664Y-110785646D01*
X131256596Y-110775960D01*
X131347382Y-110748420D01*
X131411145Y-110742140D01*
X131443026Y-110739000D01*
X132056974Y-110739000D01*
X132088855Y-110742140D01*
G37*
G36*
X84553512Y-109533927D02*
G01*
X84702812Y-109563624D01*
X84866784Y-109631544D01*
X85014354Y-109730147D01*
X85139853Y-109855646D01*
X85238456Y-110003216D01*
X85306376Y-110167188D01*
X85341000Y-110341259D01*
X85341000Y-110518741D01*
X85306376Y-110692812D01*
X85238456Y-110856784D01*
X85139853Y-111004354D01*
X85014354Y-111129853D01*
X84866784Y-111228456D01*
X84702812Y-111296376D01*
X84553512Y-111326073D01*
X84528742Y-111331000D01*
X84351258Y-111331000D01*
X84326488Y-111326073D01*
X84177188Y-111296376D01*
X84013216Y-111228456D01*
X83865646Y-111129853D01*
X83740147Y-111004354D01*
X83641544Y-110856784D01*
X83573624Y-110692812D01*
X83539000Y-110518741D01*
X83539000Y-110341259D01*
X83573624Y-110167188D01*
X83641544Y-110003216D01*
X83740147Y-109855646D01*
X83865646Y-109730147D01*
X84013216Y-109631544D01*
X84177188Y-109563624D01*
X84326488Y-109533927D01*
X84351258Y-109529000D01*
X84528742Y-109529000D01*
X84553512Y-109533927D01*
G37*
G36*
X87093512Y-109533927D02*
G01*
X87242812Y-109563624D01*
X87406784Y-109631544D01*
X87554354Y-109730147D01*
X87679853Y-109855646D01*
X87778456Y-110003216D01*
X87846376Y-110167188D01*
X87881000Y-110341259D01*
X87881000Y-110518741D01*
X87846376Y-110692812D01*
X87778456Y-110856784D01*
X87679853Y-111004354D01*
X87554354Y-111129853D01*
X87406784Y-111228456D01*
X87242812Y-111296376D01*
X87093512Y-111326073D01*
X87068742Y-111331000D01*
X86891258Y-111331000D01*
X86866488Y-111326073D01*
X86717188Y-111296376D01*
X86553216Y-111228456D01*
X86405646Y-111129853D01*
X86280147Y-111004354D01*
X86181544Y-110856784D01*
X86113624Y-110692812D01*
X86079000Y-110518741D01*
X86079000Y-110341259D01*
X86113624Y-110167188D01*
X86181544Y-110003216D01*
X86280147Y-109855646D01*
X86405646Y-109730147D01*
X86553216Y-109631544D01*
X86717188Y-109563624D01*
X86866488Y-109533927D01*
X86891258Y-109529000D01*
X87068742Y-109529000D01*
X87093512Y-109533927D01*
G37*
G36*
X112493512Y-109533927D02*
G01*
X112642812Y-109563624D01*
X112806784Y-109631544D01*
X112954354Y-109730147D01*
X113079853Y-109855646D01*
X113178456Y-110003216D01*
X113246376Y-110167188D01*
X113281000Y-110341259D01*
X113281000Y-110518741D01*
X113246376Y-110692812D01*
X113178456Y-110856784D01*
X113079853Y-111004354D01*
X112954354Y-111129853D01*
X112806784Y-111228456D01*
X112642812Y-111296376D01*
X112493512Y-111326073D01*
X112468742Y-111331000D01*
X112291258Y-111331000D01*
X112266488Y-111326073D01*
X112117188Y-111296376D01*
X111953216Y-111228456D01*
X111805646Y-111129853D01*
X111680147Y-111004354D01*
X111581544Y-110856784D01*
X111513624Y-110692812D01*
X111479000Y-110518741D01*
X111479000Y-110341259D01*
X111513624Y-110167188D01*
X111581544Y-110003216D01*
X111680147Y-109855646D01*
X111805646Y-109730147D01*
X111953216Y-109631544D01*
X112117188Y-109563624D01*
X112266488Y-109533927D01*
X112291258Y-109529000D01*
X112468742Y-109529000D01*
X112493512Y-109533927D01*
G37*
G36*
X89633512Y-109533927D02*
G01*
X89782812Y-109563624D01*
X89946784Y-109631544D01*
X90094354Y-109730147D01*
X90219853Y-109855646D01*
X90318456Y-110003216D01*
X90386376Y-110167188D01*
X90421000Y-110341259D01*
X90421000Y-110518741D01*
X90386376Y-110692812D01*
X90318456Y-110856784D01*
X90219853Y-111004354D01*
X90094354Y-111129853D01*
X89946784Y-111228456D01*
X89782812Y-111296376D01*
X89633512Y-111326073D01*
X89608742Y-111331000D01*
X89431258Y-111331000D01*
X89406488Y-111326073D01*
X89257188Y-111296376D01*
X89093216Y-111228456D01*
X88945646Y-111129853D01*
X88820147Y-111004354D01*
X88721544Y-110856784D01*
X88653624Y-110692812D01*
X88619000Y-110518741D01*
X88619000Y-110341259D01*
X88653624Y-110167188D01*
X88721544Y-110003216D01*
X88820147Y-109855646D01*
X88945646Y-109730147D01*
X89093216Y-109631544D01*
X89257188Y-109563624D01*
X89406488Y-109533927D01*
X89431258Y-109529000D01*
X89608742Y-109529000D01*
X89633512Y-109533927D01*
G37*
G36*
X92173512Y-109533927D02*
G01*
X92322812Y-109563624D01*
X92486784Y-109631544D01*
X92634354Y-109730147D01*
X92759853Y-109855646D01*
X92858456Y-110003216D01*
X92926376Y-110167188D01*
X92961000Y-110341259D01*
X92961000Y-110518741D01*
X92926376Y-110692812D01*
X92858456Y-110856784D01*
X92759853Y-111004354D01*
X92634354Y-111129853D01*
X92486784Y-111228456D01*
X92322812Y-111296376D01*
X92173512Y-111326073D01*
X92148742Y-111331000D01*
X91971258Y-111331000D01*
X91946488Y-111326073D01*
X91797188Y-111296376D01*
X91633216Y-111228456D01*
X91485646Y-111129853D01*
X91360147Y-111004354D01*
X91261544Y-110856784D01*
X91193624Y-110692812D01*
X91159000Y-110518741D01*
X91159000Y-110341259D01*
X91193624Y-110167188D01*
X91261544Y-110003216D01*
X91360147Y-109855646D01*
X91485646Y-109730147D01*
X91633216Y-109631544D01*
X91797188Y-109563624D01*
X91946488Y-109533927D01*
X91971258Y-109529000D01*
X92148742Y-109529000D01*
X92173512Y-109533927D01*
G37*
G36*
X94713512Y-109533927D02*
G01*
X94862812Y-109563624D01*
X95026784Y-109631544D01*
X95174354Y-109730147D01*
X95299853Y-109855646D01*
X95398456Y-110003216D01*
X95466376Y-110167188D01*
X95501000Y-110341259D01*
X95501000Y-110518741D01*
X95466376Y-110692812D01*
X95398456Y-110856784D01*
X95299853Y-111004354D01*
X95174354Y-111129853D01*
X95026784Y-111228456D01*
X94862812Y-111296376D01*
X94713512Y-111326073D01*
X94688742Y-111331000D01*
X94511258Y-111331000D01*
X94486488Y-111326073D01*
X94337188Y-111296376D01*
X94173216Y-111228456D01*
X94025646Y-111129853D01*
X93900147Y-111004354D01*
X93801544Y-110856784D01*
X93733624Y-110692812D01*
X93699000Y-110518741D01*
X93699000Y-110341259D01*
X93733624Y-110167188D01*
X93801544Y-110003216D01*
X93900147Y-109855646D01*
X94025646Y-109730147D01*
X94173216Y-109631544D01*
X94337188Y-109563624D01*
X94486488Y-109533927D01*
X94511258Y-109529000D01*
X94688742Y-109529000D01*
X94713512Y-109533927D01*
G37*
G36*
X97253512Y-109533927D02*
G01*
X97402812Y-109563624D01*
X97566784Y-109631544D01*
X97714354Y-109730147D01*
X97839853Y-109855646D01*
X97938456Y-110003216D01*
X98006376Y-110167188D01*
X98041000Y-110341259D01*
X98041000Y-110518741D01*
X98006376Y-110692812D01*
X97938456Y-110856784D01*
X97839853Y-111004354D01*
X97714354Y-111129853D01*
X97566784Y-111228456D01*
X97402812Y-111296376D01*
X97253512Y-111326073D01*
X97228742Y-111331000D01*
X97051258Y-111331000D01*
X97026488Y-111326073D01*
X96877188Y-111296376D01*
X96713216Y-111228456D01*
X96565646Y-111129853D01*
X96440147Y-111004354D01*
X96341544Y-110856784D01*
X96273624Y-110692812D01*
X96239000Y-110518741D01*
X96239000Y-110341259D01*
X96273624Y-110167188D01*
X96341544Y-110003216D01*
X96440147Y-109855646D01*
X96565646Y-109730147D01*
X96713216Y-109631544D01*
X96877188Y-109563624D01*
X97026488Y-109533927D01*
X97051258Y-109529000D01*
X97228742Y-109529000D01*
X97253512Y-109533927D01*
G37*
G36*
X99793512Y-109533927D02*
G01*
X99942812Y-109563624D01*
X100106784Y-109631544D01*
X100254354Y-109730147D01*
X100379853Y-109855646D01*
X100478456Y-110003216D01*
X100546376Y-110167188D01*
X100581000Y-110341259D01*
X100581000Y-110518741D01*
X100546376Y-110692812D01*
X100478456Y-110856784D01*
X100379853Y-111004354D01*
X100254354Y-111129853D01*
X100106784Y-111228456D01*
X99942812Y-111296376D01*
X99793512Y-111326073D01*
X99768742Y-111331000D01*
X99591258Y-111331000D01*
X99566488Y-111326073D01*
X99417188Y-111296376D01*
X99253216Y-111228456D01*
X99105646Y-111129853D01*
X98980147Y-111004354D01*
X98881544Y-110856784D01*
X98813624Y-110692812D01*
X98779000Y-110518741D01*
X98779000Y-110341259D01*
X98813624Y-110167188D01*
X98881544Y-110003216D01*
X98980147Y-109855646D01*
X99105646Y-109730147D01*
X99253216Y-109631544D01*
X99417188Y-109563624D01*
X99566488Y-109533927D01*
X99591258Y-109529000D01*
X99768742Y-109529000D01*
X99793512Y-109533927D01*
G37*
G36*
X102333512Y-109533927D02*
G01*
X102482812Y-109563624D01*
X102646784Y-109631544D01*
X102794354Y-109730147D01*
X102919853Y-109855646D01*
X103018456Y-110003216D01*
X103086376Y-110167188D01*
X103121000Y-110341259D01*
X103121000Y-110518741D01*
X103086376Y-110692812D01*
X103018456Y-110856784D01*
X102919853Y-111004354D01*
X102794354Y-111129853D01*
X102646784Y-111228456D01*
X102482812Y-111296376D01*
X102333512Y-111326073D01*
X102308742Y-111331000D01*
X102131258Y-111331000D01*
X102106488Y-111326073D01*
X101957188Y-111296376D01*
X101793216Y-111228456D01*
X101645646Y-111129853D01*
X101520147Y-111004354D01*
X101421544Y-110856784D01*
X101353624Y-110692812D01*
X101319000Y-110518741D01*
X101319000Y-110341259D01*
X101353624Y-110167188D01*
X101421544Y-110003216D01*
X101520147Y-109855646D01*
X101645646Y-109730147D01*
X101793216Y-109631544D01*
X101957188Y-109563624D01*
X102106488Y-109533927D01*
X102131258Y-109529000D01*
X102308742Y-109529000D01*
X102333512Y-109533927D01*
G37*
G36*
X104873512Y-109533927D02*
G01*
X105022812Y-109563624D01*
X105186784Y-109631544D01*
X105334354Y-109730147D01*
X105459853Y-109855646D01*
X105558456Y-110003216D01*
X105626376Y-110167188D01*
X105661000Y-110341259D01*
X105661000Y-110518741D01*
X105626376Y-110692812D01*
X105558456Y-110856784D01*
X105459853Y-111004354D01*
X105334354Y-111129853D01*
X105186784Y-111228456D01*
X105022812Y-111296376D01*
X104873512Y-111326073D01*
X104848742Y-111331000D01*
X104671258Y-111331000D01*
X104646488Y-111326073D01*
X104497188Y-111296376D01*
X104333216Y-111228456D01*
X104185646Y-111129853D01*
X104060147Y-111004354D01*
X103961544Y-110856784D01*
X103893624Y-110692812D01*
X103859000Y-110518741D01*
X103859000Y-110341259D01*
X103893624Y-110167188D01*
X103961544Y-110003216D01*
X104060147Y-109855646D01*
X104185646Y-109730147D01*
X104333216Y-109631544D01*
X104497188Y-109563624D01*
X104646488Y-109533927D01*
X104671258Y-109529000D01*
X104848742Y-109529000D01*
X104873512Y-109533927D01*
G37*
G36*
X109953512Y-109533927D02*
G01*
X110102812Y-109563624D01*
X110266784Y-109631544D01*
X110414354Y-109730147D01*
X110539853Y-109855646D01*
X110638456Y-110003216D01*
X110706376Y-110167188D01*
X110741000Y-110341259D01*
X110741000Y-110518741D01*
X110706376Y-110692812D01*
X110638456Y-110856784D01*
X110539853Y-111004354D01*
X110414354Y-111129853D01*
X110266784Y-111228456D01*
X110102812Y-111296376D01*
X109953512Y-111326073D01*
X109928742Y-111331000D01*
X109751258Y-111331000D01*
X109726488Y-111326073D01*
X109577188Y-111296376D01*
X109413216Y-111228456D01*
X109265646Y-111129853D01*
X109140147Y-111004354D01*
X109041544Y-110856784D01*
X108973624Y-110692812D01*
X108939000Y-110518741D01*
X108939000Y-110341259D01*
X108973624Y-110167188D01*
X109041544Y-110003216D01*
X109140147Y-109855646D01*
X109265646Y-109730147D01*
X109413216Y-109631544D01*
X109577188Y-109563624D01*
X109726488Y-109533927D01*
X109751258Y-109529000D01*
X109928742Y-109529000D01*
X109953512Y-109533927D01*
G37*
G36*
X107413512Y-109533927D02*
G01*
X107562812Y-109563624D01*
X107726784Y-109631544D01*
X107874354Y-109730147D01*
X107999853Y-109855646D01*
X108098456Y-110003216D01*
X108166376Y-110167188D01*
X108201000Y-110341259D01*
X108201000Y-110518741D01*
X108166376Y-110692812D01*
X108098456Y-110856784D01*
X107999853Y-111004354D01*
X107874354Y-111129853D01*
X107726784Y-111228456D01*
X107562812Y-111296376D01*
X107413512Y-111326073D01*
X107388742Y-111331000D01*
X107211258Y-111331000D01*
X107186488Y-111326073D01*
X107037188Y-111296376D01*
X106873216Y-111228456D01*
X106725646Y-111129853D01*
X106600147Y-111004354D01*
X106501544Y-110856784D01*
X106433624Y-110692812D01*
X106399000Y-110518741D01*
X106399000Y-110341259D01*
X106433624Y-110167188D01*
X106501544Y-110003216D01*
X106600147Y-109855646D01*
X106725646Y-109730147D01*
X106873216Y-109631544D01*
X107037188Y-109563624D01*
X107186488Y-109533927D01*
X107211258Y-109529000D01*
X107388742Y-109529000D01*
X107413512Y-109533927D01*
G37*
G36*
X115033512Y-109533927D02*
G01*
X115182812Y-109563624D01*
X115346784Y-109631544D01*
X115494354Y-109730147D01*
X115619853Y-109855646D01*
X115718456Y-110003216D01*
X115786376Y-110167188D01*
X115821000Y-110341259D01*
X115821000Y-110518741D01*
X115786376Y-110692812D01*
X115718456Y-110856784D01*
X115619853Y-111004354D01*
X115494354Y-111129853D01*
X115346784Y-111228456D01*
X115182812Y-111296376D01*
X115033512Y-111326073D01*
X115008742Y-111331000D01*
X114831258Y-111331000D01*
X114806488Y-111326073D01*
X114657188Y-111296376D01*
X114493216Y-111228456D01*
X114345646Y-111129853D01*
X114220147Y-111004354D01*
X114121544Y-110856784D01*
X114053624Y-110692812D01*
X114019000Y-110518741D01*
X114019000Y-110341259D01*
X114053624Y-110167188D01*
X114121544Y-110003216D01*
X114220147Y-109855646D01*
X114345646Y-109730147D01*
X114493216Y-109631544D01*
X114657188Y-109563624D01*
X114806488Y-109533927D01*
X114831258Y-109529000D01*
X115008742Y-109529000D01*
X115033512Y-109533927D01*
G37*
G36*
X131653512Y-93683927D02*
G01*
X131802812Y-93713624D01*
X131966784Y-93781544D01*
X132114354Y-93880147D01*
X132239853Y-94005646D01*
X132338456Y-94153216D01*
X132406376Y-94317188D01*
X132441000Y-94491259D01*
X132441000Y-94668741D01*
X132406376Y-94842812D01*
X132338456Y-95006784D01*
X132239853Y-95154354D01*
X132114354Y-95279853D01*
X131966784Y-95378456D01*
X131802812Y-95446376D01*
X131653512Y-95476073D01*
X131628742Y-95481000D01*
X131451258Y-95481000D01*
X131426488Y-95476073D01*
X131277188Y-95446376D01*
X131113216Y-95378456D01*
X130965646Y-95279853D01*
X130840147Y-95154354D01*
X130741544Y-95006784D01*
X130673624Y-94842812D01*
X130639000Y-94668741D01*
X130639000Y-94491259D01*
X130673624Y-94317188D01*
X130741544Y-94153216D01*
X130840147Y-94005646D01*
X130965646Y-93880147D01*
X131113216Y-93781544D01*
X131277188Y-93713624D01*
X131426488Y-93683927D01*
X131451258Y-93679000D01*
X131628742Y-93679000D01*
X131653512Y-93683927D01*
G37*
G36*
X129113512Y-93683927D02*
G01*
X129262812Y-93713624D01*
X129426784Y-93781544D01*
X129574354Y-93880147D01*
X129699853Y-94005646D01*
X129798456Y-94153216D01*
X129866376Y-94317188D01*
X129901000Y-94491259D01*
X129901000Y-94668741D01*
X129866376Y-94842812D01*
X129798456Y-95006784D01*
X129699853Y-95154354D01*
X129574354Y-95279853D01*
X129426784Y-95378456D01*
X129262812Y-95446376D01*
X129113512Y-95476073D01*
X129088742Y-95481000D01*
X128911258Y-95481000D01*
X128886488Y-95476073D01*
X128737188Y-95446376D01*
X128573216Y-95378456D01*
X128425646Y-95279853D01*
X128300147Y-95154354D01*
X128201544Y-95006784D01*
X128133624Y-94842812D01*
X128099000Y-94668741D01*
X128099000Y-94491259D01*
X128133624Y-94317188D01*
X128201544Y-94153216D01*
X128300147Y-94005646D01*
X128425646Y-93880147D01*
X128573216Y-93781544D01*
X128737188Y-93713624D01*
X128886488Y-93683927D01*
X128911258Y-93679000D01*
X129088742Y-93679000D01*
X129113512Y-93683927D01*
G37*
G36*
X131653512Y-91143927D02*
G01*
X131802812Y-91173624D01*
X131966784Y-91241544D01*
X132114354Y-91340147D01*
X132239853Y-91465646D01*
X132338456Y-91613216D01*
X132406376Y-91777188D01*
X132441000Y-91951259D01*
X132441000Y-92128741D01*
X132406376Y-92302812D01*
X132338456Y-92466784D01*
X132239853Y-92614354D01*
X132114354Y-92739853D01*
X131966784Y-92838456D01*
X131802812Y-92906376D01*
X131653512Y-92936073D01*
X131628742Y-92941000D01*
X131451258Y-92941000D01*
X131426488Y-92936073D01*
X131277188Y-92906376D01*
X131113216Y-92838456D01*
X130965646Y-92739853D01*
X130840147Y-92614354D01*
X130741544Y-92466784D01*
X130673624Y-92302812D01*
X130639000Y-92128741D01*
X130639000Y-91951259D01*
X130673624Y-91777188D01*
X130741544Y-91613216D01*
X130840147Y-91465646D01*
X130965646Y-91340147D01*
X131113216Y-91241544D01*
X131277188Y-91173624D01*
X131426488Y-91143927D01*
X131451258Y-91139000D01*
X131628742Y-91139000D01*
X131653512Y-91143927D01*
G37*
G36*
X129113512Y-91143927D02*
G01*
X129262812Y-91173624D01*
X129426784Y-91241544D01*
X129574354Y-91340147D01*
X129699853Y-91465646D01*
X129798456Y-91613216D01*
X129866376Y-91777188D01*
X129901000Y-91951259D01*
X129901000Y-92128741D01*
X129866376Y-92302812D01*
X129798456Y-92466784D01*
X129699853Y-92614354D01*
X129574354Y-92739853D01*
X129426784Y-92838456D01*
X129262812Y-92906376D01*
X129113512Y-92936073D01*
X129088742Y-92941000D01*
X128911258Y-92941000D01*
X128886488Y-92936073D01*
X128737188Y-92906376D01*
X128573216Y-92838456D01*
X128425646Y-92739853D01*
X128300147Y-92614354D01*
X128201544Y-92466784D01*
X128133624Y-92302812D01*
X128099000Y-92128741D01*
X128099000Y-91951259D01*
X128133624Y-91777188D01*
X128201544Y-91613216D01*
X128300147Y-91465646D01*
X128425646Y-91340147D01*
X128573216Y-91241544D01*
X128737188Y-91173624D01*
X128886488Y-91143927D01*
X128911258Y-91139000D01*
X129088742Y-91139000D01*
X129113512Y-91143927D01*
G37*
G36*
X129901000Y-90401000D02*
G01*
X128099000Y-90401000D01*
X128099000Y-88599000D01*
X129901000Y-88599000D01*
X129901000Y-90401000D01*
G37*
G36*
X131653512Y-88603927D02*
G01*
X131802812Y-88633624D01*
X131966784Y-88701544D01*
X132114354Y-88800147D01*
X132239853Y-88925646D01*
X132338456Y-89073216D01*
X132406376Y-89237188D01*
X132441000Y-89411259D01*
X132441000Y-89588741D01*
X132406376Y-89762812D01*
X132338456Y-89926784D01*
X132239853Y-90074354D01*
X132114354Y-90199853D01*
X131966784Y-90298456D01*
X131802812Y-90366376D01*
X131653512Y-90396073D01*
X131628742Y-90401000D01*
X131451258Y-90401000D01*
X131426488Y-90396073D01*
X131277188Y-90366376D01*
X131113216Y-90298456D01*
X130965646Y-90199853D01*
X130840147Y-90074354D01*
X130741544Y-89926784D01*
X130673624Y-89762812D01*
X130639000Y-89588741D01*
X130639000Y-89411259D01*
X130673624Y-89237188D01*
X130741544Y-89073216D01*
X130840147Y-88925646D01*
X130965646Y-88800147D01*
X131113216Y-88701544D01*
X131277188Y-88633624D01*
X131426488Y-88603927D01*
X131451258Y-88599000D01*
X131628742Y-88599000D01*
X131653512Y-88603927D01*
G37*
G36*
X115033512Y-86673927D02*
G01*
X115182812Y-86703624D01*
X115346784Y-86771544D01*
X115494354Y-86870147D01*
X115619853Y-86995646D01*
X115718456Y-87143216D01*
X115786376Y-87307188D01*
X115821000Y-87481259D01*
X115821000Y-87658741D01*
X115786376Y-87832812D01*
X115718456Y-87996784D01*
X115619853Y-88144354D01*
X115494354Y-88269853D01*
X115346784Y-88368456D01*
X115182812Y-88436376D01*
X115033512Y-88466073D01*
X115008742Y-88471000D01*
X114831258Y-88471000D01*
X114806488Y-88466073D01*
X114657188Y-88436376D01*
X114493216Y-88368456D01*
X114345646Y-88269853D01*
X114220147Y-88144354D01*
X114121544Y-87996784D01*
X114053624Y-87832812D01*
X114019000Y-87658741D01*
X114019000Y-87481259D01*
X114053624Y-87307188D01*
X114121544Y-87143216D01*
X114220147Y-86995646D01*
X114345646Y-86870147D01*
X114493216Y-86771544D01*
X114657188Y-86703624D01*
X114806488Y-86673927D01*
X114831258Y-86669000D01*
X115008742Y-86669000D01*
X115033512Y-86673927D01*
G37*
G36*
X84553512Y-86673927D02*
G01*
X84702812Y-86703624D01*
X84866784Y-86771544D01*
X85014354Y-86870147D01*
X85139853Y-86995646D01*
X85238456Y-87143216D01*
X85306376Y-87307188D01*
X85341000Y-87481259D01*
X85341000Y-87658741D01*
X85306376Y-87832812D01*
X85238456Y-87996784D01*
X85139853Y-88144354D01*
X85014354Y-88269853D01*
X84866784Y-88368456D01*
X84702812Y-88436376D01*
X84553512Y-88466073D01*
X84528742Y-88471000D01*
X84351258Y-88471000D01*
X84326488Y-88466073D01*
X84177188Y-88436376D01*
X84013216Y-88368456D01*
X83865646Y-88269853D01*
X83740147Y-88144354D01*
X83641544Y-87996784D01*
X83573624Y-87832812D01*
X83539000Y-87658741D01*
X83539000Y-87481259D01*
X83573624Y-87307188D01*
X83641544Y-87143216D01*
X83740147Y-86995646D01*
X83865646Y-86870147D01*
X84013216Y-86771544D01*
X84177188Y-86703624D01*
X84326488Y-86673927D01*
X84351258Y-86669000D01*
X84528742Y-86669000D01*
X84553512Y-86673927D01*
G37*
G36*
X87093512Y-86673927D02*
G01*
X87242812Y-86703624D01*
X87406784Y-86771544D01*
X87554354Y-86870147D01*
X87679853Y-86995646D01*
X87778456Y-87143216D01*
X87846376Y-87307188D01*
X87881000Y-87481259D01*
X87881000Y-87658741D01*
X87846376Y-87832812D01*
X87778456Y-87996784D01*
X87679853Y-88144354D01*
X87554354Y-88269853D01*
X87406784Y-88368456D01*
X87242812Y-88436376D01*
X87093512Y-88466073D01*
X87068742Y-88471000D01*
X86891258Y-88471000D01*
X86866488Y-88466073D01*
X86717188Y-88436376D01*
X86553216Y-88368456D01*
X86405646Y-88269853D01*
X86280147Y-88144354D01*
X86181544Y-87996784D01*
X86113624Y-87832812D01*
X86079000Y-87658741D01*
X86079000Y-87481259D01*
X86113624Y-87307188D01*
X86181544Y-87143216D01*
X86280147Y-86995646D01*
X86405646Y-86870147D01*
X86553216Y-86771544D01*
X86717188Y-86703624D01*
X86866488Y-86673927D01*
X86891258Y-86669000D01*
X87068742Y-86669000D01*
X87093512Y-86673927D01*
G37*
G36*
X92173512Y-86673927D02*
G01*
X92322812Y-86703624D01*
X92486784Y-86771544D01*
X92634354Y-86870147D01*
X92759853Y-86995646D01*
X92858456Y-87143216D01*
X92926376Y-87307188D01*
X92961000Y-87481259D01*
X92961000Y-87658741D01*
X92926376Y-87832812D01*
X92858456Y-87996784D01*
X92759853Y-88144354D01*
X92634354Y-88269853D01*
X92486784Y-88368456D01*
X92322812Y-88436376D01*
X92173512Y-88466073D01*
X92148742Y-88471000D01*
X91971258Y-88471000D01*
X91946488Y-88466073D01*
X91797188Y-88436376D01*
X91633216Y-88368456D01*
X91485646Y-88269853D01*
X91360147Y-88144354D01*
X91261544Y-87996784D01*
X91193624Y-87832812D01*
X91159000Y-87658741D01*
X91159000Y-87481259D01*
X91193624Y-87307188D01*
X91261544Y-87143216D01*
X91360147Y-86995646D01*
X91485646Y-86870147D01*
X91633216Y-86771544D01*
X91797188Y-86703624D01*
X91946488Y-86673927D01*
X91971258Y-86669000D01*
X92148742Y-86669000D01*
X92173512Y-86673927D01*
G37*
G36*
X94713512Y-86673927D02*
G01*
X94862812Y-86703624D01*
X95026784Y-86771544D01*
X95174354Y-86870147D01*
X95299853Y-86995646D01*
X95398456Y-87143216D01*
X95466376Y-87307188D01*
X95501000Y-87481259D01*
X95501000Y-87658741D01*
X95466376Y-87832812D01*
X95398456Y-87996784D01*
X95299853Y-88144354D01*
X95174354Y-88269853D01*
X95026784Y-88368456D01*
X94862812Y-88436376D01*
X94713512Y-88466073D01*
X94688742Y-88471000D01*
X94511258Y-88471000D01*
X94486488Y-88466073D01*
X94337188Y-88436376D01*
X94173216Y-88368456D01*
X94025646Y-88269853D01*
X93900147Y-88144354D01*
X93801544Y-87996784D01*
X93733624Y-87832812D01*
X93699000Y-87658741D01*
X93699000Y-87481259D01*
X93733624Y-87307188D01*
X93801544Y-87143216D01*
X93900147Y-86995646D01*
X94025646Y-86870147D01*
X94173216Y-86771544D01*
X94337188Y-86703624D01*
X94486488Y-86673927D01*
X94511258Y-86669000D01*
X94688742Y-86669000D01*
X94713512Y-86673927D01*
G37*
G36*
X97253512Y-86673927D02*
G01*
X97402812Y-86703624D01*
X97566784Y-86771544D01*
X97714354Y-86870147D01*
X97839853Y-86995646D01*
X97938456Y-87143216D01*
X98006376Y-87307188D01*
X98041000Y-87481259D01*
X98041000Y-87658741D01*
X98006376Y-87832812D01*
X97938456Y-87996784D01*
X97839853Y-88144354D01*
X97714354Y-88269853D01*
X97566784Y-88368456D01*
X97402812Y-88436376D01*
X97253512Y-88466073D01*
X97228742Y-88471000D01*
X97051258Y-88471000D01*
X97026488Y-88466073D01*
X96877188Y-88436376D01*
X96713216Y-88368456D01*
X96565646Y-88269853D01*
X96440147Y-88144354D01*
X96341544Y-87996784D01*
X96273624Y-87832812D01*
X96239000Y-87658741D01*
X96239000Y-87481259D01*
X96273624Y-87307188D01*
X96341544Y-87143216D01*
X96440147Y-86995646D01*
X96565646Y-86870147D01*
X96713216Y-86771544D01*
X96877188Y-86703624D01*
X97026488Y-86673927D01*
X97051258Y-86669000D01*
X97228742Y-86669000D01*
X97253512Y-86673927D01*
G37*
G36*
X102333512Y-86673927D02*
G01*
X102482812Y-86703624D01*
X102646784Y-86771544D01*
X102794354Y-86870147D01*
X102919853Y-86995646D01*
X103018456Y-87143216D01*
X103086376Y-87307188D01*
X103121000Y-87481259D01*
X103121000Y-87658741D01*
X103086376Y-87832812D01*
X103018456Y-87996784D01*
X102919853Y-88144354D01*
X102794354Y-88269853D01*
X102646784Y-88368456D01*
X102482812Y-88436376D01*
X102333512Y-88466073D01*
X102308742Y-88471000D01*
X102131258Y-88471000D01*
X102106488Y-88466073D01*
X101957188Y-88436376D01*
X101793216Y-88368456D01*
X101645646Y-88269853D01*
X101520147Y-88144354D01*
X101421544Y-87996784D01*
X101353624Y-87832812D01*
X101319000Y-87658741D01*
X101319000Y-87481259D01*
X101353624Y-87307188D01*
X101421544Y-87143216D01*
X101520147Y-86995646D01*
X101645646Y-86870147D01*
X101793216Y-86771544D01*
X101957188Y-86703624D01*
X102106488Y-86673927D01*
X102131258Y-86669000D01*
X102308742Y-86669000D01*
X102333512Y-86673927D01*
G37*
G36*
X89633512Y-86673927D02*
G01*
X89782812Y-86703624D01*
X89946784Y-86771544D01*
X90094354Y-86870147D01*
X90219853Y-86995646D01*
X90318456Y-87143216D01*
X90386376Y-87307188D01*
X90421000Y-87481259D01*
X90421000Y-87658741D01*
X90386376Y-87832812D01*
X90318456Y-87996784D01*
X90219853Y-88144354D01*
X90094354Y-88269853D01*
X89946784Y-88368456D01*
X89782812Y-88436376D01*
X89633512Y-88466073D01*
X89608742Y-88471000D01*
X89431258Y-88471000D01*
X89406488Y-88466073D01*
X89257188Y-88436376D01*
X89093216Y-88368456D01*
X88945646Y-88269853D01*
X88820147Y-88144354D01*
X88721544Y-87996784D01*
X88653624Y-87832812D01*
X88619000Y-87658741D01*
X88619000Y-87481259D01*
X88653624Y-87307188D01*
X88721544Y-87143216D01*
X88820147Y-86995646D01*
X88945646Y-86870147D01*
X89093216Y-86771544D01*
X89257188Y-86703624D01*
X89406488Y-86673927D01*
X89431258Y-86669000D01*
X89608742Y-86669000D01*
X89633512Y-86673927D01*
G37*
G36*
X107413512Y-86673927D02*
G01*
X107562812Y-86703624D01*
X107726784Y-86771544D01*
X107874354Y-86870147D01*
X107999853Y-86995646D01*
X108098456Y-87143216D01*
X108166376Y-87307188D01*
X108201000Y-87481259D01*
X108201000Y-87658741D01*
X108166376Y-87832812D01*
X108098456Y-87996784D01*
X107999853Y-88144354D01*
X107874354Y-88269853D01*
X107726784Y-88368456D01*
X107562812Y-88436376D01*
X107413512Y-88466073D01*
X107388742Y-88471000D01*
X107211258Y-88471000D01*
X107186488Y-88466073D01*
X107037188Y-88436376D01*
X106873216Y-88368456D01*
X106725646Y-88269853D01*
X106600147Y-88144354D01*
X106501544Y-87996784D01*
X106433624Y-87832812D01*
X106399000Y-87658741D01*
X106399000Y-87481259D01*
X106433624Y-87307188D01*
X106501544Y-87143216D01*
X106600147Y-86995646D01*
X106725646Y-86870147D01*
X106873216Y-86771544D01*
X107037188Y-86703624D01*
X107186488Y-86673927D01*
X107211258Y-86669000D01*
X107388742Y-86669000D01*
X107413512Y-86673927D01*
G37*
G36*
X109953512Y-86673927D02*
G01*
X110102812Y-86703624D01*
X110266784Y-86771544D01*
X110414354Y-86870147D01*
X110539853Y-86995646D01*
X110638456Y-87143216D01*
X110706376Y-87307188D01*
X110741000Y-87481259D01*
X110741000Y-87658741D01*
X110706376Y-87832812D01*
X110638456Y-87996784D01*
X110539853Y-88144354D01*
X110414354Y-88269853D01*
X110266784Y-88368456D01*
X110102812Y-88436376D01*
X109953512Y-88466073D01*
X109928742Y-88471000D01*
X109751258Y-88471000D01*
X109726488Y-88466073D01*
X109577188Y-88436376D01*
X109413216Y-88368456D01*
X109265646Y-88269853D01*
X109140147Y-88144354D01*
X109041544Y-87996784D01*
X108973624Y-87832812D01*
X108939000Y-87658741D01*
X108939000Y-87481259D01*
X108973624Y-87307188D01*
X109041544Y-87143216D01*
X109140147Y-86995646D01*
X109265646Y-86870147D01*
X109413216Y-86771544D01*
X109577188Y-86703624D01*
X109726488Y-86673927D01*
X109751258Y-86669000D01*
X109928742Y-86669000D01*
X109953512Y-86673927D01*
G37*
G36*
X112493512Y-86673927D02*
G01*
X112642812Y-86703624D01*
X112806784Y-86771544D01*
X112954354Y-86870147D01*
X113079853Y-86995646D01*
X113178456Y-87143216D01*
X113246376Y-87307188D01*
X113281000Y-87481259D01*
X113281000Y-87658741D01*
X113246376Y-87832812D01*
X113178456Y-87996784D01*
X113079853Y-88144354D01*
X112954354Y-88269853D01*
X112806784Y-88368456D01*
X112642812Y-88436376D01*
X112493512Y-88466073D01*
X112468742Y-88471000D01*
X112291258Y-88471000D01*
X112266488Y-88466073D01*
X112117188Y-88436376D01*
X111953216Y-88368456D01*
X111805646Y-88269853D01*
X111680147Y-88144354D01*
X111581544Y-87996784D01*
X111513624Y-87832812D01*
X111479000Y-87658741D01*
X111479000Y-87481259D01*
X111513624Y-87307188D01*
X111581544Y-87143216D01*
X111680147Y-86995646D01*
X111805646Y-86870147D01*
X111953216Y-86771544D01*
X112117188Y-86703624D01*
X112266488Y-86673927D01*
X112291258Y-86669000D01*
X112468742Y-86669000D01*
X112493512Y-86673927D01*
G37*
G36*
X104873512Y-86673927D02*
G01*
X105022812Y-86703624D01*
X105186784Y-86771544D01*
X105334354Y-86870147D01*
X105459853Y-86995646D01*
X105558456Y-87143216D01*
X105626376Y-87307188D01*
X105661000Y-87481259D01*
X105661000Y-87658741D01*
X105626376Y-87832812D01*
X105558456Y-87996784D01*
X105459853Y-88144354D01*
X105334354Y-88269853D01*
X105186784Y-88368456D01*
X105022812Y-88436376D01*
X104873512Y-88466073D01*
X104848742Y-88471000D01*
X104671258Y-88471000D01*
X104646488Y-88466073D01*
X104497188Y-88436376D01*
X104333216Y-88368456D01*
X104185646Y-88269853D01*
X104060147Y-88144354D01*
X103961544Y-87996784D01*
X103893624Y-87832812D01*
X103859000Y-87658741D01*
X103859000Y-87481259D01*
X103893624Y-87307188D01*
X103961544Y-87143216D01*
X104060147Y-86995646D01*
X104185646Y-86870147D01*
X104333216Y-86771544D01*
X104497188Y-86703624D01*
X104646488Y-86673927D01*
X104671258Y-86669000D01*
X104848742Y-86669000D01*
X104873512Y-86673927D01*
G37*
G36*
X99793512Y-86673927D02*
G01*
X99942812Y-86703624D01*
X100106784Y-86771544D01*
X100254354Y-86870147D01*
X100379853Y-86995646D01*
X100478456Y-87143216D01*
X100546376Y-87307188D01*
X100581000Y-87481259D01*
X100581000Y-87658741D01*
X100546376Y-87832812D01*
X100478456Y-87996784D01*
X100379853Y-88144354D01*
X100254354Y-88269853D01*
X100106784Y-88368456D01*
X99942812Y-88436376D01*
X99793512Y-88466073D01*
X99768742Y-88471000D01*
X99591258Y-88471000D01*
X99566488Y-88466073D01*
X99417188Y-88436376D01*
X99253216Y-88368456D01*
X99105646Y-88269853D01*
X98980147Y-88144354D01*
X98881544Y-87996784D01*
X98813624Y-87832812D01*
X98779000Y-87658741D01*
X98779000Y-87481259D01*
X98813624Y-87307188D01*
X98881544Y-87143216D01*
X98980147Y-86995646D01*
X99105646Y-86870147D01*
X99253216Y-86771544D01*
X99417188Y-86703624D01*
X99566488Y-86673927D01*
X99591258Y-86669000D01*
X99768742Y-86669000D01*
X99793512Y-86673927D01*
G37*
G36*
X123627618Y-81083420D02*
G01*
X123708400Y-81107925D01*
X123750336Y-81120646D01*
X123863425Y-81181094D01*
X123962554Y-81262446D01*
X124043906Y-81361575D01*
X124104354Y-81474664D01*
X124104355Y-81474668D01*
X124141580Y-81597382D01*
X124151000Y-81693027D01*
X124151000Y-82306973D01*
X124141580Y-82402618D01*
X124114040Y-82493404D01*
X124104354Y-82525336D01*
X124043906Y-82638425D01*
X123962554Y-82737553D01*
X123863424Y-82818906D01*
X123750335Y-82879354D01*
X123718403Y-82889040D01*
X123627617Y-82916580D01*
X123500000Y-82929149D01*
X123372382Y-82916580D01*
X123281596Y-82889040D01*
X123249664Y-82879354D01*
X123136575Y-82818906D01*
X123037447Y-82737554D01*
X122956094Y-82638424D01*
X122895646Y-82525335D01*
X122885960Y-82493403D01*
X122858420Y-82402617D01*
X122849000Y-82306972D01*
X122849000Y-81693027D01*
X122858420Y-81597382D01*
X122895645Y-81474668D01*
X122895645Y-81474667D01*
X122927957Y-81414217D01*
X122956095Y-81361574D01*
X122969493Y-81345249D01*
X123037447Y-81262446D01*
X123136576Y-81181094D01*
X123249665Y-81120646D01*
X123291601Y-81107925D01*
X123372383Y-81083420D01*
X123500000Y-81070851D01*
X123627618Y-81083420D01*
G37*
G36*
X82127618Y-81083420D02*
G01*
X82208400Y-81107925D01*
X82250336Y-81120646D01*
X82363425Y-81181094D01*
X82462554Y-81262446D01*
X82543906Y-81361575D01*
X82604354Y-81474664D01*
X82604355Y-81474668D01*
X82641580Y-81597382D01*
X82651000Y-81693027D01*
X82651000Y-82306973D01*
X82641580Y-82402618D01*
X82614040Y-82493404D01*
X82604354Y-82525336D01*
X82543906Y-82638425D01*
X82462554Y-82737553D01*
X82363424Y-82818906D01*
X82250335Y-82879354D01*
X82218403Y-82889040D01*
X82127617Y-82916580D01*
X82000000Y-82929149D01*
X81872382Y-82916580D01*
X81781596Y-82889040D01*
X81749664Y-82879354D01*
X81636575Y-82818906D01*
X81537447Y-82737554D01*
X81456094Y-82638424D01*
X81395646Y-82525335D01*
X81385960Y-82493403D01*
X81358420Y-82402617D01*
X81349000Y-82306972D01*
X81349000Y-81693027D01*
X81358420Y-81597382D01*
X81395645Y-81474668D01*
X81395645Y-81474667D01*
X81427957Y-81414217D01*
X81456095Y-81361574D01*
X81469493Y-81345249D01*
X81537447Y-81262446D01*
X81636576Y-81181094D01*
X81749665Y-81120646D01*
X81791601Y-81107925D01*
X81872383Y-81083420D01*
X82000000Y-81070851D01*
X82127618Y-81083420D01*
G37*
G36*
X84127618Y-81083420D02*
G01*
X84208400Y-81107925D01*
X84250336Y-81120646D01*
X84363425Y-81181094D01*
X84462554Y-81262446D01*
X84543906Y-81361575D01*
X84604354Y-81474664D01*
X84604355Y-81474668D01*
X84641580Y-81597382D01*
X84651000Y-81693027D01*
X84651000Y-82306973D01*
X84641580Y-82402618D01*
X84614040Y-82493404D01*
X84604354Y-82525336D01*
X84543906Y-82638425D01*
X84462554Y-82737553D01*
X84363424Y-82818906D01*
X84250335Y-82879354D01*
X84218403Y-82889040D01*
X84127617Y-82916580D01*
X84000000Y-82929149D01*
X83872382Y-82916580D01*
X83781596Y-82889040D01*
X83749664Y-82879354D01*
X83636575Y-82818906D01*
X83537447Y-82737554D01*
X83456094Y-82638424D01*
X83395646Y-82525335D01*
X83385960Y-82493403D01*
X83358420Y-82402617D01*
X83349000Y-82306972D01*
X83349000Y-81693027D01*
X83358420Y-81597382D01*
X83395645Y-81474668D01*
X83395645Y-81474667D01*
X83427957Y-81414217D01*
X83456095Y-81361574D01*
X83469493Y-81345249D01*
X83537447Y-81262446D01*
X83636576Y-81181094D01*
X83749665Y-81120646D01*
X83791601Y-81107925D01*
X83872383Y-81083420D01*
X84000000Y-81070851D01*
X84127618Y-81083420D01*
G37*
G36*
X86127618Y-81083420D02*
G01*
X86208400Y-81107925D01*
X86250336Y-81120646D01*
X86363425Y-81181094D01*
X86462554Y-81262446D01*
X86543906Y-81361575D01*
X86604354Y-81474664D01*
X86604355Y-81474668D01*
X86641580Y-81597382D01*
X86651000Y-81693027D01*
X86651000Y-82306973D01*
X86641580Y-82402618D01*
X86614040Y-82493404D01*
X86604354Y-82525336D01*
X86543906Y-82638425D01*
X86462554Y-82737553D01*
X86363424Y-82818906D01*
X86250335Y-82879354D01*
X86218403Y-82889040D01*
X86127617Y-82916580D01*
X86000000Y-82929149D01*
X85872382Y-82916580D01*
X85781596Y-82889040D01*
X85749664Y-82879354D01*
X85636575Y-82818906D01*
X85537447Y-82737554D01*
X85456094Y-82638424D01*
X85395646Y-82525335D01*
X85385960Y-82493403D01*
X85358420Y-82402617D01*
X85349000Y-82306972D01*
X85349000Y-81693027D01*
X85358420Y-81597382D01*
X85395645Y-81474668D01*
X85395645Y-81474667D01*
X85427957Y-81414217D01*
X85456095Y-81361574D01*
X85469493Y-81345249D01*
X85537447Y-81262446D01*
X85636576Y-81181094D01*
X85749665Y-81120646D01*
X85791601Y-81107925D01*
X85872383Y-81083420D01*
X86000000Y-81070851D01*
X86127618Y-81083420D01*
G37*
G36*
X97127618Y-81083420D02*
G01*
X97208400Y-81107925D01*
X97250336Y-81120646D01*
X97363425Y-81181094D01*
X97462554Y-81262446D01*
X97543906Y-81361575D01*
X97604354Y-81474664D01*
X97604355Y-81474668D01*
X97641580Y-81597382D01*
X97651000Y-81693027D01*
X97651000Y-82306973D01*
X97641580Y-82402618D01*
X97614040Y-82493404D01*
X97604354Y-82525336D01*
X97543906Y-82638425D01*
X97462554Y-82737553D01*
X97363424Y-82818906D01*
X97250335Y-82879354D01*
X97218403Y-82889040D01*
X97127617Y-82916580D01*
X97000000Y-82929149D01*
X96872382Y-82916580D01*
X96781596Y-82889040D01*
X96749664Y-82879354D01*
X96636575Y-82818906D01*
X96537447Y-82737554D01*
X96456094Y-82638424D01*
X96395646Y-82525335D01*
X96385960Y-82493403D01*
X96358420Y-82402617D01*
X96349000Y-82306972D01*
X96349000Y-81693027D01*
X96358420Y-81597382D01*
X96395645Y-81474668D01*
X96395645Y-81474667D01*
X96427957Y-81414217D01*
X96456095Y-81361574D01*
X96469493Y-81345249D01*
X96537447Y-81262446D01*
X96636576Y-81181094D01*
X96749665Y-81120646D01*
X96791601Y-81107925D01*
X96872383Y-81083420D01*
X97000000Y-81070851D01*
X97127618Y-81083420D01*
G37*
G36*
X99127618Y-81083420D02*
G01*
X99208400Y-81107925D01*
X99250336Y-81120646D01*
X99363425Y-81181094D01*
X99462554Y-81262446D01*
X99543906Y-81361575D01*
X99604354Y-81474664D01*
X99604355Y-81474668D01*
X99641580Y-81597382D01*
X99651000Y-81693027D01*
X99651000Y-82306973D01*
X99641580Y-82402618D01*
X99614040Y-82493404D01*
X99604354Y-82525336D01*
X99543906Y-82638425D01*
X99462554Y-82737553D01*
X99363424Y-82818906D01*
X99250335Y-82879354D01*
X99218403Y-82889040D01*
X99127617Y-82916580D01*
X99000000Y-82929149D01*
X98872382Y-82916580D01*
X98781596Y-82889040D01*
X98749664Y-82879354D01*
X98636575Y-82818906D01*
X98537447Y-82737554D01*
X98456094Y-82638424D01*
X98395646Y-82525335D01*
X98385960Y-82493403D01*
X98358420Y-82402617D01*
X98349000Y-82306972D01*
X98349000Y-81693027D01*
X98358420Y-81597382D01*
X98395645Y-81474668D01*
X98395645Y-81474667D01*
X98427957Y-81414217D01*
X98456095Y-81361574D01*
X98469493Y-81345249D01*
X98537447Y-81262446D01*
X98636576Y-81181094D01*
X98749665Y-81120646D01*
X98791601Y-81107925D01*
X98872383Y-81083420D01*
X99000000Y-81070851D01*
X99127618Y-81083420D01*
G37*
G36*
X125627618Y-81083420D02*
G01*
X125708400Y-81107925D01*
X125750336Y-81120646D01*
X125863425Y-81181094D01*
X125962554Y-81262446D01*
X126043906Y-81361575D01*
X126104354Y-81474664D01*
X126104355Y-81474668D01*
X126141580Y-81597382D01*
X126151000Y-81693027D01*
X126151000Y-82306973D01*
X126141580Y-82402618D01*
X126114040Y-82493404D01*
X126104354Y-82525336D01*
X126043906Y-82638425D01*
X125962554Y-82737553D01*
X125863424Y-82818906D01*
X125750335Y-82879354D01*
X125718403Y-82889040D01*
X125627617Y-82916580D01*
X125500000Y-82929149D01*
X125372382Y-82916580D01*
X125281596Y-82889040D01*
X125249664Y-82879354D01*
X125136575Y-82818906D01*
X125037447Y-82737554D01*
X124956094Y-82638424D01*
X124895646Y-82525335D01*
X124885960Y-82493403D01*
X124858420Y-82402617D01*
X124849000Y-82306972D01*
X124849000Y-81693027D01*
X124858420Y-81597382D01*
X124895645Y-81474668D01*
X124895645Y-81474667D01*
X124927957Y-81414217D01*
X124956095Y-81361574D01*
X124969493Y-81345249D01*
X125037447Y-81262446D01*
X125136576Y-81181094D01*
X125249665Y-81120646D01*
X125291601Y-81107925D01*
X125372383Y-81083420D01*
X125500000Y-81070851D01*
X125627618Y-81083420D01*
G37*
G36*
X114127618Y-81083420D02*
G01*
X114208400Y-81107925D01*
X114250336Y-81120646D01*
X114363425Y-81181094D01*
X114462554Y-81262446D01*
X114543906Y-81361575D01*
X114604354Y-81474664D01*
X114604355Y-81474668D01*
X114641580Y-81597382D01*
X114651000Y-81693027D01*
X114651000Y-82306973D01*
X114641580Y-82402618D01*
X114614040Y-82493404D01*
X114604354Y-82525336D01*
X114543906Y-82638425D01*
X114462554Y-82737553D01*
X114363424Y-82818906D01*
X114250335Y-82879354D01*
X114218403Y-82889040D01*
X114127617Y-82916580D01*
X114000000Y-82929149D01*
X113872382Y-82916580D01*
X113781596Y-82889040D01*
X113749664Y-82879354D01*
X113636575Y-82818906D01*
X113537447Y-82737554D01*
X113456094Y-82638424D01*
X113395646Y-82525335D01*
X113385960Y-82493403D01*
X113358420Y-82402617D01*
X113349000Y-82306972D01*
X113349000Y-81693027D01*
X113358420Y-81597382D01*
X113395645Y-81474668D01*
X113395645Y-81474667D01*
X113427957Y-81414217D01*
X113456095Y-81361574D01*
X113469493Y-81345249D01*
X113537447Y-81262446D01*
X113636576Y-81181094D01*
X113749665Y-81120646D01*
X113791601Y-81107925D01*
X113872383Y-81083420D01*
X114000000Y-81070851D01*
X114127618Y-81083420D01*
G37*
G36*
X112127618Y-81083420D02*
G01*
X112208400Y-81107925D01*
X112250336Y-81120646D01*
X112363425Y-81181094D01*
X112462554Y-81262446D01*
X112543906Y-81361575D01*
X112604354Y-81474664D01*
X112604355Y-81474668D01*
X112641580Y-81597382D01*
X112651000Y-81693027D01*
X112651000Y-82306973D01*
X112641580Y-82402618D01*
X112614040Y-82493404D01*
X112604354Y-82525336D01*
X112543906Y-82638425D01*
X112462554Y-82737553D01*
X112363424Y-82818906D01*
X112250335Y-82879354D01*
X112218403Y-82889040D01*
X112127617Y-82916580D01*
X112000000Y-82929149D01*
X111872382Y-82916580D01*
X111781596Y-82889040D01*
X111749664Y-82879354D01*
X111636575Y-82818906D01*
X111537447Y-82737554D01*
X111456094Y-82638424D01*
X111395646Y-82525335D01*
X111385960Y-82493403D01*
X111358420Y-82402617D01*
X111349000Y-82306972D01*
X111349000Y-81693027D01*
X111358420Y-81597382D01*
X111395645Y-81474668D01*
X111395645Y-81474667D01*
X111427957Y-81414217D01*
X111456095Y-81361574D01*
X111469493Y-81345249D01*
X111537447Y-81262446D01*
X111636576Y-81181094D01*
X111749665Y-81120646D01*
X111791601Y-81107925D01*
X111872383Y-81083420D01*
X112000000Y-81070851D01*
X112127618Y-81083420D01*
G37*
G36*
X101127618Y-81083420D02*
G01*
X101208400Y-81107925D01*
X101250336Y-81120646D01*
X101363425Y-81181094D01*
X101462554Y-81262446D01*
X101543906Y-81361575D01*
X101604354Y-81474664D01*
X101604355Y-81474668D01*
X101641580Y-81597382D01*
X101651000Y-81693027D01*
X101651000Y-82306973D01*
X101641580Y-82402618D01*
X101614040Y-82493404D01*
X101604354Y-82525336D01*
X101543906Y-82638425D01*
X101462554Y-82737553D01*
X101363424Y-82818906D01*
X101250335Y-82879354D01*
X101218403Y-82889040D01*
X101127617Y-82916580D01*
X101000000Y-82929149D01*
X100872382Y-82916580D01*
X100781596Y-82889040D01*
X100749664Y-82879354D01*
X100636575Y-82818906D01*
X100537447Y-82737554D01*
X100456094Y-82638424D01*
X100395646Y-82525335D01*
X100385960Y-82493403D01*
X100358420Y-82402617D01*
X100349000Y-82306972D01*
X100349000Y-81693027D01*
X100358420Y-81597382D01*
X100395645Y-81474668D01*
X100395645Y-81474667D01*
X100427957Y-81414217D01*
X100456095Y-81361574D01*
X100469493Y-81345249D01*
X100537447Y-81262446D01*
X100636576Y-81181094D01*
X100749665Y-81120646D01*
X100791601Y-81107925D01*
X100872383Y-81083420D01*
X101000000Y-81070851D01*
X101127618Y-81083420D01*
G37*
G36*
X116491242Y-81078404D02*
G01*
X116528337Y-81089657D01*
X116562515Y-81107925D01*
X116592481Y-81132519D01*
X116617075Y-81162485D01*
X116635343Y-81196663D01*
X116646596Y-81233758D01*
X116651000Y-81278474D01*
X116651000Y-82721526D01*
X116646596Y-82766242D01*
X116635343Y-82803337D01*
X116617075Y-82837515D01*
X116592481Y-82867481D01*
X116562515Y-82892075D01*
X116528337Y-82910343D01*
X116491242Y-82921596D01*
X116446526Y-82926000D01*
X115553474Y-82926000D01*
X115508758Y-82921596D01*
X115471663Y-82910343D01*
X115437485Y-82892075D01*
X115407519Y-82867481D01*
X115382925Y-82837515D01*
X115364657Y-82803337D01*
X115353404Y-82766242D01*
X115349000Y-82721526D01*
X115349000Y-81278474D01*
X115353404Y-81233758D01*
X115364657Y-81196663D01*
X115382925Y-81162485D01*
X115407519Y-81132519D01*
X115437485Y-81107925D01*
X115471663Y-81089657D01*
X115508758Y-81078404D01*
X115553474Y-81074000D01*
X116446526Y-81074000D01*
X116491242Y-81078404D01*
G37*
G36*
X127991242Y-81078404D02*
G01*
X128028337Y-81089657D01*
X128062515Y-81107925D01*
X128092481Y-81132519D01*
X128117075Y-81162485D01*
X128135343Y-81196663D01*
X128146596Y-81233758D01*
X128151000Y-81278474D01*
X128151000Y-82721526D01*
X128146596Y-82766242D01*
X128135343Y-82803337D01*
X128117075Y-82837515D01*
X128092481Y-82867481D01*
X128062515Y-82892075D01*
X128028337Y-82910343D01*
X127991242Y-82921596D01*
X127946526Y-82926000D01*
X127053474Y-82926000D01*
X127008758Y-82921596D01*
X126971663Y-82910343D01*
X126937485Y-82892075D01*
X126907519Y-82867481D01*
X126882925Y-82837515D01*
X126864657Y-82803337D01*
X126853404Y-82766242D01*
X126849000Y-82721526D01*
X126849000Y-81278474D01*
X126853404Y-81233758D01*
X126864657Y-81196663D01*
X126882925Y-81162485D01*
X126907519Y-81132519D01*
X126937485Y-81107925D01*
X126971663Y-81089657D01*
X127008758Y-81078404D01*
X127053474Y-81074000D01*
X127946526Y-81074000D01*
X127991242Y-81078404D01*
G37*
G36*
X103491242Y-81078404D02*
G01*
X103528337Y-81089657D01*
X103562515Y-81107925D01*
X103592481Y-81132519D01*
X103617075Y-81162485D01*
X103635343Y-81196663D01*
X103646596Y-81233758D01*
X103651000Y-81278474D01*
X103651000Y-82721526D01*
X103646596Y-82766242D01*
X103635343Y-82803337D01*
X103617075Y-82837515D01*
X103592481Y-82867481D01*
X103562515Y-82892075D01*
X103528337Y-82910343D01*
X103491242Y-82921596D01*
X103446526Y-82926000D01*
X102553474Y-82926000D01*
X102508758Y-82921596D01*
X102471663Y-82910343D01*
X102437485Y-82892075D01*
X102407519Y-82867481D01*
X102382925Y-82837515D01*
X102364657Y-82803337D01*
X102353404Y-82766242D01*
X102349000Y-82721526D01*
X102349000Y-81278474D01*
X102353404Y-81233758D01*
X102364657Y-81196663D01*
X102382925Y-81162485D01*
X102407519Y-81132519D01*
X102437485Y-81107925D01*
X102471663Y-81089657D01*
X102508758Y-81078404D01*
X102553474Y-81074000D01*
X103446526Y-81074000D01*
X103491242Y-81078404D01*
G37*
G36*
X88491242Y-81078404D02*
G01*
X88528337Y-81089657D01*
X88562515Y-81107925D01*
X88592481Y-81132519D01*
X88617075Y-81162485D01*
X88635343Y-81196663D01*
X88646596Y-81233758D01*
X88651000Y-81278474D01*
X88651000Y-82721526D01*
X88646596Y-82766242D01*
X88635343Y-82803337D01*
X88617075Y-82837515D01*
X88592481Y-82867481D01*
X88562515Y-82892075D01*
X88528337Y-82910343D01*
X88491242Y-82921596D01*
X88446526Y-82926000D01*
X87553474Y-82926000D01*
X87508758Y-82921596D01*
X87471663Y-82910343D01*
X87437485Y-82892075D01*
X87407519Y-82867481D01*
X87382925Y-82837515D01*
X87364657Y-82803337D01*
X87353404Y-82766242D01*
X87349000Y-82721526D01*
X87349000Y-81278474D01*
X87353404Y-81233758D01*
X87364657Y-81196663D01*
X87382925Y-81162485D01*
X87407519Y-81132519D01*
X87437485Y-81107925D01*
X87471663Y-81089657D01*
X87508758Y-81078404D01*
X87553474Y-81074000D01*
X88446526Y-81074000D01*
X88491242Y-81078404D01*
G37*
M02*
