M48
; DRILL file {KiCad 5.1.4} date Fri 29 Nov 2019 20:37:58 GMT
; FORMAT={-:-/ absolute / inch / decimal}
; #@! TF.CreationDate,2019-11-29T20:37:58+00:00
; #@! TF.GenerationSoftware,Kicad,Pcbnew,5.1.4
; #@! TF.FileFunction,Plated,1,2,PTH
FMAT,2
INCH
T1C0.0157
T2C0.0295
T3C0.0315
T4C0.0394
%
G90
G05
T1
X2.9331Y-3.9961
X2.9528Y-4.2717
X3.0118Y-3.937
X3.1693Y-4.0551
X3.2283Y-4.0551
X3.2283Y-4.1929
X3.2283Y-4.3898
X3.248Y-3.3465
X3.2677Y-3.9173
X3.3268Y-4.1929
X3.3858Y-3.7402
X3.4055Y-3.8189
X3.5433Y-4.6063
X3.6417Y-3.878
X3.7402Y-3.8189
X3.8976Y-3.7402
X4.0157Y-4.0551
X4.1732Y-3.8386
X4.1925Y-4.0319
X4.1929Y-4.8425
X4.4488Y-4.0945
X4.4488Y-4.7047
X4.4488Y-4.7835
X4.4488Y-4.8425
X4.4685Y-4.1339
X4.6654Y-4.2913
X4.7835Y-4.6063
X4.7835Y-4.8622
X4.8031Y-3.8189
X4.8437Y-3.4342
X4.8819Y-3.7795
X4.9016Y-3.5433
X4.9213Y-4.0157
X4.9409Y-3.6417
X4.9606Y-4.6063
X4.9803Y-4.1339
X5.1181Y-4.2323
T2
X3.2283Y-3.2283
X3.3071Y-3.2283
X3.3858Y-3.2283
X3.4646Y-3.2283
X4.8622Y-3.2283
X4.9409Y-3.2283
X5.0197Y-3.2283
X4.4094Y-3.2283
X4.4882Y-3.2283
X4.5669Y-3.2283
X3.3071Y-4.9803
X3.3858Y-4.9803
X3.4646Y-4.9803
X3.5433Y-4.9803
X3.8189Y-3.2283
X3.8976Y-3.2283
X3.9764Y-3.2283
X4.0551Y-3.2283
X5.187Y-4.3854
X5.187Y-4.4642
X5.1886Y-4.7028
X5.1886Y-4.7815
T3
X3.8189Y-5.0197
X3.9173Y-5.0197
T4
X3.3244Y-3.4476
X3.3244Y-4.3476
X3.4244Y-3.4476
X3.4244Y-4.3476
X3.5244Y-3.4476
X3.5244Y-4.3476
X3.6244Y-3.4476
X3.6244Y-4.3476
X3.7244Y-3.4476
X3.7244Y-4.3476
X3.8244Y-3.4476
X3.8244Y-4.3476
X3.9244Y-3.4476
X3.9244Y-4.3476
X4.0244Y-3.4476
X4.0244Y-4.3476
X4.1244Y-3.4476
X4.1244Y-4.3476
X4.2244Y-3.4476
X4.2244Y-4.3476
X4.3244Y-3.4476
X4.3244Y-4.3476
X4.4244Y-3.4476
X4.4244Y-4.3476
X4.5244Y-3.4476
X4.5244Y-4.3476
X5.0787Y-3.5236
X5.0787Y-3.6236
X5.0787Y-3.7236
X5.1787Y-3.5236
X5.1787Y-3.6236
X5.1787Y-3.7236
X4.1339Y-4.9803
X4.1339Y-5.0803
T0
M30
