G04 #@! TF.GenerationSoftware,KiCad,Pcbnew,5.1.5*
G04 #@! TF.CreationDate,2019-12-19T21:21:47+00:00*
G04 #@! TF.ProjectId,ESP32ControllerCircuit,45535033-3243-46f6-9e74-726f6c6c6572,rev?*
G04 #@! TF.SameCoordinates,Original*
G04 #@! TF.FileFunction,Legend,Bot*
G04 #@! TF.FilePolarity,Positive*
%FSLAX46Y46*%
G04 Gerber Fmt 4.6, Leading zero omitted, Abs format (unit mm)*
G04 Created by KiCad (PCBNEW 5.1.5) date 2019-12-19 21:21:47*
%MOMM*%
%LPD*%
G04 APERTURE LIST*
%ADD10C,0.150000*%
G04 APERTURE END LIST*
D10*
X89501428Y-129003571D02*
X89358571Y-129051190D01*
X89310952Y-129098809D01*
X89263333Y-129194047D01*
X89263333Y-129336904D01*
X89310952Y-129432142D01*
X89358571Y-129479761D01*
X89453809Y-129527380D01*
X89834761Y-129527380D01*
X89834761Y-128527380D01*
X89501428Y-128527380D01*
X89406190Y-128575000D01*
X89358571Y-128622619D01*
X89310952Y-128717857D01*
X89310952Y-128813095D01*
X89358571Y-128908333D01*
X89406190Y-128955952D01*
X89501428Y-129003571D01*
X89834761Y-129003571D01*
X88406190Y-129527380D02*
X88406190Y-129003571D01*
X88453809Y-128908333D01*
X88549047Y-128860714D01*
X88739523Y-128860714D01*
X88834761Y-128908333D01*
X88406190Y-129479761D02*
X88501428Y-129527380D01*
X88739523Y-129527380D01*
X88834761Y-129479761D01*
X88882380Y-129384523D01*
X88882380Y-129289285D01*
X88834761Y-129194047D01*
X88739523Y-129146428D01*
X88501428Y-129146428D01*
X88406190Y-129098809D01*
X88072857Y-128860714D02*
X87691904Y-128860714D01*
X87930000Y-128527380D02*
X87930000Y-129384523D01*
X87882380Y-129479761D01*
X87787142Y-129527380D01*
X87691904Y-129527380D01*
X87501428Y-128860714D02*
X87120476Y-128860714D01*
X87358571Y-128527380D02*
X87358571Y-129384523D01*
X87310952Y-129479761D01*
X87215714Y-129527380D01*
X87120476Y-129527380D01*
X86406190Y-129479761D02*
X86501428Y-129527380D01*
X86691904Y-129527380D01*
X86787142Y-129479761D01*
X86834761Y-129384523D01*
X86834761Y-129003571D01*
X86787142Y-128908333D01*
X86691904Y-128860714D01*
X86501428Y-128860714D01*
X86406190Y-128908333D01*
X86358571Y-129003571D01*
X86358571Y-129098809D01*
X86834761Y-129194047D01*
X85930000Y-129527380D02*
X85930000Y-128860714D01*
X85930000Y-129051190D02*
X85882380Y-128955952D01*
X85834761Y-128908333D01*
X85739523Y-128860714D01*
X85644285Y-128860714D01*
X85406190Y-128860714D02*
X85168095Y-129527380D01*
X84930000Y-128860714D02*
X85168095Y-129527380D01*
X85263333Y-129765476D01*
X85310952Y-129813095D01*
X85406190Y-129860714D01*
X89430000Y-131129761D02*
X89287142Y-131177380D01*
X89049047Y-131177380D01*
X88953809Y-131129761D01*
X88906190Y-131082142D01*
X88858571Y-130986904D01*
X88858571Y-130891666D01*
X88906190Y-130796428D01*
X88953809Y-130748809D01*
X89049047Y-130701190D01*
X89239523Y-130653571D01*
X89334761Y-130605952D01*
X89382380Y-130558333D01*
X89430000Y-130463095D01*
X89430000Y-130367857D01*
X89382380Y-130272619D01*
X89334761Y-130225000D01*
X89239523Y-130177380D01*
X89001428Y-130177380D01*
X88858571Y-130225000D01*
X88049047Y-131129761D02*
X88144285Y-131177380D01*
X88334761Y-131177380D01*
X88430000Y-131129761D01*
X88477619Y-131034523D01*
X88477619Y-130653571D01*
X88430000Y-130558333D01*
X88334761Y-130510714D01*
X88144285Y-130510714D01*
X88049047Y-130558333D01*
X88001428Y-130653571D01*
X88001428Y-130748809D01*
X88477619Y-130844047D01*
X87572857Y-130510714D02*
X87572857Y-131177380D01*
X87572857Y-130605952D02*
X87525238Y-130558333D01*
X87430000Y-130510714D01*
X87287142Y-130510714D01*
X87191904Y-130558333D01*
X87144285Y-130653571D01*
X87144285Y-131177380D01*
X86715714Y-131129761D02*
X86620476Y-131177380D01*
X86430000Y-131177380D01*
X86334761Y-131129761D01*
X86287142Y-131034523D01*
X86287142Y-130986904D01*
X86334761Y-130891666D01*
X86430000Y-130844047D01*
X86572857Y-130844047D01*
X86668095Y-130796428D01*
X86715714Y-130701190D01*
X86715714Y-130653571D01*
X86668095Y-130558333D01*
X86572857Y-130510714D01*
X86430000Y-130510714D01*
X86334761Y-130558333D01*
X85477619Y-131129761D02*
X85572857Y-131177380D01*
X85763333Y-131177380D01*
X85858571Y-131129761D01*
X85906190Y-131034523D01*
X85906190Y-130653571D01*
X85858571Y-130558333D01*
X85763333Y-130510714D01*
X85572857Y-130510714D01*
X85477619Y-130558333D01*
X85430000Y-130653571D01*
X85430000Y-130748809D01*
X85906190Y-130844047D01*
X134355238Y-120812380D02*
X134688571Y-120336190D01*
X134926666Y-120812380D02*
X134926666Y-119812380D01*
X134545714Y-119812380D01*
X134450476Y-119860000D01*
X134402857Y-119907619D01*
X134355238Y-120002857D01*
X134355238Y-120145714D01*
X134402857Y-120240952D01*
X134450476Y-120288571D01*
X134545714Y-120336190D01*
X134926666Y-120336190D01*
X134021904Y-120812380D02*
X133498095Y-120145714D01*
X134021904Y-120145714D02*
X133498095Y-120812380D01*
X134551904Y-111102380D02*
X133980476Y-111102380D01*
X134266190Y-112102380D02*
X134266190Y-111102380D01*
X133742380Y-111102380D02*
X133075714Y-112102380D01*
X133075714Y-111102380D02*
X133742380Y-112102380D01*
X127225238Y-78372142D02*
X127272857Y-78419761D01*
X127415714Y-78467380D01*
X127510952Y-78467380D01*
X127653809Y-78419761D01*
X127749047Y-78324523D01*
X127796666Y-78229285D01*
X127844285Y-78038809D01*
X127844285Y-77895952D01*
X127796666Y-77705476D01*
X127749047Y-77610238D01*
X127653809Y-77515000D01*
X127510952Y-77467380D01*
X127415714Y-77467380D01*
X127272857Y-77515000D01*
X127225238Y-77562619D01*
X126796666Y-78467380D02*
X126796666Y-77467380D01*
X126368095Y-78467380D02*
X126368095Y-77943571D01*
X126415714Y-77848333D01*
X126510952Y-77800714D01*
X126653809Y-77800714D01*
X126749047Y-77848333D01*
X126796666Y-77895952D01*
X125463333Y-78467380D02*
X125463333Y-77943571D01*
X125510952Y-77848333D01*
X125606190Y-77800714D01*
X125796666Y-77800714D01*
X125891904Y-77848333D01*
X125463333Y-78419761D02*
X125558571Y-78467380D01*
X125796666Y-78467380D01*
X125891904Y-78419761D01*
X125939523Y-78324523D01*
X125939523Y-78229285D01*
X125891904Y-78134047D01*
X125796666Y-78086428D01*
X125558571Y-78086428D01*
X125463333Y-78038809D01*
X124987142Y-78467380D02*
X124987142Y-77800714D01*
X124987142Y-77991190D02*
X124939523Y-77895952D01*
X124891904Y-77848333D01*
X124796666Y-77800714D01*
X124701428Y-77800714D01*
X123939523Y-77800714D02*
X123939523Y-78610238D01*
X123987142Y-78705476D01*
X124034761Y-78753095D01*
X124130000Y-78800714D01*
X124272857Y-78800714D01*
X124368095Y-78753095D01*
X123939523Y-78419761D02*
X124034761Y-78467380D01*
X124225238Y-78467380D01*
X124320476Y-78419761D01*
X124368095Y-78372142D01*
X124415714Y-78276904D01*
X124415714Y-77991190D01*
X124368095Y-77895952D01*
X124320476Y-77848333D01*
X124225238Y-77800714D01*
X124034761Y-77800714D01*
X123939523Y-77848333D01*
X123082380Y-78419761D02*
X123177619Y-78467380D01*
X123368095Y-78467380D01*
X123463333Y-78419761D01*
X123510952Y-78324523D01*
X123510952Y-77943571D01*
X123463333Y-77848333D01*
X123368095Y-77800714D01*
X123177619Y-77800714D01*
X123082380Y-77848333D01*
X123034761Y-77943571D01*
X123034761Y-78038809D01*
X123510952Y-78134047D01*
X122606190Y-78467380D02*
X122606190Y-77800714D01*
X122606190Y-77991190D02*
X122558571Y-77895952D01*
X122510952Y-77848333D01*
X122415714Y-77800714D01*
X122320476Y-77800714D01*
X130201428Y-80069761D02*
X130058571Y-80117380D01*
X129820476Y-80117380D01*
X129725238Y-80069761D01*
X129677619Y-80022142D01*
X129630000Y-79926904D01*
X129630000Y-79831666D01*
X129677619Y-79736428D01*
X129725238Y-79688809D01*
X129820476Y-79641190D01*
X130010952Y-79593571D01*
X130106190Y-79545952D01*
X130153809Y-79498333D01*
X130201428Y-79403095D01*
X130201428Y-79307857D01*
X130153809Y-79212619D01*
X130106190Y-79165000D01*
X130010952Y-79117380D01*
X129772857Y-79117380D01*
X129630000Y-79165000D01*
X128820476Y-80069761D02*
X128915714Y-80117380D01*
X129106190Y-80117380D01*
X129201428Y-80069761D01*
X129249047Y-79974523D01*
X129249047Y-79593571D01*
X129201428Y-79498333D01*
X129106190Y-79450714D01*
X128915714Y-79450714D01*
X128820476Y-79498333D01*
X128772857Y-79593571D01*
X128772857Y-79688809D01*
X129249047Y-79784047D01*
X128344285Y-80117380D02*
X128344285Y-79450714D01*
X128344285Y-79641190D02*
X128296666Y-79545952D01*
X128249047Y-79498333D01*
X128153809Y-79450714D01*
X128058571Y-79450714D01*
X127725238Y-80117380D02*
X127725238Y-79450714D01*
X127725238Y-79117380D02*
X127772857Y-79165000D01*
X127725238Y-79212619D01*
X127677619Y-79165000D01*
X127725238Y-79117380D01*
X127725238Y-79212619D01*
X126820476Y-80117380D02*
X126820476Y-79593571D01*
X126868095Y-79498333D01*
X126963333Y-79450714D01*
X127153809Y-79450714D01*
X127249047Y-79498333D01*
X126820476Y-80069761D02*
X126915714Y-80117380D01*
X127153809Y-80117380D01*
X127249047Y-80069761D01*
X127296666Y-79974523D01*
X127296666Y-79879285D01*
X127249047Y-79784047D01*
X127153809Y-79736428D01*
X126915714Y-79736428D01*
X126820476Y-79688809D01*
X126201428Y-80117380D02*
X126296666Y-80069761D01*
X126344285Y-79974523D01*
X126344285Y-79117380D01*
X124487142Y-80022142D02*
X124534761Y-80069761D01*
X124677619Y-80117380D01*
X124772857Y-80117380D01*
X124915714Y-80069761D01*
X125010952Y-79974523D01*
X125058571Y-79879285D01*
X125106190Y-79688809D01*
X125106190Y-79545952D01*
X125058571Y-79355476D01*
X125010952Y-79260238D01*
X124915714Y-79165000D01*
X124772857Y-79117380D01*
X124677619Y-79117380D01*
X124534761Y-79165000D01*
X124487142Y-79212619D01*
X123915714Y-80117380D02*
X124010952Y-80069761D01*
X124058571Y-80022142D01*
X124106190Y-79926904D01*
X124106190Y-79641190D01*
X124058571Y-79545952D01*
X124010952Y-79498333D01*
X123915714Y-79450714D01*
X123772857Y-79450714D01*
X123677619Y-79498333D01*
X123630000Y-79545952D01*
X123582380Y-79641190D01*
X123582380Y-79926904D01*
X123630000Y-80022142D01*
X123677619Y-80069761D01*
X123772857Y-80117380D01*
X123915714Y-80117380D01*
X123153809Y-79450714D02*
X123153809Y-80117380D01*
X123153809Y-79545952D02*
X123106190Y-79498333D01*
X123010952Y-79450714D01*
X122868095Y-79450714D01*
X122772857Y-79498333D01*
X122725238Y-79593571D01*
X122725238Y-80117380D01*
X122391904Y-79450714D02*
X122010952Y-79450714D01*
X122249047Y-79117380D02*
X122249047Y-79974523D01*
X122201428Y-80069761D01*
X122106190Y-80117380D01*
X122010952Y-80117380D01*
X121677619Y-80117380D02*
X121677619Y-79450714D01*
X121677619Y-79641190D02*
X121630000Y-79545952D01*
X121582380Y-79498333D01*
X121487142Y-79450714D01*
X121391904Y-79450714D01*
X120915714Y-80117380D02*
X121010952Y-80069761D01*
X121058571Y-80022142D01*
X121106190Y-79926904D01*
X121106190Y-79641190D01*
X121058571Y-79545952D01*
X121010952Y-79498333D01*
X120915714Y-79450714D01*
X120772857Y-79450714D01*
X120677619Y-79498333D01*
X120630000Y-79545952D01*
X120582380Y-79641190D01*
X120582380Y-79926904D01*
X120630000Y-80022142D01*
X120677619Y-80069761D01*
X120772857Y-80117380D01*
X120915714Y-80117380D01*
X120010952Y-80117380D02*
X120106190Y-80069761D01*
X120153809Y-79974523D01*
X120153809Y-79117380D01*
X116565238Y-78577380D02*
X116565238Y-77577380D01*
X116089047Y-77910714D02*
X116089047Y-78577380D01*
X116089047Y-78005952D02*
X116041428Y-77958333D01*
X115946190Y-77910714D01*
X115803333Y-77910714D01*
X115708095Y-77958333D01*
X115660476Y-78053571D01*
X115660476Y-78577380D01*
X115279523Y-77910714D02*
X115041428Y-78577380D01*
X114803333Y-77910714D01*
X114041428Y-78529761D02*
X114136666Y-78577380D01*
X114327142Y-78577380D01*
X114422380Y-78529761D01*
X114470000Y-78434523D01*
X114470000Y-78053571D01*
X114422380Y-77958333D01*
X114327142Y-77910714D01*
X114136666Y-77910714D01*
X114041428Y-77958333D01*
X113993809Y-78053571D01*
X113993809Y-78148809D01*
X114470000Y-78244047D01*
X113565238Y-78577380D02*
X113565238Y-77910714D01*
X113565238Y-78101190D02*
X113517619Y-78005952D01*
X113470000Y-77958333D01*
X113374761Y-77910714D01*
X113279523Y-77910714D01*
X113089047Y-77910714D02*
X112708095Y-77910714D01*
X112946190Y-77577380D02*
X112946190Y-78434523D01*
X112898571Y-78529761D01*
X112803333Y-78577380D01*
X112708095Y-78577380D01*
X111993809Y-78529761D02*
X112089047Y-78577380D01*
X112279523Y-78577380D01*
X112374761Y-78529761D01*
X112422380Y-78434523D01*
X112422380Y-78053571D01*
X112374761Y-77958333D01*
X112279523Y-77910714D01*
X112089047Y-77910714D01*
X111993809Y-77958333D01*
X111946190Y-78053571D01*
X111946190Y-78148809D01*
X112422380Y-78244047D01*
X111517619Y-78577380D02*
X111517619Y-77910714D01*
X111517619Y-78101190D02*
X111470000Y-78005952D01*
X111422380Y-77958333D01*
X111327142Y-77910714D01*
X111231904Y-77910714D01*
X118470000Y-80227380D02*
X118470000Y-79227380D01*
X118089047Y-79227380D01*
X117993809Y-79275000D01*
X117946190Y-79322619D01*
X117898571Y-79417857D01*
X117898571Y-79560714D01*
X117946190Y-79655952D01*
X117993809Y-79703571D01*
X118089047Y-79751190D01*
X118470000Y-79751190D01*
X117565238Y-79227380D02*
X117327142Y-80227380D01*
X117136666Y-79513095D01*
X116946190Y-80227380D01*
X116708095Y-79227380D01*
X116327142Y-80227380D02*
X116327142Y-79227380D01*
X115993809Y-79941666D01*
X115660476Y-79227380D01*
X115660476Y-80227380D01*
X113850952Y-80132142D02*
X113898571Y-80179761D01*
X114041428Y-80227380D01*
X114136666Y-80227380D01*
X114279523Y-80179761D01*
X114374761Y-80084523D01*
X114422380Y-79989285D01*
X114470000Y-79798809D01*
X114470000Y-79655952D01*
X114422380Y-79465476D01*
X114374761Y-79370238D01*
X114279523Y-79275000D01*
X114136666Y-79227380D01*
X114041428Y-79227380D01*
X113898571Y-79275000D01*
X113850952Y-79322619D01*
X113279523Y-80227380D02*
X113374761Y-80179761D01*
X113422380Y-80132142D01*
X113470000Y-80036904D01*
X113470000Y-79751190D01*
X113422380Y-79655952D01*
X113374761Y-79608333D01*
X113279523Y-79560714D01*
X113136666Y-79560714D01*
X113041428Y-79608333D01*
X112993809Y-79655952D01*
X112946190Y-79751190D01*
X112946190Y-80036904D01*
X112993809Y-80132142D01*
X113041428Y-80179761D01*
X113136666Y-80227380D01*
X113279523Y-80227380D01*
X112517619Y-79560714D02*
X112517619Y-80227380D01*
X112517619Y-79655952D02*
X112470000Y-79608333D01*
X112374761Y-79560714D01*
X112231904Y-79560714D01*
X112136666Y-79608333D01*
X112089047Y-79703571D01*
X112089047Y-80227380D01*
X111755714Y-79560714D02*
X111374761Y-79560714D01*
X111612857Y-79227380D02*
X111612857Y-80084523D01*
X111565238Y-80179761D01*
X111470000Y-80227380D01*
X111374761Y-80227380D01*
X111041428Y-80227380D02*
X111041428Y-79560714D01*
X111041428Y-79751190D02*
X110993809Y-79655952D01*
X110946190Y-79608333D01*
X110850952Y-79560714D01*
X110755714Y-79560714D01*
X110279523Y-80227380D02*
X110374761Y-80179761D01*
X110422380Y-80132142D01*
X110470000Y-80036904D01*
X110470000Y-79751190D01*
X110422380Y-79655952D01*
X110374761Y-79608333D01*
X110279523Y-79560714D01*
X110136666Y-79560714D01*
X110041428Y-79608333D01*
X109993809Y-79655952D01*
X109946190Y-79751190D01*
X109946190Y-80036904D01*
X109993809Y-80132142D01*
X110041428Y-80179761D01*
X110136666Y-80227380D01*
X110279523Y-80227380D01*
X109374761Y-80227380D02*
X109470000Y-80179761D01*
X109517619Y-80084523D01*
X109517619Y-79227380D01*
X105674285Y-78577380D02*
X105674285Y-77577380D01*
X105198095Y-77910714D02*
X105198095Y-78577380D01*
X105198095Y-78005952D02*
X105150476Y-77958333D01*
X105055238Y-77910714D01*
X104912380Y-77910714D01*
X104817142Y-77958333D01*
X104769523Y-78053571D01*
X104769523Y-78577380D01*
X104388571Y-77910714D02*
X104150476Y-78577380D01*
X103912380Y-77910714D01*
X103150476Y-78529761D02*
X103245714Y-78577380D01*
X103436190Y-78577380D01*
X103531428Y-78529761D01*
X103579047Y-78434523D01*
X103579047Y-78053571D01*
X103531428Y-77958333D01*
X103436190Y-77910714D01*
X103245714Y-77910714D01*
X103150476Y-77958333D01*
X103102857Y-78053571D01*
X103102857Y-78148809D01*
X103579047Y-78244047D01*
X102674285Y-78577380D02*
X102674285Y-77910714D01*
X102674285Y-78101190D02*
X102626666Y-78005952D01*
X102579047Y-77958333D01*
X102483809Y-77910714D01*
X102388571Y-77910714D01*
X102198095Y-77910714D02*
X101817142Y-77910714D01*
X102055238Y-77577380D02*
X102055238Y-78434523D01*
X102007619Y-78529761D01*
X101912380Y-78577380D01*
X101817142Y-78577380D01*
X101102857Y-78529761D02*
X101198095Y-78577380D01*
X101388571Y-78577380D01*
X101483809Y-78529761D01*
X101531428Y-78434523D01*
X101531428Y-78053571D01*
X101483809Y-77958333D01*
X101388571Y-77910714D01*
X101198095Y-77910714D01*
X101102857Y-77958333D01*
X101055238Y-78053571D01*
X101055238Y-78148809D01*
X101531428Y-78244047D01*
X100626666Y-78577380D02*
X100626666Y-77910714D01*
X100626666Y-78101190D02*
X100579047Y-78005952D01*
X100531428Y-77958333D01*
X100436190Y-77910714D01*
X100340952Y-77910714D01*
X99293333Y-77529761D02*
X100150476Y-78815476D01*
X98388571Y-78482142D02*
X98436190Y-78529761D01*
X98579047Y-78577380D01*
X98674285Y-78577380D01*
X98817142Y-78529761D01*
X98912380Y-78434523D01*
X98960000Y-78339285D01*
X99007619Y-78148809D01*
X99007619Y-78005952D01*
X98960000Y-77815476D01*
X98912380Y-77720238D01*
X98817142Y-77625000D01*
X98674285Y-77577380D01*
X98579047Y-77577380D01*
X98436190Y-77625000D01*
X98388571Y-77672619D01*
X97960000Y-78577380D02*
X97960000Y-77577380D01*
X97531428Y-78577380D02*
X97531428Y-78053571D01*
X97579047Y-77958333D01*
X97674285Y-77910714D01*
X97817142Y-77910714D01*
X97912380Y-77958333D01*
X97960000Y-78005952D01*
X96626666Y-78577380D02*
X96626666Y-78053571D01*
X96674285Y-77958333D01*
X96769523Y-77910714D01*
X96960000Y-77910714D01*
X97055238Y-77958333D01*
X96626666Y-78529761D02*
X96721904Y-78577380D01*
X96960000Y-78577380D01*
X97055238Y-78529761D01*
X97102857Y-78434523D01*
X97102857Y-78339285D01*
X97055238Y-78244047D01*
X96960000Y-78196428D01*
X96721904Y-78196428D01*
X96626666Y-78148809D01*
X96150476Y-78577380D02*
X96150476Y-77910714D01*
X96150476Y-78101190D02*
X96102857Y-78005952D01*
X96055238Y-77958333D01*
X95960000Y-77910714D01*
X95864761Y-77910714D01*
X95102857Y-77910714D02*
X95102857Y-78720238D01*
X95150476Y-78815476D01*
X95198095Y-78863095D01*
X95293333Y-78910714D01*
X95436190Y-78910714D01*
X95531428Y-78863095D01*
X95102857Y-78529761D02*
X95198095Y-78577380D01*
X95388571Y-78577380D01*
X95483809Y-78529761D01*
X95531428Y-78482142D01*
X95579047Y-78386904D01*
X95579047Y-78101190D01*
X95531428Y-78005952D01*
X95483809Y-77958333D01*
X95388571Y-77910714D01*
X95198095Y-77910714D01*
X95102857Y-77958333D01*
X94245714Y-78529761D02*
X94340952Y-78577380D01*
X94531428Y-78577380D01*
X94626666Y-78529761D01*
X94674285Y-78434523D01*
X94674285Y-78053571D01*
X94626666Y-77958333D01*
X94531428Y-77910714D01*
X94340952Y-77910714D01*
X94245714Y-77958333D01*
X94198095Y-78053571D01*
X94198095Y-78148809D01*
X94674285Y-78244047D01*
X106769523Y-80179761D02*
X106626666Y-80227380D01*
X106388571Y-80227380D01*
X106293333Y-80179761D01*
X106245714Y-80132142D01*
X106198095Y-80036904D01*
X106198095Y-79941666D01*
X106245714Y-79846428D01*
X106293333Y-79798809D01*
X106388571Y-79751190D01*
X106579047Y-79703571D01*
X106674285Y-79655952D01*
X106721904Y-79608333D01*
X106769523Y-79513095D01*
X106769523Y-79417857D01*
X106721904Y-79322619D01*
X106674285Y-79275000D01*
X106579047Y-79227380D01*
X106340952Y-79227380D01*
X106198095Y-79275000D01*
X105626666Y-80227380D02*
X105721904Y-80179761D01*
X105769523Y-80132142D01*
X105817142Y-80036904D01*
X105817142Y-79751190D01*
X105769523Y-79655952D01*
X105721904Y-79608333D01*
X105626666Y-79560714D01*
X105483809Y-79560714D01*
X105388571Y-79608333D01*
X105340952Y-79655952D01*
X105293333Y-79751190D01*
X105293333Y-80036904D01*
X105340952Y-80132142D01*
X105388571Y-80179761D01*
X105483809Y-80227380D01*
X105626666Y-80227380D01*
X104721904Y-80227380D02*
X104817142Y-80179761D01*
X104864761Y-80084523D01*
X104864761Y-79227380D01*
X104340952Y-80227380D02*
X104340952Y-79560714D01*
X104340952Y-79227380D02*
X104388571Y-79275000D01*
X104340952Y-79322619D01*
X104293333Y-79275000D01*
X104340952Y-79227380D01*
X104340952Y-79322619D01*
X103436190Y-80227380D02*
X103436190Y-79227380D01*
X103436190Y-80179761D02*
X103531428Y-80227380D01*
X103721904Y-80227380D01*
X103817142Y-80179761D01*
X103864761Y-80132142D01*
X103912380Y-80036904D01*
X103912380Y-79751190D01*
X103864761Y-79655952D01*
X103817142Y-79608333D01*
X103721904Y-79560714D01*
X103531428Y-79560714D01*
X103436190Y-79608333D01*
X102245714Y-80179761D02*
X102102857Y-80227380D01*
X101864761Y-80227380D01*
X101769523Y-80179761D01*
X101721904Y-80132142D01*
X101674285Y-80036904D01*
X101674285Y-79941666D01*
X101721904Y-79846428D01*
X101769523Y-79798809D01*
X101864761Y-79751190D01*
X102055238Y-79703571D01*
X102150476Y-79655952D01*
X102198095Y-79608333D01*
X102245714Y-79513095D01*
X102245714Y-79417857D01*
X102198095Y-79322619D01*
X102150476Y-79275000D01*
X102055238Y-79227380D01*
X101817142Y-79227380D01*
X101674285Y-79275000D01*
X101388571Y-79560714D02*
X101007619Y-79560714D01*
X101245714Y-79227380D02*
X101245714Y-80084523D01*
X101198095Y-80179761D01*
X101102857Y-80227380D01*
X101007619Y-80227380D01*
X100245714Y-80227380D02*
X100245714Y-79703571D01*
X100293333Y-79608333D01*
X100388571Y-79560714D01*
X100579047Y-79560714D01*
X100674285Y-79608333D01*
X100245714Y-80179761D02*
X100340952Y-80227380D01*
X100579047Y-80227380D01*
X100674285Y-80179761D01*
X100721904Y-80084523D01*
X100721904Y-79989285D01*
X100674285Y-79894047D01*
X100579047Y-79846428D01*
X100340952Y-79846428D01*
X100245714Y-79798809D01*
X99912380Y-79560714D02*
X99531428Y-79560714D01*
X99769523Y-79227380D02*
X99769523Y-80084523D01*
X99721904Y-80179761D01*
X99626666Y-80227380D01*
X99531428Y-80227380D01*
X98817142Y-80179761D02*
X98912380Y-80227380D01*
X99102857Y-80227380D01*
X99198095Y-80179761D01*
X99245714Y-80084523D01*
X99245714Y-79703571D01*
X99198095Y-79608333D01*
X99102857Y-79560714D01*
X98912380Y-79560714D01*
X98817142Y-79608333D01*
X98769523Y-79703571D01*
X98769523Y-79798809D01*
X99245714Y-79894047D01*
X97007619Y-80227380D02*
X97340952Y-79751190D01*
X97579047Y-80227380D02*
X97579047Y-79227380D01*
X97198095Y-79227380D01*
X97102857Y-79275000D01*
X97055238Y-79322619D01*
X97007619Y-79417857D01*
X97007619Y-79560714D01*
X97055238Y-79655952D01*
X97102857Y-79703571D01*
X97198095Y-79751190D01*
X97579047Y-79751190D01*
X96198095Y-80179761D02*
X96293333Y-80227380D01*
X96483809Y-80227380D01*
X96579047Y-80179761D01*
X96626666Y-80084523D01*
X96626666Y-79703571D01*
X96579047Y-79608333D01*
X96483809Y-79560714D01*
X96293333Y-79560714D01*
X96198095Y-79608333D01*
X96150476Y-79703571D01*
X96150476Y-79798809D01*
X96626666Y-79894047D01*
X95579047Y-80227380D02*
X95674285Y-80179761D01*
X95721904Y-80084523D01*
X95721904Y-79227380D01*
X94769523Y-80227380D02*
X94769523Y-79703571D01*
X94817142Y-79608333D01*
X94912380Y-79560714D01*
X95102857Y-79560714D01*
X95198095Y-79608333D01*
X94769523Y-80179761D02*
X94864761Y-80227380D01*
X95102857Y-80227380D01*
X95198095Y-80179761D01*
X95245714Y-80084523D01*
X95245714Y-79989285D01*
X95198095Y-79894047D01*
X95102857Y-79846428D01*
X94864761Y-79846428D01*
X94769523Y-79798809D01*
X94388571Y-79560714D02*
X94150476Y-80227380D01*
X93912380Y-79560714D02*
X94150476Y-80227380D01*
X94245714Y-80465476D01*
X94293333Y-80513095D01*
X94388571Y-80560714D01*
X93579047Y-80179761D02*
X93483809Y-80227380D01*
X93293333Y-80227380D01*
X93198095Y-80179761D01*
X93150476Y-80084523D01*
X93150476Y-80036904D01*
X93198095Y-79941666D01*
X93293333Y-79894047D01*
X93436190Y-79894047D01*
X93531428Y-79846428D01*
X93579047Y-79751190D01*
X93579047Y-79703571D01*
X93531428Y-79608333D01*
X93436190Y-79560714D01*
X93293333Y-79560714D01*
X93198095Y-79608333D01*
X86256190Y-79062380D02*
X86256190Y-78062380D01*
X85827619Y-78157619D02*
X85780000Y-78110000D01*
X85684761Y-78062380D01*
X85446666Y-78062380D01*
X85351428Y-78110000D01*
X85303809Y-78157619D01*
X85256190Y-78252857D01*
X85256190Y-78348095D01*
X85303809Y-78490952D01*
X85875238Y-79062380D01*
X85256190Y-79062380D01*
X84256190Y-78967142D02*
X84303809Y-79014761D01*
X84446666Y-79062380D01*
X84541904Y-79062380D01*
X84684761Y-79014761D01*
X84780000Y-78919523D01*
X84827619Y-78824285D01*
X84875238Y-78633809D01*
X84875238Y-78490952D01*
X84827619Y-78300476D01*
X84780000Y-78205238D01*
X84684761Y-78110000D01*
X84541904Y-78062380D01*
X84446666Y-78062380D01*
X84303809Y-78110000D01*
X84256190Y-78157619D01*
X134799047Y-98042380D02*
X134799047Y-97042380D01*
X134322857Y-97375714D02*
X134322857Y-98042380D01*
X134322857Y-97470952D02*
X134275238Y-97423333D01*
X134180000Y-97375714D01*
X134037142Y-97375714D01*
X133941904Y-97423333D01*
X133894285Y-97518571D01*
X133894285Y-98042380D01*
X133418095Y-97375714D02*
X133418095Y-98375714D01*
X133418095Y-97423333D02*
X133322857Y-97375714D01*
X133132380Y-97375714D01*
X133037142Y-97423333D01*
X132989523Y-97470952D01*
X132941904Y-97566190D01*
X132941904Y-97851904D01*
X132989523Y-97947142D01*
X133037142Y-97994761D01*
X133132380Y-98042380D01*
X133322857Y-98042380D01*
X133418095Y-97994761D01*
X132084761Y-97375714D02*
X132084761Y-98042380D01*
X132513333Y-97375714D02*
X132513333Y-97899523D01*
X132465714Y-97994761D01*
X132370476Y-98042380D01*
X132227619Y-98042380D01*
X132132380Y-97994761D01*
X132084761Y-97947142D01*
X131751428Y-97375714D02*
X131370476Y-97375714D01*
X131608571Y-97042380D02*
X131608571Y-97899523D01*
X131560952Y-97994761D01*
X131465714Y-98042380D01*
X131370476Y-98042380D01*
X130322857Y-96994761D02*
X131180000Y-98280476D01*
X129799047Y-97042380D02*
X129608571Y-97042380D01*
X129513333Y-97090000D01*
X129418095Y-97185238D01*
X129370476Y-97375714D01*
X129370476Y-97709047D01*
X129418095Y-97899523D01*
X129513333Y-97994761D01*
X129608571Y-98042380D01*
X129799047Y-98042380D01*
X129894285Y-97994761D01*
X129989523Y-97899523D01*
X130037142Y-97709047D01*
X130037142Y-97375714D01*
X129989523Y-97185238D01*
X129894285Y-97090000D01*
X129799047Y-97042380D01*
X128513333Y-97375714D02*
X128513333Y-98042380D01*
X128941904Y-97375714D02*
X128941904Y-97899523D01*
X128894285Y-97994761D01*
X128799047Y-98042380D01*
X128656190Y-98042380D01*
X128560952Y-97994761D01*
X128513333Y-97947142D01*
X128180000Y-97375714D02*
X127799047Y-97375714D01*
X128037142Y-97042380D02*
X128037142Y-97899523D01*
X127989523Y-97994761D01*
X127894285Y-98042380D01*
X127799047Y-98042380D01*
X127465714Y-97375714D02*
X127465714Y-98375714D01*
X127465714Y-97423333D02*
X127370476Y-97375714D01*
X127180000Y-97375714D01*
X127084761Y-97423333D01*
X127037142Y-97470952D01*
X126989523Y-97566190D01*
X126989523Y-97851904D01*
X127037142Y-97947142D01*
X127084761Y-97994761D01*
X127180000Y-98042380D01*
X127370476Y-98042380D01*
X127465714Y-97994761D01*
X126132380Y-97375714D02*
X126132380Y-98042380D01*
X126560952Y-97375714D02*
X126560952Y-97899523D01*
X126513333Y-97994761D01*
X126418095Y-98042380D01*
X126275238Y-98042380D01*
X126180000Y-97994761D01*
X126132380Y-97947142D01*
X125799047Y-97375714D02*
X125418095Y-97375714D01*
X125656190Y-97042380D02*
X125656190Y-97899523D01*
X125608571Y-97994761D01*
X125513333Y-98042380D01*
X125418095Y-98042380D01*
X136175714Y-116287380D02*
X136175714Y-115287380D01*
X135842380Y-116001666D01*
X135509047Y-115287380D01*
X135509047Y-116287380D01*
X134890000Y-116287380D02*
X134985238Y-116239761D01*
X135032857Y-116192142D01*
X135080476Y-116096904D01*
X135080476Y-115811190D01*
X135032857Y-115715952D01*
X134985238Y-115668333D01*
X134890000Y-115620714D01*
X134747142Y-115620714D01*
X134651904Y-115668333D01*
X134604285Y-115715952D01*
X134556666Y-115811190D01*
X134556666Y-116096904D01*
X134604285Y-116192142D01*
X134651904Y-116239761D01*
X134747142Y-116287380D01*
X134890000Y-116287380D01*
X133699523Y-116287380D02*
X133699523Y-115287380D01*
X133699523Y-116239761D02*
X133794761Y-116287380D01*
X133985238Y-116287380D01*
X134080476Y-116239761D01*
X134128095Y-116192142D01*
X134175714Y-116096904D01*
X134175714Y-115811190D01*
X134128095Y-115715952D01*
X134080476Y-115668333D01*
X133985238Y-115620714D01*
X133794761Y-115620714D01*
X133699523Y-115668333D01*
X132794761Y-115620714D02*
X132794761Y-116287380D01*
X133223333Y-115620714D02*
X133223333Y-116144523D01*
X133175714Y-116239761D01*
X133080476Y-116287380D01*
X132937619Y-116287380D01*
X132842380Y-116239761D01*
X132794761Y-116192142D01*
X132175714Y-116287380D02*
X132270952Y-116239761D01*
X132318571Y-116144523D01*
X132318571Y-115287380D01*
X131413809Y-116239761D02*
X131509047Y-116287380D01*
X131699523Y-116287380D01*
X131794761Y-116239761D01*
X131842380Y-116144523D01*
X131842380Y-115763571D01*
X131794761Y-115668333D01*
X131699523Y-115620714D01*
X131509047Y-115620714D01*
X131413809Y-115668333D01*
X131366190Y-115763571D01*
X131366190Y-115858809D01*
X131842380Y-115954047D01*
X130985238Y-116239761D02*
X130890000Y-116287380D01*
X130699523Y-116287380D01*
X130604285Y-116239761D01*
X130556666Y-116144523D01*
X130556666Y-116096904D01*
X130604285Y-116001666D01*
X130699523Y-115954047D01*
X130842380Y-115954047D01*
X130937619Y-115906428D01*
X130985238Y-115811190D01*
X130985238Y-115763571D01*
X130937619Y-115668333D01*
X130842380Y-115620714D01*
X130699523Y-115620714D01*
X130604285Y-115668333D01*
X135366190Y-117889761D02*
X135223333Y-117937380D01*
X134985238Y-117937380D01*
X134890000Y-117889761D01*
X134842380Y-117842142D01*
X134794761Y-117746904D01*
X134794761Y-117651666D01*
X134842380Y-117556428D01*
X134890000Y-117508809D01*
X134985238Y-117461190D01*
X135175714Y-117413571D01*
X135270952Y-117365952D01*
X135318571Y-117318333D01*
X135366190Y-117223095D01*
X135366190Y-117127857D01*
X135318571Y-117032619D01*
X135270952Y-116985000D01*
X135175714Y-116937380D01*
X134937619Y-116937380D01*
X134794761Y-116985000D01*
X133985238Y-117889761D02*
X134080476Y-117937380D01*
X134270952Y-117937380D01*
X134366190Y-117889761D01*
X134413809Y-117794523D01*
X134413809Y-117413571D01*
X134366190Y-117318333D01*
X134270952Y-117270714D01*
X134080476Y-117270714D01*
X133985238Y-117318333D01*
X133937619Y-117413571D01*
X133937619Y-117508809D01*
X134413809Y-117604047D01*
X133509047Y-117937380D02*
X133509047Y-117270714D01*
X133509047Y-117461190D02*
X133461428Y-117365952D01*
X133413809Y-117318333D01*
X133318571Y-117270714D01*
X133223333Y-117270714D01*
X132890000Y-117937380D02*
X132890000Y-117270714D01*
X132890000Y-116937380D02*
X132937619Y-116985000D01*
X132890000Y-117032619D01*
X132842380Y-116985000D01*
X132890000Y-116937380D01*
X132890000Y-117032619D01*
X131985238Y-117937380D02*
X131985238Y-117413571D01*
X132032857Y-117318333D01*
X132128095Y-117270714D01*
X132318571Y-117270714D01*
X132413809Y-117318333D01*
X131985238Y-117889761D02*
X132080476Y-117937380D01*
X132318571Y-117937380D01*
X132413809Y-117889761D01*
X132461428Y-117794523D01*
X132461428Y-117699285D01*
X132413809Y-117604047D01*
X132318571Y-117556428D01*
X132080476Y-117556428D01*
X131985238Y-117508809D01*
X131366190Y-117937380D02*
X131461428Y-117889761D01*
X131509047Y-117794523D01*
X131509047Y-116937380D01*
X125887142Y-92997142D02*
X125453809Y-92997142D01*
X125268095Y-93678095D02*
X125887142Y-93678095D01*
X125887142Y-92378095D01*
X125268095Y-92378095D01*
X124772857Y-93616190D02*
X124587142Y-93678095D01*
X124277619Y-93678095D01*
X124153809Y-93616190D01*
X124091904Y-93554285D01*
X124030000Y-93430476D01*
X124030000Y-93306666D01*
X124091904Y-93182857D01*
X124153809Y-93120952D01*
X124277619Y-93059047D01*
X124525238Y-92997142D01*
X124649047Y-92935238D01*
X124710952Y-92873333D01*
X124772857Y-92749523D01*
X124772857Y-92625714D01*
X124710952Y-92501904D01*
X124649047Y-92440000D01*
X124525238Y-92378095D01*
X124215714Y-92378095D01*
X124030000Y-92440000D01*
X123472857Y-93678095D02*
X123472857Y-92378095D01*
X122977619Y-92378095D01*
X122853809Y-92440000D01*
X122791904Y-92501904D01*
X122730000Y-92625714D01*
X122730000Y-92811428D01*
X122791904Y-92935238D01*
X122853809Y-92997142D01*
X122977619Y-93059047D01*
X123472857Y-93059047D01*
X122296666Y-92378095D02*
X121491904Y-92378095D01*
X121925238Y-92873333D01*
X121739523Y-92873333D01*
X121615714Y-92935238D01*
X121553809Y-92997142D01*
X121491904Y-93120952D01*
X121491904Y-93430476D01*
X121553809Y-93554285D01*
X121615714Y-93616190D01*
X121739523Y-93678095D01*
X122110952Y-93678095D01*
X122234761Y-93616190D01*
X122296666Y-93554285D01*
X120996666Y-92501904D02*
X120934761Y-92440000D01*
X120810952Y-92378095D01*
X120501428Y-92378095D01*
X120377619Y-92440000D01*
X120315714Y-92501904D01*
X120253809Y-92625714D01*
X120253809Y-92749523D01*
X120315714Y-92935238D01*
X121058571Y-93678095D01*
X120253809Y-93678095D01*
X118149047Y-93678095D02*
X118149047Y-92378095D01*
X118149047Y-93616190D02*
X118272857Y-93678095D01*
X118520476Y-93678095D01*
X118644285Y-93616190D01*
X118706190Y-93554285D01*
X118768095Y-93430476D01*
X118768095Y-93059047D01*
X118706190Y-92935238D01*
X118644285Y-92873333D01*
X118520476Y-92811428D01*
X118272857Y-92811428D01*
X118149047Y-92873333D01*
X117530000Y-93678095D02*
X117530000Y-92811428D01*
X117530000Y-92378095D02*
X117591904Y-92440000D01*
X117530000Y-92501904D01*
X117468095Y-92440000D01*
X117530000Y-92378095D01*
X117530000Y-92501904D01*
X117034761Y-92811428D02*
X116725238Y-93678095D01*
X116415714Y-92811428D02*
X116725238Y-93678095D01*
X116849047Y-93987619D01*
X116910952Y-94049523D01*
X117034761Y-94111428D01*
X115487142Y-92997142D02*
X115301428Y-93059047D01*
X115239523Y-93120952D01*
X115177619Y-93244761D01*
X115177619Y-93430476D01*
X115239523Y-93554285D01*
X115301428Y-93616190D01*
X115425238Y-93678095D01*
X115920476Y-93678095D01*
X115920476Y-92378095D01*
X115487142Y-92378095D01*
X115363333Y-92440000D01*
X115301428Y-92501904D01*
X115239523Y-92625714D01*
X115239523Y-92749523D01*
X115301428Y-92873333D01*
X115363333Y-92935238D01*
X115487142Y-92997142D01*
X115920476Y-92997142D01*
X114620476Y-93678095D02*
X114620476Y-92378095D01*
X114187142Y-93306666D01*
X113753809Y-92378095D01*
X113753809Y-93678095D01*
X113196666Y-93616190D02*
X113010952Y-93678095D01*
X112701428Y-93678095D01*
X112577619Y-93616190D01*
X112515714Y-93554285D01*
X112453809Y-93430476D01*
X112453809Y-93306666D01*
X112515714Y-93182857D01*
X112577619Y-93120952D01*
X112701428Y-93059047D01*
X112949047Y-92997142D01*
X113072857Y-92935238D01*
X113134761Y-92873333D01*
X113196666Y-92749523D01*
X113196666Y-92625714D01*
X113134761Y-92501904D01*
X113072857Y-92440000D01*
X112949047Y-92378095D01*
X112639523Y-92378095D01*
X112453809Y-92440000D01*
X110163333Y-93554285D02*
X110225238Y-93616190D01*
X110410952Y-93678095D01*
X110534761Y-93678095D01*
X110720476Y-93616190D01*
X110844285Y-93492380D01*
X110906190Y-93368571D01*
X110968095Y-93120952D01*
X110968095Y-92935238D01*
X110906190Y-92687619D01*
X110844285Y-92563809D01*
X110720476Y-92440000D01*
X110534761Y-92378095D01*
X110410952Y-92378095D01*
X110225238Y-92440000D01*
X110163333Y-92501904D01*
X109420476Y-93678095D02*
X109544285Y-93616190D01*
X109606190Y-93554285D01*
X109668095Y-93430476D01*
X109668095Y-93059047D01*
X109606190Y-92935238D01*
X109544285Y-92873333D01*
X109420476Y-92811428D01*
X109234761Y-92811428D01*
X109110952Y-92873333D01*
X109049047Y-92935238D01*
X108987142Y-93059047D01*
X108987142Y-93430476D01*
X109049047Y-93554285D01*
X109110952Y-93616190D01*
X109234761Y-93678095D01*
X109420476Y-93678095D01*
X108429999Y-92811428D02*
X108429999Y-93678095D01*
X108429999Y-92935238D02*
X108368095Y-92873333D01*
X108244285Y-92811428D01*
X108058571Y-92811428D01*
X107934761Y-92873333D01*
X107872857Y-92997142D01*
X107872857Y-93678095D01*
X107439523Y-92811428D02*
X106944285Y-92811428D01*
X107253809Y-92378095D02*
X107253809Y-93492380D01*
X107191904Y-93616190D01*
X107068095Y-93678095D01*
X106944285Y-93678095D01*
X106510952Y-93678095D02*
X106510952Y-92811428D01*
X106510952Y-93059047D02*
X106449047Y-92935238D01*
X106387142Y-92873333D01*
X106263333Y-92811428D01*
X106139523Y-92811428D01*
X105520476Y-93678095D02*
X105644285Y-93616190D01*
X105706190Y-93554285D01*
X105768095Y-93430476D01*
X105768095Y-93059047D01*
X105706190Y-92935238D01*
X105644285Y-92873333D01*
X105520476Y-92811428D01*
X105334761Y-92811428D01*
X105210952Y-92873333D01*
X105149047Y-92935238D01*
X105087142Y-93059047D01*
X105087142Y-93430476D01*
X105149047Y-93554285D01*
X105210952Y-93616190D01*
X105334761Y-93678095D01*
X105520476Y-93678095D01*
X104344285Y-93678095D02*
X104468095Y-93616190D01*
X104529999Y-93492380D01*
X104529999Y-92378095D01*
X103663333Y-93678095D02*
X103787142Y-93616190D01*
X103849047Y-93492380D01*
X103849047Y-92378095D01*
X102672857Y-93616190D02*
X102796666Y-93678095D01*
X103044285Y-93678095D01*
X103168095Y-93616190D01*
X103229999Y-93492380D01*
X103229999Y-92997142D01*
X103168095Y-92873333D01*
X103044285Y-92811428D01*
X102796666Y-92811428D01*
X102672857Y-92873333D01*
X102610952Y-92997142D01*
X102610952Y-93120952D01*
X103229999Y-93244761D01*
X102053809Y-93678095D02*
X102053809Y-92811428D01*
X102053809Y-93059047D02*
X101991904Y-92935238D01*
X101929999Y-92873333D01*
X101806190Y-92811428D01*
X101682380Y-92811428D01*
X100382380Y-92811428D02*
X100072857Y-93678095D01*
X99763333Y-92811428D01*
X98772857Y-93616190D02*
X98896666Y-93678095D01*
X99144285Y-93678095D01*
X99268095Y-93616190D01*
X99329999Y-93492380D01*
X99329999Y-92997142D01*
X99268095Y-92873333D01*
X99144285Y-92811428D01*
X98896666Y-92811428D01*
X98772857Y-92873333D01*
X98710952Y-92997142D01*
X98710952Y-93120952D01*
X99329999Y-93244761D01*
X98153809Y-93678095D02*
X98153809Y-92811428D01*
X98153809Y-93059047D02*
X98091904Y-92935238D01*
X98029999Y-92873333D01*
X97906190Y-92811428D01*
X97782380Y-92811428D01*
X96668095Y-93678095D02*
X97410952Y-93678095D01*
X97039523Y-93678095D02*
X97039523Y-92378095D01*
X97163333Y-92563809D01*
X97287142Y-92687619D01*
X97410952Y-92749523D01*
X96110952Y-93554285D02*
X96049047Y-93616190D01*
X96110952Y-93678095D01*
X96172857Y-93616190D01*
X96110952Y-93554285D01*
X96110952Y-93678095D01*
X94810952Y-93678095D02*
X95553809Y-93678095D01*
X95182380Y-93678095D02*
X95182380Y-92378095D01*
X95306190Y-92563809D01*
X95429999Y-92687619D01*
X95553809Y-92749523D01*
X108899047Y-116338095D02*
X108899047Y-115038095D01*
X108589523Y-115038095D01*
X108403809Y-115100000D01*
X108280000Y-115223809D01*
X108218095Y-115347619D01*
X108156190Y-115595238D01*
X108156190Y-115780952D01*
X108218095Y-116028571D01*
X108280000Y-116152380D01*
X108403809Y-116276190D01*
X108589523Y-116338095D01*
X108899047Y-116338095D01*
X107103809Y-116276190D02*
X107227619Y-116338095D01*
X107475238Y-116338095D01*
X107599047Y-116276190D01*
X107660952Y-116152380D01*
X107660952Y-115657142D01*
X107599047Y-115533333D01*
X107475238Y-115471428D01*
X107227619Y-115471428D01*
X107103809Y-115533333D01*
X107041904Y-115657142D01*
X107041904Y-115780952D01*
X107660952Y-115904761D01*
X106484761Y-116338095D02*
X106484761Y-115471428D01*
X106484761Y-115719047D02*
X106422857Y-115595238D01*
X106360952Y-115533333D01*
X106237142Y-115471428D01*
X106113333Y-115471428D01*
X105184761Y-116276190D02*
X105308571Y-116338095D01*
X105556190Y-116338095D01*
X105680000Y-116276190D01*
X105741904Y-116152380D01*
X105741904Y-115657142D01*
X105680000Y-115533333D01*
X105556190Y-115471428D01*
X105308571Y-115471428D01*
X105184761Y-115533333D01*
X105122857Y-115657142D01*
X105122857Y-115780952D01*
X105741904Y-115904761D01*
X104565714Y-116338095D02*
X104565714Y-115038095D01*
X104441904Y-115842857D02*
X104070476Y-116338095D01*
X104070476Y-115471428D02*
X104565714Y-115966666D01*
X102151428Y-115038095D02*
X102151428Y-115966666D01*
X102213333Y-116152380D01*
X102337142Y-116276190D01*
X102522857Y-116338095D01*
X102646666Y-116338095D01*
X101037142Y-116276190D02*
X101160952Y-116338095D01*
X101408571Y-116338095D01*
X101532380Y-116276190D01*
X101594285Y-116152380D01*
X101594285Y-115657142D01*
X101532380Y-115533333D01*
X101408571Y-115471428D01*
X101160952Y-115471428D01*
X101037142Y-115533333D01*
X100975238Y-115657142D01*
X100975238Y-115780952D01*
X101594285Y-115904761D01*
X100418095Y-115471428D02*
X100418095Y-116338095D01*
X100418095Y-115595238D02*
X100356190Y-115533333D01*
X100232380Y-115471428D01*
X100046666Y-115471428D01*
X99922857Y-115533333D01*
X99860952Y-115657142D01*
X99860952Y-116338095D01*
X99241904Y-115471428D02*
X99241904Y-116338095D01*
X99241904Y-115595238D02*
X99180000Y-115533333D01*
X99056190Y-115471428D01*
X98870476Y-115471428D01*
X98746666Y-115533333D01*
X98684761Y-115657142D01*
X98684761Y-116338095D01*
X98065714Y-116338095D02*
X98065714Y-115471428D01*
X98065714Y-115038095D02*
X98127619Y-115100000D01*
X98065714Y-115161904D01*
X98003809Y-115100000D01*
X98065714Y-115038095D01*
X98065714Y-115161904D01*
X97446666Y-115471428D02*
X97446666Y-116338095D01*
X97446666Y-115595238D02*
X97384761Y-115533333D01*
X97260952Y-115471428D01*
X97075238Y-115471428D01*
X96951428Y-115533333D01*
X96889523Y-115657142D01*
X96889523Y-116338095D01*
X95713333Y-115471428D02*
X95713333Y-116523809D01*
X95775238Y-116647619D01*
X95837142Y-116709523D01*
X95960952Y-116771428D01*
X96146666Y-116771428D01*
X96270476Y-116709523D01*
X95713333Y-116276190D02*
X95837142Y-116338095D01*
X96084761Y-116338095D01*
X96208571Y-116276190D01*
X96270476Y-116214285D01*
X96332380Y-116090476D01*
X96332380Y-115719047D01*
X96270476Y-115595238D01*
X96208571Y-115533333D01*
X96084761Y-115471428D01*
X95837142Y-115471428D01*
X95713333Y-115533333D01*
X95156190Y-116276190D02*
X95032380Y-116338095D01*
X94784761Y-116338095D01*
X94660952Y-116276190D01*
X94599047Y-116152380D01*
X94599047Y-116090476D01*
X94660952Y-115966666D01*
X94784761Y-115904761D01*
X94970476Y-115904761D01*
X95094285Y-115842857D01*
X95156190Y-115719047D01*
X95156190Y-115657142D01*
X95094285Y-115533333D01*
X94970476Y-115471428D01*
X94784761Y-115471428D01*
X94660952Y-115533333D01*
X109256190Y-118348095D02*
X109256190Y-117048095D01*
X108946666Y-117048095D01*
X108760952Y-117110000D01*
X108637142Y-117233809D01*
X108575238Y-117357619D01*
X108513333Y-117605238D01*
X108513333Y-117790952D01*
X108575238Y-118038571D01*
X108637142Y-118162380D01*
X108760952Y-118286190D01*
X108946666Y-118348095D01*
X109256190Y-118348095D01*
X107460952Y-118286190D02*
X107584761Y-118348095D01*
X107832380Y-118348095D01*
X107956190Y-118286190D01*
X108018095Y-118162380D01*
X108018095Y-117667142D01*
X107956190Y-117543333D01*
X107832380Y-117481428D01*
X107584761Y-117481428D01*
X107460952Y-117543333D01*
X107399047Y-117667142D01*
X107399047Y-117790952D01*
X108018095Y-117914761D01*
X106284761Y-118286190D02*
X106408571Y-118348095D01*
X106656190Y-118348095D01*
X106780000Y-118286190D01*
X106841904Y-118224285D01*
X106903809Y-118100476D01*
X106903809Y-117729047D01*
X106841904Y-117605238D01*
X106780000Y-117543333D01*
X106656190Y-117481428D01*
X106408571Y-117481428D01*
X106284761Y-117543333D01*
X104799047Y-117171904D02*
X104737142Y-117110000D01*
X104613333Y-117048095D01*
X104303809Y-117048095D01*
X104180000Y-117110000D01*
X104118095Y-117171904D01*
X104056190Y-117295714D01*
X104056190Y-117419523D01*
X104118095Y-117605238D01*
X104860952Y-118348095D01*
X104056190Y-118348095D01*
X103251428Y-117048095D02*
X103127619Y-117048095D01*
X103003809Y-117110000D01*
X102941904Y-117171904D01*
X102880000Y-117295714D01*
X102818095Y-117543333D01*
X102818095Y-117852857D01*
X102880000Y-118100476D01*
X102941904Y-118224285D01*
X103003809Y-118286190D01*
X103127619Y-118348095D01*
X103251428Y-118348095D01*
X103375238Y-118286190D01*
X103437142Y-118224285D01*
X103499047Y-118100476D01*
X103560952Y-117852857D01*
X103560952Y-117543333D01*
X103499047Y-117295714D01*
X103437142Y-117171904D01*
X103375238Y-117110000D01*
X103251428Y-117048095D01*
X101580000Y-118348095D02*
X102322857Y-118348095D01*
X101951428Y-118348095D02*
X101951428Y-117048095D01*
X102075238Y-117233809D01*
X102199047Y-117357619D01*
X102322857Y-117419523D01*
X100960952Y-118348095D02*
X100713333Y-118348095D01*
X100589523Y-118286190D01*
X100527619Y-118224285D01*
X100403809Y-118038571D01*
X100341904Y-117790952D01*
X100341904Y-117295714D01*
X100403809Y-117171904D01*
X100465714Y-117110000D01*
X100589523Y-117048095D01*
X100837142Y-117048095D01*
X100960952Y-117110000D01*
X101022857Y-117171904D01*
X101084761Y-117295714D01*
X101084761Y-117605238D01*
X101022857Y-117729047D01*
X100960952Y-117790952D01*
X100837142Y-117852857D01*
X100589523Y-117852857D01*
X100465714Y-117790952D01*
X100403809Y-117729047D01*
X100341904Y-117605238D01*
M02*
