G04 #@! TF.GenerationSoftware,KiCad,Pcbnew,5.1.5*
G04 #@! TF.CreationDate,2019-12-19T21:21:47+00:00*
G04 #@! TF.ProjectId,ESP32ControllerCircuit,45535033-3243-46f6-9e74-726f6c6c6572,rev?*
G04 #@! TF.SameCoordinates,Original*
G04 #@! TF.FileFunction,Soldermask,Top*
G04 #@! TF.FilePolarity,Negative*
%FSLAX46Y46*%
G04 Gerber Fmt 4.6, Leading zero omitted, Abs format (unit mm)*
G04 Created by KiCad (PCBNEW 5.1.5) date 2019-12-19 21:21:47*
%MOMM*%
%LPD*%
G04 APERTURE LIST*
%ADD10C,0.100000*%
G04 APERTURE END LIST*
D10*
G36*
X76375256Y-126891298D02*
G01*
X76481579Y-126912447D01*
X76782042Y-127036903D01*
X77052451Y-127217585D01*
X77282415Y-127447549D01*
X77463097Y-127717958D01*
X77587553Y-128018421D01*
X77651000Y-128337391D01*
X77651000Y-128662609D01*
X77587553Y-128981579D01*
X77463097Y-129282042D01*
X77282415Y-129552451D01*
X77052451Y-129782415D01*
X76782042Y-129963097D01*
X76481579Y-130087553D01*
X76375256Y-130108702D01*
X76162611Y-130151000D01*
X75837389Y-130151000D01*
X75624744Y-130108702D01*
X75518421Y-130087553D01*
X75217958Y-129963097D01*
X74947549Y-129782415D01*
X74717585Y-129552451D01*
X74536903Y-129282042D01*
X74412447Y-128981579D01*
X74349000Y-128662609D01*
X74349000Y-128337391D01*
X74412447Y-128018421D01*
X74536903Y-127717958D01*
X74717585Y-127447549D01*
X74947549Y-127217585D01*
X75217958Y-127036903D01*
X75518421Y-126912447D01*
X75624744Y-126891298D01*
X75837389Y-126849000D01*
X76162611Y-126849000D01*
X76375256Y-126891298D01*
G37*
G36*
X105113512Y-128143927D02*
G01*
X105262812Y-128173624D01*
X105426784Y-128241544D01*
X105574354Y-128340147D01*
X105699853Y-128465646D01*
X105798456Y-128613216D01*
X105866376Y-128777188D01*
X105901000Y-128951259D01*
X105901000Y-129128741D01*
X105866376Y-129302812D01*
X105798456Y-129466784D01*
X105699853Y-129614354D01*
X105574354Y-129739853D01*
X105426784Y-129838456D01*
X105262812Y-129906376D01*
X105113512Y-129936073D01*
X105088742Y-129941000D01*
X104911258Y-129941000D01*
X104886488Y-129936073D01*
X104737188Y-129906376D01*
X104573216Y-129838456D01*
X104425646Y-129739853D01*
X104300147Y-129614354D01*
X104201544Y-129466784D01*
X104133624Y-129302812D01*
X104099000Y-129128741D01*
X104099000Y-128951259D01*
X104133624Y-128777188D01*
X104201544Y-128613216D01*
X104300147Y-128465646D01*
X104425646Y-128340147D01*
X104573216Y-128241544D01*
X104737188Y-128173624D01*
X104886488Y-128143927D01*
X104911258Y-128139000D01*
X105088742Y-128139000D01*
X105113512Y-128143927D01*
G37*
G36*
X116301000Y-129601000D02*
G01*
X113849000Y-129601000D01*
X113849000Y-124399000D01*
X116301000Y-124399000D01*
X116301000Y-129601000D01*
G37*
G36*
X112151000Y-129601000D02*
G01*
X109699000Y-129601000D01*
X109699000Y-124399000D01*
X112151000Y-124399000D01*
X112151000Y-129601000D01*
G37*
G36*
X97851000Y-128351000D02*
G01*
X96149000Y-128351000D01*
X96149000Y-126649000D01*
X97851000Y-126649000D01*
X97851000Y-128351000D01*
G37*
G36*
X99748228Y-126681703D02*
G01*
X99903100Y-126745853D01*
X100042481Y-126838985D01*
X100161015Y-126957519D01*
X100254147Y-127096900D01*
X100318297Y-127251772D01*
X100351000Y-127416184D01*
X100351000Y-127583816D01*
X100318297Y-127748228D01*
X100254147Y-127903100D01*
X100161015Y-128042481D01*
X100042481Y-128161015D01*
X99903100Y-128254147D01*
X99748228Y-128318297D01*
X99583816Y-128351000D01*
X99416184Y-128351000D01*
X99251772Y-128318297D01*
X99096900Y-128254147D01*
X98957519Y-128161015D01*
X98838985Y-128042481D01*
X98745853Y-127903100D01*
X98681703Y-127748228D01*
X98649000Y-127583816D01*
X98649000Y-127416184D01*
X98681703Y-127251772D01*
X98745853Y-127096900D01*
X98838985Y-126957519D01*
X98957519Y-126838985D01*
X99096900Y-126745853D01*
X99251772Y-126681703D01*
X99416184Y-126649000D01*
X99583816Y-126649000D01*
X99748228Y-126681703D01*
G37*
G36*
X122151000Y-127701000D02*
G01*
X119549000Y-127701000D01*
X119549000Y-125299000D01*
X122151000Y-125299000D01*
X122151000Y-127701000D01*
G37*
G36*
X126451000Y-127701000D02*
G01*
X123849000Y-127701000D01*
X123849000Y-125299000D01*
X126451000Y-125299000D01*
X126451000Y-127701000D01*
G37*
G36*
X90127617Y-125583420D02*
G01*
X90208399Y-125607925D01*
X90250335Y-125620646D01*
X90363424Y-125681094D01*
X90462554Y-125762447D01*
X90543906Y-125861575D01*
X90604354Y-125974664D01*
X90614040Y-126006596D01*
X90641580Y-126097382D01*
X90651000Y-126193027D01*
X90651000Y-126806973D01*
X90641580Y-126902618D01*
X90614040Y-126993404D01*
X90604354Y-127025336D01*
X90543906Y-127138425D01*
X90462554Y-127237554D01*
X90363425Y-127318906D01*
X90250336Y-127379354D01*
X90218404Y-127389040D01*
X90127618Y-127416580D01*
X90000000Y-127429149D01*
X89872383Y-127416580D01*
X89781597Y-127389040D01*
X89749665Y-127379354D01*
X89636576Y-127318906D01*
X89537447Y-127237554D01*
X89456096Y-127138427D01*
X89456095Y-127138425D01*
X89427957Y-127085783D01*
X89395645Y-127025333D01*
X89383237Y-126984427D01*
X89358420Y-126902618D01*
X89349000Y-126806973D01*
X89349000Y-126193028D01*
X89358420Y-126097383D01*
X89395645Y-125974669D01*
X89395646Y-125974665D01*
X89456094Y-125861576D01*
X89537447Y-125762446D01*
X89636575Y-125681094D01*
X89749664Y-125620646D01*
X89791600Y-125607925D01*
X89872382Y-125583420D01*
X90000000Y-125570851D01*
X90127617Y-125583420D01*
G37*
G36*
X88127617Y-125583420D02*
G01*
X88208399Y-125607925D01*
X88250335Y-125620646D01*
X88363424Y-125681094D01*
X88462554Y-125762447D01*
X88543906Y-125861575D01*
X88604354Y-125974664D01*
X88614040Y-126006596D01*
X88641580Y-126097382D01*
X88651000Y-126193027D01*
X88651000Y-126806973D01*
X88641580Y-126902618D01*
X88614040Y-126993404D01*
X88604354Y-127025336D01*
X88543906Y-127138425D01*
X88462554Y-127237554D01*
X88363425Y-127318906D01*
X88250336Y-127379354D01*
X88218404Y-127389040D01*
X88127618Y-127416580D01*
X88000000Y-127429149D01*
X87872383Y-127416580D01*
X87781597Y-127389040D01*
X87749665Y-127379354D01*
X87636576Y-127318906D01*
X87537447Y-127237554D01*
X87456096Y-127138427D01*
X87456095Y-127138425D01*
X87427957Y-127085783D01*
X87395645Y-127025333D01*
X87383237Y-126984427D01*
X87358420Y-126902618D01*
X87349000Y-126806973D01*
X87349000Y-126193028D01*
X87358420Y-126097383D01*
X87395645Y-125974669D01*
X87395646Y-125974665D01*
X87456094Y-125861576D01*
X87537447Y-125762446D01*
X87636575Y-125681094D01*
X87749664Y-125620646D01*
X87791600Y-125607925D01*
X87872382Y-125583420D01*
X88000000Y-125570851D01*
X88127617Y-125583420D01*
G37*
G36*
X86127617Y-125583420D02*
G01*
X86208399Y-125607925D01*
X86250335Y-125620646D01*
X86363424Y-125681094D01*
X86462554Y-125762447D01*
X86543906Y-125861575D01*
X86604354Y-125974664D01*
X86614040Y-126006596D01*
X86641580Y-126097382D01*
X86651000Y-126193027D01*
X86651000Y-126806973D01*
X86641580Y-126902618D01*
X86614040Y-126993404D01*
X86604354Y-127025336D01*
X86543906Y-127138425D01*
X86462554Y-127237554D01*
X86363425Y-127318906D01*
X86250336Y-127379354D01*
X86218404Y-127389040D01*
X86127618Y-127416580D01*
X86000000Y-127429149D01*
X85872383Y-127416580D01*
X85781597Y-127389040D01*
X85749665Y-127379354D01*
X85636576Y-127318906D01*
X85537447Y-127237554D01*
X85456096Y-127138427D01*
X85456095Y-127138425D01*
X85427957Y-127085783D01*
X85395645Y-127025333D01*
X85383237Y-126984427D01*
X85358420Y-126902618D01*
X85349000Y-126806973D01*
X85349000Y-126193028D01*
X85358420Y-126097383D01*
X85395645Y-125974669D01*
X85395646Y-125974665D01*
X85456094Y-125861576D01*
X85537447Y-125762446D01*
X85636575Y-125681094D01*
X85749664Y-125620646D01*
X85791600Y-125607925D01*
X85872382Y-125583420D01*
X86000000Y-125570851D01*
X86127617Y-125583420D01*
G37*
G36*
X84491242Y-125578404D02*
G01*
X84528337Y-125589657D01*
X84562515Y-125607925D01*
X84592481Y-125632519D01*
X84617075Y-125662485D01*
X84635343Y-125696663D01*
X84646596Y-125733758D01*
X84651000Y-125778474D01*
X84651000Y-127221526D01*
X84646596Y-127266242D01*
X84635343Y-127303337D01*
X84617075Y-127337515D01*
X84592481Y-127367481D01*
X84562515Y-127392075D01*
X84528337Y-127410343D01*
X84491242Y-127421596D01*
X84446526Y-127426000D01*
X83553474Y-127426000D01*
X83508758Y-127421596D01*
X83471663Y-127410343D01*
X83437485Y-127392075D01*
X83407519Y-127367481D01*
X83382925Y-127337515D01*
X83364657Y-127303337D01*
X83353404Y-127266242D01*
X83349000Y-127221526D01*
X83349000Y-125778474D01*
X83353404Y-125733758D01*
X83364657Y-125696663D01*
X83382925Y-125662485D01*
X83407519Y-125632519D01*
X83437485Y-125607925D01*
X83471663Y-125589657D01*
X83508758Y-125578404D01*
X83553474Y-125574000D01*
X84446526Y-125574000D01*
X84491242Y-125578404D01*
G37*
G36*
X105901000Y-127401000D02*
G01*
X104099000Y-127401000D01*
X104099000Y-125599000D01*
X105901000Y-125599000D01*
X105901000Y-127401000D01*
G37*
G36*
X84428131Y-118727523D02*
G01*
X84456628Y-118736167D01*
X84482889Y-118750204D01*
X84505906Y-118769094D01*
X84524796Y-118792111D01*
X84538833Y-118818372D01*
X84547477Y-118846869D01*
X84551000Y-118882640D01*
X84551000Y-123117360D01*
X84547477Y-123153131D01*
X84538833Y-123181628D01*
X84524796Y-123207889D01*
X84505906Y-123230906D01*
X84482889Y-123249796D01*
X84456628Y-123263833D01*
X84428131Y-123272477D01*
X84392360Y-123276000D01*
X81407640Y-123276000D01*
X81371869Y-123272477D01*
X81343372Y-123263833D01*
X81317111Y-123249796D01*
X81294094Y-123230906D01*
X81275204Y-123207889D01*
X81261167Y-123181628D01*
X81252523Y-123153131D01*
X81249000Y-123117360D01*
X81249000Y-118882640D01*
X81252523Y-118846869D01*
X81261167Y-118818372D01*
X81275204Y-118792111D01*
X81294094Y-118769094D01*
X81317111Y-118750204D01*
X81343372Y-118736167D01*
X81371869Y-118727523D01*
X81407640Y-118724000D01*
X84392360Y-118724000D01*
X84428131Y-118727523D01*
G37*
G36*
X89628131Y-118727523D02*
G01*
X89656628Y-118736167D01*
X89682889Y-118750204D01*
X89705906Y-118769094D01*
X89724796Y-118792111D01*
X89738833Y-118818372D01*
X89747477Y-118846869D01*
X89751000Y-118882640D01*
X89751000Y-123117360D01*
X89747477Y-123153131D01*
X89738833Y-123181628D01*
X89724796Y-123207889D01*
X89705906Y-123230906D01*
X89682889Y-123249796D01*
X89656628Y-123263833D01*
X89628131Y-123272477D01*
X89592360Y-123276000D01*
X86607640Y-123276000D01*
X86571869Y-123272477D01*
X86543372Y-123263833D01*
X86517111Y-123249796D01*
X86494094Y-123230906D01*
X86475204Y-123207889D01*
X86461167Y-123181628D01*
X86452523Y-123153131D01*
X86449000Y-123117360D01*
X86449000Y-118882640D01*
X86452523Y-118846869D01*
X86461167Y-118818372D01*
X86475204Y-118792111D01*
X86494094Y-118769094D01*
X86517111Y-118750204D01*
X86543372Y-118736167D01*
X86571869Y-118727523D01*
X86607640Y-118724000D01*
X89592360Y-118724000D01*
X89628131Y-118727523D01*
G37*
G36*
X122275562Y-120728181D02*
G01*
X122310481Y-120738774D01*
X122342663Y-120755976D01*
X122370873Y-120779127D01*
X122394024Y-120807337D01*
X122411226Y-120839519D01*
X122421819Y-120874438D01*
X122426000Y-120916895D01*
X122426000Y-122058105D01*
X122421819Y-122100562D01*
X122411226Y-122135481D01*
X122394024Y-122167663D01*
X122370873Y-122195873D01*
X122342663Y-122219024D01*
X122310481Y-122236226D01*
X122275562Y-122246819D01*
X122233105Y-122251000D01*
X120766895Y-122251000D01*
X120724438Y-122246819D01*
X120689519Y-122236226D01*
X120657337Y-122219024D01*
X120629127Y-122195873D01*
X120605976Y-122167663D01*
X120588774Y-122135481D01*
X120578181Y-122100562D01*
X120574000Y-122058105D01*
X120574000Y-120916895D01*
X120578181Y-120874438D01*
X120588774Y-120839519D01*
X120605976Y-120807337D01*
X120629127Y-120779127D01*
X120657337Y-120755976D01*
X120689519Y-120738774D01*
X120724438Y-120728181D01*
X120766895Y-120724000D01*
X122233105Y-120724000D01*
X122275562Y-120728181D01*
G37*
G36*
X132556242Y-120803404D02*
G01*
X132593337Y-120814657D01*
X132627515Y-120832925D01*
X132657481Y-120857519D01*
X132682075Y-120887485D01*
X132700343Y-120921663D01*
X132711596Y-120958758D01*
X132716000Y-121003474D01*
X132716000Y-121896526D01*
X132711596Y-121941242D01*
X132700343Y-121978337D01*
X132682075Y-122012515D01*
X132657481Y-122042481D01*
X132627515Y-122067075D01*
X132593337Y-122085343D01*
X132556242Y-122096596D01*
X132511526Y-122101000D01*
X131068474Y-122101000D01*
X131023758Y-122096596D01*
X130986663Y-122085343D01*
X130952485Y-122067075D01*
X130922519Y-122042481D01*
X130897925Y-122012515D01*
X130879657Y-121978337D01*
X130868404Y-121941242D01*
X130864000Y-121896526D01*
X130864000Y-121003474D01*
X130868404Y-120958758D01*
X130879657Y-120921663D01*
X130897925Y-120887485D01*
X130922519Y-120857519D01*
X130952485Y-120832925D01*
X130986663Y-120814657D01*
X131023758Y-120803404D01*
X131068474Y-120799000D01*
X132511526Y-120799000D01*
X132556242Y-120803404D01*
G37*
G36*
X96100562Y-120078181D02*
G01*
X96135481Y-120088774D01*
X96167663Y-120105976D01*
X96195873Y-120129127D01*
X96219024Y-120157337D01*
X96236226Y-120189519D01*
X96246819Y-120224438D01*
X96251000Y-120266895D01*
X96251000Y-121733105D01*
X96246819Y-121775562D01*
X96236226Y-121810481D01*
X96219024Y-121842663D01*
X96195873Y-121870873D01*
X96167663Y-121894024D01*
X96135481Y-121911226D01*
X96100562Y-121921819D01*
X96058105Y-121926000D01*
X94916895Y-121926000D01*
X94874438Y-121921819D01*
X94839519Y-121911226D01*
X94807337Y-121894024D01*
X94779127Y-121870873D01*
X94755976Y-121842663D01*
X94738774Y-121810481D01*
X94728181Y-121775562D01*
X94724000Y-121733105D01*
X94724000Y-120266895D01*
X94728181Y-120224438D01*
X94738774Y-120189519D01*
X94755976Y-120157337D01*
X94779127Y-120129127D01*
X94807337Y-120105976D01*
X94839519Y-120088774D01*
X94874438Y-120078181D01*
X94916895Y-120074000D01*
X96058105Y-120074000D01*
X96100562Y-120078181D01*
G37*
G36*
X93125562Y-120078181D02*
G01*
X93160481Y-120088774D01*
X93192663Y-120105976D01*
X93220873Y-120129127D01*
X93244024Y-120157337D01*
X93261226Y-120189519D01*
X93271819Y-120224438D01*
X93276000Y-120266895D01*
X93276000Y-121733105D01*
X93271819Y-121775562D01*
X93261226Y-121810481D01*
X93244024Y-121842663D01*
X93220873Y-121870873D01*
X93192663Y-121894024D01*
X93160481Y-121911226D01*
X93125562Y-121921819D01*
X93083105Y-121926000D01*
X91941895Y-121926000D01*
X91899438Y-121921819D01*
X91864519Y-121911226D01*
X91832337Y-121894024D01*
X91804127Y-121870873D01*
X91780976Y-121842663D01*
X91763774Y-121810481D01*
X91753181Y-121775562D01*
X91749000Y-121733105D01*
X91749000Y-120266895D01*
X91753181Y-120224438D01*
X91763774Y-120189519D01*
X91780976Y-120157337D01*
X91804127Y-120129127D01*
X91832337Y-120105976D01*
X91864519Y-120088774D01*
X91899438Y-120078181D01*
X91941895Y-120074000D01*
X93083105Y-120074000D01*
X93125562Y-120078181D01*
G37*
G36*
X111126000Y-121756000D02*
G01*
X109474000Y-121756000D01*
X109474000Y-121054000D01*
X111126000Y-121054000D01*
X111126000Y-121756000D01*
G37*
G36*
X116526000Y-121756000D02*
G01*
X114874000Y-121756000D01*
X114874000Y-121054000D01*
X116526000Y-121054000D01*
X116526000Y-121756000D01*
G37*
G36*
X128775562Y-120228181D02*
G01*
X128810481Y-120238774D01*
X128842663Y-120255976D01*
X128870873Y-120279127D01*
X128894024Y-120307337D01*
X128911226Y-120339519D01*
X128921819Y-120374438D01*
X128926000Y-120416895D01*
X128926000Y-121558105D01*
X128921819Y-121600562D01*
X128911226Y-121635481D01*
X128894024Y-121667663D01*
X128870873Y-121695873D01*
X128842663Y-121719024D01*
X128810481Y-121736226D01*
X128775562Y-121746819D01*
X128733105Y-121751000D01*
X127266895Y-121751000D01*
X127224438Y-121746819D01*
X127189519Y-121736226D01*
X127157337Y-121719024D01*
X127129127Y-121695873D01*
X127105976Y-121667663D01*
X127088774Y-121635481D01*
X127078181Y-121600562D01*
X127074000Y-121558105D01*
X127074000Y-120416895D01*
X127078181Y-120374438D01*
X127088774Y-120339519D01*
X127105976Y-120307337D01*
X127129127Y-120279127D01*
X127157337Y-120255976D01*
X127189519Y-120238774D01*
X127224438Y-120228181D01*
X127266895Y-120224000D01*
X128733105Y-120224000D01*
X128775562Y-120228181D01*
G37*
G36*
X106778048Y-119278122D02*
G01*
X106812387Y-119288539D01*
X106844036Y-119305456D01*
X106871778Y-119328222D01*
X106894544Y-119355964D01*
X106911461Y-119387613D01*
X106921878Y-119421952D01*
X106926000Y-119463807D01*
X106926000Y-121536193D01*
X106921878Y-121578048D01*
X106911461Y-121612387D01*
X106894544Y-121644036D01*
X106871778Y-121671778D01*
X106844036Y-121694544D01*
X106812387Y-121711461D01*
X106778048Y-121721878D01*
X106736193Y-121726000D01*
X105513807Y-121726000D01*
X105471952Y-121721878D01*
X105437613Y-121711461D01*
X105405964Y-121694544D01*
X105378222Y-121671778D01*
X105355456Y-121644036D01*
X105338539Y-121612387D01*
X105328122Y-121578048D01*
X105324000Y-121536193D01*
X105324000Y-119463807D01*
X105328122Y-119421952D01*
X105338539Y-119387613D01*
X105355456Y-119355964D01*
X105378222Y-119328222D01*
X105405964Y-119305456D01*
X105437613Y-119288539D01*
X105471952Y-119278122D01*
X105513807Y-119274000D01*
X106736193Y-119274000D01*
X106778048Y-119278122D01*
G37*
G36*
X103528048Y-119278122D02*
G01*
X103562387Y-119288539D01*
X103594036Y-119305456D01*
X103621778Y-119328222D01*
X103644544Y-119355964D01*
X103661461Y-119387613D01*
X103671878Y-119421952D01*
X103676000Y-119463807D01*
X103676000Y-121536193D01*
X103671878Y-121578048D01*
X103661461Y-121612387D01*
X103644544Y-121644036D01*
X103621778Y-121671778D01*
X103594036Y-121694544D01*
X103562387Y-121711461D01*
X103528048Y-121721878D01*
X103486193Y-121726000D01*
X102263807Y-121726000D01*
X102221952Y-121721878D01*
X102187613Y-121711461D01*
X102155964Y-121694544D01*
X102128222Y-121671778D01*
X102105456Y-121644036D01*
X102088539Y-121612387D01*
X102078122Y-121578048D01*
X102074000Y-121536193D01*
X102074000Y-119463807D01*
X102078122Y-119421952D01*
X102088539Y-119387613D01*
X102105456Y-119355964D01*
X102128222Y-119328222D01*
X102155964Y-119305456D01*
X102187613Y-119288539D01*
X102221952Y-119278122D01*
X102263807Y-119274000D01*
X103486193Y-119274000D01*
X103528048Y-119278122D01*
G37*
G36*
X116526000Y-120486000D02*
G01*
X114874000Y-120486000D01*
X114874000Y-119784000D01*
X116526000Y-119784000D01*
X116526000Y-120486000D01*
G37*
G36*
X111126000Y-120486000D02*
G01*
X109474000Y-120486000D01*
X109474000Y-119784000D01*
X111126000Y-119784000D01*
X111126000Y-120486000D01*
G37*
G36*
X132128855Y-118802140D02*
G01*
X132192618Y-118808420D01*
X132283404Y-118835960D01*
X132315336Y-118845646D01*
X132428425Y-118906094D01*
X132527554Y-118987446D01*
X132608906Y-119086575D01*
X132669354Y-119199664D01*
X132678815Y-119230852D01*
X132706580Y-119322382D01*
X132719149Y-119450000D01*
X132706580Y-119577618D01*
X132679040Y-119668404D01*
X132669354Y-119700336D01*
X132608906Y-119813425D01*
X132527554Y-119912554D01*
X132428425Y-119993906D01*
X132315336Y-120054354D01*
X132283404Y-120064040D01*
X132192618Y-120091580D01*
X132128855Y-120097860D01*
X132096974Y-120101000D01*
X131483026Y-120101000D01*
X131451145Y-120097860D01*
X131387382Y-120091580D01*
X131296596Y-120064040D01*
X131264664Y-120054354D01*
X131151575Y-119993906D01*
X131052446Y-119912554D01*
X130971094Y-119813425D01*
X130910646Y-119700336D01*
X130900960Y-119668404D01*
X130873420Y-119577618D01*
X130860851Y-119450000D01*
X130873420Y-119322382D01*
X130901185Y-119230852D01*
X130910646Y-119199664D01*
X130971094Y-119086575D01*
X131052446Y-118987446D01*
X131151575Y-118906094D01*
X131264664Y-118845646D01*
X131296596Y-118835960D01*
X131387382Y-118808420D01*
X131451145Y-118802140D01*
X131483026Y-118799000D01*
X132096974Y-118799000D01*
X132128855Y-118802140D01*
G37*
G36*
X122275562Y-117753181D02*
G01*
X122310481Y-117763774D01*
X122342663Y-117780976D01*
X122370873Y-117804127D01*
X122394024Y-117832337D01*
X122411226Y-117864519D01*
X122421819Y-117899438D01*
X122426000Y-117941895D01*
X122426000Y-119083105D01*
X122421819Y-119125562D01*
X122411226Y-119160481D01*
X122394024Y-119192663D01*
X122370873Y-119220873D01*
X122342663Y-119244024D01*
X122310481Y-119261226D01*
X122275562Y-119271819D01*
X122233105Y-119276000D01*
X120766895Y-119276000D01*
X120724438Y-119271819D01*
X120689519Y-119261226D01*
X120657337Y-119244024D01*
X120629127Y-119220873D01*
X120605976Y-119192663D01*
X120588774Y-119160481D01*
X120578181Y-119125562D01*
X120574000Y-119083105D01*
X120574000Y-117941895D01*
X120578181Y-117899438D01*
X120588774Y-117864519D01*
X120605976Y-117832337D01*
X120629127Y-117804127D01*
X120657337Y-117780976D01*
X120689519Y-117763774D01*
X120724438Y-117753181D01*
X120766895Y-117749000D01*
X122233105Y-117749000D01*
X122275562Y-117753181D01*
G37*
G36*
X111126000Y-119216000D02*
G01*
X109474000Y-119216000D01*
X109474000Y-118514000D01*
X111126000Y-118514000D01*
X111126000Y-119216000D01*
G37*
G36*
X116526000Y-119216000D02*
G01*
X114874000Y-119216000D01*
X114874000Y-118514000D01*
X116526000Y-118514000D01*
X116526000Y-119216000D01*
G37*
G36*
X128775562Y-117253181D02*
G01*
X128810481Y-117263774D01*
X128842663Y-117280976D01*
X128870873Y-117304127D01*
X128894024Y-117332337D01*
X128911226Y-117364519D01*
X128921819Y-117399438D01*
X128926000Y-117441895D01*
X128926000Y-118583105D01*
X128921819Y-118625562D01*
X128911226Y-118660481D01*
X128894024Y-118692663D01*
X128870873Y-118720873D01*
X128842663Y-118744024D01*
X128810481Y-118761226D01*
X128775562Y-118771819D01*
X128733105Y-118776000D01*
X127266895Y-118776000D01*
X127224438Y-118771819D01*
X127189519Y-118761226D01*
X127157337Y-118744024D01*
X127129127Y-118720873D01*
X127105976Y-118692663D01*
X127088774Y-118660481D01*
X127078181Y-118625562D01*
X127074000Y-118583105D01*
X127074000Y-117441895D01*
X127078181Y-117399438D01*
X127088774Y-117364519D01*
X127105976Y-117332337D01*
X127129127Y-117304127D01*
X127157337Y-117280976D01*
X127189519Y-117263774D01*
X127224438Y-117253181D01*
X127266895Y-117249000D01*
X128733105Y-117249000D01*
X128775562Y-117253181D01*
G37*
G36*
X96100562Y-116578181D02*
G01*
X96135481Y-116588774D01*
X96167663Y-116605976D01*
X96195873Y-116629127D01*
X96219024Y-116657337D01*
X96236226Y-116689519D01*
X96246819Y-116724438D01*
X96251000Y-116766895D01*
X96251000Y-118233105D01*
X96246819Y-118275562D01*
X96236226Y-118310481D01*
X96219024Y-118342663D01*
X96195873Y-118370873D01*
X96167663Y-118394024D01*
X96135481Y-118411226D01*
X96100562Y-118421819D01*
X96058105Y-118426000D01*
X94916895Y-118426000D01*
X94874438Y-118421819D01*
X94839519Y-118411226D01*
X94807337Y-118394024D01*
X94779127Y-118370873D01*
X94755976Y-118342663D01*
X94738774Y-118310481D01*
X94728181Y-118275562D01*
X94724000Y-118233105D01*
X94724000Y-116766895D01*
X94728181Y-116724438D01*
X94738774Y-116689519D01*
X94755976Y-116657337D01*
X94779127Y-116629127D01*
X94807337Y-116605976D01*
X94839519Y-116588774D01*
X94874438Y-116578181D01*
X94916895Y-116574000D01*
X96058105Y-116574000D01*
X96100562Y-116578181D01*
G37*
G36*
X93125562Y-116578181D02*
G01*
X93160481Y-116588774D01*
X93192663Y-116605976D01*
X93220873Y-116629127D01*
X93244024Y-116657337D01*
X93261226Y-116689519D01*
X93271819Y-116724438D01*
X93276000Y-116766895D01*
X93276000Y-118233105D01*
X93271819Y-118275562D01*
X93261226Y-118310481D01*
X93244024Y-118342663D01*
X93220873Y-118370873D01*
X93192663Y-118394024D01*
X93160481Y-118411226D01*
X93125562Y-118421819D01*
X93083105Y-118426000D01*
X91941895Y-118426000D01*
X91899438Y-118421819D01*
X91864519Y-118411226D01*
X91832337Y-118394024D01*
X91804127Y-118370873D01*
X91780976Y-118342663D01*
X91763774Y-118310481D01*
X91753181Y-118275562D01*
X91749000Y-118233105D01*
X91749000Y-116766895D01*
X91753181Y-116724438D01*
X91763774Y-116689519D01*
X91780976Y-116657337D01*
X91804127Y-116629127D01*
X91832337Y-116605976D01*
X91864519Y-116588774D01*
X91899438Y-116578181D01*
X91941895Y-116574000D01*
X93083105Y-116574000D01*
X93125562Y-116578181D01*
G37*
G36*
X116526000Y-117946000D02*
G01*
X114874000Y-117946000D01*
X114874000Y-117244000D01*
X116526000Y-117244000D01*
X116526000Y-117946000D01*
G37*
G36*
X111126000Y-117946000D02*
G01*
X109474000Y-117946000D01*
X109474000Y-117244000D01*
X111126000Y-117244000D01*
X111126000Y-117946000D01*
G37*
G36*
X108100562Y-115578181D02*
G01*
X108135481Y-115588774D01*
X108167663Y-115605976D01*
X108195873Y-115629127D01*
X108219024Y-115657337D01*
X108236226Y-115689519D01*
X108246819Y-115724438D01*
X108251000Y-115766895D01*
X108251000Y-117233105D01*
X108246819Y-117275562D01*
X108236226Y-117310481D01*
X108219024Y-117342663D01*
X108195873Y-117370873D01*
X108167663Y-117394024D01*
X108135481Y-117411226D01*
X108100562Y-117421819D01*
X108058105Y-117426000D01*
X106916895Y-117426000D01*
X106874438Y-117421819D01*
X106839519Y-117411226D01*
X106807337Y-117394024D01*
X106779127Y-117370873D01*
X106755976Y-117342663D01*
X106738774Y-117310481D01*
X106728181Y-117275562D01*
X106724000Y-117233105D01*
X106724000Y-115766895D01*
X106728181Y-115724438D01*
X106738774Y-115689519D01*
X106755976Y-115657337D01*
X106779127Y-115629127D01*
X106807337Y-115605976D01*
X106839519Y-115588774D01*
X106874438Y-115578181D01*
X106916895Y-115574000D01*
X108058105Y-115574000D01*
X108100562Y-115578181D01*
G37*
G36*
X105125562Y-115578181D02*
G01*
X105160481Y-115588774D01*
X105192663Y-115605976D01*
X105220873Y-115629127D01*
X105244024Y-115657337D01*
X105261226Y-115689519D01*
X105271819Y-115724438D01*
X105276000Y-115766895D01*
X105276000Y-117233105D01*
X105271819Y-117275562D01*
X105261226Y-117310481D01*
X105244024Y-117342663D01*
X105220873Y-117370873D01*
X105192663Y-117394024D01*
X105160481Y-117411226D01*
X105125562Y-117421819D01*
X105083105Y-117426000D01*
X103941895Y-117426000D01*
X103899438Y-117421819D01*
X103864519Y-117411226D01*
X103832337Y-117394024D01*
X103804127Y-117370873D01*
X103780976Y-117342663D01*
X103763774Y-117310481D01*
X103753181Y-117275562D01*
X103749000Y-117233105D01*
X103749000Y-115766895D01*
X103753181Y-115724438D01*
X103763774Y-115689519D01*
X103780976Y-115657337D01*
X103804127Y-115629127D01*
X103832337Y-115605976D01*
X103864519Y-115588774D01*
X103899438Y-115578181D01*
X103941895Y-115574000D01*
X105083105Y-115574000D01*
X105125562Y-115578181D01*
G37*
G36*
X84600562Y-114078181D02*
G01*
X84635481Y-114088774D01*
X84667663Y-114105976D01*
X84695873Y-114129127D01*
X84719024Y-114157337D01*
X84736226Y-114189519D01*
X84746819Y-114224438D01*
X84751000Y-114266895D01*
X84751000Y-115733105D01*
X84746819Y-115775562D01*
X84736226Y-115810481D01*
X84719024Y-115842663D01*
X84695873Y-115870873D01*
X84667663Y-115894024D01*
X84635481Y-115911226D01*
X84600562Y-115921819D01*
X84558105Y-115926000D01*
X83416895Y-115926000D01*
X83374438Y-115921819D01*
X83339519Y-115911226D01*
X83307337Y-115894024D01*
X83279127Y-115870873D01*
X83255976Y-115842663D01*
X83238774Y-115810481D01*
X83228181Y-115775562D01*
X83224000Y-115733105D01*
X83224000Y-114266895D01*
X83228181Y-114224438D01*
X83238774Y-114189519D01*
X83255976Y-114157337D01*
X83279127Y-114129127D01*
X83307337Y-114105976D01*
X83339519Y-114088774D01*
X83374438Y-114078181D01*
X83416895Y-114074000D01*
X84558105Y-114074000D01*
X84600562Y-114078181D01*
G37*
G36*
X81625562Y-114078181D02*
G01*
X81660481Y-114088774D01*
X81692663Y-114105976D01*
X81720873Y-114129127D01*
X81744024Y-114157337D01*
X81761226Y-114189519D01*
X81771819Y-114224438D01*
X81776000Y-114266895D01*
X81776000Y-115733105D01*
X81771819Y-115775562D01*
X81761226Y-115810481D01*
X81744024Y-115842663D01*
X81720873Y-115870873D01*
X81692663Y-115894024D01*
X81660481Y-115911226D01*
X81625562Y-115921819D01*
X81583105Y-115926000D01*
X80441895Y-115926000D01*
X80399438Y-115921819D01*
X80364519Y-115911226D01*
X80332337Y-115894024D01*
X80304127Y-115870873D01*
X80280976Y-115842663D01*
X80263774Y-115810481D01*
X80253181Y-115775562D01*
X80249000Y-115733105D01*
X80249000Y-114266895D01*
X80253181Y-114224438D01*
X80263774Y-114189519D01*
X80280976Y-114157337D01*
X80304127Y-114129127D01*
X80332337Y-114105976D01*
X80364519Y-114088774D01*
X80399438Y-114078181D01*
X80441895Y-114074000D01*
X81583105Y-114074000D01*
X81625562Y-114078181D01*
G37*
G36*
X112125562Y-113578181D02*
G01*
X112160481Y-113588774D01*
X112192663Y-113605976D01*
X112220873Y-113629127D01*
X112244024Y-113657337D01*
X112261226Y-113689519D01*
X112271819Y-113724438D01*
X112276000Y-113766895D01*
X112276000Y-115233105D01*
X112271819Y-115275562D01*
X112261226Y-115310481D01*
X112244024Y-115342663D01*
X112220873Y-115370873D01*
X112192663Y-115394024D01*
X112160481Y-115411226D01*
X112125562Y-115421819D01*
X112083105Y-115426000D01*
X110941895Y-115426000D01*
X110899438Y-115421819D01*
X110864519Y-115411226D01*
X110832337Y-115394024D01*
X110804127Y-115370873D01*
X110780976Y-115342663D01*
X110763774Y-115310481D01*
X110753181Y-115275562D01*
X110749000Y-115233105D01*
X110749000Y-113766895D01*
X110753181Y-113724438D01*
X110763774Y-113689519D01*
X110780976Y-113657337D01*
X110804127Y-113629127D01*
X110832337Y-113605976D01*
X110864519Y-113588774D01*
X110899438Y-113578181D01*
X110941895Y-113574000D01*
X112083105Y-113574000D01*
X112125562Y-113578181D01*
G37*
G36*
X115100562Y-113578181D02*
G01*
X115135481Y-113588774D01*
X115167663Y-113605976D01*
X115195873Y-113629127D01*
X115219024Y-113657337D01*
X115236226Y-113689519D01*
X115246819Y-113724438D01*
X115251000Y-113766895D01*
X115251000Y-115233105D01*
X115246819Y-115275562D01*
X115236226Y-115310481D01*
X115219024Y-115342663D01*
X115195873Y-115370873D01*
X115167663Y-115394024D01*
X115135481Y-115411226D01*
X115100562Y-115421819D01*
X115058105Y-115426000D01*
X113916895Y-115426000D01*
X113874438Y-115421819D01*
X113839519Y-115411226D01*
X113807337Y-115394024D01*
X113779127Y-115370873D01*
X113755976Y-115342663D01*
X113738774Y-115310481D01*
X113728181Y-115275562D01*
X113724000Y-115233105D01*
X113724000Y-113766895D01*
X113728181Y-113724438D01*
X113738774Y-113689519D01*
X113755976Y-113657337D01*
X113779127Y-113629127D01*
X113807337Y-113605976D01*
X113839519Y-113588774D01*
X113874438Y-113578181D01*
X113916895Y-113574000D01*
X115058105Y-113574000D01*
X115100562Y-113578181D01*
G37*
G36*
X128006000Y-115201000D02*
G01*
X127264000Y-115201000D01*
X127264000Y-113099000D01*
X128006000Y-113099000D01*
X128006000Y-115201000D01*
G37*
G36*
X126736000Y-115201000D02*
G01*
X125994000Y-115201000D01*
X125994000Y-113099000D01*
X126736000Y-113099000D01*
X126736000Y-115201000D01*
G37*
G36*
X132516242Y-112743404D02*
G01*
X132553337Y-112754657D01*
X132587515Y-112772925D01*
X132617481Y-112797519D01*
X132642075Y-112827485D01*
X132660343Y-112861663D01*
X132671596Y-112898758D01*
X132676000Y-112943474D01*
X132676000Y-113836526D01*
X132671596Y-113881242D01*
X132660343Y-113918337D01*
X132642075Y-113952515D01*
X132617481Y-113982481D01*
X132587515Y-114007075D01*
X132553337Y-114025343D01*
X132516242Y-114036596D01*
X132471526Y-114041000D01*
X131028474Y-114041000D01*
X130983758Y-114036596D01*
X130946663Y-114025343D01*
X130912485Y-114007075D01*
X130882519Y-113982481D01*
X130857925Y-113952515D01*
X130839657Y-113918337D01*
X130828404Y-113881242D01*
X130824000Y-113836526D01*
X130824000Y-112943474D01*
X130828404Y-112898758D01*
X130839657Y-112861663D01*
X130857925Y-112827485D01*
X130882519Y-112797519D01*
X130912485Y-112772925D01*
X130946663Y-112754657D01*
X130983758Y-112743404D01*
X131028474Y-112739000D01*
X132471526Y-112739000D01*
X132516242Y-112743404D01*
G37*
G36*
X132088855Y-110742140D02*
G01*
X132152618Y-110748420D01*
X132243404Y-110775960D01*
X132275336Y-110785646D01*
X132388425Y-110846094D01*
X132487554Y-110927446D01*
X132568906Y-111026575D01*
X132629354Y-111139664D01*
X132629355Y-111139668D01*
X132666580Y-111262382D01*
X132679149Y-111390000D01*
X132666580Y-111517618D01*
X132639040Y-111608404D01*
X132629354Y-111640336D01*
X132568906Y-111753425D01*
X132487554Y-111852554D01*
X132388425Y-111933906D01*
X132275336Y-111994354D01*
X132243404Y-112004040D01*
X132152618Y-112031580D01*
X132088855Y-112037860D01*
X132056974Y-112041000D01*
X131443026Y-112041000D01*
X131411145Y-112037860D01*
X131347382Y-112031580D01*
X131256596Y-112004040D01*
X131224664Y-111994354D01*
X131111575Y-111933906D01*
X131012446Y-111852554D01*
X130931094Y-111753425D01*
X130870646Y-111640336D01*
X130860960Y-111608404D01*
X130833420Y-111517618D01*
X130820851Y-111390000D01*
X130833420Y-111262382D01*
X130870645Y-111139668D01*
X130870646Y-111139664D01*
X130931094Y-111026575D01*
X131012446Y-110927446D01*
X131111575Y-110846094D01*
X131224664Y-110785646D01*
X131256596Y-110775960D01*
X131347382Y-110748420D01*
X131411145Y-110742140D01*
X131443026Y-110739000D01*
X132056974Y-110739000D01*
X132088855Y-110742140D01*
G37*
G36*
X109953512Y-109533927D02*
G01*
X110102812Y-109563624D01*
X110266784Y-109631544D01*
X110414354Y-109730147D01*
X110539853Y-109855646D01*
X110638456Y-110003216D01*
X110706376Y-110167188D01*
X110741000Y-110341259D01*
X110741000Y-110518741D01*
X110706376Y-110692812D01*
X110638456Y-110856784D01*
X110539853Y-111004354D01*
X110414354Y-111129853D01*
X110266784Y-111228456D01*
X110102812Y-111296376D01*
X109953512Y-111326073D01*
X109928742Y-111331000D01*
X109751258Y-111331000D01*
X109726488Y-111326073D01*
X109577188Y-111296376D01*
X109413216Y-111228456D01*
X109265646Y-111129853D01*
X109140147Y-111004354D01*
X109041544Y-110856784D01*
X108973624Y-110692812D01*
X108939000Y-110518741D01*
X108939000Y-110341259D01*
X108973624Y-110167188D01*
X109041544Y-110003216D01*
X109140147Y-109855646D01*
X109265646Y-109730147D01*
X109413216Y-109631544D01*
X109577188Y-109563624D01*
X109726488Y-109533927D01*
X109751258Y-109529000D01*
X109928742Y-109529000D01*
X109953512Y-109533927D01*
G37*
G36*
X84553512Y-109533927D02*
G01*
X84702812Y-109563624D01*
X84866784Y-109631544D01*
X85014354Y-109730147D01*
X85139853Y-109855646D01*
X85238456Y-110003216D01*
X85306376Y-110167188D01*
X85341000Y-110341259D01*
X85341000Y-110518741D01*
X85306376Y-110692812D01*
X85238456Y-110856784D01*
X85139853Y-111004354D01*
X85014354Y-111129853D01*
X84866784Y-111228456D01*
X84702812Y-111296376D01*
X84553512Y-111326073D01*
X84528742Y-111331000D01*
X84351258Y-111331000D01*
X84326488Y-111326073D01*
X84177188Y-111296376D01*
X84013216Y-111228456D01*
X83865646Y-111129853D01*
X83740147Y-111004354D01*
X83641544Y-110856784D01*
X83573624Y-110692812D01*
X83539000Y-110518741D01*
X83539000Y-110341259D01*
X83573624Y-110167188D01*
X83641544Y-110003216D01*
X83740147Y-109855646D01*
X83865646Y-109730147D01*
X84013216Y-109631544D01*
X84177188Y-109563624D01*
X84326488Y-109533927D01*
X84351258Y-109529000D01*
X84528742Y-109529000D01*
X84553512Y-109533927D01*
G37*
G36*
X87093512Y-109533927D02*
G01*
X87242812Y-109563624D01*
X87406784Y-109631544D01*
X87554354Y-109730147D01*
X87679853Y-109855646D01*
X87778456Y-110003216D01*
X87846376Y-110167188D01*
X87881000Y-110341259D01*
X87881000Y-110518741D01*
X87846376Y-110692812D01*
X87778456Y-110856784D01*
X87679853Y-111004354D01*
X87554354Y-111129853D01*
X87406784Y-111228456D01*
X87242812Y-111296376D01*
X87093512Y-111326073D01*
X87068742Y-111331000D01*
X86891258Y-111331000D01*
X86866488Y-111326073D01*
X86717188Y-111296376D01*
X86553216Y-111228456D01*
X86405646Y-111129853D01*
X86280147Y-111004354D01*
X86181544Y-110856784D01*
X86113624Y-110692812D01*
X86079000Y-110518741D01*
X86079000Y-110341259D01*
X86113624Y-110167188D01*
X86181544Y-110003216D01*
X86280147Y-109855646D01*
X86405646Y-109730147D01*
X86553216Y-109631544D01*
X86717188Y-109563624D01*
X86866488Y-109533927D01*
X86891258Y-109529000D01*
X87068742Y-109529000D01*
X87093512Y-109533927D01*
G37*
G36*
X89633512Y-109533927D02*
G01*
X89782812Y-109563624D01*
X89946784Y-109631544D01*
X90094354Y-109730147D01*
X90219853Y-109855646D01*
X90318456Y-110003216D01*
X90386376Y-110167188D01*
X90421000Y-110341259D01*
X90421000Y-110518741D01*
X90386376Y-110692812D01*
X90318456Y-110856784D01*
X90219853Y-111004354D01*
X90094354Y-111129853D01*
X89946784Y-111228456D01*
X89782812Y-111296376D01*
X89633512Y-111326073D01*
X89608742Y-111331000D01*
X89431258Y-111331000D01*
X89406488Y-111326073D01*
X89257188Y-111296376D01*
X89093216Y-111228456D01*
X88945646Y-111129853D01*
X88820147Y-111004354D01*
X88721544Y-110856784D01*
X88653624Y-110692812D01*
X88619000Y-110518741D01*
X88619000Y-110341259D01*
X88653624Y-110167188D01*
X88721544Y-110003216D01*
X88820147Y-109855646D01*
X88945646Y-109730147D01*
X89093216Y-109631544D01*
X89257188Y-109563624D01*
X89406488Y-109533927D01*
X89431258Y-109529000D01*
X89608742Y-109529000D01*
X89633512Y-109533927D01*
G37*
G36*
X92173512Y-109533927D02*
G01*
X92322812Y-109563624D01*
X92486784Y-109631544D01*
X92634354Y-109730147D01*
X92759853Y-109855646D01*
X92858456Y-110003216D01*
X92926376Y-110167188D01*
X92961000Y-110341259D01*
X92961000Y-110518741D01*
X92926376Y-110692812D01*
X92858456Y-110856784D01*
X92759853Y-111004354D01*
X92634354Y-111129853D01*
X92486784Y-111228456D01*
X92322812Y-111296376D01*
X92173512Y-111326073D01*
X92148742Y-111331000D01*
X91971258Y-111331000D01*
X91946488Y-111326073D01*
X91797188Y-111296376D01*
X91633216Y-111228456D01*
X91485646Y-111129853D01*
X91360147Y-111004354D01*
X91261544Y-110856784D01*
X91193624Y-110692812D01*
X91159000Y-110518741D01*
X91159000Y-110341259D01*
X91193624Y-110167188D01*
X91261544Y-110003216D01*
X91360147Y-109855646D01*
X91485646Y-109730147D01*
X91633216Y-109631544D01*
X91797188Y-109563624D01*
X91946488Y-109533927D01*
X91971258Y-109529000D01*
X92148742Y-109529000D01*
X92173512Y-109533927D01*
G37*
G36*
X94713512Y-109533927D02*
G01*
X94862812Y-109563624D01*
X95026784Y-109631544D01*
X95174354Y-109730147D01*
X95299853Y-109855646D01*
X95398456Y-110003216D01*
X95466376Y-110167188D01*
X95501000Y-110341259D01*
X95501000Y-110518741D01*
X95466376Y-110692812D01*
X95398456Y-110856784D01*
X95299853Y-111004354D01*
X95174354Y-111129853D01*
X95026784Y-111228456D01*
X94862812Y-111296376D01*
X94713512Y-111326073D01*
X94688742Y-111331000D01*
X94511258Y-111331000D01*
X94486488Y-111326073D01*
X94337188Y-111296376D01*
X94173216Y-111228456D01*
X94025646Y-111129853D01*
X93900147Y-111004354D01*
X93801544Y-110856784D01*
X93733624Y-110692812D01*
X93699000Y-110518741D01*
X93699000Y-110341259D01*
X93733624Y-110167188D01*
X93801544Y-110003216D01*
X93900147Y-109855646D01*
X94025646Y-109730147D01*
X94173216Y-109631544D01*
X94337188Y-109563624D01*
X94486488Y-109533927D01*
X94511258Y-109529000D01*
X94688742Y-109529000D01*
X94713512Y-109533927D01*
G37*
G36*
X97253512Y-109533927D02*
G01*
X97402812Y-109563624D01*
X97566784Y-109631544D01*
X97714354Y-109730147D01*
X97839853Y-109855646D01*
X97938456Y-110003216D01*
X98006376Y-110167188D01*
X98041000Y-110341259D01*
X98041000Y-110518741D01*
X98006376Y-110692812D01*
X97938456Y-110856784D01*
X97839853Y-111004354D01*
X97714354Y-111129853D01*
X97566784Y-111228456D01*
X97402812Y-111296376D01*
X97253512Y-111326073D01*
X97228742Y-111331000D01*
X97051258Y-111331000D01*
X97026488Y-111326073D01*
X96877188Y-111296376D01*
X96713216Y-111228456D01*
X96565646Y-111129853D01*
X96440147Y-111004354D01*
X96341544Y-110856784D01*
X96273624Y-110692812D01*
X96239000Y-110518741D01*
X96239000Y-110341259D01*
X96273624Y-110167188D01*
X96341544Y-110003216D01*
X96440147Y-109855646D01*
X96565646Y-109730147D01*
X96713216Y-109631544D01*
X96877188Y-109563624D01*
X97026488Y-109533927D01*
X97051258Y-109529000D01*
X97228742Y-109529000D01*
X97253512Y-109533927D01*
G37*
G36*
X99793512Y-109533927D02*
G01*
X99942812Y-109563624D01*
X100106784Y-109631544D01*
X100254354Y-109730147D01*
X100379853Y-109855646D01*
X100478456Y-110003216D01*
X100546376Y-110167188D01*
X100581000Y-110341259D01*
X100581000Y-110518741D01*
X100546376Y-110692812D01*
X100478456Y-110856784D01*
X100379853Y-111004354D01*
X100254354Y-111129853D01*
X100106784Y-111228456D01*
X99942812Y-111296376D01*
X99793512Y-111326073D01*
X99768742Y-111331000D01*
X99591258Y-111331000D01*
X99566488Y-111326073D01*
X99417188Y-111296376D01*
X99253216Y-111228456D01*
X99105646Y-111129853D01*
X98980147Y-111004354D01*
X98881544Y-110856784D01*
X98813624Y-110692812D01*
X98779000Y-110518741D01*
X98779000Y-110341259D01*
X98813624Y-110167188D01*
X98881544Y-110003216D01*
X98980147Y-109855646D01*
X99105646Y-109730147D01*
X99253216Y-109631544D01*
X99417188Y-109563624D01*
X99566488Y-109533927D01*
X99591258Y-109529000D01*
X99768742Y-109529000D01*
X99793512Y-109533927D01*
G37*
G36*
X102333512Y-109533927D02*
G01*
X102482812Y-109563624D01*
X102646784Y-109631544D01*
X102794354Y-109730147D01*
X102919853Y-109855646D01*
X103018456Y-110003216D01*
X103086376Y-110167188D01*
X103121000Y-110341259D01*
X103121000Y-110518741D01*
X103086376Y-110692812D01*
X103018456Y-110856784D01*
X102919853Y-111004354D01*
X102794354Y-111129853D01*
X102646784Y-111228456D01*
X102482812Y-111296376D01*
X102333512Y-111326073D01*
X102308742Y-111331000D01*
X102131258Y-111331000D01*
X102106488Y-111326073D01*
X101957188Y-111296376D01*
X101793216Y-111228456D01*
X101645646Y-111129853D01*
X101520147Y-111004354D01*
X101421544Y-110856784D01*
X101353624Y-110692812D01*
X101319000Y-110518741D01*
X101319000Y-110341259D01*
X101353624Y-110167188D01*
X101421544Y-110003216D01*
X101520147Y-109855646D01*
X101645646Y-109730147D01*
X101793216Y-109631544D01*
X101957188Y-109563624D01*
X102106488Y-109533927D01*
X102131258Y-109529000D01*
X102308742Y-109529000D01*
X102333512Y-109533927D01*
G37*
G36*
X104873512Y-109533927D02*
G01*
X105022812Y-109563624D01*
X105186784Y-109631544D01*
X105334354Y-109730147D01*
X105459853Y-109855646D01*
X105558456Y-110003216D01*
X105626376Y-110167188D01*
X105661000Y-110341259D01*
X105661000Y-110518741D01*
X105626376Y-110692812D01*
X105558456Y-110856784D01*
X105459853Y-111004354D01*
X105334354Y-111129853D01*
X105186784Y-111228456D01*
X105022812Y-111296376D01*
X104873512Y-111326073D01*
X104848742Y-111331000D01*
X104671258Y-111331000D01*
X104646488Y-111326073D01*
X104497188Y-111296376D01*
X104333216Y-111228456D01*
X104185646Y-111129853D01*
X104060147Y-111004354D01*
X103961544Y-110856784D01*
X103893624Y-110692812D01*
X103859000Y-110518741D01*
X103859000Y-110341259D01*
X103893624Y-110167188D01*
X103961544Y-110003216D01*
X104060147Y-109855646D01*
X104185646Y-109730147D01*
X104333216Y-109631544D01*
X104497188Y-109563624D01*
X104646488Y-109533927D01*
X104671258Y-109529000D01*
X104848742Y-109529000D01*
X104873512Y-109533927D01*
G37*
G36*
X107413512Y-109533927D02*
G01*
X107562812Y-109563624D01*
X107726784Y-109631544D01*
X107874354Y-109730147D01*
X107999853Y-109855646D01*
X108098456Y-110003216D01*
X108166376Y-110167188D01*
X108201000Y-110341259D01*
X108201000Y-110518741D01*
X108166376Y-110692812D01*
X108098456Y-110856784D01*
X107999853Y-111004354D01*
X107874354Y-111129853D01*
X107726784Y-111228456D01*
X107562812Y-111296376D01*
X107413512Y-111326073D01*
X107388742Y-111331000D01*
X107211258Y-111331000D01*
X107186488Y-111326073D01*
X107037188Y-111296376D01*
X106873216Y-111228456D01*
X106725646Y-111129853D01*
X106600147Y-111004354D01*
X106501544Y-110856784D01*
X106433624Y-110692812D01*
X106399000Y-110518741D01*
X106399000Y-110341259D01*
X106433624Y-110167188D01*
X106501544Y-110003216D01*
X106600147Y-109855646D01*
X106725646Y-109730147D01*
X106873216Y-109631544D01*
X107037188Y-109563624D01*
X107186488Y-109533927D01*
X107211258Y-109529000D01*
X107388742Y-109529000D01*
X107413512Y-109533927D01*
G37*
G36*
X112493512Y-109533927D02*
G01*
X112642812Y-109563624D01*
X112806784Y-109631544D01*
X112954354Y-109730147D01*
X113079853Y-109855646D01*
X113178456Y-110003216D01*
X113246376Y-110167188D01*
X113281000Y-110341259D01*
X113281000Y-110518741D01*
X113246376Y-110692812D01*
X113178456Y-110856784D01*
X113079853Y-111004354D01*
X112954354Y-111129853D01*
X112806784Y-111228456D01*
X112642812Y-111296376D01*
X112493512Y-111326073D01*
X112468742Y-111331000D01*
X112291258Y-111331000D01*
X112266488Y-111326073D01*
X112117188Y-111296376D01*
X111953216Y-111228456D01*
X111805646Y-111129853D01*
X111680147Y-111004354D01*
X111581544Y-110856784D01*
X111513624Y-110692812D01*
X111479000Y-110518741D01*
X111479000Y-110341259D01*
X111513624Y-110167188D01*
X111581544Y-110003216D01*
X111680147Y-109855646D01*
X111805646Y-109730147D01*
X111953216Y-109631544D01*
X112117188Y-109563624D01*
X112266488Y-109533927D01*
X112291258Y-109529000D01*
X112468742Y-109529000D01*
X112493512Y-109533927D01*
G37*
G36*
X115033512Y-109533927D02*
G01*
X115182812Y-109563624D01*
X115346784Y-109631544D01*
X115494354Y-109730147D01*
X115619853Y-109855646D01*
X115718456Y-110003216D01*
X115786376Y-110167188D01*
X115821000Y-110341259D01*
X115821000Y-110518741D01*
X115786376Y-110692812D01*
X115718456Y-110856784D01*
X115619853Y-111004354D01*
X115494354Y-111129853D01*
X115346784Y-111228456D01*
X115182812Y-111296376D01*
X115033512Y-111326073D01*
X115008742Y-111331000D01*
X114831258Y-111331000D01*
X114806488Y-111326073D01*
X114657188Y-111296376D01*
X114493216Y-111228456D01*
X114345646Y-111129853D01*
X114220147Y-111004354D01*
X114121544Y-110856784D01*
X114053624Y-110692812D01*
X114019000Y-110518741D01*
X114019000Y-110341259D01*
X114053624Y-110167188D01*
X114121544Y-110003216D01*
X114220147Y-109855646D01*
X114345646Y-109730147D01*
X114493216Y-109631544D01*
X114657188Y-109563624D01*
X114806488Y-109533927D01*
X114831258Y-109529000D01*
X115008742Y-109529000D01*
X115033512Y-109533927D01*
G37*
G36*
X126736000Y-108901000D02*
G01*
X125994000Y-108901000D01*
X125994000Y-106799000D01*
X126736000Y-106799000D01*
X126736000Y-108901000D01*
G37*
G36*
X128006000Y-108901000D02*
G01*
X127264000Y-108901000D01*
X127264000Y-106799000D01*
X128006000Y-106799000D01*
X128006000Y-108901000D01*
G37*
G36*
X91100562Y-106578181D02*
G01*
X91135481Y-106588774D01*
X91167663Y-106605976D01*
X91195873Y-106629127D01*
X91219024Y-106657337D01*
X91236226Y-106689519D01*
X91246819Y-106724438D01*
X91251000Y-106766895D01*
X91251000Y-108233105D01*
X91246819Y-108275562D01*
X91236226Y-108310481D01*
X91219024Y-108342663D01*
X91195873Y-108370873D01*
X91167663Y-108394024D01*
X91135481Y-108411226D01*
X91100562Y-108421819D01*
X91058105Y-108426000D01*
X89916895Y-108426000D01*
X89874438Y-108421819D01*
X89839519Y-108411226D01*
X89807337Y-108394024D01*
X89779127Y-108370873D01*
X89755976Y-108342663D01*
X89738774Y-108310481D01*
X89728181Y-108275562D01*
X89724000Y-108233105D01*
X89724000Y-106766895D01*
X89728181Y-106724438D01*
X89738774Y-106689519D01*
X89755976Y-106657337D01*
X89779127Y-106629127D01*
X89807337Y-106605976D01*
X89839519Y-106588774D01*
X89874438Y-106578181D01*
X89916895Y-106574000D01*
X91058105Y-106574000D01*
X91100562Y-106578181D01*
G37*
G36*
X88125562Y-106578181D02*
G01*
X88160481Y-106588774D01*
X88192663Y-106605976D01*
X88220873Y-106629127D01*
X88244024Y-106657337D01*
X88261226Y-106689519D01*
X88271819Y-106724438D01*
X88276000Y-106766895D01*
X88276000Y-108233105D01*
X88271819Y-108275562D01*
X88261226Y-108310481D01*
X88244024Y-108342663D01*
X88220873Y-108370873D01*
X88192663Y-108394024D01*
X88160481Y-108411226D01*
X88125562Y-108421819D01*
X88083105Y-108426000D01*
X86941895Y-108426000D01*
X86899438Y-108421819D01*
X86864519Y-108411226D01*
X86832337Y-108394024D01*
X86804127Y-108370873D01*
X86780976Y-108342663D01*
X86763774Y-108310481D01*
X86753181Y-108275562D01*
X86749000Y-108233105D01*
X86749000Y-106766895D01*
X86753181Y-106724438D01*
X86763774Y-106689519D01*
X86780976Y-106657337D01*
X86804127Y-106629127D01*
X86832337Y-106605976D01*
X86864519Y-106588774D01*
X86899438Y-106578181D01*
X86941895Y-106574000D01*
X88083105Y-106574000D01*
X88125562Y-106578181D01*
G37*
G36*
X132938674Y-106753465D02*
G01*
X132976367Y-106764899D01*
X133011103Y-106783466D01*
X133041548Y-106808452D01*
X133066534Y-106838897D01*
X133085101Y-106873633D01*
X133096535Y-106911326D01*
X133101000Y-106956661D01*
X133101000Y-108043339D01*
X133096535Y-108088674D01*
X133085101Y-108126367D01*
X133066534Y-108161103D01*
X133041548Y-108191548D01*
X133011103Y-108216534D01*
X132976367Y-108235101D01*
X132938674Y-108246535D01*
X132893339Y-108251000D01*
X132056661Y-108251000D01*
X132011326Y-108246535D01*
X131973633Y-108235101D01*
X131938897Y-108216534D01*
X131908452Y-108191548D01*
X131883466Y-108161103D01*
X131864899Y-108126367D01*
X131853465Y-108088674D01*
X131849000Y-108043339D01*
X131849000Y-106956661D01*
X131853465Y-106911326D01*
X131864899Y-106873633D01*
X131883466Y-106838897D01*
X131908452Y-106808452D01*
X131938897Y-106783466D01*
X131973633Y-106764899D01*
X132011326Y-106753465D01*
X132056661Y-106749000D01*
X132893339Y-106749000D01*
X132938674Y-106753465D01*
G37*
G36*
X134988674Y-106753465D02*
G01*
X135026367Y-106764899D01*
X135061103Y-106783466D01*
X135091548Y-106808452D01*
X135116534Y-106838897D01*
X135135101Y-106873633D01*
X135146535Y-106911326D01*
X135151000Y-106956661D01*
X135151000Y-108043339D01*
X135146535Y-108088674D01*
X135135101Y-108126367D01*
X135116534Y-108161103D01*
X135091548Y-108191548D01*
X135061103Y-108216534D01*
X135026367Y-108235101D01*
X134988674Y-108246535D01*
X134943339Y-108251000D01*
X134106661Y-108251000D01*
X134061326Y-108246535D01*
X134023633Y-108235101D01*
X133988897Y-108216534D01*
X133958452Y-108191548D01*
X133933466Y-108161103D01*
X133914899Y-108126367D01*
X133903465Y-108088674D01*
X133899000Y-108043339D01*
X133899000Y-106956661D01*
X133903465Y-106911326D01*
X133914899Y-106873633D01*
X133933466Y-106838897D01*
X133958452Y-106808452D01*
X133988897Y-106783466D01*
X134023633Y-106764899D01*
X134061326Y-106753465D01*
X134106661Y-106749000D01*
X134943339Y-106749000D01*
X134988674Y-106753465D01*
G37*
G36*
X115625562Y-105578181D02*
G01*
X115660481Y-105588774D01*
X115692663Y-105605976D01*
X115720873Y-105629127D01*
X115744024Y-105657337D01*
X115761226Y-105689519D01*
X115771819Y-105724438D01*
X115776000Y-105766895D01*
X115776000Y-107233105D01*
X115771819Y-107275562D01*
X115761226Y-107310481D01*
X115744024Y-107342663D01*
X115720873Y-107370873D01*
X115692663Y-107394024D01*
X115660481Y-107411226D01*
X115625562Y-107421819D01*
X115583105Y-107426000D01*
X114441895Y-107426000D01*
X114399438Y-107421819D01*
X114364519Y-107411226D01*
X114332337Y-107394024D01*
X114304127Y-107370873D01*
X114280976Y-107342663D01*
X114263774Y-107310481D01*
X114253181Y-107275562D01*
X114249000Y-107233105D01*
X114249000Y-105766895D01*
X114253181Y-105724438D01*
X114263774Y-105689519D01*
X114280976Y-105657337D01*
X114304127Y-105629127D01*
X114332337Y-105605976D01*
X114364519Y-105588774D01*
X114399438Y-105578181D01*
X114441895Y-105574000D01*
X115583105Y-105574000D01*
X115625562Y-105578181D01*
G37*
G36*
X118600562Y-105578181D02*
G01*
X118635481Y-105588774D01*
X118667663Y-105605976D01*
X118695873Y-105629127D01*
X118719024Y-105657337D01*
X118736226Y-105689519D01*
X118746819Y-105724438D01*
X118751000Y-105766895D01*
X118751000Y-107233105D01*
X118746819Y-107275562D01*
X118736226Y-107310481D01*
X118719024Y-107342663D01*
X118695873Y-107370873D01*
X118667663Y-107394024D01*
X118635481Y-107411226D01*
X118600562Y-107421819D01*
X118558105Y-107426000D01*
X117416895Y-107426000D01*
X117374438Y-107421819D01*
X117339519Y-107411226D01*
X117307337Y-107394024D01*
X117279127Y-107370873D01*
X117255976Y-107342663D01*
X117238774Y-107310481D01*
X117228181Y-107275562D01*
X117224000Y-107233105D01*
X117224000Y-105766895D01*
X117228181Y-105724438D01*
X117238774Y-105689519D01*
X117255976Y-105657337D01*
X117279127Y-105629127D01*
X117307337Y-105605976D01*
X117339519Y-105588774D01*
X117374438Y-105578181D01*
X117416895Y-105574000D01*
X118558105Y-105574000D01*
X118600562Y-105578181D01*
G37*
G36*
X97275562Y-104728181D02*
G01*
X97310481Y-104738774D01*
X97342663Y-104755976D01*
X97370873Y-104779127D01*
X97394024Y-104807337D01*
X97411226Y-104839519D01*
X97421819Y-104874438D01*
X97426000Y-104916895D01*
X97426000Y-106058105D01*
X97421819Y-106100562D01*
X97411226Y-106135481D01*
X97394024Y-106167663D01*
X97370873Y-106195873D01*
X97342663Y-106219024D01*
X97310481Y-106236226D01*
X97275562Y-106246819D01*
X97233105Y-106251000D01*
X95766895Y-106251000D01*
X95724438Y-106246819D01*
X95689519Y-106236226D01*
X95657337Y-106219024D01*
X95629127Y-106195873D01*
X95605976Y-106167663D01*
X95588774Y-106135481D01*
X95578181Y-106100562D01*
X95574000Y-106058105D01*
X95574000Y-104916895D01*
X95578181Y-104874438D01*
X95588774Y-104839519D01*
X95605976Y-104807337D01*
X95629127Y-104779127D01*
X95657337Y-104755976D01*
X95689519Y-104738774D01*
X95724438Y-104728181D01*
X95766895Y-104724000D01*
X97233105Y-104724000D01*
X97275562Y-104728181D01*
G37*
G36*
X135600562Y-103578181D02*
G01*
X135635481Y-103588774D01*
X135667663Y-103605976D01*
X135695873Y-103629127D01*
X135719024Y-103657337D01*
X135736226Y-103689519D01*
X135746819Y-103724438D01*
X135751000Y-103766895D01*
X135751000Y-105233105D01*
X135746819Y-105275562D01*
X135736226Y-105310481D01*
X135719024Y-105342663D01*
X135695873Y-105370873D01*
X135667663Y-105394024D01*
X135635481Y-105411226D01*
X135600562Y-105421819D01*
X135558105Y-105426000D01*
X134416895Y-105426000D01*
X134374438Y-105421819D01*
X134339519Y-105411226D01*
X134307337Y-105394024D01*
X134279127Y-105370873D01*
X134255976Y-105342663D01*
X134238774Y-105310481D01*
X134228181Y-105275562D01*
X134224000Y-105233105D01*
X134224000Y-103766895D01*
X134228181Y-103724438D01*
X134238774Y-103689519D01*
X134255976Y-103657337D01*
X134279127Y-103629127D01*
X134307337Y-103605976D01*
X134339519Y-103588774D01*
X134374438Y-103578181D01*
X134416895Y-103574000D01*
X135558105Y-103574000D01*
X135600562Y-103578181D01*
G37*
G36*
X132625562Y-103578181D02*
G01*
X132660481Y-103588774D01*
X132692663Y-103605976D01*
X132720873Y-103629127D01*
X132744024Y-103657337D01*
X132761226Y-103689519D01*
X132771819Y-103724438D01*
X132776000Y-103766895D01*
X132776000Y-105233105D01*
X132771819Y-105275562D01*
X132761226Y-105310481D01*
X132744024Y-105342663D01*
X132720873Y-105370873D01*
X132692663Y-105394024D01*
X132660481Y-105411226D01*
X132625562Y-105421819D01*
X132583105Y-105426000D01*
X131441895Y-105426000D01*
X131399438Y-105421819D01*
X131364519Y-105411226D01*
X131332337Y-105394024D01*
X131304127Y-105370873D01*
X131280976Y-105342663D01*
X131263774Y-105310481D01*
X131253181Y-105275562D01*
X131249000Y-105233105D01*
X131249000Y-103766895D01*
X131253181Y-103724438D01*
X131263774Y-103689519D01*
X131280976Y-103657337D01*
X131304127Y-103629127D01*
X131332337Y-103605976D01*
X131364519Y-103588774D01*
X131399438Y-103578181D01*
X131441895Y-103574000D01*
X132583105Y-103574000D01*
X132625562Y-103578181D01*
G37*
G36*
X79275562Y-102228181D02*
G01*
X79310481Y-102238774D01*
X79342663Y-102255976D01*
X79370873Y-102279127D01*
X79394024Y-102307337D01*
X79411226Y-102339519D01*
X79421819Y-102374438D01*
X79426000Y-102416895D01*
X79426000Y-103558105D01*
X79421819Y-103600562D01*
X79411226Y-103635481D01*
X79394024Y-103667663D01*
X79370873Y-103695873D01*
X79342663Y-103719024D01*
X79310481Y-103736226D01*
X79275562Y-103746819D01*
X79233105Y-103751000D01*
X77766895Y-103751000D01*
X77724438Y-103746819D01*
X77689519Y-103736226D01*
X77657337Y-103719024D01*
X77629127Y-103695873D01*
X77605976Y-103667663D01*
X77588774Y-103635481D01*
X77578181Y-103600562D01*
X77574000Y-103558105D01*
X77574000Y-102416895D01*
X77578181Y-102374438D01*
X77588774Y-102339519D01*
X77605976Y-102307337D01*
X77629127Y-102279127D01*
X77657337Y-102255976D01*
X77689519Y-102238774D01*
X77724438Y-102228181D01*
X77766895Y-102224000D01*
X79233105Y-102224000D01*
X79275562Y-102228181D01*
G37*
G36*
X97275562Y-101753181D02*
G01*
X97310481Y-101763774D01*
X97342663Y-101780976D01*
X97370873Y-101804127D01*
X97394024Y-101832337D01*
X97411226Y-101864519D01*
X97421819Y-101899438D01*
X97426000Y-101941895D01*
X97426000Y-103083105D01*
X97421819Y-103125562D01*
X97411226Y-103160481D01*
X97394024Y-103192663D01*
X97370873Y-103220873D01*
X97342663Y-103244024D01*
X97310481Y-103261226D01*
X97275562Y-103271819D01*
X97233105Y-103276000D01*
X95766895Y-103276000D01*
X95724438Y-103271819D01*
X95689519Y-103261226D01*
X95657337Y-103244024D01*
X95629127Y-103220873D01*
X95605976Y-103192663D01*
X95588774Y-103160481D01*
X95578181Y-103125562D01*
X95574000Y-103083105D01*
X95574000Y-101941895D01*
X95578181Y-101899438D01*
X95588774Y-101864519D01*
X95605976Y-101832337D01*
X95629127Y-101804127D01*
X95657337Y-101780976D01*
X95689519Y-101763774D01*
X95724438Y-101753181D01*
X95766895Y-101749000D01*
X97233105Y-101749000D01*
X97275562Y-101753181D01*
G37*
G36*
X128275562Y-101228181D02*
G01*
X128310481Y-101238774D01*
X128342663Y-101255976D01*
X128370873Y-101279127D01*
X128394024Y-101307337D01*
X128411226Y-101339519D01*
X128421819Y-101374438D01*
X128426000Y-101416895D01*
X128426000Y-102558105D01*
X128421819Y-102600562D01*
X128411226Y-102635481D01*
X128394024Y-102667663D01*
X128370873Y-102695873D01*
X128342663Y-102719024D01*
X128310481Y-102736226D01*
X128275562Y-102746819D01*
X128233105Y-102751000D01*
X126766895Y-102751000D01*
X126724438Y-102746819D01*
X126689519Y-102736226D01*
X126657337Y-102719024D01*
X126629127Y-102695873D01*
X126605976Y-102667663D01*
X126588774Y-102635481D01*
X126578181Y-102600562D01*
X126574000Y-102558105D01*
X126574000Y-101416895D01*
X126578181Y-101374438D01*
X126588774Y-101339519D01*
X126605976Y-101307337D01*
X126629127Y-101279127D01*
X126657337Y-101255976D01*
X126689519Y-101238774D01*
X126724438Y-101228181D01*
X126766895Y-101224000D01*
X128233105Y-101224000D01*
X128275562Y-101228181D01*
G37*
G36*
X94176000Y-101251000D02*
G01*
X91824000Y-101251000D01*
X91824000Y-100049000D01*
X94176000Y-100049000D01*
X94176000Y-101251000D01*
G37*
G36*
X100600562Y-99078181D02*
G01*
X100635481Y-99088774D01*
X100667663Y-99105976D01*
X100695873Y-99129127D01*
X100719024Y-99157337D01*
X100736226Y-99189519D01*
X100746819Y-99224438D01*
X100751000Y-99266895D01*
X100751000Y-100733105D01*
X100746819Y-100775562D01*
X100736226Y-100810481D01*
X100719024Y-100842663D01*
X100695873Y-100870873D01*
X100667663Y-100894024D01*
X100635481Y-100911226D01*
X100600562Y-100921819D01*
X100558105Y-100926000D01*
X99416895Y-100926000D01*
X99374438Y-100921819D01*
X99339519Y-100911226D01*
X99307337Y-100894024D01*
X99279127Y-100870873D01*
X99255976Y-100842663D01*
X99238774Y-100810481D01*
X99228181Y-100775562D01*
X99224000Y-100733105D01*
X99224000Y-99266895D01*
X99228181Y-99224438D01*
X99238774Y-99189519D01*
X99255976Y-99157337D01*
X99279127Y-99129127D01*
X99307337Y-99105976D01*
X99339519Y-99088774D01*
X99374438Y-99078181D01*
X99416895Y-99074000D01*
X100558105Y-99074000D01*
X100600562Y-99078181D01*
G37*
G36*
X97625562Y-99078181D02*
G01*
X97660481Y-99088774D01*
X97692663Y-99105976D01*
X97720873Y-99129127D01*
X97744024Y-99157337D01*
X97761226Y-99189519D01*
X97771819Y-99224438D01*
X97776000Y-99266895D01*
X97776000Y-100733105D01*
X97771819Y-100775562D01*
X97761226Y-100810481D01*
X97744024Y-100842663D01*
X97720873Y-100870873D01*
X97692663Y-100894024D01*
X97660481Y-100911226D01*
X97625562Y-100921819D01*
X97583105Y-100926000D01*
X96441895Y-100926000D01*
X96399438Y-100921819D01*
X96364519Y-100911226D01*
X96332337Y-100894024D01*
X96304127Y-100870873D01*
X96280976Y-100842663D01*
X96263774Y-100810481D01*
X96253181Y-100775562D01*
X96249000Y-100733105D01*
X96249000Y-99266895D01*
X96253181Y-99224438D01*
X96263774Y-99189519D01*
X96280976Y-99157337D01*
X96304127Y-99129127D01*
X96332337Y-99105976D01*
X96364519Y-99088774D01*
X96399438Y-99078181D01*
X96441895Y-99074000D01*
X97583105Y-99074000D01*
X97625562Y-99078181D01*
G37*
G36*
X79275562Y-99253181D02*
G01*
X79310481Y-99263774D01*
X79342663Y-99280976D01*
X79370873Y-99304127D01*
X79394024Y-99332337D01*
X79411226Y-99364519D01*
X79421819Y-99399438D01*
X79426000Y-99441895D01*
X79426000Y-100583105D01*
X79421819Y-100625562D01*
X79411226Y-100660481D01*
X79394024Y-100692663D01*
X79370873Y-100720873D01*
X79342663Y-100744024D01*
X79310481Y-100761226D01*
X79275562Y-100771819D01*
X79233105Y-100776000D01*
X77766895Y-100776000D01*
X77724438Y-100771819D01*
X77689519Y-100761226D01*
X77657337Y-100744024D01*
X77629127Y-100720873D01*
X77605976Y-100692663D01*
X77588774Y-100660481D01*
X77578181Y-100625562D01*
X77574000Y-100583105D01*
X77574000Y-99441895D01*
X77578181Y-99399438D01*
X77588774Y-99364519D01*
X77605976Y-99332337D01*
X77629127Y-99304127D01*
X77657337Y-99280976D01*
X77689519Y-99263774D01*
X77724438Y-99253181D01*
X77766895Y-99249000D01*
X79233105Y-99249000D01*
X79275562Y-99253181D01*
G37*
G36*
X88600562Y-98578181D02*
G01*
X88635481Y-98588774D01*
X88667663Y-98605976D01*
X88695873Y-98629127D01*
X88719024Y-98657337D01*
X88736226Y-98689519D01*
X88746819Y-98724438D01*
X88751000Y-98766895D01*
X88751000Y-100233105D01*
X88746819Y-100275562D01*
X88736226Y-100310481D01*
X88719024Y-100342663D01*
X88695873Y-100370873D01*
X88667663Y-100394024D01*
X88635481Y-100411226D01*
X88600562Y-100421819D01*
X88558105Y-100426000D01*
X87416895Y-100426000D01*
X87374438Y-100421819D01*
X87339519Y-100411226D01*
X87307337Y-100394024D01*
X87279127Y-100370873D01*
X87255976Y-100342663D01*
X87238774Y-100310481D01*
X87228181Y-100275562D01*
X87224000Y-100233105D01*
X87224000Y-98766895D01*
X87228181Y-98724438D01*
X87238774Y-98689519D01*
X87255976Y-98657337D01*
X87279127Y-98629127D01*
X87307337Y-98605976D01*
X87339519Y-98588774D01*
X87374438Y-98578181D01*
X87416895Y-98574000D01*
X88558105Y-98574000D01*
X88600562Y-98578181D01*
G37*
G36*
X85625562Y-98578181D02*
G01*
X85660481Y-98588774D01*
X85692663Y-98605976D01*
X85720873Y-98629127D01*
X85744024Y-98657337D01*
X85761226Y-98689519D01*
X85771819Y-98724438D01*
X85776000Y-98766895D01*
X85776000Y-100233105D01*
X85771819Y-100275562D01*
X85761226Y-100310481D01*
X85744024Y-100342663D01*
X85720873Y-100370873D01*
X85692663Y-100394024D01*
X85660481Y-100411226D01*
X85625562Y-100421819D01*
X85583105Y-100426000D01*
X84441895Y-100426000D01*
X84399438Y-100421819D01*
X84364519Y-100411226D01*
X84332337Y-100394024D01*
X84304127Y-100370873D01*
X84280976Y-100342663D01*
X84263774Y-100310481D01*
X84253181Y-100275562D01*
X84249000Y-100233105D01*
X84249000Y-98766895D01*
X84253181Y-98724438D01*
X84263774Y-98689519D01*
X84280976Y-98657337D01*
X84304127Y-98629127D01*
X84332337Y-98605976D01*
X84364519Y-98588774D01*
X84399438Y-98578181D01*
X84441895Y-98574000D01*
X85583105Y-98574000D01*
X85625562Y-98578181D01*
G37*
G36*
X128275562Y-98253181D02*
G01*
X128310481Y-98263774D01*
X128342663Y-98280976D01*
X128370873Y-98304127D01*
X128394024Y-98332337D01*
X128411226Y-98364519D01*
X128421819Y-98399438D01*
X128426000Y-98441895D01*
X128426000Y-99583105D01*
X128421819Y-99625562D01*
X128411226Y-99660481D01*
X128394024Y-99692663D01*
X128370873Y-99720873D01*
X128342663Y-99744024D01*
X128310481Y-99761226D01*
X128275562Y-99771819D01*
X128233105Y-99776000D01*
X126766895Y-99776000D01*
X126724438Y-99771819D01*
X126689519Y-99761226D01*
X126657337Y-99744024D01*
X126629127Y-99720873D01*
X126605976Y-99692663D01*
X126588774Y-99660481D01*
X126578181Y-99625562D01*
X126574000Y-99583105D01*
X126574000Y-98441895D01*
X126578181Y-98399438D01*
X126588774Y-98364519D01*
X126605976Y-98332337D01*
X126629127Y-98304127D01*
X126657337Y-98280976D01*
X126689519Y-98263774D01*
X126724438Y-98253181D01*
X126766895Y-98249000D01*
X128233105Y-98249000D01*
X128275562Y-98253181D01*
G37*
G36*
X76775562Y-96728181D02*
G01*
X76810481Y-96738774D01*
X76842663Y-96755976D01*
X76870873Y-96779127D01*
X76894024Y-96807337D01*
X76911226Y-96839519D01*
X76921819Y-96874438D01*
X76926000Y-96916895D01*
X76926000Y-98058105D01*
X76921819Y-98100562D01*
X76911226Y-98135481D01*
X76894024Y-98167663D01*
X76870873Y-98195873D01*
X76842663Y-98219024D01*
X76810481Y-98236226D01*
X76775562Y-98246819D01*
X76733105Y-98251000D01*
X75266895Y-98251000D01*
X75224438Y-98246819D01*
X75189519Y-98236226D01*
X75157337Y-98219024D01*
X75129127Y-98195873D01*
X75105976Y-98167663D01*
X75088774Y-98135481D01*
X75078181Y-98100562D01*
X75074000Y-98058105D01*
X75074000Y-96916895D01*
X75078181Y-96874438D01*
X75088774Y-96839519D01*
X75105976Y-96807337D01*
X75129127Y-96779127D01*
X75157337Y-96755976D01*
X75189519Y-96738774D01*
X75224438Y-96728181D01*
X75266895Y-96724000D01*
X76733105Y-96724000D01*
X76775562Y-96728181D01*
G37*
G36*
X81125562Y-95578181D02*
G01*
X81160481Y-95588774D01*
X81192663Y-95605976D01*
X81220873Y-95629127D01*
X81244024Y-95657337D01*
X81261226Y-95689519D01*
X81271819Y-95724438D01*
X81276000Y-95766895D01*
X81276000Y-97233105D01*
X81271819Y-97275562D01*
X81261226Y-97310481D01*
X81244024Y-97342663D01*
X81220873Y-97370873D01*
X81192663Y-97394024D01*
X81160481Y-97411226D01*
X81125562Y-97421819D01*
X81083105Y-97426000D01*
X79941895Y-97426000D01*
X79899438Y-97421819D01*
X79864519Y-97411226D01*
X79832337Y-97394024D01*
X79804127Y-97370873D01*
X79780976Y-97342663D01*
X79763774Y-97310481D01*
X79753181Y-97275562D01*
X79749000Y-97233105D01*
X79749000Y-95766895D01*
X79753181Y-95724438D01*
X79763774Y-95689519D01*
X79780976Y-95657337D01*
X79804127Y-95629127D01*
X79832337Y-95605976D01*
X79864519Y-95588774D01*
X79899438Y-95578181D01*
X79941895Y-95574000D01*
X81083105Y-95574000D01*
X81125562Y-95578181D01*
G37*
G36*
X84100562Y-95578181D02*
G01*
X84135481Y-95588774D01*
X84167663Y-95605976D01*
X84195873Y-95629127D01*
X84219024Y-95657337D01*
X84236226Y-95689519D01*
X84246819Y-95724438D01*
X84251000Y-95766895D01*
X84251000Y-97233105D01*
X84246819Y-97275562D01*
X84236226Y-97310481D01*
X84219024Y-97342663D01*
X84195873Y-97370873D01*
X84167663Y-97394024D01*
X84135481Y-97411226D01*
X84100562Y-97421819D01*
X84058105Y-97426000D01*
X82916895Y-97426000D01*
X82874438Y-97421819D01*
X82839519Y-97411226D01*
X82807337Y-97394024D01*
X82779127Y-97370873D01*
X82755976Y-97342663D01*
X82738774Y-97310481D01*
X82728181Y-97275562D01*
X82724000Y-97233105D01*
X82724000Y-95766895D01*
X82728181Y-95724438D01*
X82738774Y-95689519D01*
X82755976Y-95657337D01*
X82779127Y-95629127D01*
X82807337Y-95605976D01*
X82839519Y-95588774D01*
X82874438Y-95578181D01*
X82916895Y-95574000D01*
X84058105Y-95574000D01*
X84100562Y-95578181D01*
G37*
G36*
X94176000Y-96951000D02*
G01*
X91824000Y-96951000D01*
X91824000Y-95749000D01*
X94176000Y-95749000D01*
X94176000Y-96951000D01*
G37*
G36*
X131653512Y-93683927D02*
G01*
X131802812Y-93713624D01*
X131966784Y-93781544D01*
X132114354Y-93880147D01*
X132239853Y-94005646D01*
X132338456Y-94153216D01*
X132406376Y-94317188D01*
X132441000Y-94491259D01*
X132441000Y-94668741D01*
X132406376Y-94842812D01*
X132338456Y-95006784D01*
X132239853Y-95154354D01*
X132114354Y-95279853D01*
X131966784Y-95378456D01*
X131802812Y-95446376D01*
X131653512Y-95476073D01*
X131628742Y-95481000D01*
X131451258Y-95481000D01*
X131426488Y-95476073D01*
X131277188Y-95446376D01*
X131113216Y-95378456D01*
X130965646Y-95279853D01*
X130840147Y-95154354D01*
X130741544Y-95006784D01*
X130673624Y-94842812D01*
X130639000Y-94668741D01*
X130639000Y-94491259D01*
X130673624Y-94317188D01*
X130741544Y-94153216D01*
X130840147Y-94005646D01*
X130965646Y-93880147D01*
X131113216Y-93781544D01*
X131277188Y-93713624D01*
X131426488Y-93683927D01*
X131451258Y-93679000D01*
X131628742Y-93679000D01*
X131653512Y-93683927D01*
G37*
G36*
X129113512Y-93683927D02*
G01*
X129262812Y-93713624D01*
X129426784Y-93781544D01*
X129574354Y-93880147D01*
X129699853Y-94005646D01*
X129798456Y-94153216D01*
X129866376Y-94317188D01*
X129901000Y-94491259D01*
X129901000Y-94668741D01*
X129866376Y-94842812D01*
X129798456Y-95006784D01*
X129699853Y-95154354D01*
X129574354Y-95279853D01*
X129426784Y-95378456D01*
X129262812Y-95446376D01*
X129113512Y-95476073D01*
X129088742Y-95481000D01*
X128911258Y-95481000D01*
X128886488Y-95476073D01*
X128737188Y-95446376D01*
X128573216Y-95378456D01*
X128425646Y-95279853D01*
X128300147Y-95154354D01*
X128201544Y-95006784D01*
X128133624Y-94842812D01*
X128099000Y-94668741D01*
X128099000Y-94491259D01*
X128133624Y-94317188D01*
X128201544Y-94153216D01*
X128300147Y-94005646D01*
X128425646Y-93880147D01*
X128573216Y-93781544D01*
X128737188Y-93713624D01*
X128886488Y-93683927D01*
X128911258Y-93679000D01*
X129088742Y-93679000D01*
X129113512Y-93683927D01*
G37*
G36*
X76775562Y-93753181D02*
G01*
X76810481Y-93763774D01*
X76842663Y-93780976D01*
X76870873Y-93804127D01*
X76894024Y-93832337D01*
X76911226Y-93864519D01*
X76921819Y-93899438D01*
X76926000Y-93941895D01*
X76926000Y-95083105D01*
X76921819Y-95125562D01*
X76911226Y-95160481D01*
X76894024Y-95192663D01*
X76870873Y-95220873D01*
X76842663Y-95244024D01*
X76810481Y-95261226D01*
X76775562Y-95271819D01*
X76733105Y-95276000D01*
X75266895Y-95276000D01*
X75224438Y-95271819D01*
X75189519Y-95261226D01*
X75157337Y-95244024D01*
X75129127Y-95220873D01*
X75105976Y-95192663D01*
X75088774Y-95160481D01*
X75078181Y-95125562D01*
X75074000Y-95083105D01*
X75074000Y-93941895D01*
X75078181Y-93899438D01*
X75088774Y-93864519D01*
X75105976Y-93832337D01*
X75129127Y-93804127D01*
X75157337Y-93780976D01*
X75189519Y-93763774D01*
X75224438Y-93753181D01*
X75266895Y-93749000D01*
X76733105Y-93749000D01*
X76775562Y-93753181D01*
G37*
G36*
X99600562Y-91578181D02*
G01*
X99635481Y-91588774D01*
X99667663Y-91605976D01*
X99695873Y-91629127D01*
X99719024Y-91657337D01*
X99736226Y-91689519D01*
X99746819Y-91724438D01*
X99751000Y-91766895D01*
X99751000Y-93233105D01*
X99746819Y-93275562D01*
X99736226Y-93310481D01*
X99719024Y-93342663D01*
X99695873Y-93370873D01*
X99667663Y-93394024D01*
X99635481Y-93411226D01*
X99600562Y-93421819D01*
X99558105Y-93426000D01*
X98416895Y-93426000D01*
X98374438Y-93421819D01*
X98339519Y-93411226D01*
X98307337Y-93394024D01*
X98279127Y-93370873D01*
X98255976Y-93342663D01*
X98238774Y-93310481D01*
X98228181Y-93275562D01*
X98224000Y-93233105D01*
X98224000Y-91766895D01*
X98228181Y-91724438D01*
X98238774Y-91689519D01*
X98255976Y-91657337D01*
X98279127Y-91629127D01*
X98307337Y-91605976D01*
X98339519Y-91588774D01*
X98374438Y-91578181D01*
X98416895Y-91574000D01*
X99558105Y-91574000D01*
X99600562Y-91578181D01*
G37*
G36*
X86625562Y-91578181D02*
G01*
X86660481Y-91588774D01*
X86692663Y-91605976D01*
X86720873Y-91629127D01*
X86744024Y-91657337D01*
X86761226Y-91689519D01*
X86771819Y-91724438D01*
X86776000Y-91766895D01*
X86776000Y-93233105D01*
X86771819Y-93275562D01*
X86761226Y-93310481D01*
X86744024Y-93342663D01*
X86720873Y-93370873D01*
X86692663Y-93394024D01*
X86660481Y-93411226D01*
X86625562Y-93421819D01*
X86583105Y-93426000D01*
X85441895Y-93426000D01*
X85399438Y-93421819D01*
X85364519Y-93411226D01*
X85332337Y-93394024D01*
X85304127Y-93370873D01*
X85280976Y-93342663D01*
X85263774Y-93310481D01*
X85253181Y-93275562D01*
X85249000Y-93233105D01*
X85249000Y-91766895D01*
X85253181Y-91724438D01*
X85263774Y-91689519D01*
X85280976Y-91657337D01*
X85304127Y-91629127D01*
X85332337Y-91605976D01*
X85364519Y-91588774D01*
X85399438Y-91578181D01*
X85441895Y-91574000D01*
X86583105Y-91574000D01*
X86625562Y-91578181D01*
G37*
G36*
X89600562Y-91578181D02*
G01*
X89635481Y-91588774D01*
X89667663Y-91605976D01*
X89695873Y-91629127D01*
X89719024Y-91657337D01*
X89736226Y-91689519D01*
X89746819Y-91724438D01*
X89751000Y-91766895D01*
X89751000Y-93233105D01*
X89746819Y-93275562D01*
X89736226Y-93310481D01*
X89719024Y-93342663D01*
X89695873Y-93370873D01*
X89667663Y-93394024D01*
X89635481Y-93411226D01*
X89600562Y-93421819D01*
X89558105Y-93426000D01*
X88416895Y-93426000D01*
X88374438Y-93421819D01*
X88339519Y-93411226D01*
X88307337Y-93394024D01*
X88279127Y-93370873D01*
X88255976Y-93342663D01*
X88238774Y-93310481D01*
X88228181Y-93275562D01*
X88224000Y-93233105D01*
X88224000Y-91766895D01*
X88228181Y-91724438D01*
X88238774Y-91689519D01*
X88255976Y-91657337D01*
X88279127Y-91629127D01*
X88307337Y-91605976D01*
X88339519Y-91588774D01*
X88374438Y-91578181D01*
X88416895Y-91574000D01*
X89558105Y-91574000D01*
X89600562Y-91578181D01*
G37*
G36*
X96625562Y-91578181D02*
G01*
X96660481Y-91588774D01*
X96692663Y-91605976D01*
X96720873Y-91629127D01*
X96744024Y-91657337D01*
X96761226Y-91689519D01*
X96771819Y-91724438D01*
X96776000Y-91766895D01*
X96776000Y-93233105D01*
X96771819Y-93275562D01*
X96761226Y-93310481D01*
X96744024Y-93342663D01*
X96720873Y-93370873D01*
X96692663Y-93394024D01*
X96660481Y-93411226D01*
X96625562Y-93421819D01*
X96583105Y-93426000D01*
X95441895Y-93426000D01*
X95399438Y-93421819D01*
X95364519Y-93411226D01*
X95332337Y-93394024D01*
X95304127Y-93370873D01*
X95280976Y-93342663D01*
X95263774Y-93310481D01*
X95253181Y-93275562D01*
X95249000Y-93233105D01*
X95249000Y-91766895D01*
X95253181Y-91724438D01*
X95263774Y-91689519D01*
X95280976Y-91657337D01*
X95304127Y-91629127D01*
X95332337Y-91605976D01*
X95364519Y-91588774D01*
X95399438Y-91578181D01*
X95441895Y-91574000D01*
X96583105Y-91574000D01*
X96625562Y-91578181D01*
G37*
G36*
X131653512Y-91143927D02*
G01*
X131802812Y-91173624D01*
X131966784Y-91241544D01*
X132114354Y-91340147D01*
X132239853Y-91465646D01*
X132338456Y-91613216D01*
X132406376Y-91777188D01*
X132441000Y-91951259D01*
X132441000Y-92128741D01*
X132406376Y-92302812D01*
X132338456Y-92466784D01*
X132239853Y-92614354D01*
X132114354Y-92739853D01*
X131966784Y-92838456D01*
X131802812Y-92906376D01*
X131653512Y-92936073D01*
X131628742Y-92941000D01*
X131451258Y-92941000D01*
X131426488Y-92936073D01*
X131277188Y-92906376D01*
X131113216Y-92838456D01*
X130965646Y-92739853D01*
X130840147Y-92614354D01*
X130741544Y-92466784D01*
X130673624Y-92302812D01*
X130639000Y-92128741D01*
X130639000Y-91951259D01*
X130673624Y-91777188D01*
X130741544Y-91613216D01*
X130840147Y-91465646D01*
X130965646Y-91340147D01*
X131113216Y-91241544D01*
X131277188Y-91173624D01*
X131426488Y-91143927D01*
X131451258Y-91139000D01*
X131628742Y-91139000D01*
X131653512Y-91143927D01*
G37*
G36*
X129113512Y-91143927D02*
G01*
X129262812Y-91173624D01*
X129426784Y-91241544D01*
X129574354Y-91340147D01*
X129699853Y-91465646D01*
X129798456Y-91613216D01*
X129866376Y-91777188D01*
X129901000Y-91951259D01*
X129901000Y-92128741D01*
X129866376Y-92302812D01*
X129798456Y-92466784D01*
X129699853Y-92614354D01*
X129574354Y-92739853D01*
X129426784Y-92838456D01*
X129262812Y-92906376D01*
X129113512Y-92936073D01*
X129088742Y-92941000D01*
X128911258Y-92941000D01*
X128886488Y-92936073D01*
X128737188Y-92906376D01*
X128573216Y-92838456D01*
X128425646Y-92739853D01*
X128300147Y-92614354D01*
X128201544Y-92466784D01*
X128133624Y-92302812D01*
X128099000Y-92128741D01*
X128099000Y-91951259D01*
X128133624Y-91777188D01*
X128201544Y-91613216D01*
X128300147Y-91465646D01*
X128425646Y-91340147D01*
X128573216Y-91241544D01*
X128737188Y-91173624D01*
X128886488Y-91143927D01*
X128911258Y-91139000D01*
X129088742Y-91139000D01*
X129113512Y-91143927D01*
G37*
G36*
X82545562Y-91398181D02*
G01*
X82580481Y-91408774D01*
X82612663Y-91425976D01*
X82640873Y-91449127D01*
X82664024Y-91477337D01*
X82681226Y-91509519D01*
X82691819Y-91544438D01*
X82696000Y-91586895D01*
X82696000Y-92728105D01*
X82691819Y-92770562D01*
X82681226Y-92805481D01*
X82664024Y-92837663D01*
X82640873Y-92865873D01*
X82612663Y-92889024D01*
X82580481Y-92906226D01*
X82545562Y-92916819D01*
X82503105Y-92921000D01*
X81036895Y-92921000D01*
X80994438Y-92916819D01*
X80959519Y-92906226D01*
X80927337Y-92889024D01*
X80899127Y-92865873D01*
X80875976Y-92837663D01*
X80858774Y-92805481D01*
X80848181Y-92770562D01*
X80844000Y-92728105D01*
X80844000Y-91586895D01*
X80848181Y-91544438D01*
X80858774Y-91509519D01*
X80875976Y-91477337D01*
X80899127Y-91449127D01*
X80927337Y-91425976D01*
X80959519Y-91408774D01*
X80994438Y-91398181D01*
X81036895Y-91394000D01*
X82503105Y-91394000D01*
X82545562Y-91398181D01*
G37*
G36*
X129901000Y-90401000D02*
G01*
X128099000Y-90401000D01*
X128099000Y-88599000D01*
X129901000Y-88599000D01*
X129901000Y-90401000D01*
G37*
G36*
X131653512Y-88603927D02*
G01*
X131802812Y-88633624D01*
X131966784Y-88701544D01*
X132114354Y-88800147D01*
X132239853Y-88925646D01*
X132338456Y-89073216D01*
X132406376Y-89237188D01*
X132441000Y-89411259D01*
X132441000Y-89588741D01*
X132406376Y-89762812D01*
X132338456Y-89926784D01*
X132239853Y-90074354D01*
X132114354Y-90199853D01*
X131966784Y-90298456D01*
X131802812Y-90366376D01*
X131653512Y-90396073D01*
X131628742Y-90401000D01*
X131451258Y-90401000D01*
X131426488Y-90396073D01*
X131277188Y-90366376D01*
X131113216Y-90298456D01*
X130965646Y-90199853D01*
X130840147Y-90074354D01*
X130741544Y-89926784D01*
X130673624Y-89762812D01*
X130639000Y-89588741D01*
X130639000Y-89411259D01*
X130673624Y-89237188D01*
X130741544Y-89073216D01*
X130840147Y-88925646D01*
X130965646Y-88800147D01*
X131113216Y-88701544D01*
X131277188Y-88633624D01*
X131426488Y-88603927D01*
X131451258Y-88599000D01*
X131628742Y-88599000D01*
X131653512Y-88603927D01*
G37*
G36*
X82545562Y-88423181D02*
G01*
X82580481Y-88433774D01*
X82612663Y-88450976D01*
X82640873Y-88474127D01*
X82664024Y-88502337D01*
X82681226Y-88534519D01*
X82691819Y-88569438D01*
X82696000Y-88611895D01*
X82696000Y-89753105D01*
X82691819Y-89795562D01*
X82681226Y-89830481D01*
X82664024Y-89862663D01*
X82640873Y-89890873D01*
X82612663Y-89914024D01*
X82580481Y-89931226D01*
X82545562Y-89941819D01*
X82503105Y-89946000D01*
X81036895Y-89946000D01*
X80994438Y-89941819D01*
X80959519Y-89931226D01*
X80927337Y-89914024D01*
X80899127Y-89890873D01*
X80875976Y-89862663D01*
X80858774Y-89830481D01*
X80848181Y-89795562D01*
X80844000Y-89753105D01*
X80844000Y-88611895D01*
X80848181Y-88569438D01*
X80858774Y-88534519D01*
X80875976Y-88502337D01*
X80899127Y-88474127D01*
X80927337Y-88450976D01*
X80959519Y-88433774D01*
X80994438Y-88423181D01*
X81036895Y-88419000D01*
X82503105Y-88419000D01*
X82545562Y-88423181D01*
G37*
G36*
X121275562Y-88228181D02*
G01*
X121310481Y-88238774D01*
X121342663Y-88255976D01*
X121370873Y-88279127D01*
X121394024Y-88307337D01*
X121411226Y-88339519D01*
X121421819Y-88374438D01*
X121426000Y-88416895D01*
X121426000Y-89558105D01*
X121421819Y-89600562D01*
X121411226Y-89635481D01*
X121394024Y-89667663D01*
X121370873Y-89695873D01*
X121342663Y-89719024D01*
X121310481Y-89736226D01*
X121275562Y-89746819D01*
X121233105Y-89751000D01*
X119766895Y-89751000D01*
X119724438Y-89746819D01*
X119689519Y-89736226D01*
X119657337Y-89719024D01*
X119629127Y-89695873D01*
X119605976Y-89667663D01*
X119588774Y-89635481D01*
X119578181Y-89600562D01*
X119574000Y-89558105D01*
X119574000Y-88416895D01*
X119578181Y-88374438D01*
X119588774Y-88339519D01*
X119605976Y-88307337D01*
X119629127Y-88279127D01*
X119657337Y-88255976D01*
X119689519Y-88238774D01*
X119724438Y-88228181D01*
X119766895Y-88224000D01*
X121233105Y-88224000D01*
X121275562Y-88228181D01*
G37*
G36*
X94713512Y-86673927D02*
G01*
X94862812Y-86703624D01*
X95026784Y-86771544D01*
X95174354Y-86870147D01*
X95299853Y-86995646D01*
X95398456Y-87143216D01*
X95466376Y-87307188D01*
X95501000Y-87481259D01*
X95501000Y-87658741D01*
X95466376Y-87832812D01*
X95398456Y-87996784D01*
X95299853Y-88144354D01*
X95174354Y-88269853D01*
X95026784Y-88368456D01*
X94862812Y-88436376D01*
X94723189Y-88464148D01*
X94688742Y-88471000D01*
X94511258Y-88471000D01*
X94476811Y-88464148D01*
X94337188Y-88436376D01*
X94173216Y-88368456D01*
X94025646Y-88269853D01*
X93900147Y-88144354D01*
X93801544Y-87996784D01*
X93733624Y-87832812D01*
X93699000Y-87658741D01*
X93699000Y-87481259D01*
X93733624Y-87307188D01*
X93801544Y-87143216D01*
X93900147Y-86995646D01*
X94025646Y-86870147D01*
X94173216Y-86771544D01*
X94337188Y-86703624D01*
X94486488Y-86673927D01*
X94511258Y-86669000D01*
X94688742Y-86669000D01*
X94713512Y-86673927D01*
G37*
G36*
X92173512Y-86673927D02*
G01*
X92322812Y-86703624D01*
X92486784Y-86771544D01*
X92634354Y-86870147D01*
X92759853Y-86995646D01*
X92858456Y-87143216D01*
X92926376Y-87307188D01*
X92961000Y-87481259D01*
X92961000Y-87658741D01*
X92926376Y-87832812D01*
X92858456Y-87996784D01*
X92759853Y-88144354D01*
X92634354Y-88269853D01*
X92486784Y-88368456D01*
X92322812Y-88436376D01*
X92183189Y-88464148D01*
X92148742Y-88471000D01*
X91971258Y-88471000D01*
X91936811Y-88464148D01*
X91797188Y-88436376D01*
X91633216Y-88368456D01*
X91485646Y-88269853D01*
X91360147Y-88144354D01*
X91261544Y-87996784D01*
X91193624Y-87832812D01*
X91159000Y-87658741D01*
X91159000Y-87481259D01*
X91193624Y-87307188D01*
X91261544Y-87143216D01*
X91360147Y-86995646D01*
X91485646Y-86870147D01*
X91633216Y-86771544D01*
X91797188Y-86703624D01*
X91946488Y-86673927D01*
X91971258Y-86669000D01*
X92148742Y-86669000D01*
X92173512Y-86673927D01*
G37*
G36*
X89633512Y-86673927D02*
G01*
X89782812Y-86703624D01*
X89946784Y-86771544D01*
X90094354Y-86870147D01*
X90219853Y-86995646D01*
X90318456Y-87143216D01*
X90386376Y-87307188D01*
X90421000Y-87481259D01*
X90421000Y-87658741D01*
X90386376Y-87832812D01*
X90318456Y-87996784D01*
X90219853Y-88144354D01*
X90094354Y-88269853D01*
X89946784Y-88368456D01*
X89782812Y-88436376D01*
X89643189Y-88464148D01*
X89608742Y-88471000D01*
X89431258Y-88471000D01*
X89396811Y-88464148D01*
X89257188Y-88436376D01*
X89093216Y-88368456D01*
X88945646Y-88269853D01*
X88820147Y-88144354D01*
X88721544Y-87996784D01*
X88653624Y-87832812D01*
X88619000Y-87658741D01*
X88619000Y-87481259D01*
X88653624Y-87307188D01*
X88721544Y-87143216D01*
X88820147Y-86995646D01*
X88945646Y-86870147D01*
X89093216Y-86771544D01*
X89257188Y-86703624D01*
X89406488Y-86673927D01*
X89431258Y-86669000D01*
X89608742Y-86669000D01*
X89633512Y-86673927D01*
G37*
G36*
X87093512Y-86673927D02*
G01*
X87242812Y-86703624D01*
X87406784Y-86771544D01*
X87554354Y-86870147D01*
X87679853Y-86995646D01*
X87778456Y-87143216D01*
X87846376Y-87307188D01*
X87881000Y-87481259D01*
X87881000Y-87658741D01*
X87846376Y-87832812D01*
X87778456Y-87996784D01*
X87679853Y-88144354D01*
X87554354Y-88269853D01*
X87406784Y-88368456D01*
X87242812Y-88436376D01*
X87103189Y-88464148D01*
X87068742Y-88471000D01*
X86891258Y-88471000D01*
X86856811Y-88464148D01*
X86717188Y-88436376D01*
X86553216Y-88368456D01*
X86405646Y-88269853D01*
X86280147Y-88144354D01*
X86181544Y-87996784D01*
X86113624Y-87832812D01*
X86079000Y-87658741D01*
X86079000Y-87481259D01*
X86113624Y-87307188D01*
X86181544Y-87143216D01*
X86280147Y-86995646D01*
X86405646Y-86870147D01*
X86553216Y-86771544D01*
X86717188Y-86703624D01*
X86866488Y-86673927D01*
X86891258Y-86669000D01*
X87068742Y-86669000D01*
X87093512Y-86673927D01*
G37*
G36*
X84553512Y-86673927D02*
G01*
X84702812Y-86703624D01*
X84866784Y-86771544D01*
X85014354Y-86870147D01*
X85139853Y-86995646D01*
X85238456Y-87143216D01*
X85306376Y-87307188D01*
X85341000Y-87481259D01*
X85341000Y-87658741D01*
X85306376Y-87832812D01*
X85238456Y-87996784D01*
X85139853Y-88144354D01*
X85014354Y-88269853D01*
X84866784Y-88368456D01*
X84702812Y-88436376D01*
X84563189Y-88464148D01*
X84528742Y-88471000D01*
X84351258Y-88471000D01*
X84316811Y-88464148D01*
X84177188Y-88436376D01*
X84013216Y-88368456D01*
X83865646Y-88269853D01*
X83740147Y-88144354D01*
X83641544Y-87996784D01*
X83573624Y-87832812D01*
X83539000Y-87658741D01*
X83539000Y-87481259D01*
X83573624Y-87307188D01*
X83641544Y-87143216D01*
X83740147Y-86995646D01*
X83865646Y-86870147D01*
X84013216Y-86771544D01*
X84177188Y-86703624D01*
X84326488Y-86673927D01*
X84351258Y-86669000D01*
X84528742Y-86669000D01*
X84553512Y-86673927D01*
G37*
G36*
X115033512Y-86673927D02*
G01*
X115182812Y-86703624D01*
X115346784Y-86771544D01*
X115494354Y-86870147D01*
X115619853Y-86995646D01*
X115718456Y-87143216D01*
X115786376Y-87307188D01*
X115821000Y-87481259D01*
X115821000Y-87658741D01*
X115786376Y-87832812D01*
X115718456Y-87996784D01*
X115619853Y-88144354D01*
X115494354Y-88269853D01*
X115346784Y-88368456D01*
X115182812Y-88436376D01*
X115043189Y-88464148D01*
X115008742Y-88471000D01*
X114831258Y-88471000D01*
X114796811Y-88464148D01*
X114657188Y-88436376D01*
X114493216Y-88368456D01*
X114345646Y-88269853D01*
X114220147Y-88144354D01*
X114121544Y-87996784D01*
X114053624Y-87832812D01*
X114019000Y-87658741D01*
X114019000Y-87481259D01*
X114053624Y-87307188D01*
X114121544Y-87143216D01*
X114220147Y-86995646D01*
X114345646Y-86870147D01*
X114493216Y-86771544D01*
X114657188Y-86703624D01*
X114806488Y-86673927D01*
X114831258Y-86669000D01*
X115008742Y-86669000D01*
X115033512Y-86673927D01*
G37*
G36*
X109953512Y-86673927D02*
G01*
X110102812Y-86703624D01*
X110266784Y-86771544D01*
X110414354Y-86870147D01*
X110539853Y-86995646D01*
X110638456Y-87143216D01*
X110706376Y-87307188D01*
X110741000Y-87481259D01*
X110741000Y-87658741D01*
X110706376Y-87832812D01*
X110638456Y-87996784D01*
X110539853Y-88144354D01*
X110414354Y-88269853D01*
X110266784Y-88368456D01*
X110102812Y-88436376D01*
X109963189Y-88464148D01*
X109928742Y-88471000D01*
X109751258Y-88471000D01*
X109716811Y-88464148D01*
X109577188Y-88436376D01*
X109413216Y-88368456D01*
X109265646Y-88269853D01*
X109140147Y-88144354D01*
X109041544Y-87996784D01*
X108973624Y-87832812D01*
X108939000Y-87658741D01*
X108939000Y-87481259D01*
X108973624Y-87307188D01*
X109041544Y-87143216D01*
X109140147Y-86995646D01*
X109265646Y-86870147D01*
X109413216Y-86771544D01*
X109577188Y-86703624D01*
X109726488Y-86673927D01*
X109751258Y-86669000D01*
X109928742Y-86669000D01*
X109953512Y-86673927D01*
G37*
G36*
X104873512Y-86673927D02*
G01*
X105022812Y-86703624D01*
X105186784Y-86771544D01*
X105334354Y-86870147D01*
X105459853Y-86995646D01*
X105558456Y-87143216D01*
X105626376Y-87307188D01*
X105661000Y-87481259D01*
X105661000Y-87658741D01*
X105626376Y-87832812D01*
X105558456Y-87996784D01*
X105459853Y-88144354D01*
X105334354Y-88269853D01*
X105186784Y-88368456D01*
X105022812Y-88436376D01*
X104883189Y-88464148D01*
X104848742Y-88471000D01*
X104671258Y-88471000D01*
X104636811Y-88464148D01*
X104497188Y-88436376D01*
X104333216Y-88368456D01*
X104185646Y-88269853D01*
X104060147Y-88144354D01*
X103961544Y-87996784D01*
X103893624Y-87832812D01*
X103859000Y-87658741D01*
X103859000Y-87481259D01*
X103893624Y-87307188D01*
X103961544Y-87143216D01*
X104060147Y-86995646D01*
X104185646Y-86870147D01*
X104333216Y-86771544D01*
X104497188Y-86703624D01*
X104646488Y-86673927D01*
X104671258Y-86669000D01*
X104848742Y-86669000D01*
X104873512Y-86673927D01*
G37*
G36*
X102333512Y-86673927D02*
G01*
X102482812Y-86703624D01*
X102646784Y-86771544D01*
X102794354Y-86870147D01*
X102919853Y-86995646D01*
X103018456Y-87143216D01*
X103086376Y-87307188D01*
X103121000Y-87481259D01*
X103121000Y-87658741D01*
X103086376Y-87832812D01*
X103018456Y-87996784D01*
X102919853Y-88144354D01*
X102794354Y-88269853D01*
X102646784Y-88368456D01*
X102482812Y-88436376D01*
X102343189Y-88464148D01*
X102308742Y-88471000D01*
X102131258Y-88471000D01*
X102096811Y-88464148D01*
X101957188Y-88436376D01*
X101793216Y-88368456D01*
X101645646Y-88269853D01*
X101520147Y-88144354D01*
X101421544Y-87996784D01*
X101353624Y-87832812D01*
X101319000Y-87658741D01*
X101319000Y-87481259D01*
X101353624Y-87307188D01*
X101421544Y-87143216D01*
X101520147Y-86995646D01*
X101645646Y-86870147D01*
X101793216Y-86771544D01*
X101957188Y-86703624D01*
X102106488Y-86673927D01*
X102131258Y-86669000D01*
X102308742Y-86669000D01*
X102333512Y-86673927D01*
G37*
G36*
X99793512Y-86673927D02*
G01*
X99942812Y-86703624D01*
X100106784Y-86771544D01*
X100254354Y-86870147D01*
X100379853Y-86995646D01*
X100478456Y-87143216D01*
X100546376Y-87307188D01*
X100581000Y-87481259D01*
X100581000Y-87658741D01*
X100546376Y-87832812D01*
X100478456Y-87996784D01*
X100379853Y-88144354D01*
X100254354Y-88269853D01*
X100106784Y-88368456D01*
X99942812Y-88436376D01*
X99803189Y-88464148D01*
X99768742Y-88471000D01*
X99591258Y-88471000D01*
X99556811Y-88464148D01*
X99417188Y-88436376D01*
X99253216Y-88368456D01*
X99105646Y-88269853D01*
X98980147Y-88144354D01*
X98881544Y-87996784D01*
X98813624Y-87832812D01*
X98779000Y-87658741D01*
X98779000Y-87481259D01*
X98813624Y-87307188D01*
X98881544Y-87143216D01*
X98980147Y-86995646D01*
X99105646Y-86870147D01*
X99253216Y-86771544D01*
X99417188Y-86703624D01*
X99566488Y-86673927D01*
X99591258Y-86669000D01*
X99768742Y-86669000D01*
X99793512Y-86673927D01*
G37*
G36*
X107413512Y-86673927D02*
G01*
X107562812Y-86703624D01*
X107726784Y-86771544D01*
X107874354Y-86870147D01*
X107999853Y-86995646D01*
X108098456Y-87143216D01*
X108166376Y-87307188D01*
X108201000Y-87481259D01*
X108201000Y-87658741D01*
X108166376Y-87832812D01*
X108098456Y-87996784D01*
X107999853Y-88144354D01*
X107874354Y-88269853D01*
X107726784Y-88368456D01*
X107562812Y-88436376D01*
X107423189Y-88464148D01*
X107388742Y-88471000D01*
X107211258Y-88471000D01*
X107176811Y-88464148D01*
X107037188Y-88436376D01*
X106873216Y-88368456D01*
X106725646Y-88269853D01*
X106600147Y-88144354D01*
X106501544Y-87996784D01*
X106433624Y-87832812D01*
X106399000Y-87658741D01*
X106399000Y-87481259D01*
X106433624Y-87307188D01*
X106501544Y-87143216D01*
X106600147Y-86995646D01*
X106725646Y-86870147D01*
X106873216Y-86771544D01*
X107037188Y-86703624D01*
X107186488Y-86673927D01*
X107211258Y-86669000D01*
X107388742Y-86669000D01*
X107413512Y-86673927D01*
G37*
G36*
X97253512Y-86673927D02*
G01*
X97402812Y-86703624D01*
X97566784Y-86771544D01*
X97714354Y-86870147D01*
X97839853Y-86995646D01*
X97938456Y-87143216D01*
X98006376Y-87307188D01*
X98041000Y-87481259D01*
X98041000Y-87658741D01*
X98006376Y-87832812D01*
X97938456Y-87996784D01*
X97839853Y-88144354D01*
X97714354Y-88269853D01*
X97566784Y-88368456D01*
X97402812Y-88436376D01*
X97263189Y-88464148D01*
X97228742Y-88471000D01*
X97051258Y-88471000D01*
X97016811Y-88464148D01*
X96877188Y-88436376D01*
X96713216Y-88368456D01*
X96565646Y-88269853D01*
X96440147Y-88144354D01*
X96341544Y-87996784D01*
X96273624Y-87832812D01*
X96239000Y-87658741D01*
X96239000Y-87481259D01*
X96273624Y-87307188D01*
X96341544Y-87143216D01*
X96440147Y-86995646D01*
X96565646Y-86870147D01*
X96713216Y-86771544D01*
X96877188Y-86703624D01*
X97026488Y-86673927D01*
X97051258Y-86669000D01*
X97228742Y-86669000D01*
X97253512Y-86673927D01*
G37*
G36*
X112493512Y-86673927D02*
G01*
X112642812Y-86703624D01*
X112806784Y-86771544D01*
X112954354Y-86870147D01*
X113079853Y-86995646D01*
X113178456Y-87143216D01*
X113246376Y-87307188D01*
X113281000Y-87481259D01*
X113281000Y-87658741D01*
X113246376Y-87832812D01*
X113178456Y-87996784D01*
X113079853Y-88144354D01*
X112954354Y-88269853D01*
X112806784Y-88368456D01*
X112642812Y-88436376D01*
X112503189Y-88464148D01*
X112468742Y-88471000D01*
X112291258Y-88471000D01*
X112256811Y-88464148D01*
X112117188Y-88436376D01*
X111953216Y-88368456D01*
X111805646Y-88269853D01*
X111680147Y-88144354D01*
X111581544Y-87996784D01*
X111513624Y-87832812D01*
X111479000Y-87658741D01*
X111479000Y-87481259D01*
X111513624Y-87307188D01*
X111581544Y-87143216D01*
X111680147Y-86995646D01*
X111805646Y-86870147D01*
X111953216Y-86771544D01*
X112117188Y-86703624D01*
X112266488Y-86673927D01*
X112291258Y-86669000D01*
X112468742Y-86669000D01*
X112493512Y-86673927D01*
G37*
G36*
X121275562Y-85253181D02*
G01*
X121310481Y-85263774D01*
X121342663Y-85280976D01*
X121370873Y-85304127D01*
X121394024Y-85332337D01*
X121411226Y-85364519D01*
X121421819Y-85399438D01*
X121426000Y-85441895D01*
X121426000Y-86583105D01*
X121421819Y-86625562D01*
X121411226Y-86660481D01*
X121394024Y-86692663D01*
X121370873Y-86720873D01*
X121342663Y-86744024D01*
X121310481Y-86761226D01*
X121275562Y-86771819D01*
X121233105Y-86776000D01*
X119766895Y-86776000D01*
X119724438Y-86771819D01*
X119689519Y-86761226D01*
X119657337Y-86744024D01*
X119629127Y-86720873D01*
X119605976Y-86692663D01*
X119588774Y-86660481D01*
X119578181Y-86625562D01*
X119574000Y-86583105D01*
X119574000Y-85441895D01*
X119578181Y-85399438D01*
X119588774Y-85364519D01*
X119605976Y-85332337D01*
X119629127Y-85304127D01*
X119657337Y-85280976D01*
X119689519Y-85263774D01*
X119724438Y-85253181D01*
X119766895Y-85249000D01*
X121233105Y-85249000D01*
X121275562Y-85253181D01*
G37*
G36*
X82127618Y-81083420D02*
G01*
X82208400Y-81107925D01*
X82250336Y-81120646D01*
X82363425Y-81181094D01*
X82462554Y-81262446D01*
X82543906Y-81361575D01*
X82604354Y-81474664D01*
X82604355Y-81474668D01*
X82641580Y-81597382D01*
X82651000Y-81693027D01*
X82651000Y-82306973D01*
X82641580Y-82402618D01*
X82614040Y-82493404D01*
X82604354Y-82525336D01*
X82543906Y-82638425D01*
X82462554Y-82737553D01*
X82363424Y-82818906D01*
X82250335Y-82879354D01*
X82218403Y-82889040D01*
X82127617Y-82916580D01*
X82000000Y-82929149D01*
X81872382Y-82916580D01*
X81781596Y-82889040D01*
X81749664Y-82879354D01*
X81636575Y-82818906D01*
X81537447Y-82737554D01*
X81456094Y-82638424D01*
X81395646Y-82525335D01*
X81385960Y-82493403D01*
X81358420Y-82402617D01*
X81349000Y-82306972D01*
X81349000Y-81693027D01*
X81358420Y-81597382D01*
X81395645Y-81474668D01*
X81395645Y-81474667D01*
X81427957Y-81414217D01*
X81456095Y-81361574D01*
X81469493Y-81345249D01*
X81537447Y-81262446D01*
X81636576Y-81181094D01*
X81749665Y-81120646D01*
X81791601Y-81107925D01*
X81872383Y-81083420D01*
X82000000Y-81070851D01*
X82127618Y-81083420D01*
G37*
G36*
X123627618Y-81083420D02*
G01*
X123708400Y-81107925D01*
X123750336Y-81120646D01*
X123863425Y-81181094D01*
X123962554Y-81262446D01*
X124043906Y-81361575D01*
X124104354Y-81474664D01*
X124104355Y-81474668D01*
X124141580Y-81597382D01*
X124151000Y-81693027D01*
X124151000Y-82306973D01*
X124141580Y-82402618D01*
X124114040Y-82493404D01*
X124104354Y-82525336D01*
X124043906Y-82638425D01*
X123962554Y-82737553D01*
X123863424Y-82818906D01*
X123750335Y-82879354D01*
X123718403Y-82889040D01*
X123627617Y-82916580D01*
X123500000Y-82929149D01*
X123372382Y-82916580D01*
X123281596Y-82889040D01*
X123249664Y-82879354D01*
X123136575Y-82818906D01*
X123037447Y-82737554D01*
X122956094Y-82638424D01*
X122895646Y-82525335D01*
X122885960Y-82493403D01*
X122858420Y-82402617D01*
X122849000Y-82306972D01*
X122849000Y-81693027D01*
X122858420Y-81597382D01*
X122895645Y-81474668D01*
X122895645Y-81474667D01*
X122927957Y-81414217D01*
X122956095Y-81361574D01*
X122969493Y-81345249D01*
X123037447Y-81262446D01*
X123136576Y-81181094D01*
X123249665Y-81120646D01*
X123291601Y-81107925D01*
X123372383Y-81083420D01*
X123500000Y-81070851D01*
X123627618Y-81083420D01*
G37*
G36*
X101127618Y-81083420D02*
G01*
X101208400Y-81107925D01*
X101250336Y-81120646D01*
X101363425Y-81181094D01*
X101462554Y-81262446D01*
X101543906Y-81361575D01*
X101604354Y-81474664D01*
X101604355Y-81474668D01*
X101641580Y-81597382D01*
X101651000Y-81693027D01*
X101651000Y-82306973D01*
X101641580Y-82402618D01*
X101614040Y-82493404D01*
X101604354Y-82525336D01*
X101543906Y-82638425D01*
X101462554Y-82737553D01*
X101363424Y-82818906D01*
X101250335Y-82879354D01*
X101218403Y-82889040D01*
X101127617Y-82916580D01*
X101000000Y-82929149D01*
X100872382Y-82916580D01*
X100781596Y-82889040D01*
X100749664Y-82879354D01*
X100636575Y-82818906D01*
X100537447Y-82737554D01*
X100456094Y-82638424D01*
X100395646Y-82525335D01*
X100385960Y-82493403D01*
X100358420Y-82402617D01*
X100349000Y-82306972D01*
X100349000Y-81693027D01*
X100358420Y-81597382D01*
X100395645Y-81474668D01*
X100395645Y-81474667D01*
X100427957Y-81414217D01*
X100456095Y-81361574D01*
X100469493Y-81345249D01*
X100537447Y-81262446D01*
X100636576Y-81181094D01*
X100749665Y-81120646D01*
X100791601Y-81107925D01*
X100872383Y-81083420D01*
X101000000Y-81070851D01*
X101127618Y-81083420D01*
G37*
G36*
X99127618Y-81083420D02*
G01*
X99208400Y-81107925D01*
X99250336Y-81120646D01*
X99363425Y-81181094D01*
X99462554Y-81262446D01*
X99543906Y-81361575D01*
X99604354Y-81474664D01*
X99604355Y-81474668D01*
X99641580Y-81597382D01*
X99651000Y-81693027D01*
X99651000Y-82306973D01*
X99641580Y-82402618D01*
X99614040Y-82493404D01*
X99604354Y-82525336D01*
X99543906Y-82638425D01*
X99462554Y-82737553D01*
X99363424Y-82818906D01*
X99250335Y-82879354D01*
X99218403Y-82889040D01*
X99127617Y-82916580D01*
X99000000Y-82929149D01*
X98872382Y-82916580D01*
X98781596Y-82889040D01*
X98749664Y-82879354D01*
X98636575Y-82818906D01*
X98537447Y-82737554D01*
X98456094Y-82638424D01*
X98395646Y-82525335D01*
X98385960Y-82493403D01*
X98358420Y-82402617D01*
X98349000Y-82306972D01*
X98349000Y-81693027D01*
X98358420Y-81597382D01*
X98395645Y-81474668D01*
X98395645Y-81474667D01*
X98427957Y-81414217D01*
X98456095Y-81361574D01*
X98469493Y-81345249D01*
X98537447Y-81262446D01*
X98636576Y-81181094D01*
X98749665Y-81120646D01*
X98791601Y-81107925D01*
X98872383Y-81083420D01*
X99000000Y-81070851D01*
X99127618Y-81083420D01*
G37*
G36*
X114127618Y-81083420D02*
G01*
X114208400Y-81107925D01*
X114250336Y-81120646D01*
X114363425Y-81181094D01*
X114462554Y-81262446D01*
X114543906Y-81361575D01*
X114604354Y-81474664D01*
X114604355Y-81474668D01*
X114641580Y-81597382D01*
X114651000Y-81693027D01*
X114651000Y-82306973D01*
X114641580Y-82402618D01*
X114614040Y-82493404D01*
X114604354Y-82525336D01*
X114543906Y-82638425D01*
X114462554Y-82737553D01*
X114363424Y-82818906D01*
X114250335Y-82879354D01*
X114218403Y-82889040D01*
X114127617Y-82916580D01*
X114000000Y-82929149D01*
X113872382Y-82916580D01*
X113781596Y-82889040D01*
X113749664Y-82879354D01*
X113636575Y-82818906D01*
X113537447Y-82737554D01*
X113456094Y-82638424D01*
X113395646Y-82525335D01*
X113385960Y-82493403D01*
X113358420Y-82402617D01*
X113349000Y-82306972D01*
X113349000Y-81693027D01*
X113358420Y-81597382D01*
X113395645Y-81474668D01*
X113395645Y-81474667D01*
X113427957Y-81414217D01*
X113456095Y-81361574D01*
X113469493Y-81345249D01*
X113537447Y-81262446D01*
X113636576Y-81181094D01*
X113749665Y-81120646D01*
X113791601Y-81107925D01*
X113872383Y-81083420D01*
X114000000Y-81070851D01*
X114127618Y-81083420D01*
G37*
G36*
X86127618Y-81083420D02*
G01*
X86208400Y-81107925D01*
X86250336Y-81120646D01*
X86363425Y-81181094D01*
X86462554Y-81262446D01*
X86543906Y-81361575D01*
X86604354Y-81474664D01*
X86604355Y-81474668D01*
X86641580Y-81597382D01*
X86651000Y-81693027D01*
X86651000Y-82306973D01*
X86641580Y-82402618D01*
X86614040Y-82493404D01*
X86604354Y-82525336D01*
X86543906Y-82638425D01*
X86462554Y-82737553D01*
X86363424Y-82818906D01*
X86250335Y-82879354D01*
X86218403Y-82889040D01*
X86127617Y-82916580D01*
X86000000Y-82929149D01*
X85872382Y-82916580D01*
X85781596Y-82889040D01*
X85749664Y-82879354D01*
X85636575Y-82818906D01*
X85537447Y-82737554D01*
X85456094Y-82638424D01*
X85395646Y-82525335D01*
X85385960Y-82493403D01*
X85358420Y-82402617D01*
X85349000Y-82306972D01*
X85349000Y-81693027D01*
X85358420Y-81597382D01*
X85395645Y-81474668D01*
X85395645Y-81474667D01*
X85427957Y-81414217D01*
X85456095Y-81361574D01*
X85469493Y-81345249D01*
X85537447Y-81262446D01*
X85636576Y-81181094D01*
X85749665Y-81120646D01*
X85791601Y-81107925D01*
X85872383Y-81083420D01*
X86000000Y-81070851D01*
X86127618Y-81083420D01*
G37*
G36*
X84127618Y-81083420D02*
G01*
X84208400Y-81107925D01*
X84250336Y-81120646D01*
X84363425Y-81181094D01*
X84462554Y-81262446D01*
X84543906Y-81361575D01*
X84604354Y-81474664D01*
X84604355Y-81474668D01*
X84641580Y-81597382D01*
X84651000Y-81693027D01*
X84651000Y-82306973D01*
X84641580Y-82402618D01*
X84614040Y-82493404D01*
X84604354Y-82525336D01*
X84543906Y-82638425D01*
X84462554Y-82737553D01*
X84363424Y-82818906D01*
X84250335Y-82879354D01*
X84218403Y-82889040D01*
X84127617Y-82916580D01*
X84000000Y-82929149D01*
X83872382Y-82916580D01*
X83781596Y-82889040D01*
X83749664Y-82879354D01*
X83636575Y-82818906D01*
X83537447Y-82737554D01*
X83456094Y-82638424D01*
X83395646Y-82525335D01*
X83385960Y-82493403D01*
X83358420Y-82402617D01*
X83349000Y-82306972D01*
X83349000Y-81693027D01*
X83358420Y-81597382D01*
X83395645Y-81474668D01*
X83395645Y-81474667D01*
X83427957Y-81414217D01*
X83456095Y-81361574D01*
X83469493Y-81345249D01*
X83537447Y-81262446D01*
X83636576Y-81181094D01*
X83749665Y-81120646D01*
X83791601Y-81107925D01*
X83872383Y-81083420D01*
X84000000Y-81070851D01*
X84127618Y-81083420D01*
G37*
G36*
X125627618Y-81083420D02*
G01*
X125708400Y-81107925D01*
X125750336Y-81120646D01*
X125863425Y-81181094D01*
X125962554Y-81262446D01*
X126043906Y-81361575D01*
X126104354Y-81474664D01*
X126104355Y-81474668D01*
X126141580Y-81597382D01*
X126151000Y-81693027D01*
X126151000Y-82306973D01*
X126141580Y-82402618D01*
X126114040Y-82493404D01*
X126104354Y-82525336D01*
X126043906Y-82638425D01*
X125962554Y-82737553D01*
X125863424Y-82818906D01*
X125750335Y-82879354D01*
X125718403Y-82889040D01*
X125627617Y-82916580D01*
X125500000Y-82929149D01*
X125372382Y-82916580D01*
X125281596Y-82889040D01*
X125249664Y-82879354D01*
X125136575Y-82818906D01*
X125037447Y-82737554D01*
X124956094Y-82638424D01*
X124895646Y-82525335D01*
X124885960Y-82493403D01*
X124858420Y-82402617D01*
X124849000Y-82306972D01*
X124849000Y-81693027D01*
X124858420Y-81597382D01*
X124895645Y-81474668D01*
X124895645Y-81474667D01*
X124927957Y-81414217D01*
X124956095Y-81361574D01*
X124969493Y-81345249D01*
X125037447Y-81262446D01*
X125136576Y-81181094D01*
X125249665Y-81120646D01*
X125291601Y-81107925D01*
X125372383Y-81083420D01*
X125500000Y-81070851D01*
X125627618Y-81083420D01*
G37*
G36*
X97127618Y-81083420D02*
G01*
X97208400Y-81107925D01*
X97250336Y-81120646D01*
X97363425Y-81181094D01*
X97462554Y-81262446D01*
X97543906Y-81361575D01*
X97604354Y-81474664D01*
X97604355Y-81474668D01*
X97641580Y-81597382D01*
X97651000Y-81693027D01*
X97651000Y-82306973D01*
X97641580Y-82402618D01*
X97614040Y-82493404D01*
X97604354Y-82525336D01*
X97543906Y-82638425D01*
X97462554Y-82737553D01*
X97363424Y-82818906D01*
X97250335Y-82879354D01*
X97218403Y-82889040D01*
X97127617Y-82916580D01*
X97000000Y-82929149D01*
X96872382Y-82916580D01*
X96781596Y-82889040D01*
X96749664Y-82879354D01*
X96636575Y-82818906D01*
X96537447Y-82737554D01*
X96456094Y-82638424D01*
X96395646Y-82525335D01*
X96385960Y-82493403D01*
X96358420Y-82402617D01*
X96349000Y-82306972D01*
X96349000Y-81693027D01*
X96358420Y-81597382D01*
X96395645Y-81474668D01*
X96395645Y-81474667D01*
X96427957Y-81414217D01*
X96456095Y-81361574D01*
X96469493Y-81345249D01*
X96537447Y-81262446D01*
X96636576Y-81181094D01*
X96749665Y-81120646D01*
X96791601Y-81107925D01*
X96872383Y-81083420D01*
X97000000Y-81070851D01*
X97127618Y-81083420D01*
G37*
G36*
X112127618Y-81083420D02*
G01*
X112208400Y-81107925D01*
X112250336Y-81120646D01*
X112363425Y-81181094D01*
X112462554Y-81262446D01*
X112543906Y-81361575D01*
X112604354Y-81474664D01*
X112604355Y-81474668D01*
X112641580Y-81597382D01*
X112651000Y-81693027D01*
X112651000Y-82306973D01*
X112641580Y-82402618D01*
X112614040Y-82493404D01*
X112604354Y-82525336D01*
X112543906Y-82638425D01*
X112462554Y-82737553D01*
X112363424Y-82818906D01*
X112250335Y-82879354D01*
X112218403Y-82889040D01*
X112127617Y-82916580D01*
X112000000Y-82929149D01*
X111872382Y-82916580D01*
X111781596Y-82889040D01*
X111749664Y-82879354D01*
X111636575Y-82818906D01*
X111537447Y-82737554D01*
X111456094Y-82638424D01*
X111395646Y-82525335D01*
X111385960Y-82493403D01*
X111358420Y-82402617D01*
X111349000Y-82306972D01*
X111349000Y-81693027D01*
X111358420Y-81597382D01*
X111395645Y-81474668D01*
X111395645Y-81474667D01*
X111427957Y-81414217D01*
X111456095Y-81361574D01*
X111469493Y-81345249D01*
X111537447Y-81262446D01*
X111636576Y-81181094D01*
X111749665Y-81120646D01*
X111791601Y-81107925D01*
X111872383Y-81083420D01*
X112000000Y-81070851D01*
X112127618Y-81083420D01*
G37*
G36*
X127991242Y-81078404D02*
G01*
X128028337Y-81089657D01*
X128062515Y-81107925D01*
X128092481Y-81132519D01*
X128117075Y-81162485D01*
X128135343Y-81196663D01*
X128146596Y-81233758D01*
X128151000Y-81278474D01*
X128151000Y-82721526D01*
X128146596Y-82766242D01*
X128135343Y-82803337D01*
X128117075Y-82837515D01*
X128092481Y-82867481D01*
X128062515Y-82892075D01*
X128028337Y-82910343D01*
X127991242Y-82921596D01*
X127946526Y-82926000D01*
X127053474Y-82926000D01*
X127008758Y-82921596D01*
X126971663Y-82910343D01*
X126937485Y-82892075D01*
X126907519Y-82867481D01*
X126882925Y-82837515D01*
X126864657Y-82803337D01*
X126853404Y-82766242D01*
X126849000Y-82721526D01*
X126849000Y-81278474D01*
X126853404Y-81233758D01*
X126864657Y-81196663D01*
X126882925Y-81162485D01*
X126907519Y-81132519D01*
X126937485Y-81107925D01*
X126971663Y-81089657D01*
X127008758Y-81078404D01*
X127053474Y-81074000D01*
X127946526Y-81074000D01*
X127991242Y-81078404D01*
G37*
G36*
X116491242Y-81078404D02*
G01*
X116528337Y-81089657D01*
X116562515Y-81107925D01*
X116592481Y-81132519D01*
X116617075Y-81162485D01*
X116635343Y-81196663D01*
X116646596Y-81233758D01*
X116651000Y-81278474D01*
X116651000Y-82721526D01*
X116646596Y-82766242D01*
X116635343Y-82803337D01*
X116617075Y-82837515D01*
X116592481Y-82867481D01*
X116562515Y-82892075D01*
X116528337Y-82910343D01*
X116491242Y-82921596D01*
X116446526Y-82926000D01*
X115553474Y-82926000D01*
X115508758Y-82921596D01*
X115471663Y-82910343D01*
X115437485Y-82892075D01*
X115407519Y-82867481D01*
X115382925Y-82837515D01*
X115364657Y-82803337D01*
X115353404Y-82766242D01*
X115349000Y-82721526D01*
X115349000Y-81278474D01*
X115353404Y-81233758D01*
X115364657Y-81196663D01*
X115382925Y-81162485D01*
X115407519Y-81132519D01*
X115437485Y-81107925D01*
X115471663Y-81089657D01*
X115508758Y-81078404D01*
X115553474Y-81074000D01*
X116446526Y-81074000D01*
X116491242Y-81078404D01*
G37*
G36*
X103491242Y-81078404D02*
G01*
X103528337Y-81089657D01*
X103562515Y-81107925D01*
X103592481Y-81132519D01*
X103617075Y-81162485D01*
X103635343Y-81196663D01*
X103646596Y-81233758D01*
X103651000Y-81278474D01*
X103651000Y-82721526D01*
X103646596Y-82766242D01*
X103635343Y-82803337D01*
X103617075Y-82837515D01*
X103592481Y-82867481D01*
X103562515Y-82892075D01*
X103528337Y-82910343D01*
X103491242Y-82921596D01*
X103446526Y-82926000D01*
X102553474Y-82926000D01*
X102508758Y-82921596D01*
X102471663Y-82910343D01*
X102437485Y-82892075D01*
X102407519Y-82867481D01*
X102382925Y-82837515D01*
X102364657Y-82803337D01*
X102353404Y-82766242D01*
X102349000Y-82721526D01*
X102349000Y-81278474D01*
X102353404Y-81233758D01*
X102364657Y-81196663D01*
X102382925Y-81162485D01*
X102407519Y-81132519D01*
X102437485Y-81107925D01*
X102471663Y-81089657D01*
X102508758Y-81078404D01*
X102553474Y-81074000D01*
X103446526Y-81074000D01*
X103491242Y-81078404D01*
G37*
G36*
X88491242Y-81078404D02*
G01*
X88528337Y-81089657D01*
X88562515Y-81107925D01*
X88592481Y-81132519D01*
X88617075Y-81162485D01*
X88635343Y-81196663D01*
X88646596Y-81233758D01*
X88651000Y-81278474D01*
X88651000Y-82721526D01*
X88646596Y-82766242D01*
X88635343Y-82803337D01*
X88617075Y-82837515D01*
X88592481Y-82867481D01*
X88562515Y-82892075D01*
X88528337Y-82910343D01*
X88491242Y-82921596D01*
X88446526Y-82926000D01*
X87553474Y-82926000D01*
X87508758Y-82921596D01*
X87471663Y-82910343D01*
X87437485Y-82892075D01*
X87407519Y-82867481D01*
X87382925Y-82837515D01*
X87364657Y-82803337D01*
X87353404Y-82766242D01*
X87349000Y-82721526D01*
X87349000Y-81278474D01*
X87353404Y-81233758D01*
X87364657Y-81196663D01*
X87382925Y-81162485D01*
X87407519Y-81132519D01*
X87437485Y-81107925D01*
X87471663Y-81089657D01*
X87508758Y-81078404D01*
X87553474Y-81074000D01*
X88446526Y-81074000D01*
X88491242Y-81078404D01*
G37*
M02*
